<svg id="Layer_1" data-name="Layer 1" xmlns="http://www.w3.org/2000/svg" viewBox="0 0 153.55 115.16"><defs><style>.cls-1{fill:#fff;}</style></defs><title>car</title><path class="cls-1" d="M150,33.59H132l-5-12.48A33.42,33.42,0,0,0,95.82,0H57.73A33.44,33.44,0,0,0,26.54,21.11l-5,12.48H3.6A3.6,3.6,0,0,0,.11,38.06l1.8,7.2A3.59,3.59,0,0,0,5.4,48h6A19.07,19.07,0,0,0,4.8,62.38v14.4A19,19,0,0,0,9.6,89.35v16.22a9.59,9.59,0,0,0,9.59,9.59h9.6a9.59,9.59,0,0,0,9.6-9.59V96h76.77v9.6a9.59,9.59,0,0,0,9.6,9.59h9.6a9.59,9.59,0,0,0,9.59-9.59V89.35a19,19,0,0,0,4.8-12.57V62.38A19.07,19.07,0,0,0,142.13,48h6a3.59,3.59,0,0,0,3.49-2.72l1.8-7.2A3.6,3.6,0,0,0,150,33.59ZM44.36,28.24a14.41,14.41,0,0,1,13.37-9H95.82a14.41,14.41,0,0,1,13.37,9l6,15H38.39ZM28.79,76.72c-5.76,0-9.6-3.83-9.6-9.57s3.84-9.57,9.6-9.57,14.4,8.61,14.4,14.35-8.64,4.79-14.4,4.79Zm96,0c-5.76,0-14.4,1-14.4-4.79s8.64-14.35,14.4-14.35,9.6,3.83,9.6,9.57S130.52,76.72,124.76,76.72Z"/></svg>