




<svg width="16" height="14" viewBox="0 0 16 14" fill="#010913" xmlns="http://www.w3.org/2000/svg">
<path d="M16 12.0259C15.9335 12.2871 15.8501 12.5383 15.6595 12.7461C15.4399 12.9859 15.1738 13.1746 14.8482 13.1853C14.096 13.2097 13.3422 13.1929 12.6248 13.1929C12.6334 12.7434 12.6483 12.2844 12.6499 11.8254C12.6538 10.7 12.6499 9.57607 12.6518 8.44873C12.6518 8.02936 12.6217 7.61838 12.4804 7.21998C12.4742 7.18946 12.4708 7.15845 12.4702 7.12734C13.1355 7.16546 13.8048 7.03393 14.4431 7.26306C15.3041 7.57263 15.8172 8.17805 15.973 9.06482C15.9796 9.08876 15.9887 9.112 16 9.1342V12.0259Z" fill="#010913"/>
<path d="M7.99998 13.2158H4.82988C4.44634 13.2158 4.27922 13.0526 4.27922 12.679C4.27922 11.2036 4.27609 9.72781 4.27922 8.25201C4.28196 7.14641 4.99347 6.26955 6.09166 6.01945C6.25878 5.98397 6.4294 5.96658 6.60044 5.9676C7.5319 5.96264 8.46414 5.95997 9.39561 5.9676C10.5134 5.97561 11.4092 6.67137 11.6605 7.72628C11.7003 7.90395 11.7196 8.08541 11.718 8.26726C11.7227 9.74318 11.7235 11.219 11.7203 12.6946C11.7203 13.0477 11.5478 13.2154 11.185 13.2158C10.1238 13.2166 9.06216 13.2166 7.99998 13.2158Z" fill="#010913"/>
<path d="M8.00469 0C9.52595 0.00304995 10.776 1.21426 10.7783 2.68777C10.7777 3.4061 10.4858 4.09511 9.96622 4.60479C9.44659 5.11447 8.7413 5.40355 8.00391 5.40908C6.4803 5.41747 5.20992 4.17042 5.22244 2.67938C5.23109 1.96603 5.528 1.28475 6.0488 0.783198C6.56961 0.281649 7.27235 0.000251166 8.00469 0Z" fill="#010913"/>
<path d="M3.3877 13.2162C2.88714 13.2162 2.3674 13.2211 1.84727 13.2139C1.578 13.2105 1.29935 13.2246 1.04104 13.1624C0.392936 13.0065 0.00469644 12.4838 0.00156548 11.8163C-0.00195685 11.0298 0.00156548 10.2436 0.00156548 9.45751C0.0039137 8.13841 0.972556 7.16738 2.32591 7.13192C2.72472 7.12201 3.12392 7.13192 3.54307 7.13192C3.50785 7.25354 3.4648 7.35266 3.45149 7.4556C3.41236 7.74115 3.35717 8.02746 3.35483 8.31492C3.34465 9.64355 3.34817 10.9726 3.35209 12.3016C3.35209 12.5993 3.37439 12.8967 3.3877 13.2162Z" fill="#010913"/>
<path d="M5.19701 4.549C5.18371 5.66719 4.24442 6.5776 3.11531 6.56654C1.96664 6.5551 1.03753 5.64279 1.04614 4.53566C1.04752 4.26887 1.10305 4.00499 1.20955 3.7592C1.31604 3.51342 1.4714 3.29058 1.66666 3.10351C1.86193 2.91645 2.09326 2.76886 2.34732 2.66925C2.60138 2.56963 2.87316 2.51995 3.14702 2.52307C4.28864 2.53718 5.20993 3.44721 5.19701 4.549Z" fill="#010913"/>
<path d="M14.9547 4.53833C14.9594 5.64812 14.0287 6.55892 12.8804 6.56654C11.7486 6.57378 10.8124 5.66376 10.8018 4.54595C10.7917 3.43729 11.7247 2.52536 12.8718 2.52307C13.4223 2.52145 13.9509 2.73282 14.3415 3.11071C14.732 3.4886 14.9526 4.00209 14.9547 4.53833Z" fill="#010913"/>
</svg>
