


<svg width="16" height="16" viewBox="0 0 16 16" fill="none" xmlns="http://www.w3.org/2000/svg">
<path d="M7.49985 0H8.49727C8.54215 0.00926256 8.58703 0.020663 8.63263 0.0270755C8.94183 0.0698258 9.25388 0.0983258 9.5588 0.156039C13.8064 0.992519 16.6205 5.09512 15.8782 9.36088C15.5697 11.1572 14.6565 12.7941 13.2901 14.0001C11.9236 15.2061 10.186 15.9087 8.36546 15.9915C6.3806 16.0777 4.58953 15.5084 3.03356 14.2679C1.44838 13.0046 0.468769 11.3652 0.112548 9.36445C0.0619651 9.07944 0.0320431 8.78874 -0.00714111 8.50089V7.50339C0.015657 7.31315 0.0356053 7.1222 0.064103 6.93338C0.27251 5.33757 0.965564 3.84415 2.04968 2.65479C3.28576 1.29106 4.81252 0.438902 6.63138 0.123975C6.92277 0.0712498 7.21202 0.0399003 7.49985 0ZM3.84716 9.79979L6.19822 12.1511C6.20249 12.0891 6.2089 12.0242 6.21104 11.9594C6.22814 11.559 6.24025 11.1578 6.26519 10.7581C6.27146 10.678 6.30518 10.6025 6.36066 10.5444C7.00185 9.9316 7.64305 9.32526 8.28781 8.71678L8.47233 8.54293L10.6097 12.0207C10.8113 11.8155 10.9908 11.6274 11.1796 11.4464C11.2087 11.4218 11.2295 11.3888 11.2392 11.352C11.2489 11.3151 11.247 11.2762 11.2338 11.2405C10.8882 9.8632 10.5491 8.48522 10.2043 7.10795C10.1852 7.05817 10.1826 7.00357 10.197 6.95223C10.2114 6.9009 10.2419 6.85556 10.2841 6.82294C10.8106 6.33417 11.3314 5.83897 11.8514 5.34378C12.2134 4.99822 12.2383 4.47667 11.9148 4.12683C11.8359 4.0415 11.7402 3.97341 11.6338 3.92685C11.5273 3.88028 11.4123 3.85625 11.2961 3.85625C11.1799 3.85625 11.0649 3.88028 10.9584 3.92685C10.8519 3.97341 10.7562 4.0415 10.6773 4.12683C10.1611 4.66691 9.64833 5.2096 9.13918 5.7549C9.11151 5.79126 9.07292 5.8178 9.02907 5.83062C8.98522 5.84344 8.93841 5.84188 8.89552 5.82615C7.52146 5.47322 6.14573 5.12433 4.76835 4.77948C4.71777 4.76666 4.64011 4.75454 4.61161 4.77948C4.39788 4.97756 4.20125 5.18561 3.98965 5.39865L7.44713 7.53189C7.41008 7.57321 7.38728 7.60314 7.36306 7.62736C6.84369 8.17599 6.30366 8.70609 5.8135 9.27966C5.51499 9.6295 5.19653 9.80477 4.73273 9.76559C4.44134 9.73922 4.14425 9.78554 3.84716 9.79979Z" fill="#010913"/>
</svg>
