



<svg width="16" height="16" viewBox="0 0 16 16" fill="none" xmlns="http://www.w3.org/2000/svg">
<path d="M15.6562 16H0.34375C0.192658 15.9289 0.0710923 15.8073 0 15.6562V4.09375C0.0570833 4.09167 0.114166 4.08833 0.171249 4.08833H15.8288C15.8858 4.08833 15.9429 4.09167 16 4.09375V15.6562C15.9287 15.8072 15.8072 15.9287 15.6562 16ZM10.2333 10.065C10.245 9.1 9.46208 8.29167 8.50208 8.2775C8.26998 8.27122 8.03897 8.31144 7.82265 8.3958C7.60633 8.48016 7.40908 8.60695 7.24251 8.76871C7.07594 8.93046 6.94342 9.12391 6.85276 9.33766C6.76209 9.55142 6.71511 9.78115 6.71458 10.0133C6.70333 11.0046 7.4575 11.7967 8.42708 11.8112C8.89791 11.8183 9.35233 11.6385 9.69086 11.3112C10.0294 10.9839 10.2245 10.5358 10.2333 10.065ZM3.94458 9.81958C3.955 9.79417 3.96208 9.775 3.97042 9.75625C4.29667 9.03208 3.82292 8.28667 3.03125 8.27917C2.78653 8.27694 2.54208 8.27694 2.29792 8.27917C2.02375 8.28167 1.87167 8.43 1.87083 8.70375C1.86917 9.59847 1.86917 10.4931 1.87083 11.3875C1.87083 11.6504 2.02583 11.8042 2.2875 11.8087C2.59417 11.8121 2.90125 11.8138 3.20792 11.8054C3.37508 11.8038 3.53979 11.765 3.69006 11.6918C3.84034 11.6186 3.97241 11.5128 4.07667 11.3821C4.375 11.02 4.48333 10.3517 3.94458 9.81958ZM13.2779 10.435C13.2583 10.5689 13.1996 10.694 13.1091 10.7945C13.0185 10.895 12.9003 10.9665 12.7692 11C12.2692 11.125 11.7275 10.7987 11.6025 10.2887C11.539 10.0392 11.5755 9.77468 11.7042 9.55166C11.833 9.32864 12.0438 9.16476 12.2917 9.095C12.5792 9.01792 12.845 9.07 13.1004 9.22C13.3558 9.37 13.6517 9.24833 13.7062 8.96667C13.7392 8.8 13.6587 8.64083 13.4679 8.53292C12.8187 8.16708 12.1663 8.17125 11.5542 8.59458C10.9421 9.01792 10.6883 9.63917 10.8225 10.3779C11.0275 11.5071 12.3083 12.1471 13.2892 11.6279C13.9658 11.2696 14.1604 10.4992 14.1225 9.97917C14.1083 9.79375 13.9429 9.65875 13.7421 9.655C13.4767 9.65 13.2112 9.65083 12.9454 9.655C12.6992 9.65792 12.5287 9.82167 12.5287 10.0462C12.5287 10.2708 12.7004 10.4292 12.9488 10.435C13.0583 10.4371 13.1667 10.435 13.2763 10.435H13.2779ZM5.65708 11.0279V10.8437C5.65708 10.1312 5.65708 9.41875 5.65708 8.70583C5.65708 8.45042 5.48625 8.27625 5.25792 8.28C5.02958 8.28375 4.875 8.45417 4.875 8.70542C4.87333 9.59431 4.87333 10.4832 4.875 11.3721C4.875 11.6396 5.01708 11.7925 5.28375 11.8004C5.59583 11.81 5.90875 11.8104 6.22 11.805C6.27233 11.8059 6.32431 11.7963 6.37287 11.7768C6.42143 11.7573 6.4656 11.7282 6.50276 11.6914C6.53992 11.6545 6.56933 11.6106 6.58925 11.5622C6.60917 11.5138 6.6192 11.4619 6.61875 11.4096C6.61583 11.19 6.45 11.0317 6.21167 11.0267C6.035 11.025 5.85833 11.0279 5.65542 11.0279H5.65708Z" fill="#010913"/>
<path d="M0 3.15625V0.34375C0.0708591 0.192494 0.192494 0.0708591 0.34375 0H15.6562C15.8073 0.0710923 15.9289 0.192658 16 0.34375V3.15625C15.9429 3.15417 15.8858 3.15083 15.8288 3.15083H0.171249C0.114166 3.15083 0.0570833 3.15417 0 3.15625ZM2.05375 2.03833C2.14589 2.03651 2.23542 2.00742 2.31103 1.95474C2.38665 1.90206 2.44496 1.82816 2.4786 1.74236C2.51224 1.65657 2.51969 1.56273 2.50003 1.47269C2.48037 1.38266 2.43447 1.30047 2.36812 1.23651C2.30178 1.17255 2.21796 1.12968 2.12727 1.11333C2.03658 1.09697 1.94307 1.10786 1.85856 1.14461C1.77405 1.18137 1.70233 1.24234 1.65246 1.31983C1.60258 1.39732 1.57679 1.48786 1.57833 1.58C1.5792 1.64139 1.59221 1.702 1.61662 1.75833C1.64103 1.81466 1.67635 1.86561 1.72055 1.90822C1.76475 1.95083 1.81695 1.98426 1.87414 2.0066C1.93133 2.02893 1.99237 2.03972 2.05375 2.03833ZM3.92 2.03833C4.01218 2.03817 4.10224 2.01068 4.17881 1.95935C4.25537 1.90802 4.315 1.83514 4.35016 1.74993C4.38533 1.66472 4.39444 1.571 4.37636 1.48061C4.35827 1.39022 4.3138 1.30722 4.24856 1.2421C4.18332 1.17698 4.10024 1.13266 4.00982 1.11473C3.9194 1.09681 3.8257 1.10609 3.74055 1.1414C3.6554 1.17672 3.58263 1.23648 3.53144 1.31314C3.48024 1.38979 3.45292 1.4799 3.45292 1.57208C3.45275 1.63343 3.46473 1.6942 3.48815 1.7509C3.51158 1.8076 3.54599 1.8591 3.5894 1.90244C3.63282 1.94578 3.68438 1.9801 3.74112 2.00342C3.79786 2.02674 3.85866 2.03861 3.92 2.03833ZM5.795 2.03833C5.88708 2.03833 5.97709 2.01104 6.05367 1.95991C6.13025 1.90878 6.18996 1.8361 6.22525 1.75105C6.26055 1.66601 6.26984 1.57241 6.25197 1.48208C6.2341 1.39175 6.18986 1.30875 6.12483 1.24355C6.05981 1.17835 5.97692 1.13389 5.88664 1.11577C5.79636 1.09766 5.70274 1.1067 5.6176 1.14177C5.53246 1.17683 5.45962 1.23635 5.40828 1.31279C5.35694 1.38923 5.32941 1.47917 5.32917 1.57125C5.32889 1.63252 5.34073 1.69325 5.364 1.74993C5.38728 1.80662 5.42152 1.85814 5.46477 1.90155C5.50802 1.94496 5.55942 1.97938 5.61603 2.00286C5.67263 2.02633 5.73331 2.03839 5.79458 2.03833H5.795Z" fill="#010913"/>
<path d="M15.6562 16C15.8072 15.9287 15.9287 15.8072 16 15.6562V16H15.6562Z" fill="white"/>
<path d="M7.49042 10.0375C7.48924 9.90837 7.5139 9.7803 7.56295 9.66084C7.612 9.54138 7.68445 9.43294 7.77603 9.34189C7.86762 9.25085 7.9765 9.17905 8.09625 9.13071C8.216 9.08237 8.34421 9.05847 8.47333 9.06042C8.73435 9.06191 8.98409 9.16703 9.1676 9.35265C9.35111 9.53827 9.45337 9.78919 9.45187 10.0502C9.45038 10.3112 9.34526 10.561 9.15964 10.7445C8.97402 10.928 8.7231 11.0302 8.46208 11.0288C8.33298 11.0282 8.20526 11.0021 8.08634 10.9518C7.96741 10.9016 7.85964 10.8282 7.76926 10.736C7.67888 10.6438 7.6077 10.5346 7.55984 10.4147C7.51197 10.2948 7.48838 10.1666 7.49042 10.0375Z" fill="#010913"/>
<path d="M2.65875 11.025V10.3275C2.84875 10.3275 3.03375 10.3175 3.21917 10.3304C3.26357 10.3317 3.30726 10.3419 3.34767 10.3604C3.38808 10.3788 3.42439 10.4052 3.45448 10.4379C3.48456 10.4705 3.50781 10.5089 3.52286 10.5507C3.5379 10.5925 3.54444 10.6369 3.54209 10.6812C3.54221 10.7709 3.50705 10.857 3.44421 10.9209C3.38136 10.9849 3.29589 11.0215 3.20625 11.0229C3.03084 11.0333 2.85417 11.025 2.65875 11.025Z" fill="#010913"/>
<path d="M2.6604 9.06125C2.80457 9.06125 2.93415 9.05625 3.06332 9.06125C3.09468 9.0614 3.12569 9.06783 3.15453 9.08015C3.18337 9.09248 3.20945 9.11045 3.23123 9.13301C3.25301 9.15557 3.27006 9.18227 3.28137 9.21152C3.29267 9.24077 3.29801 9.27199 3.29707 9.30333C3.2972 9.36396 3.27359 9.42223 3.23131 9.46568C3.18903 9.50913 3.13143 9.53431 3.07082 9.53583C2.97249 9.54375 2.87332 9.54 2.77415 9.54C2.73915 9.54 2.70373 9.535 2.6604 9.53167V9.06125Z" fill="#010913"/>
</svg>
