<svg width="219" height="146" viewBox="0 0 219 146" fill="none" xmlns="http://www.w3.org/2000/svg">
<path d="M25.6961 53.0973C25.6961 53.0973 42.5971 29.9271 77.2137 24.7499C111.83 19.5728 150.535 50.6445 166.072 62.3654C181.609 74.0862 211.653 84.5574 214.591 103.245C217.528 121.933 207.84 131.082 207.84 131.082H12.0568C12.0568 131.082 5.25611 99.7063 12.8744 79.2634C20.4927 58.8205 25.6961 53.0973 25.6961 53.0973Z" fill="#FB9E1B"/>
<path opacity="0.7" d="M25.6961 53.0973C25.6961 53.0973 42.5971 29.9271 77.2137 24.7499C111.83 19.5728 150.535 50.6445 166.072 62.3654C181.609 74.0862 211.653 84.5574 214.591 103.245C217.528 121.933 207.84 131.082 207.84 131.082H12.0568C12.0568 131.082 5.25611 99.7063 12.8744 79.2634C20.4927 58.8205 25.6961 53.0973 25.6961 53.0973Z" fill="white"/>
<path d="M207.72 12.74H172.788V131.088H207.72V12.74Z" fill="white" stroke="#263238" stroke-linecap="round" stroke-linejoin="round"/>
<path d="M207.72 85.448H172.788V131.088H207.72V85.448Z" fill="#FB9E1B" stroke="#263238" stroke-linecap="round" stroke-linejoin="round"/>
<path d="M192.326 115.504L173.626 96.8038V102.761L192.326 121.46V115.504Z" fill="#263238"/>
<path d="M207.072 130.25L202.406 125.583V130.25H207.072Z" fill="#263238"/>
<path d="M192.326 130.25V126.897L173.626 108.198V114.154L189.721 130.25H192.326Z" fill="#263238"/>
<path d="M192.326 104.11L174.491 86.2743H173.626V91.3668L192.326 110.066V104.11Z" fill="#263238"/>
<path d="M202.406 114.19V120.146L207.72 125.461V119.504L202.406 114.19Z" fill="#263238"/>
<path d="M184.284 130.25L173.626 119.592V125.545L178.327 130.25H184.284Z" fill="#263238"/>
<path d="M192.326 92.7158L185.884 86.2743H179.927L192.326 98.6726V92.7158Z" fill="#263238"/>
<path d="M202.406 102.796V108.752L207.72 114.067V108.11L202.406 102.796Z" fill="#263238"/>
<path d="M207.72 12.74H193.561V131.088H207.72V12.74Z" fill="white" stroke="#263238" stroke-linecap="round" stroke-linejoin="round"/>
<path d="M207.72 85.448H193.561V131.088H207.72V85.448Z" fill="#FB9E1B" stroke="#263238" stroke-linecap="round" stroke-linejoin="round"/>
<path d="M194.516 106.063V112.02L207.227 99.3092V93.3524L194.516 106.063Z" fill="#263238"/>
<path d="M194.516 128.848V131.088H198.236L207.227 122.097V116.14L194.516 128.848Z" fill="#263238"/>
<path d="M203.057 86.1283L194.516 94.6693V100.626L207.227 87.9154V86.1283H203.057Z" fill="#263238"/>
<path d="M194.516 117.457V123.411L207.227 110.703V104.746L194.516 117.457Z" fill="#263238"/>
<path d="M207.226 127.531L203.673 131.088H207.226V127.531Z" fill="#263238"/>
<path d="M101.149 22.8227V12.74" stroke="#263238" stroke-linecap="round" stroke-linejoin="round"/>
<path d="M94.0063 22.8227V12.74" stroke="black" stroke-miterlimit="10"/>
<path d="M86.864 22.8227V12.74" stroke="black" stroke-miterlimit="10"/>
<path d="M126.57 22.8227V12.74" stroke="#263238" stroke-linecap="round" stroke-linejoin="round"/>
<path d="M119.428 22.8227V12.74" stroke="black" stroke-miterlimit="10"/>
<path d="M112.286 22.8227V12.74" stroke="black" stroke-miterlimit="10"/>
<path d="M151.995 22.8227V12.74" stroke="#263238" stroke-linecap="round" stroke-linejoin="round"/>
<path d="M144.85 22.8227V12.74" stroke="black" stroke-miterlimit="10"/>
<path d="M137.707 22.8227V12.74" stroke="black" stroke-miterlimit="10"/>
<path d="M177.416 22.8227V12.74" stroke="#263238" stroke-linecap="round" stroke-linejoin="round"/>
<path d="M170.271 22.8227V12.74" stroke="black" stroke-miterlimit="10"/>
<path d="M163.129 22.8227V12.74" stroke="black" stroke-miterlimit="10"/>
<path d="M182.526 23.0563H161.391V26.8348H182.526V23.0563Z" fill="#263238" stroke="#263238" stroke-linecap="round" stroke-linejoin="round"/>
<path d="M182.526 24.3528H161.391V26.8348H182.526V24.3528Z" fill="white" stroke="#263238" stroke-linecap="round" stroke-linejoin="round"/>
<path d="M182.526 24.3528H167.923V26.8348H182.526V24.3528Z" fill="white" stroke="#263238" stroke-linecap="round" stroke-linejoin="round"/>
<path d="M156.162 23.0563H135.027V26.8348H156.162V23.0563Z" fill="#263238" stroke="#263238" stroke-linecap="round" stroke-linejoin="round"/>
<path d="M156.162 24.3528H135.027V26.8348H156.162V24.3528Z" fill="white" stroke="#263238" stroke-linecap="round" stroke-linejoin="round"/>
<path d="M156.162 24.3528H141.559V26.8348H156.162V24.3528Z" fill="white" stroke="#263238" stroke-linecap="round" stroke-linejoin="round"/>
<path d="M129.8 23.0563H108.665V26.8348H129.8V23.0563Z" fill="#263238" stroke="#263238" stroke-linecap="round" stroke-linejoin="round"/>
<path d="M129.8 24.3528H108.665V26.8348H129.8V24.3528Z" fill="white" stroke="#263238" stroke-linecap="round" stroke-linejoin="round"/>
<path d="M129.8 24.3528H115.197V26.8348H129.8V24.3528Z" fill="white" stroke="#263238" stroke-linecap="round" stroke-linejoin="round"/>
<path d="M103.435 23.0563H82.3003V26.8348H103.435V23.0563Z" fill="#263238" stroke="#263238" stroke-linecap="round" stroke-linejoin="round"/>
<path d="M103.435 24.3528H82.3003V26.8348H103.435V24.3528Z" fill="white" stroke="#263238" stroke-linecap="round" stroke-linejoin="round"/>
<path d="M103.435 24.3528H88.8323V26.8348H103.435V24.3528Z" fill="white" stroke="#263238" stroke-linecap="round" stroke-linejoin="round"/>
<path d="M182.249 18.8311H81.8213V20.513H182.249V18.8311Z" fill="#263238" stroke="#263238" stroke-linecap="round" stroke-linejoin="round"/>
<path d="M175.299 116.537H172.738L172.7 116.593C172.481 116.557 172.26 116.538 172.038 116.537C168.916 116.537 166.385 119.793 166.385 123.811C166.385 127.829 168.916 131.088 172.038 131.088C172.26 131.085 172.481 131.067 172.7 131.032L172.738 131.088H175.299C178.421 131.088 180.952 127.829 180.952 123.811C180.952 119.793 178.412 116.537 175.299 116.537Z" fill="#263238" stroke="#263238" stroke-linecap="round" stroke-linejoin="round"/>
<path d="M122.842 116.537H120.281L120.243 116.593C120.024 116.557 119.802 116.538 119.58 116.537C116.458 116.537 113.927 119.793 113.927 123.811C113.927 127.829 116.458 131.088 119.58 131.088C119.802 131.085 120.023 131.067 120.243 131.032L120.281 131.088H122.842C125.963 131.088 128.495 127.829 128.495 123.811C128.495 119.793 125.963 116.537 122.842 116.537Z" fill="#263238" stroke="#263238" stroke-linecap="round" stroke-linejoin="round"/>
<path d="M199.67 116.75H198.44L197.339 109.033C197.274 108.578 197.047 108.162 196.7 107.862C196.353 107.561 195.909 107.395 195.45 107.395H188.562L177.378 95.5249C176.778 94.888 176.054 94.3809 175.251 94.0349C174.447 93.6889 173.581 93.5112 172.706 93.513H143.08C142.44 93.5127 141.808 93.642 141.219 93.8929C140.631 94.1438 140.1 94.5112 139.658 94.973L88.7329 116.47V125.56H165.07L184.232 125.423L198.44 124.491V124.427H199.608C199.732 124.427 199.851 124.378 199.939 124.29C200.026 124.203 200.075 124.084 200.075 123.96V117.156C200.075 117.049 200.033 116.945 199.957 116.869C199.88 116.793 199.777 116.75 199.67 116.75Z" fill="#B2B2B2" stroke="#263238" stroke-linecap="round" stroke-linejoin="round"/>
<path d="M177.98 124.153V125.455L184.232 125.411L198.44 124.48V124.415H199.608C199.695 124.415 199.78 124.39 199.854 124.344C199.927 124.297 199.986 124.231 200.023 124.153H177.98Z" fill="#263238" stroke="#263238" stroke-linecap="round" stroke-linejoin="round"/>
<path d="M184.232 125.411C184.349 125.399 184.457 125.343 184.535 125.254C184.613 125.165 184.654 125.05 184.65 124.932C184.646 124.814 184.598 124.702 184.515 124.618C184.432 124.534 184.32 124.484 184.202 124.48H177.016L150.444 93.5276H143.08C142.44 93.5273 141.808 93.6566 141.219 93.9075C140.631 94.1584 140.1 94.5258 139.658 94.9876L88.7329 116.485V125.56H165.07L184.232 125.411Z" fill="#263238" stroke="#263238" stroke-linecap="round" stroke-linejoin="round"/>
<path d="M100.614 116.537H98.0536L96.3746 119.002C95.4518 120.436 94.9612 122.105 94.9612 123.811C94.9612 125.516 95.4518 127.186 96.3746 128.62L98.0536 131.088H100.614C103.739 131.088 106.27 127.829 106.27 123.811C106.27 119.793 103.739 116.537 100.614 116.537Z" fill="#263238" stroke="#263238" stroke-linecap="round" stroke-linejoin="round"/>
<path d="M97.3558 131.085C100.478 131.085 103.009 127.828 103.009 123.811C103.009 119.794 100.478 116.537 97.3558 116.537C94.2336 116.537 91.7026 119.794 91.7026 123.811C91.7026 127.828 94.2336 131.085 97.3558 131.085Z" fill="#636363" stroke="#263238" stroke-linecap="round" stroke-linejoin="round"/>
<path d="M97.3559 129.613C99.8475 129.613 101.867 127.015 101.867 123.811C101.867 120.607 99.8475 118.009 97.3559 118.009C94.8643 118.009 92.8445 120.607 92.8445 123.811C92.8445 127.015 94.8643 129.613 97.3559 129.613Z" fill="white" stroke="#263238" stroke-linecap="round" stroke-linejoin="round"/>
<path d="M98.3106 123.808C98.3106 124.485 97.8813 125.034 97.3557 125.034C96.8301 125.034 96.4038 124.485 96.4038 123.808C96.4038 123.131 96.8301 122.582 97.3557 122.582C97.8813 122.582 98.3106 123.133 98.3106 123.808Z" fill="white" stroke="#263238" stroke-linecap="round" stroke-linejoin="round"/>
<path d="M157.68 116.537H155.116L153.437 119.002C152.515 120.436 152.024 122.105 152.024 123.811C152.024 125.516 152.515 127.186 153.437 128.62L155.116 131.088H157.68C160.802 131.088 163.333 127.829 163.333 123.811C163.333 119.793 160.802 116.537 157.68 116.537Z" fill="#263238" stroke="#263238" stroke-linecap="round" stroke-linejoin="round"/>
<path d="M154.419 131.085C157.541 131.085 160.072 127.828 160.072 123.811C160.072 119.794 157.541 116.537 154.419 116.537C151.296 116.537 148.765 119.794 148.765 123.811C148.765 127.828 151.296 131.085 154.419 131.085Z" fill="#636363" stroke="#263238" stroke-linecap="round" stroke-linejoin="round"/>
<path d="M154.418 129.613C156.91 129.613 158.93 127.015 158.93 123.811C158.93 120.607 156.91 118.009 154.418 118.009C151.927 118.009 149.907 120.607 149.907 123.811C149.907 127.015 151.927 129.613 154.418 129.613Z" fill="white" stroke="#263238" stroke-linecap="round" stroke-linejoin="round"/>
<path d="M155.373 123.808C155.373 124.485 154.947 125.034 154.418 125.034C153.89 125.034 153.467 124.485 153.467 123.808C153.467 123.131 153.893 122.582 154.418 122.582C154.944 122.582 155.373 123.133 155.373 123.808Z" fill="white" stroke="#263238" stroke-linecap="round" stroke-linejoin="round"/>
<path d="M177.378 95.5249C177.285 95.4285 177.186 95.338 177.086 95.2475H153.989V106.659H187.861L177.378 95.5249Z" fill="#263238" stroke="#263238" stroke-linecap="round" stroke-linejoin="round"/>
<path d="M180.033 116.75H178.687L177.349 107.406H168.808L157.625 95.5367C157.024 94.9009 156.3 94.3945 155.496 94.0486C154.693 93.7026 153.827 93.5244 152.953 93.5248H125.744C125.105 93.5245 124.472 93.6537 123.884 93.9047C123.295 94.1556 122.764 94.523 122.322 94.9848L104.936 106.58L88.8527 113.521L86.3357 116.902C85.7163 117.733 85.3815 118.742 85.3809 119.779V125.56H90.4558V123.642C90.4558 118.949 93.8664 115.147 98.0741 115.147C101.823 115.147 104.154 118.187 104.738 122.316L105.196 125.56H147.586V123.642C147.586 118.949 149.51 115.147 154.681 115.147C159.292 115.147 160.942 118.187 161.66 122.316L162.2 125.423L178.687 124.491V124.427H180.033V116.75Z" fill="#B2B2B2" stroke="#263238" stroke-linecap="round" stroke-linejoin="round"/>
<path d="M122.468 96.6812L107.541 106.58H135.438V95.3818H125.56C124.984 95.3812 124.414 95.4959 123.883 95.719C123.352 95.9422 122.871 96.2693 122.468 96.6812Z" fill="#263238" stroke="#263238" stroke-linecap="round" stroke-linejoin="round"/>
<path d="M119.227 106.58L128.074 95.3701H125.56C124.984 95.3695 124.414 95.4842 123.883 95.7074C123.352 95.9305 122.87 96.2577 122.468 96.6695L117.244 100.156L112.16 106.58H119.227Z" fill="white" stroke="#263238" stroke-linecap="round" stroke-linejoin="round"/>
<path d="M135.438 106.592V98.5412L129.084 106.592H135.438Z" fill="white" stroke="#263238" stroke-linecap="round" stroke-linejoin="round"/>
<path d="M156.693 97.2068L163.038 103.698C163.25 103.913 163.4 104.182 163.473 104.475C163.536 104.726 163.541 104.988 163.488 105.242C163.434 105.495 163.323 105.733 163.164 105.937C163.005 106.141 162.801 106.306 162.568 106.42C162.335 106.533 162.08 106.592 161.821 106.592H137.307V95.3818H152.354C153.162 95.3816 153.963 95.543 154.708 95.8564C155.453 96.1698 156.128 96.6289 156.693 97.2068Z" fill="#263238" stroke="#263238" stroke-linecap="round" stroke-linejoin="round"/>
<path d="M150.748 95.3818H148.283L139.436 106.592H141.9L150.748 95.3818Z" fill="white" stroke="#263238" stroke-linecap="round" stroke-linejoin="round"/>
<path d="M137.307 96.1731V105.129L144.998 95.3818H137.932L137.307 96.1731Z" fill="white" stroke="#263238" stroke-linecap="round" stroke-linejoin="round"/>
<path d="M177.349 107.395H195.453C195.912 107.395 196.356 107.561 196.703 107.862C197.05 108.162 197.277 108.578 197.342 109.033L198.443 116.75H178.686L177.349 107.395Z" fill="#B2B2B2" stroke="#263238" stroke-linecap="round" stroke-linejoin="round"/>
<path d="M194.533 111.614H185.948V115.139H194.533V111.614Z" fill="white" stroke="#263238" stroke-linecap="round" stroke-linejoin="round"/>
<path d="M199.384 118.193H162.6" stroke="#263238" stroke-width="2" stroke-linecap="round" stroke-linejoin="round"/>
<path d="M146.164 118.193H105.403" stroke="#263238" stroke-width="2" stroke-linecap="round" stroke-linejoin="round"/>
<path d="M91.869 118.193H87.2029" stroke="#263238" stroke-width="2" stroke-linecap="round" stroke-linejoin="round"/>
<path d="M184.465 111.67H176.368C175.992 111.669 175.624 111.774 175.305 111.971C174.986 112.169 174.728 112.452 174.56 112.788L173.203 115.501C173.143 115.624 173.116 115.761 173.123 115.899C173.131 116.036 173.173 116.169 173.246 116.286C173.319 116.402 173.42 116.499 173.54 116.566C173.66 116.632 173.795 116.668 173.933 116.669H184.477L184.465 111.67Z" fill="#B2B2B2" stroke="#263238" stroke-linecap="round" stroke-linejoin="round"/>
<path d="M184.465 111.67H177.93L178.646 116.68H184.465V111.67Z" fill="#263238" stroke="#263238" stroke-linecap="round" stroke-linejoin="round"/>
<path d="M197.684 111.67H195.704L195.681 116.68H198.399L197.684 111.67Z" fill="#263238" stroke="#263238" stroke-linecap="round" stroke-linejoin="round"/>
<path d="M109.36 104.256H105.322C104.999 104.256 104.738 104.517 104.738 104.84V108.078C104.738 108.401 104.999 108.662 105.322 108.662H109.36C109.682 108.662 109.944 108.401 109.944 108.078V104.84C109.944 104.517 109.682 104.256 109.36 104.256Z" fill="#263238" stroke="#263238" stroke-linecap="round" stroke-linejoin="round"/>
<path d="M134.77 108.662H129.765V110.665H134.77V108.662Z" fill="#263238" stroke="#263238" stroke-linecap="round" stroke-linejoin="round"/>
<path d="M135.973 107.862V123.078" stroke="#263238" stroke-linecap="round" stroke-linejoin="round"/>
<path d="M102.133 114.668C102.133 114.668 105.8 116.739 106.27 123.811H145.182" stroke="#263238" stroke-linecap="round" stroke-linejoin="round"/>
<path d="M163.602 117.676C163.602 117.676 161.686 112.668 155.268 112.668C150.795 112.668 148.654 115.019 147.586 116.873" stroke="#263238" stroke-linecap="round" stroke-linejoin="round"/>
<path d="M117.34 116.537H114.779L114.741 116.593C114.523 116.556 114.302 116.538 114.081 116.537C110.957 116.537 108.428 119.793 108.428 123.811C108.428 127.829 110.957 131.088 114.081 131.088C114.302 131.085 114.523 131.067 114.741 131.032L114.779 131.088H117.34C120.462 131.088 122.993 127.829 122.993 123.811C122.993 119.793 120.462 116.537 117.34 116.537Z" fill="#263238" stroke="#263238" stroke-linecap="round" stroke-linejoin="round"/>
<path d="M64.8823 116.537H62.3215L62.2835 116.593C62.0654 116.556 61.8447 116.538 61.6236 116.537C58.4992 116.537 55.9705 119.793 55.9705 123.811C55.9705 127.829 58.4992 131.088 61.6236 131.088C61.8446 131.085 62.0652 131.067 62.2835 131.032L62.3215 131.088H64.8823C68.0038 131.088 70.5354 127.829 70.5354 123.811C70.5354 119.793 68.0038 116.537 64.8823 116.537Z" fill="#263238" stroke="#263238" stroke-linecap="round" stroke-linejoin="round"/>
<path d="M141.711 116.75H140.481L139.38 109.033C139.316 108.578 139.089 108.163 138.743 107.862C138.396 107.561 137.953 107.395 137.494 107.395H130.606L119.428 95.5249C118.827 94.8891 118.103 94.3828 117.3 94.0368C116.496 93.6909 115.631 93.5126 114.756 93.513H85.1092C84.4697 93.5124 83.8368 93.6415 83.2486 93.8924C82.6603 94.1434 82.1291 94.511 81.687 94.973L30.7622 116.47V125.56H107.111L126.275 125.423L140.481 124.491V124.427H141.649C141.773 124.426 141.891 124.377 141.978 124.289C142.065 124.202 142.113 124.083 142.113 123.96V117.156C142.113 117.049 142.071 116.946 141.996 116.87C141.92 116.794 141.818 116.751 141.711 116.75Z" fill="white" stroke="#263238" stroke-linecap="round" stroke-linejoin="round"/>
<path d="M120.012 124.153V125.455L126.267 125.411L140.472 124.48V124.415H141.64C141.727 124.414 141.811 124.389 141.884 124.343C141.957 124.296 142.015 124.231 142.052 124.153H120.012Z" fill="#263238" stroke="#263238" stroke-linecap="round" stroke-linejoin="round"/>
<path d="M126.275 125.411C126.393 125.399 126.501 125.342 126.579 125.253C126.656 125.164 126.697 125.048 126.693 124.93C126.689 124.812 126.64 124.7 126.557 124.617C126.473 124.533 126.361 124.484 126.243 124.48H119.06L92.4881 93.5276H85.1092C84.4697 93.527 83.8368 93.6561 83.2486 93.907C82.6603 94.158 82.1291 94.5256 81.687 94.9876L30.7622 116.485V125.56H107.111L126.275 125.411Z" fill="#263238" stroke="#263238" stroke-linecap="round" stroke-linejoin="round"/>
<path d="M42.6582 116.537H40.0973L38.4183 119.002C37.4955 120.436 37.0049 122.105 37.0049 123.811C37.0049 125.516 37.4955 127.186 38.4183 128.62L40.0973 131.088H42.6582C45.7796 131.088 48.3113 127.829 48.3113 123.811C48.3113 119.793 45.7796 116.537 42.6582 116.537Z" fill="#263238" stroke="#263238" stroke-linecap="round" stroke-linejoin="round"/>
<path d="M39.3995 131.085C42.5216 131.085 45.0526 127.828 45.0526 123.811C45.0526 119.794 42.5216 116.537 39.3995 116.537C36.2773 116.537 33.7463 119.794 33.7463 123.811C33.7463 127.828 36.2773 131.085 39.3995 131.085Z" fill="#636363" stroke="#263238" stroke-linecap="round" stroke-linejoin="round"/>
<path d="M39.3996 129.613C41.8912 129.613 43.911 127.015 43.911 123.811C43.911 120.607 41.8912 118.009 39.3996 118.009C36.908 118.009 34.8882 120.607 34.8882 123.811C34.8882 127.015 36.908 129.613 39.3996 129.613Z" fill="white" stroke="#263238" stroke-linecap="round" stroke-linejoin="round"/>
<path d="M40.3513 123.808C40.3513 124.485 39.925 125.034 39.3994 125.034C38.8738 125.034 38.4446 124.485 38.4446 123.808C38.4446 123.131 38.8709 122.582 39.3994 122.582C39.9279 122.582 40.3513 123.133 40.3513 123.808Z" fill="white" stroke="#263238" stroke-linecap="round" stroke-linejoin="round"/>
<path d="M99.7209 116.537H97.1601L95.484 119.002C94.5612 120.436 94.0706 122.105 94.0706 123.811C94.0706 125.516 94.5612 127.186 95.484 128.62L97.163 131.088H99.7238C102.845 131.088 105.377 127.829 105.377 123.811C105.377 119.793 102.842 116.537 99.7209 116.537Z" fill="#263238" stroke="#263238" stroke-linecap="round" stroke-linejoin="round"/>
<path d="M102.115 123.808C102.115 127.826 99.5837 131.085 96.4622 131.085C93.3407 131.085 90.812 127.829 90.812 123.808C90.812 119.787 93.3407 116.534 96.4651 116.534C99.5895 116.534 102.115 119.793 102.115 123.808Z" fill="#636363" stroke="#263238" stroke-linecap="round" stroke-linejoin="round"/>
<path d="M100.971 123.808C100.971 127.02 98.9528 129.613 96.4621 129.613C93.9713 129.613 91.9507 127.02 91.9507 123.808C91.9507 120.596 93.9713 118.006 96.4621 118.006C98.9528 118.006 100.971 120.596 100.971 123.808Z" fill="white" stroke="#263238" stroke-linecap="round" stroke-linejoin="round"/>
<path d="M97.4141 123.808C97.4141 124.485 96.9878 125.034 96.4622 125.034C95.9366 125.034 95.5073 124.485 95.5073 123.808C95.5073 123.131 95.9366 122.582 96.4622 122.582C96.9878 122.582 97.4141 123.133 97.4141 123.808Z" fill="white" stroke="#263238" stroke-linecap="round" stroke-linejoin="round"/>
<path d="M119.428 95.5249C119.335 95.4285 119.235 95.338 119.136 95.2475H96.0388V106.659H129.911L119.428 95.5249Z" fill="#263238" stroke="#263238" stroke-linecap="round" stroke-linejoin="round"/>
<path d="M122.073 116.75H120.727L119.393 107.406H110.849L99.6654 95.5366C99.0655 94.8998 98.3414 94.3927 97.5378 94.0467C96.7342 93.7006 95.8683 93.523 94.9934 93.5248H67.779C67.1391 93.5244 66.5057 93.6536 65.9171 93.9045C65.3284 94.1555 64.7967 94.5229 64.3538 94.9848L46.9798 106.58L30.8964 113.521L28.3794 116.902C27.76 117.733 27.4252 118.742 27.4246 119.778V125.56H32.4966V123.642C32.4966 118.949 35.9072 115.147 40.1149 115.147C43.8642 115.147 46.1943 118.187 46.7783 122.316L47.2397 125.56H89.6264V123.642C89.6264 118.949 91.5507 115.147 96.7249 115.147C101.336 115.147 102.982 118.187 103.701 122.316L104.244 125.411L120.727 124.48V124.415H122.073V116.75Z" fill="white" stroke="#263238" stroke-linecap="round" stroke-linejoin="round"/>
<path d="M64.5086 96.6812L49.5815 106.58H77.4792V95.3818H67.6009C67.0249 95.3817 66.4547 95.4966 65.9237 95.7197C65.3927 95.9429 64.9116 96.2697 64.5086 96.6812Z" fill="#263238" stroke="#263238" stroke-linecap="round" stroke-linejoin="round"/>
<path d="M61.2673 106.58L70.1149 95.3701H67.6008C67.0248 95.37 66.4546 95.4849 65.9237 95.708C65.3927 95.9312 64.9116 96.258 64.5085 96.6695L59.2759 100.156L54.2009 106.58H61.2673Z" fill="white" stroke="#263238" stroke-linecap="round" stroke-linejoin="round"/>
<path d="M77.4792 106.592V98.5412L71.1252 106.592H77.4792Z" fill="white" stroke="#263238" stroke-linecap="round" stroke-linejoin="round"/>
<path d="M98.7367 97.2068L105.082 103.698C105.293 103.914 105.443 104.182 105.517 104.475C105.579 104.726 105.584 104.988 105.53 105.242C105.476 105.495 105.365 105.733 105.205 105.937C105.046 106.141 104.842 106.306 104.609 106.419C104.376 106.533 104.12 106.592 103.861 106.592H79.3479V95.3818H94.3947C95.2035 95.3814 96.0042 95.5426 96.7499 95.856C97.4955 96.1694 98.171 96.6287 98.7367 97.2068Z" fill="#263238" stroke="#263238" stroke-linecap="round" stroke-linejoin="round"/>
<path d="M92.7916 95.3818H90.3271L81.4795 106.592H83.944L92.7916 95.3818Z" fill="white" stroke="#263238" stroke-linecap="round" stroke-linejoin="round"/>
<path d="M79.3479 96.1731V105.129L87.0392 95.3818H79.9728L79.3479 96.1731Z" fill="white" stroke="#263238" stroke-linecap="round" stroke-linejoin="round"/>
<path d="M119.393 107.395H137.497C137.956 107.395 138.399 107.561 138.746 107.862C139.092 108.163 139.318 108.578 139.383 109.033L140.484 116.75H120.727L119.393 107.395Z" fill="white" stroke="#263238" stroke-linecap="round" stroke-linejoin="round"/>
<path d="M136.574 111.614H127.989V115.139H136.574V111.614Z" fill="white" stroke="#263238" stroke-linecap="round" stroke-linejoin="round"/>
<path d="M141.427 118.193H104.644" stroke="#263238" stroke-width="2" stroke-linecap="round" stroke-linejoin="round"/>
<path d="M88.2073 118.193H47.4441" stroke="#263238" stroke-width="2" stroke-linecap="round" stroke-linejoin="round"/>
<path d="M33.9127 118.193H29.2466" stroke="#263238" stroke-width="2" stroke-linecap="round" stroke-linejoin="round"/>
<path d="M126.509 111.67H118.397C118.022 111.669 117.654 111.774 117.334 111.971C117.015 112.169 116.757 112.452 116.59 112.788L115.235 115.501C115.175 115.624 115.148 115.761 115.156 115.899C115.163 116.036 115.205 116.169 115.278 116.286C115.351 116.402 115.452 116.499 115.572 116.566C115.692 116.632 115.827 116.668 115.965 116.669H126.509V111.67Z" fill="#B2B2B2" stroke="#263238" stroke-linecap="round" stroke-linejoin="round"/>
<path d="M126.509 111.67H119.971L120.686 116.68H126.509V111.67Z" fill="#263238" stroke="#263238" stroke-linecap="round" stroke-linejoin="round"/>
<path d="M139.728 111.67H137.748L137.722 116.68H140.44L139.728 111.67Z" fill="#263238" stroke="#263238" stroke-linecap="round" stroke-linejoin="round"/>
<path d="M51.4007 104.256H47.3623C47.0398 104.256 46.7783 104.517 46.7783 104.84V108.078C46.7783 108.401 47.0398 108.662 47.3623 108.662H51.4007C51.7232 108.662 51.9847 108.401 51.9847 108.078V104.84C51.9847 104.517 51.7232 104.256 51.4007 104.256Z" fill="#263238" stroke="#263238" stroke-linecap="round" stroke-linejoin="round"/>
<path d="M76.8105 108.662H71.8057V110.665H76.8105V108.662Z" fill="#263238" stroke="#263238" stroke-linecap="round" stroke-linejoin="round"/>
<path d="M78.0137 107.862V123.078" stroke="#263238" stroke-linecap="round" stroke-linejoin="round"/>
<path d="M44.1765 114.668C44.1765 114.668 47.8411 116.739 48.3112 123.811H87.2232" stroke="#263238" stroke-linecap="round" stroke-linejoin="round"/>
<path d="M105.646 117.676C105.646 117.676 103.727 112.668 97.309 112.668C92.8355 112.668 90.6981 115.019 89.6265 116.873" stroke="#263238" stroke-linecap="round" stroke-linejoin="round"/>
<path d="M26.391 79.3189C26.391 79.3189 25.3456 77.8589 24.1542 77.9027C22.9629 77.9465 20.8809 79.132 20.8138 80.0606C20.7466 80.9891 22.3935 83.4273 22.3935 83.4273L21.9234 85.226L25.9092 86.8116L26.2012 85.3516C26.2012 85.3516 27.5998 85.2961 27.5911 85.0917C27.5823 84.8873 27.667 83.0127 27.667 83.0127C27.7321 82.988 27.7916 82.9504 27.8418 82.9021C27.892 82.8538 27.932 82.7959 27.9593 82.7318C27.9865 82.6677 28.0006 82.5988 28.0005 82.5291C28.0005 82.4595 27.9864 82.3905 27.959 82.3265C27.7405 81.8536 27.4618 81.4109 27.1297 81.0096C27.1388 80.6907 27.0773 80.3738 26.9496 80.0815C26.8219 79.7892 26.6311 79.5288 26.391 79.3189Z" fill="white" stroke="#263238" stroke-linecap="round" stroke-linejoin="round"/>
<path d="M27.0275 81.468C27.0859 81.6257 27.0829 81.7746 27.0275 81.8009C26.972 81.8272 26.861 81.7162 26.8026 81.5585C26.7442 81.4008 26.7501 81.2665 26.8026 81.2256C26.8552 81.1848 26.9691 81.2986 27.0275 81.468Z" fill="#263238"/>
<path d="M27.1327 81.0037C27.1327 81.0037 26.7472 80.6183 26.4961 80.9424" stroke="#263238" stroke-linecap="round" stroke-linejoin="round"/>
<path d="M27.3603 83.512C27.1074 83.5216 26.861 83.4314 26.6741 83.2609" stroke="#263238" stroke-linecap="round" stroke-linejoin="round"/>
<path d="M26.3908 79.3189L25.1528 79.5233C25.1528 79.5233 25.6404 80.0255 25.4448 80.3438L25.2491 80.6621L24.9922 82.0228L24.5804 82.09C24.5804 82.09 23.6052 81.0388 23.1642 81.7308C22.7233 82.4228 23.5847 83.1674 23.5847 83.1674C23.5847 83.1674 23.0007 83.9704 22.5832 84.0902C22.1656 84.2099 22.5131 83.6259 21.824 83.2901C21.1348 82.9543 20.0369 81.3862 20.1625 80.6621C20.288 79.9379 21.0064 78.3436 22.3875 77.8764C23.7687 77.4092 24.6534 77.4238 25.3367 77.6019C26.02 77.78 26.7967 77.7538 26.9194 78.2677C27.042 78.7816 26.3908 79.3189 26.3908 79.3189Z" fill="#263238" stroke="#263238" stroke-linecap="round" stroke-linejoin="round"/>
<path d="M27.1268 95.3263L29.8657 97.709L28.7649 100.036L26.9224 99.3822L27.1268 95.3263Z" fill="white" stroke="#263238" stroke-linecap="round" stroke-linejoin="round"/>
<path d="M29.3751 97.055L28.0933 100.063L28.8379 100.553L31.0687 97.9222L29.3751 97.055Z" fill="white" stroke="#263238" stroke-linecap="round" stroke-linejoin="round"/>
<path d="M30.6599 98.2492L34.8676 99.6392C34.8676 99.6392 36.3276 100.048 36.4999 100.197C36.6722 100.346 37.1569 101.105 37.0109 101.365C36.9549 101.45 36.8798 101.521 36.7916 101.571C36.7033 101.622 36.6044 101.651 36.5028 101.657C36.2093 101.668 35.9168 101.698 35.6268 101.744C35.3348 101.806 34.634 101.523 34.1668 101.438C33.6996 101.353 32.8353 100.609 32.8353 100.609L29.3313 99.864L30.6599 98.2492Z" fill="white" stroke="#263238" stroke-linecap="round" stroke-linejoin="round"/>
<path d="M35.6736 100.381C35.6736 100.381 35.3816 100.965 35.7174 101.257C36.0532 101.549 36.7657 101.642 36.9876 101.09C37.2095 100.539 36.1817 99.9545 35.6736 100.381Z" fill="#263238" stroke="#263238" stroke-linecap="round" stroke-linejoin="round"/>
<path d="M33.8486 99.7764C33.8486 99.7764 34.8006 99.5253 34.9991 99.4844C35.1977 99.4435 35.989 99.8582 36.2284 99.8582C36.4679 99.8582 37.0752 99.5516 36.9555 99.8844C36.8358 100.217 36.7745 100.206 36.4504 100.401C36.1262 100.597 35.2824 100.384 35.2824 100.384C35.1667 100.508 35.0266 100.607 34.8709 100.675C34.7151 100.743 34.547 100.778 34.3772 100.778C33.8603 100.734 33.9392 100.401 33.9392 100.401" fill="white"/>
<path d="M33.8486 99.7764C33.8486 99.7764 34.8006 99.5253 34.9991 99.4844C35.1977 99.4435 35.989 99.8582 36.2284 99.8582C36.4679 99.8582 37.0752 99.5516 36.9555 99.8844C36.8358 100.217 36.7745 100.206 36.4504 100.401C36.1262 100.597 35.2824 100.384 35.2824 100.384C35.1667 100.508 35.0266 100.607 34.8709 100.675C34.7151 100.743 34.547 100.778 34.3772 100.778C33.8603 100.734 33.9392 100.401 33.9392 100.401" stroke="#263238" stroke-linecap="round" stroke-linejoin="round"/>
<path d="M16.203 128.077C16.203 128.077 17.1666 129.131 17.5783 129.347C17.9901 129.563 19.4939 129.788 19.561 130.074C19.6282 130.36 19.4092 130.597 18.685 130.798C17.8417 131.042 16.949 131.057 16.0979 130.842C14.8803 130.603 13.6101 130.48 13.0874 130.328C12.5647 130.177 12.4041 130.471 12.2639 129.902C12.1238 129.333 12.7224 128.331 12.7224 128.331C12.7224 128.331 15.8497 127.805 16.203 128.077Z" fill="white" stroke="#263238" stroke-linecap="round" stroke-linejoin="round"/>
<path d="M19.3246 105.12C19.3246 105.12 17.9668 113.004 17.5931 113.757C17.2193 114.511 14.6731 119.738 14.3811 121.189C14.0891 122.64 12.6758 127.525 12.6758 127.525L12.7079 128.328C13.0243 128.441 13.3562 128.505 13.6919 128.518C14.0949 128.503 16.2031 128.074 16.2031 128.074C16.3705 127.754 16.4367 127.39 16.3929 127.032C16.3141 126.448 15.7067 125.68 15.8703 125.443C16.0338 125.207 19.2721 118.409 19.4385 118.231C19.6049 118.053 20.9949 116.847 21.354 115.796C21.7132 114.744 24.3821 109.465 24.3821 109.465C24.3821 109.465 21.9351 107.205 20.8781 106.326C19.821 105.447 19.3246 105.12 19.3246 105.12Z" fill="#263238" stroke="#263238" stroke-linecap="round" stroke-linejoin="round"/>
<path d="M35.4837 126.97C36.1677 127.139 36.8655 127.247 37.5686 127.292C38.1993 127.265 39.8404 126.626 39.9747 127.081C40.109 127.537 39.344 128.6 38.5614 129.149C37.58 129.739 36.5385 130.224 35.4545 130.594C34.999 130.728 34.2865 131.388 33.4572 130.962C32.628 130.536 32.8732 128.918 32.8732 128.918L35.4837 126.97Z" fill="white" stroke="#263238" stroke-linecap="round" stroke-linejoin="round"/>
<path d="M27.2902 104.463C27.2902 104.463 30.2102 112.572 30.8526 114.557C31.495 116.543 31.8542 118.085 31.9184 118.254C31.9827 118.424 35.4838 126.97 35.4838 126.97C35.4838 126.97 34.4092 128.854 33.7318 129.169C33.3883 129.338 33.0268 129.467 32.6543 129.555C32.6543 129.555 28.6042 121.671 28.0845 120.19C27.5647 118.71 27.0683 116.26 26.5719 115.188C26.0755 114.117 18.5186 105.996 18.5186 105.996C19.9044 105.557 21.3306 105.258 22.7759 105.102C24.6652 104.968 27.2902 104.463 27.2902 104.463Z" fill="#263238" stroke="#263238" stroke-linecap="round" stroke-linejoin="round"/>
<path d="M25.5002 87.0364C25.5002 87.0364 26.7033 88.5957 27.0683 89.9331C27.4333 91.2704 27.5471 95.4665 27.5471 95.4665C27.5471 95.4665 27.5997 103.35 27.6698 103.818C27.7844 104.291 27.9418 104.754 28.1399 105.199C27.0913 105.253 26.053 105.433 25.0476 105.736C23.611 106.209 22.4839 106.513 21.5436 106.548C20.6034 106.583 18.5185 105.996 18.5185 105.996C18.5185 105.996 18.682 103.552 18.8543 102.661C18.9717 101.972 19.0477 101.275 19.0821 100.576L18.9448 97.1075C18.9448 97.1075 18.1652 93.1422 18.6674 91.358C19.1697 89.5739 19.6135 87.7898 20.3669 87.1386C20.8446 86.7166 21.278 86.247 21.6604 85.737L25.5002 87.0364Z" fill="white" stroke="#263238" stroke-linecap="round" stroke-linejoin="round"/>
<path d="M22.0166 84.2157L21.6604 85.7341L25.3834 87.9738L25.7864 86.3502L22.0166 84.2157Z" fill="white" stroke="#263238" stroke-linecap="round" stroke-linejoin="round"/>
<path d="M16.1739 99.1836L16.936 103.981C16.6694 104.507 16.4477 105.054 16.2732 105.616C16.1893 106.024 16.0841 106.426 15.9578 106.822C15.914 106.98 15.7768 108.75 16.0892 108.79C16.4016 108.831 17.5112 109.357 17.7098 109.141C18.074 108.589 18.348 107.983 18.5216 107.345C18.5595 106.98 18.8136 104.27 18.7376 103.599C18.6617 102.927 18.9683 98.9267 18.9683 98.9267C18.9683 98.9267 17.0148 98.1646 16.1739 99.1836Z" fill="white" stroke="#263238" stroke-linecap="round" stroke-linejoin="round"/>
<path d="M21.8999 86.5021C21.8999 86.5021 20.3319 86.2539 19.6369 87.0072C18.9419 87.7606 16.3519 94.608 16.3315 95.338C16.311 96.068 16.2351 98.1441 16.2351 98.1441L19.0412 98.2405L19.9698 95.4548L23.3599 90.6485" fill="white"/>
<path d="M21.8999 86.5021C21.8999 86.5021 20.3319 86.2539 19.6369 87.0072C18.9419 87.7606 16.3519 94.608 16.3315 95.338C16.311 96.068 16.2351 98.1441 16.2351 98.1441L19.0412 98.2405L19.9698 95.4548L23.3599 90.6485" stroke="#263238" stroke-linecap="round" stroke-linejoin="round"/>
<path d="M15.8496 97.5893L16.1737 99.1837C16.5294 99.0255 16.9185 98.9573 17.3067 98.9851C17.883 99.0582 18.4384 99.248 18.939 99.5428C19.1559 98.9882 19.3068 98.4099 19.3887 97.82C19.4149 97.1893 18.0776 96.1527 15.8496 97.5893Z" fill="white" stroke="#263238" stroke-linecap="round" stroke-linejoin="round"/>
<path d="M21.1758 93.7758L24.0432 92.1114" stroke="#263238" stroke-linecap="round" stroke-linejoin="round"/>
<path d="M89.2235 12.74H54.2915V131.088H89.2235V12.74Z" fill="white" stroke="#263238" stroke-linecap="round" stroke-linejoin="round"/>
<path d="M89.2235 85.448H54.2915V131.088H89.2235V85.448Z" fill="#FB9E1B" stroke="#263238" stroke-linecap="round" stroke-linejoin="round"/>
<path d="M73.8293 115.504L55.1296 96.8038V102.761L73.8293 121.46V115.504Z" fill="#263238"/>
<path d="M88.5724 130.25L83.9092 125.583V130.25H88.5724Z" fill="#263238"/>
<path d="M73.8293 130.25V126.897L55.1296 108.198V114.154L71.2247 130.25H73.8293Z" fill="#263238"/>
<path d="M73.8293 104.11L55.994 86.2743H55.1296V91.3668L73.8293 110.066V104.11Z" fill="#263238"/>
<path d="M83.9092 114.19V120.146L89.2236 125.461V119.504L83.9092 114.19Z" fill="#263238"/>
<path d="M65.7876 130.25L55.1296 119.592V125.545L59.8308 130.25H65.7876Z" fill="#263238"/>
<path d="M73.8292 92.7158L67.3877 86.2743H61.4309L73.8292 98.6726V92.7158Z" fill="#263238"/>
<path d="M83.9092 102.796V108.752L89.2236 114.067V108.11L83.9092 102.796Z" fill="#263238"/>
<path d="M89.2206 12.74H75.0615V131.088H89.2206V12.74Z" fill="white" stroke="#263238" stroke-linecap="round" stroke-linejoin="round"/>
<path d="M89.2206 85.448H75.0615V131.088H89.2206V85.448Z" fill="#FB9E1B" stroke="#263238" stroke-linecap="round" stroke-linejoin="round"/>
<path d="M76.0193 106.063V112.02L88.73 99.3092V93.3524L76.0193 106.063Z" fill="#263238"/>
<path d="M76.0193 128.848V131.088H79.7394L88.73 122.097V116.14L76.0193 128.848Z" fill="#263238"/>
<path d="M84.5603 86.1283L76.0193 94.6693V100.626L88.73 87.9154V86.1283H84.5603Z" fill="#263238"/>
<path d="M76.0193 117.457V123.411L88.73 110.703V104.746L76.0193 117.457Z" fill="#263238"/>
<path d="M88.7299 127.531L85.1763 131.088H88.7299V127.531Z" fill="#263238"/>
<path d="M35.7905 22.8227V12.74" stroke="#263238" stroke-linecap="round" stroke-linejoin="round"/>
<path d="M28.6482 22.8227V12.74" stroke="black" stroke-miterlimit="10"/>
<path d="M21.5029 22.8227V12.74" stroke="black" stroke-miterlimit="10"/>
<path d="M61.2119 22.8227V12.74" stroke="#263238" stroke-linecap="round" stroke-linejoin="round"/>
<path d="M54.0696 22.8227V12.74" stroke="black" stroke-miterlimit="10"/>
<path d="M46.9243 22.8227V12.74" stroke="black" stroke-miterlimit="10"/>
<path d="M66.322 23.0563H45.187V26.8348H66.322V23.0563Z" fill="#263238" stroke="#263238" stroke-linecap="round" stroke-linejoin="round"/>
<path d="M66.322 24.3528H45.187V26.8348H66.322V24.3528Z" fill="white" stroke="#263238" stroke-linecap="round" stroke-linejoin="round"/>
<path d="M66.3219 24.3528H51.719V26.8348H66.3219V24.3528Z" fill="white" stroke="#263238" stroke-linecap="round" stroke-linejoin="round"/>
<path d="M39.9602 23.0563H18.8252V26.8348H39.9602V23.0563Z" fill="#263238" stroke="#263238" stroke-linecap="round" stroke-linejoin="round"/>
<path d="M39.9602 24.3528H18.8252V26.8348H39.9602V24.3528Z" fill="white" stroke="#263238" stroke-linecap="round" stroke-linejoin="round"/>
<path d="M39.9601 24.3528H25.3572V26.8348H39.9601V24.3528Z" fill="white" stroke="#263238" stroke-linecap="round" stroke-linejoin="round"/>
<path d="M66.0445 18.8311H9.41699V20.513H66.0445V18.8311Z" fill="#263238" stroke="#263238" stroke-linecap="round" stroke-linejoin="round"/>
<path d="M82.6361 73.2394C81.725 73.2394 81.0271 73.073 80.5424 72.7401C80.0581 72.4036 79.7077 71.9075 79.5525 71.3385C79.3637 70.6511 79.2742 69.9402 79.2868 69.2274H81.6871C81.6813 69.6263 81.7106 70.0249 81.7747 70.4187C81.8087 70.6872 81.9203 70.9399 82.0959 71.1458C82.1899 71.231 82.3011 71.2952 82.4219 71.334C82.5428 71.3728 82.6706 71.3853 82.7967 71.3706C82.9305 71.3754 83.0633 71.3454 83.182 71.2834C83.3008 71.2215 83.4014 71.1298 83.4741 71.0173C83.6336 70.7195 83.7216 70.3886 83.7311 70.0508C83.7632 69.6303 83.7807 69.1368 83.7807 68.5674C83.7848 68.1581 83.7575 67.7491 83.6989 67.344C83.6662 67.043 83.5588 66.7549 83.3865 66.5059C83.2985 66.4037 83.1875 66.324 83.0626 66.2732C82.9377 66.2224 82.8025 66.2021 82.6682 66.2139C82.535 66.2084 82.4021 66.2316 82.2787 66.282C82.1552 66.3324 82.0441 66.4087 81.9528 66.5059C81.7413 66.7569 81.5994 67.059 81.5411 67.3819H79.4241L79.6022 59.9739H85.594V62.1142H81.6491L81.506 64.9992C81.6826 64.8045 81.9071 64.6596 82.1572 64.5787C82.4748 64.4596 82.8084 64.3887 83.1471 64.3685C83.7374 64.2844 84.3379 64.4228 84.8319 64.7568C85.3028 65.1166 85.649 65.615 85.8218 66.1818C86.0523 66.9244 86.1607 67.6995 86.143 68.4769C86.1457 69.1157 86.1028 69.7539 86.0145 70.3866C85.9461 70.918 85.7766 71.4314 85.5152 71.8992C85.2653 72.326 84.8958 72.6701 84.4523 72.889C83.883 73.1476 83.2606 73.2677 82.6361 73.2394Z" fill="#263238"/>
<path d="M87.1738 42.6437H76.8136C76.2685 42.6437 75.8267 43.0856 75.8267 43.6306V53.9908C75.8267 54.5359 76.2685 54.9778 76.8136 54.9778H87.1738C87.7189 54.9778 88.1607 54.5359 88.1607 53.9908V43.6306C88.1607 43.0856 87.7189 42.6437 87.1738 42.6437Z" fill="#263238" stroke="#263238" stroke-linecap="round" stroke-linejoin="round"/>
<path d="M79.4241 53.9441V43.4905H82.7412C83.2759 43.4685 83.8066 43.5916 84.2771 43.8467C84.6712 44.0859 84.9783 44.4451 85.1531 44.8716C85.3612 45.388 85.4606 45.9416 85.4451 46.4981C85.4766 47.1058 85.3445 47.7108 85.0626 48.2501C84.8276 48.6569 84.4624 48.9727 84.026 49.1465C83.5446 49.3316 83.032 49.4218 82.5164 49.4122H81.5469V53.9412L79.4241 53.9441ZM81.5528 47.9172H82.3003C82.5486 47.9311 82.7963 47.8798 83.0186 47.7683C83.1038 47.7164 83.1779 47.6482 83.2366 47.5675C83.2952 47.4868 83.3373 47.3952 83.3602 47.2982C83.4261 47.0278 83.4565 46.75 83.4508 46.4718C83.4553 46.2034 83.4318 45.9352 83.3807 45.6717C83.34 45.4708 83.2267 45.292 83.0624 45.1695C82.8292 45.0311 82.559 44.9679 82.2886 44.9884H81.5528V47.9172Z" fill="#FB9E1B"/>
<path d="M6.81226 131.088H215.604" stroke="#263238" stroke-linecap="round" stroke-linejoin="round"/>
</svg>
