<svg width="16" height="16" viewBox="0 0 16 16" fill="none" xmlns="http://www.w3.org/2000/svg">
<path d="M5.68734 0H6.53111C6.5708 0.00906275 6.61049 0.0203126 6.65049 0.0268753C6.953 0.0765641 7.26082 0.10469 7.55677 0.177505C11.3234 1.10222 13.2813 5.22764 11.625 8.73586C10.125 11.9113 6.18517 13.1675 3.13415 11.4409C3.09281 11.4159 3.04654 11.4001 2.99852 11.3947C2.95049 11.3894 2.90187 11.3944 2.85602 11.4097C1.97474 11.6576 1.09305 11.9026 0.210943 12.1447C0.154692 12.1603 0.0975026 12.1725 0.0234381 12.1906C0.289383 11.2312 0.546264 10.2993 0.808147 9.36869C0.823771 9.32034 0.828623 9.26916 0.82236 9.21873C0.816098 9.16831 0.798873 9.11987 0.771896 9.07681C0.481057 8.5712 0.27211 8.02273 0.152817 7.45177C0.0903154 7.1477 0.0503139 6.83894 0 6.53237V5.68766C0.0312508 5.47765 0.0593766 5.26702 0.0937525 5.05764C0.476263 2.68757 2.38819 0.669393 4.73794 0.15938C5.05107 0.0912527 5.37077 0.0525014 5.68734 0ZM6.57768 7.52302C6.57768 7.31614 6.56955 7.12332 6.58205 6.93175C6.58786 6.85274 6.62012 6.77799 6.67362 6.71956C6.90862 6.4908 7.15832 6.27736 7.3952 6.05079C7.73656 5.72883 7.94457 5.29042 7.97805 4.82238C8.01153 4.35434 7.86804 3.89079 7.57599 3.52352C7.28394 3.15625 6.86463 2.91203 6.40107 2.83923C5.93752 2.76642 5.46353 2.87034 5.07295 3.1304C4.53044 3.49291 4.25761 4.01386 4.23543 4.67825H5.16576C5.17295 4.62981 5.17889 4.58919 5.18483 4.54887C5.21404 4.34884 5.3073 4.16366 5.45062 4.0211C5.59394 3.87853 5.77961 3.78625 5.97979 3.75809C6.17997 3.72993 6.38389 3.7674 6.56098 3.8649C6.73807 3.96239 6.8788 4.11466 6.96206 4.29887C7.04293 4.4726 7.06748 4.66727 7.03229 4.85564C6.99711 5.04402 6.90394 5.21669 6.76581 5.34952C6.43205 5.67047 6.08454 5.97735 5.74578 6.2933C5.70297 6.33361 5.64734 6.39017 5.64609 6.44018C5.63765 6.798 5.64172 7.15582 5.64172 7.52177L6.57768 7.52302ZM5.65328 8.47804V9.39744H6.56518V8.47804H5.65328Z" fill="#010913"/>
<path d="M10.4374 16.0004C10.1064 15.9379 9.76827 15.8992 9.44577 15.8067C8.04823 15.4067 6.9957 14.5629 6.28099 13.295C6.26318 13.2638 6.24787 13.2304 6.23287 13.1972C6.23113 13.1875 6.23113 13.1776 6.23287 13.1679C9.89234 13.1616 13.1434 9.99496 13.1668 6.21954C13.537 6.40042 13.8812 6.63018 14.1903 6.90269C15.2234 7.81115 15.8241 8.94649 15.9716 10.3175C15.9786 10.3581 15.9881 10.3983 16 10.4378V11.2191C15.9888 11.2532 15.9802 11.2882 15.9744 11.3237C15.9057 12.0447 15.6874 12.7435 15.3334 13.3754C15.3038 13.4438 15.2989 13.5203 15.3197 13.5919C15.5175 14.3238 15.7222 15.0535 15.9244 15.7842C15.9403 15.8411 15.9534 15.8989 15.9713 15.9698C15.9284 15.9607 15.9088 15.9579 15.8891 15.9526C15.1434 15.7467 14.3968 15.5435 13.6531 15.331C13.5184 15.2926 13.4165 15.3148 13.289 15.3695C12.8852 15.5432 12.4765 15.7098 12.0574 15.8429C11.7883 15.9282 11.4989 15.9498 11.2186 15.9992L10.4374 16.0004Z" fill="#010913"/>
</svg>
