<svg width="16" height="19" viewBox="0 0 16 19" fill="none" xmlns="http://www.w3.org/2000/svg">
<path d="M7.82104 18.0867C7.50146 18.0151 7.19479 17.9164 6.94865 17.6885C6.47507 17.2491 6.29436 16.7127 6.46528 16.0896C6.64332 15.4387 7.08574 15.0413 7.75605 14.9391C8.49803 14.8258 9.12383 15.1754 9.44741 15.8556C9.49192 15.9463 9.5391 15.9715 9.63391 15.9706C10.1489 15.9662 10.6643 15.9737 11.1793 15.9671C11.9075 15.9573 12.5475 15.4865 12.7006 14.8391C12.3972 14.9294 12.0732 14.9246 11.7726 14.8254C11.1214 14.6205 10.6745 14.0355 10.6692 13.3208C10.6576 11.8844 10.6487 10.4475 10.6692 9.01151C10.6888 7.74324 12.0045 7.02016 13.0972 7.66447C13.6055 7.96362 13.8538 8.43756 13.8583 9.01815C13.8663 10.8325 13.8761 12.6446 13.8547 14.4576C13.8387 15.8551 12.6801 16.9911 11.2732 17.0243C10.7288 17.038 10.1836 17.0243 9.63925 17.0327C9.57782 17.0327 9.48435 17.0734 9.46121 17.1212C9.22086 17.6318 8.83007 17.9469 8.27459 18.0606C8.25208 18.0676 8.23031 18.0768 8.2096 18.0881L7.82104 18.0867Z" fill="#010913"/>
<path d="M0.00962453 7.89105C-0.0121851 3.734 3.43062 0.000442561 7.99818 3.93803e-08C12.5657 -0.000442482 16.0099 3.72869 15.9876 7.94017C15.8747 7.86619 15.7576 7.79867 15.6369 7.73793C15.4383 7.6482 15.2348 7.56931 15.0276 7.50163C14.9328 7.47154 14.8967 7.43481 14.8878 7.33568C14.8072 6.43072 14.5471 5.55059 14.1226 4.74607C13.6981 3.94155 13.1175 3.22856 12.4144 2.64824C11.7114 2.06792 10.8997 1.63175 10.0262 1.3649C9.15271 1.09805 8.23472 1.0058 7.3252 1.09347C6.2113 1.19417 5.14033 1.56988 4.20954 2.1865C2.99101 2.97849 2.05527 4.13293 1.53585 5.48506C1.30749 6.07919 1.16164 6.7015 1.10233 7.3348C1.09654 7.38701 1.06005 7.46313 1.01732 7.48127C0.686166 7.62376 0.347896 7.75519 0.00962453 7.89105Z" fill="#010913"/>
<path d="M2.13494 11.1436C2.13494 10.4488 2.13138 9.7545 2.13494 9.05975C2.1394 8.33755 2.5649 7.72156 3.19071 7.51756C4.26561 7.16752 5.30847 7.87157 5.32716 8.99823C5.34986 10.4404 5.35253 11.883 5.32716 13.3252C5.30491 14.5855 3.99722 15.3015 2.90674 14.6656C2.37796 14.3558 2.14117 13.8646 2.13672 13.2628C2.13094 12.5566 2.13494 11.8503 2.13494 11.1436Z" fill="#010913"/>
<path d="M1.0685 13.7284C0.498782 13.604 0.0194144 12.965 0.00517136 12.268C-0.00462072 11.8034 0.0025009 11.3387 0.0025009 10.8732C0.0025009 10.5971 -0.00328544 10.32 0.00517136 10.0439C0.0252006 9.38766 0.428902 8.81813 1.02088 8.60085C1.03638 8.59564 1.05232 8.59179 1.0685 8.58935V13.7284Z" fill="#010913"/>
<path d="M14.9118 13.735V8.5774C15.3342 8.71989 15.6547 8.98718 15.8287 9.39076C15.9254 9.61706 15.9791 9.85922 15.9872 10.105C16.0076 10.8104 15.9987 11.5171 15.9934 12.2229C15.988 12.9433 15.5376 13.5677 14.9118 13.735Z" fill="#010913"/>
</svg>
