<svg width="16" height="16" viewBox="0 0 16 16" fill="none" xmlns="http://www.w3.org/2000/svg">
<path d="M0 8.21875V7.78125C0.09375 7.31437 0.395938 6.98719 0.720938 6.66344C2.70302 4.69115 4.68031 2.71396 6.65281 0.731875C6.97969 0.403438 7.30813 0.09375 7.78125 0H8.21875C8.6875 0.09375 9.01219 0.39625 9.33531 0.720938C11.3145 2.70969 13.2986 4.69365 15.2878 6.67281C15.6178 7.00125 15.9181 7.33531 16 7.8125V8.1875C15.989 8.21045 15.98 8.23428 15.9731 8.25875C15.8284 8.98375 15.2544 9.46219 14.5187 9.47094C14.4431 9.47094 14.3678 9.47094 14.2834 9.47094V9.68156C14.2834 11.2275 14.2875 12.7731 14.2797 14.3188C14.2759 15.0519 13.7772 15.7013 13.0784 15.9184C12.9803 15.9497 12.8803 15.9728 12.7812 16H9.90625C9.62938 15.8969 9.53125 15.6938 9.53312 15.4044C9.54062 14.2131 9.53719 13.0219 9.53594 11.8306C9.53594 11.2994 9.21281 10.9788 8.67875 10.9769C8.23656 10.9769 7.79438 10.9769 7.35219 10.9769C6.77438 10.9769 6.46281 11.2866 6.4625 11.8606C6.4625 13.0416 6.45813 14.2225 6.46531 15.4034C6.46719 15.6922 6.37156 15.8966 6.09375 16.0003H3.21875C3.20689 15.9907 3.19347 15.9832 3.17906 15.9781C2.43281 15.8844 1.69625 15.1922 1.71031 14.1787C1.73094 12.6744 1.71563 11.1697 1.71563 9.665V9.47062C1.60656 9.47062 1.51875 9.47469 1.43125 9.47062C0.85875 9.44125 0.432813 9.17312 0.164062 8.66906C0.0896875 8.52875 0.05375 8.36906 0 8.21875Z" fill="#010913"/>
</svg>
