<svg xmlns="http://www.w3.org/2000/svg" viewBox="0 0 444.33 496.48"><defs><style>.cls-1{fill:#fb9e1b;}</style></defs><g id="Layer_2" data-name="Layer 2"><g id="Layer_1-2" data-name="Layer 1"><path class="cls-1" d="M186.88,94.86a29.42,29.42,0,1,0-29.43-29.45A29.24,29.24,0,0,0,186.88,94.86Zm0-46.51a17.1,17.1,0,1,1-.09,34.2,17.1,17.1,0,0,1,.09-34.2Z"/><path class="cls-1" d="M112.38,94.81c3.53-.29,5.39-2.35,5.63-5.85.12-1.76.06-3.55.07-5.32V71.06h20.11c0,5.93-.09,11.64,0,17.34.08,4,2.34,6.37,5.9,6.43a5.85,5.85,0,0,0,6.26-6.15c.14-15.44.11-30.88,0-46.32a5.82,5.82,0,0,0-4.55-6.07c-4.1-1.08-7.49,1.56-7.62,6.12-.14,5.27,0,10.55,0,15.87H118c0-5.66.12-11.1,0-16.52-.1-3.33-2.09-5.33-5.39-5.62-3.49-.31-5.74,1.45-6.53,4.85a19.1,19.1,0,0,0-.26,4.08q0,18,0,36.08a74.53,74.53,0,0,0,.16,8.19A5.77,5.77,0,0,0,112.38,94.81Z"/><path class="cls-1" d="M271.54,94.85c6.14.09,12.28.14,18.41-.07,1.62-.06,3.83-.73,4.64-1.9A8.85,8.85,0,0,0,296,87c-.52-3.06-3.21-4.28-6.17-4.35-4.17-.1-8.34,0-12.65,0V71.78c3.9,0,7.3,0,10.7,0,4.52-.08,7.09-2.36,7.08-6.14s-2.64-6-7.15-6.15c-3.5-.07-7,0-10.54,0V48.68c4.25,0,8.19.06,12.13,0,4.36-.07,7.14-2.57,7.07-6.23s-2.74-6-6.86-6q-9-.13-18,0c-4.47.08-6.85,2.37-6.88,6.88q-.14,22.35,0,44.7C264.74,92.56,267,94.78,271.54,94.85Z"/><path class="cls-1" d="M223.6,48.18c2,.21,4.07,0,6.81,0v5.05q0,17,0,34c0,3.4.88,6.31,4.54,7.36,4.32,1.22,7.68-1.71,7.72-6.88.09-11.61,0-23.22.05-34.83,0-1.43.15-2.86.26-4.68,2.48,0,4.52.15,6.53,0,4-.36,6.2-2.8,6.07-6.33s-2.35-5.73-6.13-5.79c-8.59-.14-17.18-.15-25.76,0a5.64,5.64,0,0,0-5.93,6C217.74,45.48,219.84,47.8,223.6,48.18Z"/><path class="cls-1" d="M312.79,94.8c5,.14,10.1.13,15.15,0,4.17-.08,6.79-2.53,6.79-6.07s-2.67-6-6.78-6.18c-3-.11-5.95,0-9.44,0V72.08c0-9.71.06-19.42,0-29.13-.05-4.41-2.67-7-6.43-6.87s-5.79,2.61-5.8,7q-.08,22.37,0,44.72C306.25,92.54,308.24,94.67,312.79,94.8Z"/><path class="cls-1" d="M444.29,331.89c0-.45,0-.91,0-1.35q-.17-3.3-.57-6.66c-.07-.59-.14-1.18-.22-1.77s-.18-1.17-.28-1.75c0-.21-.07-.41-.1-.62q-.19-1.15-.45-2.31a.06.06,0,0,0,0,0c-.16-.75-.33-1.5-.5-2.24a79.11,79.11,0,0,0-35.88-48.94h.62V253c.05-16.34.14-68.05-.05-81-.3-20.13-8.58-36.42-24.61-48.41a3.26,3.26,0,0,1-1.65-3.32c.12-23.38.09-47.1.05-71.37,0-15-5.83-27.7-17.27-37.67-6.81-5.93-14.85-8.59-23.18-11L339.64,0h-248l-1,.63L90.22,1c-12.35,3.07-22,8.9-28.7,17.33S51.26,37.75,51.25,50.67v20c0,16.37,0,33.3-.09,49.94a4.29,4.29,0,0,1-.58,2C33.49,135.29,24.86,153,25,175.21c.11,31.62.09,85.16.07,128.17,0,17.84,0,34.2,0,47.07V352c0,15.43,0,30.54.06,45.59,0,1.65-.07,1.69-1.39,2.27C9.77,406,1.75,417.16.48,432a155.34,155.34,0,0,0-.17,22.15c.63,11.22,6.82,19.41,17.88,23.67.49.19,1,.44,1.58.7l.64.3.76.35H343.49l8.71,7.24h.47l1.57,1.28,1.26,1,4.36,3.51,2.74,2.22,2.47,2,2.09-1.26a6,6,0,0,0,.81-.53l10.15-8.26,14.61-11.84,2.82-2.3Q408.2,462,420.8,451.79l5.66-4.61,1.64-1.33,4.58-3.73,3-2.43a6.76,6.76,0,0,0,2.06-3.3h.3v-16a6.3,6.3,0,0,0-6.28-6.28h-15v-2.72c0-5.7,0-11.09,0-16.62a1.58,1.58,0,0,1,.55-1.4,3.7,3.7,0,0,1,.28-.28c1.12-1,2.21-2.08,3.28-3.13l.4-.41c.44-.45.89-.9,1.32-1.36.93-1,1.83-2,2.71-3,12.88-14.84,19.26-32.09,19.09-51.46v-.07c0-.32,0-.64,0-1S444.31,332.17,444.29,331.89ZM72.75,50c0-17.32,11.14-28.52,28.32-28.53H330.81c17.16,0,28.27,11,28.31,28.08.05,16.41,0,33.1,0,49.24v13.94c-1.53-.08-3.06-.18-4.55-.27-5.9-.35-12-.72-18-.72-40,0-80.58-.07-120.62-.07s-80.63,0-120.63.07c-6,0-11.79.35-17.94.72l-4.63.27q0-9.28,0-18.58C72.73,79.72,72.72,64.76,72.75,50ZM46.53,175.6a56.22,56.22,0,0,1,1-12C51.71,144.9,67,133.26,87.39,133.25l128.42,0,128.42,0c24.87,0,41,16.18,41.15,41.19,0,6.36,0,24.08,0,41.22,0,10.47,0,20.93,0,29v.22c0,.72,0,1.41,0,2.09v10.37H388l-.41.73-1.32-.38c-3.37-.89-6.81-1.46-10.13-2l-2.7-.46h0l-1.11-.19-.5-.08-.13,0h0l-.35.05-.1,0a35.71,35.71,0,0,1-4.35.34c.17-.18.34-.35.5-.53q-1,0-2,0a78.6,78.6,0,0,0-34.05,7.71h.18l-.12.05a80.36,80.36,0,0,0-33.12,29.61c-.26.42-.52.83-.76,1.24s-.42.69-.61,1c-.38.65-.75,1.32-1.11,2a75,75,0,0,0-9,29.58c0,.38,0,.77-.08,1.14l0,.41c-.06.7-.1,1.42-.14,2.13-.06,1.34-.1,2.7-.1,4.06q0,1,0,2a76.68,76.68,0,0,0,6.58,30.1c.35.77.7,1.53,1.08,2.27s.64,1.31,1,1.95l.25.47c.2.38.39.75.61,1.11a85.63,85.63,0,0,0,16.85,21.13v0a8.08,8.08,0,0,0,1.21,2.61c0,.2,0,.41,0,.61H272.77v-2q0-11.3,0-22.58c0-16.28,0-33.12,0-49.69,0-10.87-3.44-20-9.87-26.46s-15.55-9.84-26.37-9.85H196.1c-11.3,0-20.68,3.4-27.12,9.84s-9.87,15.81-9.88,27.11q0,20.64,0,41.28,0,15.49,0,31c0,.46,0,.93,0,1.4H46.49v-1.52q0-10.51,0-21.05V352.47c0-.54,0-1.13,0-1.71V303.7C46.48,260.69,46.47,207.15,46.53,175.6ZM180.62,396.23c0-.36,0-.71,0-1.06V382.93c0-20,0-40.6,0-60.9,0-10.55,4.5-15,15-15h22.56c7.6,0,13.85,0,19.67,0,8.16,0,13.27,4.83,13.33,12.54.16,19.51.11,39.36.07,58.56q0,9.06,0,18.13ZM23,456.28c-.94-.93-1.4-3.15-1.41-6.78,0-1.13,0-2.26,0-3.38,0-3.39-.06-6.89.06-10.28.36-10.45,7.06-17.26,17.49-17.78,1-.05,1.95-.06,2.87-.06h1.52c73,0,150.78,0,228.09,0h3.85v-.18h17.86a6.3,6.3,0,0,0-.55,2.57v3.42c0,3.32,0,6.45,0,9.63,0,.17,0,.34,0,.5v.15a9.56,9.56,0,0,0,.06,1.09,7.07,7.07,0,0,0,2.84,5c.66.53,1.33,1.07,2,1.61.27.2.54.42.81.65l2.05,1.65s0,0,0,0l.11.08s.09.06.12.1l.37.29h0c.11.08.21.18.33.26l.09.08.13.1.1.09c.12.1.24.18.35.28l.11.08a.5.5,0,0,0,.08.07l.17.14.11.09.06,0,.06.05h0l.06.05s0,0,.06.05.16.13.24.19l.31.25,0,0a.63.63,0,0,1,.12.11,4.68,4.68,0,0,1,.37.29.6.6,0,0,0,.13.09l.77.63.25.2a.79.79,0,0,0,.15.12c.07.07.16.13.24.2l.08.07,1.32,1.06,0,0a2.79,2.79,0,0,1,.38.3l.06.05.07.05,4.37,3.54,2.9,2.34,2.63,2.13H29.84C26.19,457.67,24,457.22,23,456.28Zm342.55,15-.16.12-12.37-10-19-15.45-.23-.19-1.31-1.07-9.94-8.06-3.24-2.63h14.49V406.26c.81.34,1.63.67,2.45,1a83.43,83.43,0,0,0,19.05,4.95c1.18.16,2.35.28,3.53.38a74.44,74.44,0,0,0,16.81-.38A85.55,85.55,0,0,0,397,406.28v27.6h14.62Zm55.24-116q-.35.87-.72,1.74a60,60,0,0,1-7.35,12.61,59.14,59.14,0,0,1-13.43,12.85,60.62,60.62,0,0,1-10.57,5.89,59.33,59.33,0,0,1-23.11,4.78h-.28a58.79,58.79,0,0,1-32.84-10c-1.15-.77-2.26-1.56-3.33-2.4a.79.79,0,0,1-.15-.12c-.7-.53-1.38-1.11-2.07-1.68a59.3,59.3,0,0,1-18.85-60.69,59.61,59.61,0,0,1,57.08-43.75h.21a58.81,58.81,0,0,1,33.93,10.68,60.94,60.94,0,0,1,7.13,5.87l.19.19c.23.22.46.44.69.69.45.43.89.89,1.32,1.37a55.75,55.75,0,0,1,4.1,4.84,59.2,59.2,0,0,1,12,35.57A58.17,58.17,0,0,1,420.8,355.26Z"/><path class="cls-1" d="M295.45,232.61a30.2,30.2,0,0,0,.45,4.35c0,.26.09.53.14.79s.18.79.27,1.19a22.89,22.89,0,0,0,3.27,7.47c.21.31.43.61.65.92s.43.55.66.82a4.54,4.54,0,0,0,.33.41c.17.2.34.39.52.58a22.54,22.54,0,0,0,10.48,6.32l1,.27a26.93,26.93,0,0,0,2.76.53c.8.11,1.63.2,2.46.24.35,0,.7,0,1.05,0h.27c.52,0,1.05,0,1.57,0,1.47,0,2.93,0,4.39,0h4.6c2.52,0,5,0,7.55-.06.66,0,1.31,0,1.95-.08h0a27.8,27.8,0,0,0,9-2.08l.11,0c.62-.27,1.23-.57,1.82-.89l.19-.1c.57-.32,1.12-.65,1.65-1l.21-.14c.52-.36,1-.75,1.53-1.15l.14-.13c.51-.42,1-.87,1.46-1.33a22.07,22.07,0,0,0,4.41-6.55c.07-.14.13-.29.19-.43s.17-.4.25-.61c.19-.46.36-.94.52-1.42h0c.22-.67.42-1.37.59-2.08h0c.12-.49.22-1,.31-1.49a30.27,30.27,0,0,0,.55-5.24c.08-4.21.06-8.42,0-12.62h0q0-5.72,0-11.43c0-4.87.09-9.74-.07-14.61-.38-12.27-7.6-21.31-18.88-23.48a29.9,29.9,0,0,0-5.3-.64l-2.88-.08c-4.49-.2-9-.19-13.51,0-.82,0-1.63,0-2.45.06a28.65,28.65,0,0,0-6.77,1c-.28.07-.55.13-.83.22A22.3,22.3,0,0,0,296,188.29c-.05.24-.09.49-.13.74a30.26,30.26,0,0,0-.42,4.45c-.07,2.66-.08,5.31-.08,8q-.18,11.25,0,22.51C295.34,226.84,295.35,229.73,295.45,232.61Zm29.08-49.94,4.53,0q3.58,0,7.17.09l2.35.08.49,0,1,.11c5.57.82,8.52,4.5,8.84,10.62,0,.31,0,.62,0,.93v18.85c0,6,.08,12,0,18-.12,7-3.06,10.59-9.23,11.31h-.07l-1.26.09-.69,0-3.75.05c-3.5,0-7,0-10.51,0l-3.34-.06-.63,0-1.23-.1c-.38,0-.76-.11-1.11-.18h0c-5-1-7.71-4.37-7.79-10.11q-.3-19.56,0-39.11c.09-5.9,3.21-9.45,8.68-10.24.57-.07,1.17-.13,1.78-.15l2.35-.07C322.92,182.7,323.72,182.68,324.53,182.67Z"/><path class="cls-1" d="M93.37,256.54c6,.12,11.93.06,17.91,0,15.31-.11,24.92-9.61,25.18-25,.11-6.13,0-12.27,0-18.41h0c0-6.75.2-13.51,0-20.24C136,179.07,126.76,169.66,113,169c-6.72-.3-13.48-.3-20.21,0-13.94.63-23.37,10.32-23.58,24.3q-.32,19.56,0,39.13C69.43,246.62,79.25,256.28,93.37,256.54ZM82.94,194c.15-7.25,3.86-11,11.11-11.21,6-.15,12-.18,17.91,0,6.82.22,10.57,3.88,10.67,10.66q.27,19.32,0,38.64c-.1,6.95-3.73,10.47-10.58,10.63q-9.18.22-18.37,0c-7-.15-10.59-3.83-10.75-11-.12-6.29,0-12.58,0-18.87S82.82,200.27,82.94,194Z"/><path class="cls-1" d="M206.32,256.54c6.12.13,12.25.08,18.38,0,15-.15,24.63-9.79,24.91-24.79.1-6.13,0-12.28,0-18.42,0-6.74.16-13.5-.05-20.25-.41-13.35-8.93-22.88-22-23.89a149.84,149.84,0,0,0-23.4,0c-12.69,1-21.44,10.21-21.81,23q-.6,20.47,0,41C182.76,247,192.58,256.25,206.32,256.54Zm-10.19-63.35c.09-6.5,3.88-10.16,10.46-10.39,6.27-.22,12.55-.23,18.82,0,6.52.25,10.14,3.95,10.37,10.5s0,12.89,0,19.33h0c0,6.13.07,12.27,0,18.41-.11,8-3.58,11.58-11.45,11.69-5.82.08-11.64.11-17.45,0-6.91-.14-10.71-3.61-10.8-10.42Q195.81,212.74,196.13,193.19Z"/><path class="cls-1" d="M112.87,289.34c-6.28-.1-12.56,0-18.84,0-14.56.07-24.57,9.84-24.87,24.4-.14,6.44,0,12.89,0,19.33,0,6.61-.16,13.21,0,19.8.38,14.12,10.3,23.86,24.3,24,6.59.08,13.18.12,19.77,0,12.23-.26,22.34-9.11,22.88-21.36.64-14.84.65-29.77,0-44.61C135.59,298.42,125.35,289.53,112.87,289.34Zm9.8,62.5c-.15,7.65-3.79,11.15-11.45,11.21-5.81.05-11.63.07-17.45,0-6.56-.09-10.64-3.6-10.75-10q-.34-20,0-40.06c.11-6.17,4.21-9.72,10.46-9.83s12.56-.1,18.84,0,10,3.71,10.25,10c.25,6.59.06,13.19.06,19.79h0C122.7,339.26,122.79,345.56,122.67,351.84Z"/><path class="cls-1" d="M384.17,356.68a2.51,2.51,0,0,0-2.86-1.57,11.22,11.22,0,0,0-1.31.25c-2,.49-4.06,1-6.1,1.5l-1.78.37a27.1,27.1,0,0,1-12.38-.2,17.35,17.35,0,0,1-2.26-.71c-5.42-2-8.36-6.22-10.24-11.54h.88c3.91,0,7.82,0,11.72,0h3.45a3,3,0,0,0,.62-.06l.19,0,.36-.1.18-.09a2.49,2.49,0,0,0,.28-.15l.16-.13a2.09,2.09,0,0,0,.22-.2l.13-.17a2.13,2.13,0,0,0,.16-.25l.09-.2a1.63,1.63,0,0,0,.11-.31l.06-.23c0-.12,0-.24,0-.37a1.94,1.94,0,0,0,0-.24s0,0,0-.06c0-1.42,0-2.85,0-4.28,0-.06,0-.1,0-.15s0-.23,0-.34,0-.27-.05-.4a2.33,2.33,0,0,0,0-.28,2.58,2.58,0,0,0-.1-.33,1.73,1.73,0,0,0-.1-.24,2.26,2.26,0,0,0-.16-.26,1.33,1.33,0,0,0-.14-.19l-.23-.2-.17-.14-.31-.14-.21-.09-.43-.1-.21,0A6.1,6.1,0,0,0,363,335H346.55c-.29,0-.58,0-.84,0v-4.13h17.52a2.41,2.41,0,0,0,2.69-2.68v-4.29c0-2-.87-2.86-2.89-2.86H348c0-.1,0-.16,0-.2a16.86,16.86,0,0,1,7.48-8.69,10.67,10.67,0,0,1,1.13-.54,25.08,25.08,0,0,1,14.67-1.4l.34.07c2.94.54,5.84,1.35,8.76,2,2.2.5,3.19,0,4.1-2,.8-1.77,1.55-3.55,2.3-5.35,1.14-2.72.6-4.1-2.12-5.32l-.27-.13a47.3,47.3,0,0,0-10-2.8c-1.48-.23-3-.4-4.43-.6h-5a4.37,4.37,0,0,1-.49.12c-1.64.21-3.27.34-4.89.64-.84.15-1.66.33-2.47.55a31.27,31.27,0,0,0-15.55,9,31.88,31.88,0,0,0-3.09,3.82,37.35,37.35,0,0,0-4.85,10.12.83.83,0,0,1-1,.72c-2.38,0-4.77,0-7.15,0a2.32,2.32,0,0,0-2.51,2.4c0,1.66,0,3.34,0,5a2.33,2.33,0,0,0,2.44,2.4h6.18V335h-6a2.39,2.39,0,0,0-2.63,2.67c0,1.5,0,3,0,4.5a2.39,2.39,0,0,0,2.7,2.66c2.14,0,4.26.05,6.4,0,.72,0,.95.23,1.15.85a60.33,60.33,0,0,0,2.15,6.1c3.85,8.58,10.09,14.62,19.09,17.66l1,.3a39.86,39.86,0,0,0,16.32,1.56,44.17,44.17,0,0,0,4.47-.72,42,42,0,0,0,9.21-3c1.77-.83,2.42-2.17,1.73-3.91C386.25,361.28,385.22,359,384.17,356.68Z"/></g></g></svg>