<?xml version="1.0" encoding="utf-8"?>
<!-- Generator: Adobe Illustrator 26.0.0, SVG Export Plug-In . SVG Version: 6.00 Build 0)  -->
<svg version="1.1" id="Layer_1" xmlns="http://www.w3.org/2000/svg" xmlns:xlink="http://www.w3.org/1999/xlink" x="0px" y="0px"
	 viewBox="0 0 16 10.97" style="enable-background:new 0 0 16 10.97;" xml:space="preserve">
<style type="text/css">
	.st0{fill:#010913;}
</style>
<path class="st0" d="M10.19,10.97c-0.03-0.01-0.06-0.02-0.09-0.03c-0.67-0.18-0.99-0.89-0.68-1.51c0.02-0.03,0.03-0.06,0.03-0.12
	C9.36,9.38,9.28,9.45,9.19,9.52C8.82,9.81,8.33,9.83,7.95,9.58C7.49,9.28,7.34,8.68,7.6,8.19c0.02-0.04,0.05-0.08,0.07-0.13
	C7.44,8.24,7.19,8.35,6.89,8.34C6.6,8.32,6.35,8.21,6.15,7.99C5.8,7.6,5.79,7.13,6.13,6.57C5.89,6.7,5.64,6.76,5.38,6.7
	C4.96,6.61,4.67,6.36,4.56,5.94C4.45,5.53,4.55,5.16,4.88,4.88C5.43,4.4,6,3.93,6.56,3.46c0.16-0.14,0.32-0.28,0.49-0.41
	C7.12,3.01,7.2,2.98,7.28,2.97c0.24-0.01,0.49-0.01,0.73,0c0.07,0,0.16,0.04,0.21,0.09c0.5,0.49,0.98,0.99,1.49,1.48
	c0.56,0.53,1.22,0.71,1.96,0.49c0.73-0.21,1.19-0.71,1.37-1.44c0.11-0.44,0.06-0.88-0.13-1.29c-0.02-0.05-0.04-0.09-0.06-0.14
	c0,0,0-0.01,0.01-0.03c0.05,0,0.11,0,0.16,0c0.79,0,1.58,0.01,2.37,0c0.29,0,0.49,0.09,0.61,0.36c0,1.74,0,3.48,0,5.22
	c-0.11,0.28-0.31,0.38-0.6,0.37c-0.35-0.01-0.7-0.01-1.05,0c-0.08,0-0.17,0.03-0.24,0.09c-0.95,0.79-1.9,1.59-2.85,2.39
	c-0.22,0.19-0.45,0.37-0.74,0.44C10.42,10.97,10.3,10.97,10.19,10.97z"/>
<path class="st0" d="M0,1.28c0.13-0.27,0.34-0.35,0.63-0.35c0.96,0.01,1.93,0,2.89,0.01c0.11,0,0.18-0.02,0.26-0.1
	C4.34,0.26,5.02-0.01,5.81,0c0.91,0.01,1.82,0,2.73,0c0.6,0,1.12,0.21,1.54,0.63c0.57,0.57,1.15,1.13,1.72,1.71
	c0.46,0.46,0.46,1.15,0.01,1.56c-0.43,0.39-1.05,0.37-1.48-0.05C9.9,3.41,9.46,2.96,9.02,2.52C8.91,2.41,8.8,2.3,8.69,2.19
	C8.58,2.08,8.45,2.03,8.29,2.03c-0.43,0-0.85-0.01-1.28,0.01c-0.12,0-0.26,0.05-0.35,0.13C5.85,2.83,5.04,3.5,4.25,4.18
	C3.14,5.15,3.46,6.95,4.83,7.51C4.92,7.55,4.97,7.59,4.98,7.7c0.03,0.14,0.08,0.28,0.12,0.42C4,8.2,3.06,7.86,2.34,7
	C2.27,6.9,2.19,6.87,2.08,6.87C1.59,6.88,1.1,6.87,0.61,6.88C0.32,6.89,0.12,6.8,0,6.53C0,4.78,0,3.03,0,1.28z"/>
</svg>
