<svg width="42" height="56" viewBox="0 0 42 56" fill="none" xmlns="http://www.w3.org/2000/svg">
<path d="M37.4058 7.97481C34.5386 4.3226 30.5396 1.73267 26.0407 0.614265C21.5419 -0.504141 16.7998 -0.0872685 12.5635 1.79902C8.09872 3.82428 4.4635 7.32688 2.26704 11.72C0.0705711 16.113 -0.553722 21.1297 0.498728 25.9294C1.42304 30.053 3.01566 33.9965 5.21316 37.6029C8.57084 43.3068 12.9107 48.6487 18.4611 53.9448C18.6944 54.1596 18.9416 54.3586 19.2012 54.5404L19.5804 54.9207L20.4301 55.7728C20.5757 55.9183 20.7728 56 20.9783 56C21.1838 56 21.3809 55.9183 21.5265 55.7728L22.3716 54.9207L22.6686 54.6275C22.9694 54.421 23.2549 54.1928 23.5228 53.9448C28.2555 49.5378 32.4122 44.547 35.8937 39.0919C38.6347 34.7166 40.3614 30.8453 41.2934 26.8594C42.9699 19.7903 41.6589 13.4359 37.4058 7.97481Z" fill="#FB9E1B"/>
<path d="M37.4058 7.97481C34.5386 4.3226 30.5396 1.73267 26.0407 0.614265C21.5419 -0.504141 16.7998 -0.0872685 12.5635 1.79902C8.09872 3.82428 4.4635 7.32688 2.26704 11.72C0.0705711 16.113 -0.553722 21.1297 0.498728 25.9294C1.42304 30.053 3.01566 33.9965 5.21316 37.6029C8.57084 43.3068 12.9107 48.6487 18.4611 53.9448C18.6944 54.1596 18.9416 54.3586 19.2012 54.5404L19.5804 54.9207L20.4301 55.7728C20.5757 55.9183 20.7728 56 20.9783 56C21.1838 56 21.3809 55.9183 21.5265 55.7728L22.3716 54.9207L22.6686 54.6275C22.9694 54.421 23.2549 54.1928 23.5228 53.9448C28.2555 49.5378 32.4122 44.547 35.8937 39.0919C38.6347 34.7166 40.3614 30.8453 41.2934 26.8594C42.9699 19.7903 41.6589 13.4359 37.4058 7.97481ZM39.3245 24.5092H35.7384C35.6597 23.8361 35.4449 23.1863 35.1072 22.5994C34.7694 22.0125 34.3158 21.501 33.774 21.096C33.1305 20.5984 32.3711 20.2735 31.5675 20.1522C31.3037 20.1043 31.0362 20.0798 30.7681 20.0789C29.5441 20.0797 28.363 20.5314 27.4492 21.3482C26.5354 22.1649 25.9526 23.2898 25.8115 24.5092H20.0189C19.8709 23.2902 19.2842 22.1674 18.369 21.3517C17.4538 20.5359 16.2731 20.0833 15.0487 20.0789C13.8241 20.0796 12.6425 20.5311 11.728 21.3478C10.8134 22.1645 10.2297 23.2894 10.0875 24.5092H7.80339C7.52261 23.7783 7.37856 23.0017 7.37852 22.2185C7.37838 20.8513 7.81731 19.5205 8.63022 18.423C9.44313 17.3256 10.5868 16.5198 11.892 16.1252C12.4838 15.942 13.0999 15.8493 13.7193 15.8503C13.9253 15.8493 14.1312 15.86 14.336 15.8823C14.4468 15.0773 14.6666 14.2912 14.9893 13.5458C15.6843 11.9386 16.8333 10.5706 18.2945 9.61072C19.7558 8.65083 21.4653 8.14107 23.2122 8.14432C25.0782 8.14715 26.8968 8.73462 28.4136 9.82463C29.9305 10.9146 31.0699 12.4527 31.6726 14.2239H18.2876C18.0103 14.2178 17.7389 14.3047 17.5164 14.4706C17.2938 14.6365 17.1328 14.8721 17.0587 15.1401C17.0113 15.3229 17.0062 15.5142 17.0439 15.6992C17.0816 15.8843 17.161 16.0582 17.2761 16.2077C17.3912 16.3572 17.5389 16.4783 17.7079 16.5616C17.8769 16.645 18.0627 16.6885 18.251 16.6887H34.5369C34.5092 15.8573 34.3866 15.0318 34.1714 14.2284C33.5348 11.7985 32.1139 9.64823 30.1305 8.11331C28.1471 6.57839 25.7128 5.74516 23.2076 5.74365C20.8255 5.74465 18.5041 6.49741 16.5724 7.89528C14.6407 9.29315 13.1966 11.2652 12.4448 13.5321C10.3744 13.8455 8.48474 14.8929 7.11854 16.4841C5.75234 18.0753 5.00014 20.1049 4.99847 22.2047C4.99686 22.979 5.10141 23.7497 5.30913 24.4954C5.49164 25.1804 5.76028 25.8393 6.10858 26.4563C6.20126 26.6155 6.33498 26.7468 6.49576 26.8363C6.65653 26.9258 6.83843 26.9702 7.02223 26.9648H10.4758C10.85 27.888 11.4902 28.6784 12.3145 29.2349C13.1388 29.7915 14.1098 30.0889 15.1035 30.0893C16.0982 30.0911 17.0708 29.7945 17.8962 29.2377C18.7216 28.681 19.3622 27.8894 19.7357 26.9648H26.1998C26.5732 27.8876 27.2126 28.6778 28.0361 29.2344C28.8596 29.791 29.8299 30.0886 30.8229 30.0893C31.8173 30.0871 32.7887 29.789 33.6141 29.2328C34.4395 28.6766 35.0818 27.8873 35.4597 26.9648H38.8539C37.9403 30.4421 36.3825 33.9057 33.9339 37.7907C30.5634 43.0797 26.5353 47.9169 21.9467 52.1856C21.7125 52.3955 21.4637 52.5884 21.2021 52.7628L21.0879 52.8453H21.0422L20.9235 52.7583C20.6642 52.5842 20.417 52.3929 20.1834 52.1856C14.7791 47.0498 10.59 41.8728 7.33285 36.3659C5.26555 32.983 3.76698 29.2823 2.89707 25.4117C0.982965 16.4001 5.28626 7.78236 13.6142 3.97061C17.359 2.30472 21.5504 1.93769 25.5264 2.92749C29.5024 3.91729 33.0361 6.20751 35.5694 9.43628C38.991 13.9123 40.2381 18.874 39.3245 24.5092ZM33.3035 25.0956C33.3026 25.451 33.2274 25.8022 33.0826 26.1266C32.9378 26.451 32.7267 26.7412 32.4629 26.9786C31.9983 27.3992 31.3941 27.6311 30.7681 27.6291C30.1436 27.6304 29.541 27.3985 29.0778 26.9786L28.959 26.8686C28.5001 26.3933 28.2445 25.7572 28.2464 25.0956C28.2467 24.8984 28.2681 24.7018 28.3104 24.5092C28.3104 24.4725 28.3103 24.4405 28.3423 24.3992C28.465 23.963 28.7023 23.5679 29.0293 23.2552C29.3564 22.9425 29.7613 22.7237 30.2016 22.6216C30.3876 22.5799 30.5775 22.5584 30.7681 22.5575C31.1115 22.559 31.451 22.6314 31.7653 22.7701C32.0797 22.9088 32.3623 23.1109 32.5954 23.3638C32.9017 23.6818 33.115 24.078 33.2121 24.5092C33.2682 24.6998 33.2989 24.8969 33.3035 25.0956ZM17.5795 25.0956C17.5795 25.4507 17.5051 25.8018 17.3611 26.1262C17.2171 26.4506 17.0066 26.741 16.7435 26.9786C16.2788 27.3992 15.6746 27.6311 15.0487 27.6291C14.4227 27.6311 13.8185 27.3992 13.3539 26.9786C13.0913 26.7408 12.8816 26.4502 12.7384 26.1258C12.5951 25.8014 12.5215 25.4504 12.5224 25.0956C12.5249 24.8985 12.5463 24.7021 12.5864 24.5092C12.7179 23.9534 13.0326 23.4585 13.4794 23.1043C13.9263 22.7501 14.4791 22.5575 15.0487 22.5575C15.6184 22.5567 16.1717 22.749 16.6187 23.1033C17.0657 23.4576 17.3801 23.9531 17.511 24.5092C17.5571 24.7012 17.5801 24.8981 17.5795 25.0956Z" fill="#31124B"/>
</svg>
