<svg xmlns="http://www.w3.org/2000/svg" viewBox="0 0 499.94 482.6"><defs><style>.cls-1{fill:#fff;}</style></defs><g id="Layer_2" data-name="Layer 2"><g id="Layer_1-2" data-name="Layer 1"><path class="cls-1" d="M499.94,310.37v-4.89c-2.64-1.92-5.15-5.28-7.93-5.51a218.51,218.51,0,0,0-25.85-.17,7.45,7.45,0,0,0-7.47,6.5,7.74,7.74,0,0,0,4.23,8.95,28.79,28.79,0,0,0,3.4,1.37V341H441.54c0-10.46,0-20.53,0-30.6,0-26.68.26-53.38-.32-80-.36-16.15-14.08-29.76-30.2-30.25-18.53-.55-37.09-.14-55.63-.09a20.09,20.09,0,0,0-4.81.69c-16.08,4.18-25.49,16.66-25.53,34.19-.07,33.52,0,67.05,0,100.57v5.63H308.35V335c0-33.2.07-66.4,0-99.6-.07-20.71-12.95-34.93-32.86-35.5-17.72-.5-35.46-.1-53.2.1-6.71.07-12.61,2.77-17.86,6.89-9.48,7.46-12.88,17.56-12.87,29.21q0,49.54,0,99.1V341H174.86V301.07c0-22.46.15-44.92-.06-67.37-.18-19.32-13.28-33.18-32.45-33.77-17.23-.54-34.49-.13-51.74-.06a27.79,27.79,0,0,0-6.74.85c-16.09,4.17-25.45,16.62-25.5,34.21-.09,33.52,0,67,0,100.57v5.61H33.48V316.62c6.35-2.36,8.61-5.29,7.78-10s-4.12-6.92-10.67-6.95c-7.16,0-14.32-.11-21.48,0C3.68,299.79,0,303.25,0,307.9s3.61,8.1,9,8.35c2.39.1,4.78,0,7.6,0,0,7.19-.23,13.84.08,20.46.2,4.14-.8,6.64-4.84,8.71A19.49,19.49,0,0,0,.89,360.75c-.72,6.54-1,21.39.1,27.81,1.9,10.75,11.14,18.26,22.06,18.74,9.91.43,19.84.19,29.77.28,1.73,0,3.46.17,5.31.26v24.47l-3.45.63c-12.23,2.29-20.3,10.9-21.27,23.3a153.5,153.5,0,0,0-.12,17.56c.2,5.27,3.18,8.58,8.11,8.63,16.75.18,33.52.13,50.28,0,4,0,7.52-2.2,7.67-6.13.31-8.55.85-17.39-.88-25.66C96,439,86.78,433.81,75.34,432.41V407.9H424.58v24.49C407.45,435.33,400.05,444,400,461c0,4.23-.13,8.47.06,12.69.27,5.73,3.22,8.74,8.92,8.78q24.16.18,48.33,0c5.91,0,9-3.13,9.31-9,.19-3.9.05-7.81.05-11.72,0-17.45-7.17-26.13-24.15-29.31-.27-.05-.47-.38-.69-.56V407.57h5.52c8.79,0,17.58-.05,26.37,0,7,0,13.51-1.65,18.14-6.88,3.33-3.76,5.43-8.62,8.08-13V362.13c-2.48-8.26-6.82-15-15-18.69-.83-.38-1.51-2-1.53-3.11-.13-7.78-.07-15.56-.07-23.94C489.56,316.07,496.54,317.63,499.94,310.37Z"/><path class="cls-1" d="M378.59,17.33c-10.23-4.58-20.47-9.16-30.53-14.09-8.45-4.15-16.62-4.17-25.41-.89-48.39,18.08-96.89,35.88-145.3,53.92-3.74,1.4-6.52,1.16-9.84-1.13-8.16-5.62-16.65-10.78-24.93-16.23A11.84,11.84,0,0,0,131,37.71c-6.2,2.42-12.5,4.61-18.72,7-8.27,3.14-9.91,8.17-5,15.48,5.35,8,10.61,16,16.32,23.71a23.06,23.06,0,0,0,8,6.69c10,5,20.42,9.28,30.48,14.22a30,30,0,0,0,25.4,1c14.23-5.54,28.63-10.63,44-16.29-5.2,14.69-10.06,28.44-14.93,42.17-1.36,3.85-2,7.66,1.32,10.89s7,2.71,10.85,1.24c11.1-4.17,22.21-8.34,33.39-12.29a15.4,15.4,0,0,0,9.61-8.88q12.16-27.14,24.93-54a11.22,11.22,0,0,1,5.62-5.23q37.82-14.34,75.83-28.19c4.23-1.55,8-3.46,8.24-8.45C386.63,21.48,382.84,19.23,378.59,17.33Z"/></g></g></svg>