<svg width="53" height="56" viewBox="0 0 53 56" fill="none" xmlns="http://www.w3.org/2000/svg">
<g clip-path="url(#clip0_39_344)">
<path d="M28.6561 6.69435e-06C29.4565 0.269897 30.303 0.262602 31.1251 0.409947C35.5098 1.17595 39.6257 3.07106 43.0764 5.91278C48.0923 10.0239 51.2565 15.3035 52.4953 21.7108C53.5539 27.186 52.9366 32.5064 50.72 37.6125C50.6839 37.6956 50.6349 37.7729 50.593 37.8532C50.3277 37.8328 50.2542 37.6023 50.1518 37.4155C46.3285 30.6639 42.4534 23.9429 38.6244 17.1971C37.6197 15.427 36.6102 13.6603 35.5958 11.8971C35.5018 11.7108 35.3943 11.5319 35.2742 11.3617C34.7493 9.92759 34.1825 8.51103 33.3749 7.21118C31.4683 4.14027 28.8926 1.84255 25.6001 0.377852C25.4083 0.293238 25.1213 0.299075 25.0896 -0.0131226H26.8202C27.0647 0.0773495 27.3329 0.0773495 27.5774 -0.0131226L28.6561 6.69435e-06Z" fill="#FEDC40"/>
<path d="M23.917 0.118154C24.0901 0.0700116 24.2992 0.189641 24.4391 -0.00292969H25.0881C26.6104 0.638996 28.0438 1.47804 29.3526 2.49319C32.0347 4.60171 34.0501 7.45622 35.1516 10.7066C35.2295 10.9269 35.2958 11.1443 35.3737 11.3733C35.5179 11.5994 35.5655 11.8737 35.7039 12.1027C36.1452 13.671 36.2491 15.2787 36.2722 16.898C36.2909 18.0505 36.2981 19.2045 36.2794 20.357C36.3068 24.7978 36.2794 29.2371 36.2924 33.6779C36.2989 33.8598 36.296 34.0419 36.2837 34.2235C36.2952 37.4564 36.2976 40.6902 36.2909 43.925C36.2909 45.4145 36.3169 46.904 36.2736 48.3935C36.2866 49.0675 36.2981 49.7429 36.2635 50.4169C36.1525 51.2018 36.0645 51.991 35.6953 52.7146C35.6043 52.9314 35.4543 53.1176 35.2627 53.2515C34.3642 54.6695 33.1167 55.5769 31.4697 55.8979C31.4265 55.9066 31.3918 55.9606 31.3544 55.9942H30.7054C30.4328 55.7826 30.1847 55.5565 30.078 55.2064C29.8588 54.5076 30.1444 53.9955 30.8568 53.7986C32.6018 53.5228 33.9272 51.9633 33.92 50.0186C33.8767 38.6833 33.92 27.3479 33.8854 16.0125C33.8738 12.4003 32.599 9.21418 30.3102 6.44233C28.4585 4.20006 26.1279 2.68867 23.418 1.72291C23.2392 1.08392 23.5839 0.603956 23.917 0.118154Z" fill="#FE7185"/>
<path d="M30.8236 53.9372C30.1472 54.1531 29.9352 54.938 30.391 55.5215C30.5092 55.6674 30.7097 55.7666 30.7039 56H5.95039C5.7182 55.8074 5.41823 55.8279 5.15287 55.7389C4.04591 55.371 3.0792 54.6645 2.38632 53.7169C1.69345 52.7693 1.3086 51.6274 1.28494 50.449C1.23888 50.2542 1.22716 50.0527 1.25033 49.8538C1.25033 45.1154 1.32677 40.3712 1.22582 35.6386C1.13352 31.262 1.1912 26.8957 1.14938 22.5249C1.14938 22.3425 1.14938 22.1602 1.14938 21.9793C1.16092 21.7284 1.0686 21.3957 1.30656 21.2688C1.54452 21.1419 1.70028 21.4541 1.89642 21.5606C2.11475 21.693 2.36306 21.7663 2.61751 21.7736C2.83383 21.7736 3.05017 21.7648 3.23621 21.9195C3.28872 21.967 3.32927 22.0265 3.35448 22.0931C3.41571 22.4336 3.43749 22.7803 3.41937 23.126C3.41937 32.0737 3.41937 41.0214 3.41937 49.9691C3.41937 51.1362 3.7424 52.1574 4.63078 52.9495C5.16655 53.4159 5.82412 53.7158 6.52438 53.8132C6.76728 53.8815 7.0198 53.9082 7.27142 53.892H29.4247C29.6949 53.9004 29.965 53.8759 30.2294 53.819C30.4328 53.7519 30.6563 53.7461 30.8236 53.9372Z" fill="#FE4155"/>
<path d="M27.5745 0C27.4656 0.0836539 27.3327 0.128942 27.196 0.128942C27.0592 0.128942 26.9263 0.0836539 26.8174 0H27.5745Z" fill="#FEDF51"/>
<path d="M36.1134 16.8368C36.1041 15.223 35.9209 13.6151 35.5668 12.0415C35.5178 11.9233 35.4774 11.811 35.675 11.8154C37.5498 15.0881 39.4247 18.3598 41.2995 21.6306C44.3108 26.9039 47.3206 32.1787 50.329 37.4549C50.4083 37.6008 50.5063 37.7263 50.5958 37.8605C51.1899 39.1195 51.4539 40.4252 51.1568 41.8155C51.0162 42.5382 50.7346 43.2254 50.3285 43.8368C49.9224 44.4483 49.3999 44.9717 48.7916 45.3766C48.3013 45.7077 47.7821 45.982 47.2643 46.2825C46.399 46.0724 46.2 45.432 46.2058 44.6501C46.2332 44.421 46.4077 44.3204 46.5764 44.2124C46.8966 44.0082 47.2283 43.8229 47.5427 43.6113C49.1392 42.5347 49.6136 40.5477 48.6546 38.8554C47.0148 35.9625 45.3506 33.0842 43.6978 30.1985C41.2606 25.9416 38.8204 21.6861 36.3774 17.432C36.2649 17.2394 36.2461 17.0133 36.1134 16.8368Z" fill="#5C5C86"/>
<path d="M46.2808 44.6252C46.3335 44.7394 46.3671 44.8617 46.3803 44.987C46.3505 45.2155 46.4003 45.4473 46.5211 45.6427C46.6419 45.8381 46.8262 45.9849 47.0423 46.0578C47.1317 46.0958 47.1865 46.2037 47.2644 46.2825C44.8069 47.7297 42.3489 49.1769 39.8905 50.6241C38.5128 51.4333 37.1326 52.2381 35.75 53.0385C35.5972 53.1275 35.4616 53.2588 35.2698 53.2573C35.7817 52.4228 35.9909 51.495 36.112 50.5351C36.4899 50.0682 37.0494 49.8684 37.5398 49.5766C40.241 47.9719 42.9407 46.3671 45.6492 44.7755C45.7931 44.6653 45.9605 44.5909 46.138 44.5581C46.1918 44.5632 46.2423 44.5869 46.2808 44.6252Z" fill="#41416B"/>
<path d="M35.6752 11.8153L35.567 12.0415C35.4228 11.8416 35.4228 11.6038 35.3723 11.3762C35.4499 11.4244 35.5169 11.4883 35.569 11.5638C35.6211 11.6394 35.6572 11.725 35.6752 11.8153Z" fill="#876A81"/>
<path d="M8.10652 7.51896C9.56834 6.05751 11.2055 4.78715 12.9796 3.73758C13.2147 3.75655 13.3647 3.57273 13.5565 3.49104C15.9505 2.36771 18.4599 2.24808 21.0126 2.65073C21.2145 2.79661 21.1322 2.97898 21.0702 3.13799C20.5799 4.39845 20.13 5.67642 19.618 6.93104C19.575 7.0706 19.4819 7.18878 19.3569 7.2622C18.9156 7.29721 18.4657 7.21406 18.0287 7.34536C17.4284 7.41824 16.8768 7.71596 16.4827 8.17983C14.6756 9.95381 15.5496 12.8701 17.7359 13.5018C19.0339 13.8767 20.1588 13.5587 21.0717 12.5477C21.8649 11.6724 22.0495 10.2135 21.5389 9.11205C21.3688 8.74587 21.1063 8.43951 20.9087 8.09084C20.8323 7.84575 20.9231 7.62546 21.0097 7.40809C21.5101 6.14763 21.963 4.86966 22.4663 3.61504C22.5485 3.40788 22.5744 3.13653 22.8874 3.1234C24.5374 3.60866 26.07 4.43475 27.3884 5.54949C30.4415 8.08354 32.0885 11.3762 32.4808 15.3239C32.4993 15.5602 32.5055 15.7974 32.4995 16.0344C32.4995 27.29 32.4995 38.5456 32.4995 49.8013C32.4995 50.2389 32.4995 50.6766 32.3235 51.088C31.9832 51.8626 31.3991 52.2799 30.5655 52.3207C30.2061 52.3458 29.8452 52.3394 29.4868 52.3018C29.4263 52.2942 29.3668 52.28 29.3094 52.2594C27.749 51.6365 26.601 50.5993 26.0775 48.942C25.8352 48.1761 25.8352 47.3737 25.753 46.583C25.753 46.3248 25.9261 46.1526 26.0544 45.9586C27.2399 44.1788 27.1086 41.28 25.1415 39.6986C23.8983 38.6978 22.3004 38.622 20.926 39.5192C20.7183 39.6549 20.5381 39.8518 20.2641 39.8547C19.7478 39.6957 19.5084 39.3003 19.3858 38.8029C19.3618 38.6007 19.4027 38.3961 19.5026 38.2193C20.5828 35.6619 21.6183 33.0841 22.7042 30.5282C22.7331 30.4625 22.7605 30.394 22.7836 30.3254C22.9984 29.6893 22.7836 29.1393 22.2442 28.9147C21.7048 28.69 21.2073 28.9147 20.9145 29.4982C20.6737 29.9869 20.4718 30.4932 20.267 30.9979C19.5949 32.664 18.8882 34.3169 18.2061 35.9785C18.1325 36.1594 18.0878 36.368 17.8787 36.457C17.3653 36.476 17.1043 36.1652 16.937 35.7276C16.9283 35.4898 17.0812 35.3235 17.1966 35.144C18.3777 33.4153 18.1873 30.5501 16.4755 29.0168C15.3535 28.0189 13.6762 27.7826 12.3638 28.5077C12.1605 28.62 11.9788 28.7805 11.7336 28.7994C9.30496 28.5164 7.29744 27.504 5.95477 25.3594C5.50433 24.6138 5.15325 23.8113 4.91063 22.9727C4.88926 22.9164 4.87287 22.8583 4.86162 22.7991C4.86162 19.8814 4.6352 16.9637 5.07218 14.0722C5.36625 11.9866 6.18017 10.0111 7.43733 8.33155C7.65798 8.085 7.92913 7.84137 8.10652 7.51896Z" fill="#FE4155"/>
<path d="M7.5743 8.3155C6.78254 9.5322 6.09173 10.7956 5.65619 12.1975C5.23377 13.5644 5.00981 14.9861 4.99134 16.418C4.95528 18.6063 4.98267 20.783 4.98267 22.9654C4.05103 23.1011 3.5881 22.8677 3.26217 22.1018L3.24488 21.9836C3.11215 21.8082 3.05259 21.5872 3.07901 21.368C3.12083 19.222 2.97375 17.0745 3.16988 14.93C3.22247 14.498 3.31913 14.0727 3.45832 13.6608C4.15633 12.1596 5.15718 10.8627 6.17824 9.57597C6.5551 9.07101 6.98126 8.60572 7.45025 8.18712C7.55986 8.15649 7.5916 8.20901 7.5743 8.3155Z" fill="#E70054"/>
<path d="M22.8095 3.16863C22.1518 4.78506 21.5115 6.40877 20.9635 8.06605C20.8611 9.31921 20.1256 10.3711 19.142 10.6643C18.7872 10.7693 18.4339 10.8102 18.1079 10.5709C17.4431 9.78751 17.5715 9.17917 18.5089 8.66565C18.7771 8.52851 18.8146 8.23965 18.9271 8.00185C19.0555 7.72905 19.1074 7.41831 19.3425 7.19948L21.0601 2.73535C20.9952 2.15181 21.3889 1.72144 21.5216 1.20501C21.6658 0.957 21.6485 0.621457 21.9283 0.449311L22.4951 0.328227C22.6552 0.199847 22.8715 0.351567 23.0316 0.221728C23.3301 0.212975 23.6084 0.0437465 23.917 0.121066C23.7334 0.625834 23.5498 1.13158 23.3662 1.63829C23.3707 2.19991 23.1728 2.74396 22.8095 3.16863Z" fill="#E2E6FB"/>
<path d="M3.44831 13.6608C3.12237 16.4327 3.29689 19.2045 3.2392 21.9764C3.06673 21.9433 2.89098 21.9311 2.71567 21.9399C2.15755 22.0172 1.70617 21.775 1.2937 21.2105V21.8772C1.2937 31.1614 1.29752 40.4461 1.30522 49.7313C1.30522 49.9676 1.28936 50.2025 1.28071 50.4388C1.16101 50.236 1.21437 50.0114 1.21293 49.7984C1.21293 45.2273 1.21293 40.6562 1.21293 36.085C1.21293 35.5934 1.19708 35.1018 1.18843 34.6101C1.06769 34.0421 1.00918 33.4624 1.01393 32.8814C1.01393 29.2955 1.00381 25.7096 1.02111 22.1252C1.02111 20.9829 1.13796 19.842 1.23026 18.7012C1.72671 17.1284 2.3634 15.6044 3.13248 14.1481C3.22766 13.9774 3.34735 13.8315 3.44831 13.6608Z" fill="#FE7185"/>
<path d="M1.23306 18.7085C1.36286 19.3752 1.32393 20.0521 1.27922 20.7159C1.135 22.786 1.23596 24.8562 1.21577 26.9263C1.18981 29.4895 1.19704 32.0542 1.19127 34.6174C0.682178 33.233 0.424007 31.7858 0.232198 30.3313C-0.281766 26.4297 0.0599412 22.4614 1.23306 18.7085Z" fill="#FEDC40"/>
<path d="M21.6413 1.20357L21.0644 2.73537C20.2092 2.65222 19.3511 2.62304 18.4901 2.61283C17.0024 2.59707 15.5245 2.85869 14.1304 3.38457C13.8954 3.47064 13.6531 3.53775 13.4093 3.61361C13.3762 3.58881 13.3646 3.56255 13.3762 3.53775C13.3877 3.51295 13.3978 3.50128 13.4093 3.50128C15.4233 2.29408 17.6066 1.40279 19.8847 0.857816C20.2885 0.780513 20.7028 0.777548 21.1077 0.849063C21.3312 0.892829 21.5908 0.894287 21.6413 1.20357Z" fill="#E70054"/>
<path d="M21.6413 1.20358C21.0976 0.873873 20.4775 0.940981 19.8862 0.857826C20.5583 0.675468 21.226 0.471224 21.9283 0.449341C21.8332 0.702211 21.7375 0.953624 21.6413 1.20358Z" fill="#FD7489"/>
<path d="M7.57442 8.31553L7.44604 8.19444C7.63046 7.93617 7.85328 7.70832 8.10657 7.51898C8.05321 7.86911 7.7994 8.08211 7.57442 8.31553Z" fill="#ED1155"/>
<path d="M13.4109 3.50128V3.61945C13.2869 3.72886 13.1773 3.89517 12.9783 3.74345L13.4109 3.50128Z" fill="#EE1758"/>
<path d="M23.0316 0.221739C22.8802 0.401179 22.6754 0.301978 22.4951 0.328238C22.6451 0.148797 22.8499 0.243622 23.0316 0.221739Z" fill="#EDDAE9"/>
<path d="M36.1179 34.2352C36.1121 30.4947 36.1064 26.7537 36.1006 23.0122C36.1006 22.1237 36.1136 21.2338 36.1208 20.3439C36.3862 20.3045 36.4482 20.5263 36.5419 20.6911C39.5878 26.0218 42.6654 31.3408 45.6925 36.6759C46.2203 37.6081 46.7799 38.5228 47.2962 39.4623C47.9971 40.7388 47.7289 41.7615 46.49 42.5259C45.3478 43.2335 45.3363 43.2554 44.0484 42.8863C40.9535 42.011 38.6446 40.1538 37.1765 37.2434C36.6934 36.2849 36.2448 35.3191 36.1179 34.2352Z" fill="#41416B"/>
<path d="M22.8096 3.16865C22.9951 2.65999 23.1807 2.14988 23.3663 1.63831C24.1984 1.70104 24.9137 2.11535 25.6204 2.49174C30.0277 4.83613 32.7534 8.49205 33.8004 13.4143C33.9715 14.1952 34.06 14.9923 34.0643 15.7922C34.0643 27.3066 34.0643 38.8214 34.0643 50.3367C34.0663 51.2378 33.7348 52.107 33.1351 52.7733C32.5353 53.4396 31.7108 53.8548 30.8238 53.9372C30.3709 53.8511 29.9397 54.0378 29.4869 54.0378C22.0452 54.0242 14.6031 54.0198 7.16052 54.0247C6.93555 54.0247 6.68894 54.1064 6.4856 53.927C6.77403 53.6644 7.13603 53.7533 7.46773 53.7533C14.5825 53.7475 21.6972 53.7475 28.8119 53.7533C28.9374 53.7533 29.0643 53.7533 29.1898 53.7533C29.4998 53.7723 29.6224 53.7008 29.4782 53.3507C29.3265 52.982 29.2685 52.5808 29.3095 52.1836C29.9642 52.1223 30.6363 52.3295 31.278 52.0144C31.9905 51.6657 32.3107 51.0763 32.3323 50.3148C32.3568 49.4395 32.3323 48.5642 32.3323 47.6888V16.5173C32.3323 12.4631 30.8454 9.04788 27.9625 6.26145C26.6188 4.98899 25.0301 4.01061 23.2956 3.38748C23.1298 3.32767 22.9408 3.31308 22.8096 3.16865Z" fill="#E70054"/>
<path d="M36.1178 34.2352C36.4826 35.2943 36.8389 36.3505 37.3768 37.3455C38.9632 40.3186 41.4005 42.0941 44.6338 42.9154C45.6145 43.1634 46.076 42.5157 46.7293 42.1947C47.2716 41.9292 47.4778 41.3617 47.5485 40.7928C47.635 40.0969 47.2038 39.5484 46.8879 38.9911C45.0823 35.8137 43.2657 32.6426 41.4379 29.4778C39.8227 26.671 38.2036 23.8665 36.5807 21.0645C36.4365 20.818 36.3947 20.5043 36.1207 20.3439C36.1207 19.1768 36.1182 18.0097 36.1134 16.8426C36.7264 17.5647 37.0956 18.4386 37.5643 19.2497C40.1487 23.7168 42.722 28.1906 45.2843 32.6713C46.474 34.7458 47.697 36.8013 48.8349 38.9035C49.7925 40.6731 49.2675 42.8585 47.2485 43.976C46.9081 44.1657 46.5274 44.3116 46.2721 44.6296H46.164C45.8077 44.4472 45.4429 44.259 45.3232 43.836C45.2035 43.4129 45.0131 43.3983 44.6583 43.6069C43.0719 44.5712 41.4625 45.5035 39.8689 46.4503C38.8002 47.0892 37.7359 47.7311 36.6514 48.3468C36.4898 48.4372 36.3355 48.6181 36.1149 48.4679C36.1077 46.8631 36.0933 45.2715 36.0933 43.674C36.1 40.5229 36.1082 37.3766 36.1178 34.2352Z" fill="#35355E"/>
<path d="M36.1207 48.4548C37.7071 47.632 39.2214 46.6575 40.7688 45.7544C42.1331 44.9608 43.4815 44.138 44.8415 43.3356C44.9684 43.2598 45.2179 43.1051 45.2554 43.2991C45.3693 43.8958 45.8107 44.2226 46.1698 44.6238C43.9584 45.9368 41.7427 47.2498 39.5228 48.5627C38.3892 49.2294 37.247 49.8757 36.1091 50.538C36.1139 49.8436 36.1178 49.1492 36.1207 48.4548Z" fill="#28284C"/>
<path d="M29.3037 52.1749C29.3844 52.3324 29.5474 52.4535 29.5186 52.6592C29.4537 53.1363 29.644 53.5083 30.1257 53.927H6.48556C4.7463 53.8555 3.25073 52.1763 3.25073 50.2798C3.25073 43.5457 3.25073 36.8111 3.25073 30.076C3.25073 27.4179 3.25507 24.7604 3.26372 22.1033C3.63869 22.7977 4.32804 22.8473 4.98423 22.9684C5.11706 23.4604 5.17448 23.9701 5.15443 24.4798V49.4657C5.1346 49.8668 5.16855 50.2687 5.25538 50.6606C5.47603 51.4688 6.02118 51.9283 6.84177 51.9852C7.09415 52.0027 7.34654 51.9954 7.59892 51.9954H27.9769C28.4267 51.9724 28.8768 52.0328 29.3051 52.1734L29.3037 52.1749Z" fill="#CB0053"/>
<path d="M29.3023 52.1734C21.8967 52.1734 14.4897 52.1544 7.08407 52.1894C5.79765 52.1967 4.97852 51.2864 4.97852 50.0347C4.97852 41.0121 4.97852 31.989 4.97852 22.9655C5.27705 23.2879 5.25683 23.7357 5.42124 24.115C6.57498 26.7731 8.59402 28.2393 11.4034 28.6521C11.5115 28.6682 11.6197 28.6667 11.6918 28.7703C11.7149 29.119 11.4221 29.2619 11.2375 29.4676C9.42041 31.51 9.89632 35.0711 12.2471 36.4483C13.6157 37.2507 15.1083 37.1019 16.3803 36.0952C16.5563 35.9494 16.6904 35.7262 16.9572 35.7524C17.2312 36.0004 17.4144 36.3724 17.837 36.4206C18.0014 36.6686 17.8254 36.8801 17.7418 37.0844C16.7625 39.474 15.766 41.8563 14.7752 44.243C14.6142 44.589 14.4768 44.9458 14.3642 45.3109C14.2099 45.8944 14.432 46.389 14.9137 46.583C15.4256 46.7902 15.9491 46.5932 16.2116 46.0389C16.7741 44.8718 17.2211 43.6624 17.7259 42.4734C18.1816 41.4026 18.6056 40.3172 19.0729 39.2508C19.1508 39.0728 19.1854 38.8569 19.4205 38.8C19.6107 39.2051 19.8899 39.5609 20.2367 39.8402C20.2194 40.199 19.9483 40.4237 19.768 40.6819C18.5234 42.4982 18.7787 45.1635 20.3521 46.6997C20.9713 47.3238 21.7935 47.699 22.6658 47.7556C23.5381 47.8122 24.401 47.5464 25.094 47.0076C25.319 46.8398 25.4935 46.5699 25.8151 46.5699C26.0703 47.0586 25.9362 47.6042 26.017 48.1207C26.3141 49.9968 27.3496 51.2354 29.0239 51.994C29.1221 52.0448 29.2153 52.1049 29.3023 52.1734Z" fill="#E70054"/>
<path d="M25.8309 46.5685C25.0679 47.2979 24.2228 47.8581 23.1325 47.9062C21.0673 47.9967 19.2603 46.4022 18.9214 44.2139C18.6604 42.5332 19.119 41.0846 20.2496 39.8373C22.2283 38.1158 24.3411 38.6702 25.5496 39.865C27.1966 41.4872 27.4375 44.2416 26.0948 46.1614C26.0025 46.2957 25.9188 46.4343 25.8309 46.5685Z" fill="#E2E6FB"/>
<path d="M16.9642 35.7524C16.2431 36.4658 15.4312 37.0128 14.3885 37.0829C12.2339 37.2288 10.3504 35.5846 10.0518 33.3205C9.811 31.5071 10.3532 29.9942 11.6916 28.7703C14.6596 26.6126 17.9665 29.027 18.0905 32.254C18.1477 33.5198 17.7473 34.7634 16.9642 35.7524Z" fill="#E2E6FB"/>
<path d="M19.4333 38.8C18.4411 41.1731 17.4493 43.5476 16.4581 45.9236C16.2735 46.37 16.0182 46.7216 15.5236 46.8091C15.3196 46.8559 15.1066 46.8428 14.9097 46.7715C14.7127 46.7002 14.54 46.5736 14.4116 46.4065C14.0987 46.0155 14.0814 45.5793 14.2674 45.1242C15.0799 43.1634 15.8913 41.2022 16.7018 39.2406C17.0883 38.304 17.4619 37.3601 17.8411 36.4206C18.7065 34.3636 19.5718 32.3071 20.4371 30.251C20.5423 30.0001 20.6433 29.7477 20.7543 29.4983C21.0745 28.7834 21.6903 28.5077 22.3292 28.7863C22.9234 29.0475 23.1786 29.7142 22.9061 30.3911C22.0407 32.5079 21.1524 34.6218 20.277 36.7284C19.9871 37.4199 19.7117 38.1114 19.4333 38.8Z" fill="#E2E6FB"/>
<path d="M18.1672 10.4878C18.5782 10.6289 19.0261 10.6116 19.4253 10.4394C19.8245 10.2671 20.1468 9.95185 20.3305 9.55408C20.567 9.0712 20.7631 8.56351 20.9693 8.06604C22.2817 9.28856 22.3308 11.4579 21.0775 12.765C20.7686 13.0897 20.3986 13.3485 19.9893 13.5262C19.58 13.7039 19.1396 13.797 18.6942 13.7998C18.2488 13.8027 17.8073 13.7153 17.3958 13.5428C16.9843 13.3704 16.6111 13.1163 16.2982 12.7957C15.9917 12.4809 15.7511 12.1069 15.5907 11.696C15.4304 11.2851 15.3536 10.8457 15.3649 10.4041C15.3762 9.96247 15.4754 9.52768 15.6565 9.12571C15.8377 8.72374 16.0971 8.36284 16.4193 8.06458C16.7567 8.22797 16.7928 8.58685 16.8894 8.88008C17.099 9.56019 17.5556 10.1347 18.1672 10.4878Z" fill="#FEDC40"/>
<path d="M18.5912 21.6568C17.2774 21.6568 15.9635 21.6568 14.6512 21.6568C13.9921 21.6568 13.633 21.3534 13.6186 20.8063C13.6042 20.233 13.9719 19.9062 14.6526 19.9062C17.2802 19.9062 19.907 19.9062 22.5327 19.9062C23.1918 19.9062 23.5523 20.2096 23.5667 20.7552C23.5811 21.3257 23.2105 21.6539 22.5312 21.6568C21.2232 21.6597 19.9093 21.6568 18.5912 21.6568Z" fill="#FE7185"/>
<path d="M18.591 24.8313C17.2777 24.8313 15.9643 24.8313 14.651 24.8313C13.9746 24.8313 13.6184 24.5396 13.6184 23.9983C13.6184 23.4002 13.9631 23.0822 14.638 23.0822C17.2455 23.0822 19.8544 23.0822 22.4618 23.0822C22.844 23.0822 23.1829 23.1741 23.4209 23.479C23.5144 23.6031 23.5695 23.7525 23.5793 23.9082C23.589 24.064 23.553 24.2192 23.4757 24.3543C23.3026 24.703 23.0128 24.8372 22.6378 24.8357C21.2937 24.8299 19.9448 24.8284 18.591 24.8313Z" fill="#FE7185"/>
<path d="M18.5552 18.4823C18.0706 18.4823 17.586 18.4925 17.1029 18.4823C16.5822 18.4692 16.1135 18.0315 16.1222 17.591C16.1323 17.0614 16.4871 16.7404 17.0928 16.7361C18.0975 16.7302 19.1022 16.7302 20.1069 16.7361C20.6679 16.7361 20.9809 17.0585 20.9838 17.5983C20.9867 18.138 20.6636 18.4648 20.1185 18.4823C19.6007 18.4998 19.0758 18.4823 18.5552 18.4823Z" fill="#FE7085"/>
<path d="M18.167 10.4878C17.5729 10.3565 17.195 9.97137 16.9643 9.42429C16.7739 8.9735 16.5965 8.51833 16.4133 8.06463C16.6065 7.82422 16.8451 7.62528 17.1153 7.47948C17.3855 7.33367 17.6818 7.24395 17.9868 7.21558C18.3624 7.65203 18.5787 8.20557 18.5997 8.78386C17.7329 9.16316 17.6031 9.67814 18.167 10.4878Z" fill="#C7CDFA"/>
<path d="M18.5997 8.78383C18.395 8.26156 18.1906 7.7388 17.9868 7.21555C18.4253 7.0634 18.9005 7.05777 19.3424 7.19949C19.1247 7.74219 19.1059 8.37972 18.5997 8.78383Z" fill="#FDDC42"/>
<path d="M21.187 43.515C21.187 42.6499 21.3803 42.0766 21.8273 41.6083C22.4705 40.9343 23.3791 40.9445 24.0194 41.6258C24.8328 42.4909 24.8574 44.0854 24.0699 44.9812C23.3633 45.785 22.3033 45.7413 21.6629 44.8805C21.3692 44.4857 21.203 44.0089 21.187 43.515Z" fill="#FE4155"/>
<path d="M12.3204 32.5152C12.3 31.8891 12.5232 31.2799 12.942 30.8185C13.5953 30.1168 14.5284 30.1256 15.173 30.8316C15.9893 31.7274 15.9821 33.3482 15.1586 34.2366C15.0202 34.4001 14.8482 34.531 14.6546 34.6203C14.4609 34.7095 14.2504 34.7549 14.0376 34.7532C13.8248 34.7515 13.615 34.7029 13.4228 34.6106C13.2305 34.5184 13.0605 34.3848 12.9247 34.2191C12.5116 33.7524 12.2948 33.1411 12.3204 32.5152Z" fill="#FE4155"/>
</g>
<defs>
<clipPath id="clip0_39_344">
<rect width="53" height="56" fill="white"/>
</clipPath>
</defs>
</svg>
