<svg width="12" height="16" viewBox="0 0 12 16" fill="none" xmlns="http://www.w3.org/2000/svg">
<path d="M6.32434 16V7.8283C6.63501 7.78281 6.94613 7.73733 7.25771 7.69639C8.37766 7.54129 9.49852 7.39165 10.6176 7.22927C11.3422 7.12466 11.8231 7.52947 11.8231 8.25949C11.8231 10.2796 11.8231 12.2992 11.8231 14.3184C11.8231 14.9234 11.5138 15.28 10.9119 15.3646C9.38938 15.5761 7.86637 15.7862 6.32434 16ZM7.51449 12.3726C7.60507 12.3608 7.72779 12.3449 7.85097 12.3271C8.60093 12.2234 9.35089 12.1211 10.1008 12.0147C10.3064 11.9856 10.4428 11.8482 10.4631 11.6667C10.4971 11.3984 10.3078 11.1841 10.0329 11.205C9.77432 11.2251 9.51754 11.2696 9.25986 11.306C8.63308 11.3938 8.00586 11.478 7.38044 11.5753C7.14902 11.6112 7.02403 11.8086 7.05709 12.036C7.08924 12.2407 7.26179 12.379 7.51449 12.3726ZM7.45833 10.3017C7.46966 10.3017 7.48098 10.3017 7.4923 10.299C8.37087 10.178 9.25035 10.0598 10.1289 9.93513C10.2229 9.92337 10.3093 9.87753 10.3719 9.80624C10.4346 9.73496 10.4691 9.64313 10.469 9.54806C10.4772 9.27015 10.2616 9.09322 9.95592 9.13415C9.65024 9.17509 9.34047 9.22103 9.03252 9.26469C8.48409 9.34247 7.93476 9.41479 7.38769 9.5003C7.16125 9.53578 7.03535 9.71953 7.05664 9.94104C7.06689 10.0406 7.11374 10.1327 7.18802 10.1994C7.26231 10.2661 7.35869 10.3026 7.45833 10.3017Z" fill="#010913"/>
<path d="M5.4956 7.83421V15.9964C4.90053 15.9149 4.31406 15.8349 3.7294 15.7539C2.7829 15.6229 1.83685 15.4883 0.889893 15.3619C0.34237 15.2886 0 14.9166 0 14.3658C0 12.3123 0 10.2587 0 8.20491C0 7.57586 0.44653 7.15422 1.07331 7.22154C1.75895 7.29477 2.44098 7.40348 3.12437 7.49444C3.86949 7.59633 4.61431 7.69912 5.35884 7.80283C5.40141 7.81056 5.44534 7.82284 5.4956 7.83421ZM4.38516 10.2985C4.6356 10.3108 4.8163 10.168 4.85117 9.95514C4.86491 9.85319 4.83991 9.74978 4.78117 9.66549C4.72243 9.58121 4.63424 9.52223 4.53416 9.5003C4.49564 9.49055 4.45664 9.4828 4.41732 9.4771C3.59399 9.36218 2.77067 9.24756 1.94735 9.13324C1.67336 9.09595 1.46866 9.2374 1.43289 9.48029C1.39847 9.71499 1.56875 9.90784 1.84047 9.94514L2.69731 10.0648L4.38516 10.2985ZM4.35165 12.3694C4.63877 12.3854 4.81811 12.248 4.85207 12.0274C4.88604 11.8068 4.74021 11.6058 4.49702 11.5698C3.63566 11.4425 2.77339 11.3212 1.91022 11.206C1.65027 11.1714 1.45281 11.336 1.43108 11.5739C1.4107 11.7977 1.57509 11.9833 1.8296 12.0183C1.96546 12.0374 2.09861 12.0533 2.23311 12.072L4.35165 12.3694Z" fill="#010913"/>
<path d="M5.91178 6.74805C5.2477 6.74742 4.5987 6.54912 4.04677 6.17822C3.49485 5.80732 3.06475 5.28044 2.81083 4.66416C2.5569 4.04787 2.49054 3.36982 2.62012 2.71567C2.74969 2.06152 3.0694 1.46062 3.53885 0.988873C4.0083 0.517127 4.60643 0.195704 5.25768 0.0652097C5.90892 -0.0652843 6.58407 0.00100598 7.19782 0.255704C7.81157 0.510403 8.3364 0.942082 8.70599 1.49621C9.07559 2.05034 9.27337 2.70205 9.27435 3.36902C9.27531 3.81288 9.189 4.25255 9.02037 4.66283C8.85175 5.07311 8.60413 5.44591 8.29172 5.75985C7.97931 6.07379 7.60825 6.32268 7.19985 6.49226C6.79144 6.66184 6.35371 6.74877 5.91178 6.74805ZM6.31936 2.89553C6.31936 2.66265 6.31936 2.43022 6.31936 2.1978C6.31936 1.91443 6.15859 1.73523 5.91178 1.73523C5.66496 1.73523 5.50419 1.91443 5.50419 2.19826C5.50419 2.53848 5.4983 2.88052 5.50691 3.21892C5.50963 3.34127 5.47838 3.41405 5.36516 3.47227C5.1591 3.57779 4.9612 3.69969 4.76193 3.8175C4.52916 3.95395 4.45489 4.18455 4.57128 4.39242C4.68766 4.60028 4.92587 4.66032 5.16001 4.52887C5.47068 4.35375 5.77637 4.17091 6.08568 3.99488C6.16146 3.95577 6.22416 3.8952 6.26602 3.82066C6.30788 3.74612 6.32705 3.66089 6.32117 3.57552C6.31528 3.34764 6.31936 3.12068 6.31936 2.89416V2.89553Z" fill="#010913"/>
</svg>
