<svg width="52" height="54" viewBox="0 0 52 54" fill="none" xmlns="http://www.w3.org/2000/svg">
<g clip-path="url(#clip0_84_1899)">
<path d="M20.8982 10.9882C21.294 7.91304 21.0704 4.95603 18.9876 2.44636C17.7917 1.00584 16.1317 0.37842 14.2823 0.209608C13.6417 0.150524 12.9853 0.234929 12.3646 0H11.5104C11.3282 0.150524 11.1075 0.092847 10.8996 0.108321C6.6286 0.690721 3.78123 3.41562 3.25447 7.6964C3.11961 8.82958 3.133 9.97519 3.29433 11.105C3.3342 11.3934 3.33847 11.7057 3.57053 11.9378C3.64006 11.9862 3.72323 12.0118 3.80828 12.0109C4.80486 11.7296 5.6847 11.1669 6.61578 10.7378C9.38912 9.09473 11.8122 7.01412 14.1414 4.81676C14.9543 4.15558 15.5722 4.19497 16.4591 5.07982C16.7416 5.37262 16.99 5.69586 17.1994 6.04346C18.1789 7.59089 19.2168 9.10316 20.4739 10.4537C20.6277 10.6225 20.706 10.8433 20.8982 10.9882Z" fill="#FED44F"/>
<path d="M51.5802 12.2557C52.5042 9.08909 52.0073 4.54806 49.0176 2.15375C47.6537 1.06211 46.0749 0.493774 44.3693 0.206794C44.1016 0.161778 43.8084 0.196947 43.5791 0H42.5142C42.1711 0.0741562 41.8204 0.108621 41.4693 0.102695C38.3528 0.12661 36.1433 1.54603 34.9388 4.38207C34.0975 6.3726 33.8505 8.55953 34.227 10.6844C34.4548 10.908 34.5573 10.6717 34.6712 10.5521C35.0855 10.1113 35.4586 9.63437 35.7859 9.12708C36.5903 7.93555 37.1954 6.63992 37.7933 5.34007C37.873 5.16563 37.957 4.99401 38.0538 4.82801C38.461 4.25687 39.0504 4.21044 39.6697 4.29766C40.8001 4.45522 41.6401 5.11921 42.4374 5.86339C44.5729 7.85396 46.7668 9.7559 49.3764 11.1303C49.8619 11.3863 50.3616 11.61 50.8684 11.821C51.1313 11.9203 51.3728 12.0678 51.5802 12.2557Z" fill="#D57B42"/>
<path d="M1.83239 35.5306C1.83239 38.5486 1.82764 41.5661 1.81815 44.5831C1.81815 47.4614 1.81815 50.3382 1.81815 53.215C1.81815 53.4964 1.82527 53.7777 2.03455 54H6.18459C6.31562 53.8303 6.37529 53.6171 6.35116 53.4049C6.35116 52.5102 6.36966 51.6141 6.34261 50.7194C6.37821 48.508 6.35258 46.298 6.35685 44.088C6.35685 41.5276 6.35685 38.9669 6.35685 36.4056C6.35685 36.1102 6.39956 35.8049 6.22445 35.5348C6.06807 35.4156 5.87153 35.3597 5.67491 35.3787C4.57725 35.366 3.47959 35.3688 2.38051 35.3787C2.28352 35.3671 2.18517 35.3745 2.09111 35.4006C1.99705 35.4267 1.90912 35.4709 1.83239 35.5306Z" fill="#FEC5A0"/>
<path d="M47.7334 54.0028C47.8259 53.879 47.974 53.7932 47.9711 53.6089C47.9498 52.6495 48.0409 51.6887 47.9569 50.7279C47.749 50.5562 47.497 50.5633 47.245 50.5633C43.4191 50.5633 39.5946 50.5633 35.7716 50.5633C35.5253 50.5633 35.2719 50.5492 35.0597 50.704C34.9614 50.8055 34.9064 50.9404 34.906 51.081C34.869 51.925 34.8747 52.7691 34.906 53.6244C34.9101 53.7649 34.9651 53.8992 35.0612 54.0028H47.7334Z" fill="#43809F"/>
<path d="M3.6334 11.9293C3.27321 10.6337 3.24331 9.31699 3.36859 7.99041C3.47618 6.8215 3.79693 5.68148 4.31534 4.62543C5.20941 2.79664 6.67723 1.61637 8.53371 0.848273C9.32126 0.542879 10.1413 0.326734 10.9782 0.203978C11.0465 0.0829963 10.9298 0.0534535 10.8728 -0.00563049H8.52944C7.92438 0.234926 7.26664 0.229299 6.64022 0.388264C2.81478 1.36034 0.605225 3.82217 0.101241 7.70343C-0.0872107 9.13243 -0.0148821 10.5832 0.314794 11.987C0.414452 12.4161 0.639396 12.6299 1.06935 12.6538C1.92356 12.7396 2.70089 12.4738 3.46967 12.1671C3.52017 12.1516 3.56387 12.1197 3.59361 12.0765C3.62335 12.0333 3.63738 11.9814 3.6334 11.9293Z" fill="#FEC228"/>
<path d="M34.3164 10.7674C34.2566 9.6518 34.1641 8.54045 34.3036 7.41926C34.6524 4.5973 35.8497 1.72328 39.0018 0.633039C39.6955 0.370012 40.43 0.227242 41.1729 0.21101C41.6279 0.232559 42.0825 0.161207 42.5083 0.00140381H39.7378C39.0986 0.240554 38.4223 0.119572 37.7646 0.188504C34.4531 0.540194 32.3546 2.23956 31.4064 5.4287C30.7743 7.53884 30.7615 9.68134 31.237 11.8267C31.395 12.53 31.62 12.6496 32.2777 12.4316C33.1689 12.1263 33.8922 11.6269 34.3164 10.7674Z" fill="#BE6724"/>
<path d="M20.0342 54.0028C20.1749 53.8483 20.2529 53.648 20.2534 53.4401C20.2321 52.5384 20.2363 51.6352 20.2306 50.7335C20.0313 50.538 19.7736 50.5619 19.5273 50.5619C16.2424 50.5562 12.958 50.5562 9.67403 50.5619C9.42774 50.5619 9.17432 50.5478 8.96219 50.7025C8.85464 50.8225 8.79759 50.9785 8.80274 51.1386C8.77711 51.9475 8.78139 52.755 8.80274 53.5639C8.80021 53.7239 8.85749 53.8792 8.96361 54L20.0342 54.0028Z" fill="#43809F"/>
<path d="M35.0552 54.0028V50.7462L34.984 50.673C33.912 50.5394 32.8399 50.4311 31.7764 50.7377C31.7764 51.6395 31.7764 52.5412 31.7522 53.4429C31.7572 53.6499 31.8347 53.8488 31.9715 54.0056L35.0552 54.0028Z" fill="#3B7190"/>
<path d="M8.95508 54.0028C8.95508 52.9177 8.95508 51.8331 8.95508 50.749L8.88674 50.6744C7.99125 50.5422 7.09575 50.4282 6.21164 50.7419C6.2031 51.8298 6.19551 52.9168 6.18886 54.0028H8.95508Z" fill="#3B7190"/>
<path d="M10.8725 0L10.9778 0.209608C11.1843 0.209608 11.4049 0.246184 11.5117 0H10.8725Z" fill="#FEC734"/>
<path d="M8.95228 50.7462L20.2307 50.7335C20.2402 49.4074 20.2497 48.0818 20.2592 46.7566C20.3435 46.6439 20.3929 46.5096 20.4015 46.3697C20.4015 45.1036 20.477 43.8376 20.3617 42.5715C20.3347 42.5076 20.2993 42.4475 20.2563 42.3928C20.2563 38.8351 20.1908 35.276 20.2706 31.7211C20.3104 29.9261 19.4676 29.0483 17.7449 29.2157C17.5152 29.2252 17.2851 29.2215 17.0559 29.2044C16.8817 29.0816 16.6678 29.0265 16.4551 29.0497C15.2919 29.0497 14.1288 29.03 12.9656 29.0595H12.7606C11.878 29.068 10.9924 28.9793 10.1112 29.1186C9.19431 29.504 8.77432 30.1723 8.77717 31.1753C8.79283 37.4213 8.78429 43.6659 8.78714 49.912C8.78714 50.1933 8.73873 50.4747 8.95798 50.7124L8.95228 50.7462Z" fill="#F38EB0"/>
<path d="M35.0494 50.7434L46.6283 50.7321C47.071 50.7321 47.5138 50.7321 47.9565 50.7321C47.9565 44.1203 47.9565 37.5085 47.9565 30.8967C47.9565 29.8628 47.3145 29.2832 46.1342 29.2086C45.9606 29.0844 45.7465 29.0283 45.5334 29.0511C43.4463 29.0511 41.3592 29.0286 39.2692 29.0623H39.0713C37.9196 29.0342 36.7678 29.0525 35.6146 29.0539C35.4192 29.0335 35.2224 29.0791 35.0566 29.1833C34.9588 29.309 34.9044 29.4623 34.9014 29.6208C34.9014 30.5605 34.8316 31.5016 34.9427 32.4343C35.0566 32.741 35.2872 32.5961 35.4794 32.5595C36.0987 32.4414 36.6468 32.5384 37.0625 33.0533C37.2616 33.2817 37.3825 33.5665 37.4081 33.8668C37.4336 34.1672 37.3625 34.4679 37.2049 34.7259C37.0467 34.9831 36.8152 35.1884 36.5394 35.3161C36.2635 35.4437 35.9557 35.488 35.6545 35.4434C35.4125 35.411 35.132 35.2155 34.9427 35.5573C34.8174 36.1848 34.8928 36.8234 34.8843 37.448C34.8701 38.3596 34.8843 39.2768 34.8843 40.1856C34.8843 40.9551 34.8715 40.9635 34.0714 40.9663C33.5218 40.9663 32.9723 40.9663 32.4227 40.9663C32.195 40.9663 31.9572 40.9467 31.7693 41.1239C31.7579 41.1449 31.7507 41.1678 31.7479 41.1914C31.8903 41.4264 32.1451 41.3996 32.3686 41.3996C34.9313 41.4095 37.5053 41.4165 40.075 41.3996C40.8424 41.3996 41.0716 41.1422 41.0802 40.3643C41.0887 39.5047 41.0944 38.6452 41.0802 37.7871C41.046 36.6307 41.0389 35.4715 41.0802 34.3152C41.13 32.7101 42.6818 31.738 44.0699 32.4189C44.7476 32.7523 45.0665 33.3431 45.1989 34.0479C45.2729 35.3069 45.3156 36.566 45.1704 37.8236C45.1412 38.0848 45.127 38.3473 45.1277 38.61C45.1277 40.1884 45.1277 41.7668 45.1277 43.3452C45.1277 44.5241 44.5155 45.1951 43.3282 45.3597C43.0447 45.3918 42.7592 45.404 42.4739 45.3962C40.2786 45.3962 38.0819 45.3962 35.8851 45.3962C35.589 45.3962 35.2772 45.3428 35.0181 45.5552C34.8758 45.7578 34.8928 45.9871 34.8914 46.2122C34.8914 47.4839 34.8914 48.7551 34.8914 50.0259C34.8914 50.2679 34.8758 50.5183 35.0651 50.7152L35.0494 50.7434Z" fill="#80DDE9"/>
<path d="M14.0657 4.74924C13.24 5.48075 12.4133 6.21274 11.5857 6.94519C10.1159 8.25058 8.52743 9.41938 6.84055 10.4368C6.75582 10.4972 6.67629 10.5645 6.6028 10.6379C6.43338 10.849 6.46043 11.1008 6.46043 11.3413C6.46043 12.727 6.43481 14.1126 6.46043 15.4969C6.52165 18.437 7.8528 20.6921 10.2973 22.3239C10.9312 22.7391 11.6247 23.0578 12.3545 23.2693C12.2303 23.2615 12.1057 23.2615 11.9815 23.2693C11.5672 23.2594 11.3536 23.4465 11.3607 23.8686C11.3707 24.5719 11.3223 25.2753 11.3878 25.9703C11.3987 26.0574 11.4424 26.1372 11.5102 26.1939C12.1267 26.5695 12.5182 27.1224 12.8029 27.7653C12.8315 27.7696 12.8607 27.7663 12.8875 27.7557C12.9143 27.745 12.9377 27.7275 12.9553 27.7048C13.2656 27.0014 13.6671 26.3881 14.4815 26.1574C14.7263 26.087 14.7591 25.876 14.7562 25.6523C14.7491 24.8688 14.7562 24.0852 14.7562 23.3002C14.7562 23.1314 14.7036 22.9528 14.8075 22.7924C16.4396 22.036 17.7859 20.786 18.6514 19.2234C19.2266 18.213 19.5497 17.0816 19.5939 15.9232C19.6238 14.9384 19.5939 13.9537 19.6067 12.9774C19.6067 12.7917 19.5412 12.5877 19.7092 12.4302C19.722 12.3036 19.6323 12.2374 19.5441 12.184C17.7645 11.0923 16.6583 9.42954 15.6289 7.69359C15.1783 6.8796 14.7701 6.04336 14.406 5.18815C14.3263 5.01652 14.2864 4.81395 14.0657 4.74924Z" fill="#FEC5A0"/>
<path d="M35.0552 45.5622C37.6994 45.5566 40.3437 45.5505 42.988 45.5439C43.6656 45.5439 44.2906 45.4033 44.7676 44.8701C45.1045 44.5255 45.2951 44.0663 45.3 43.5871C45.3 43.0423 45.3 42.4978 45.3 41.9539C45.3256 39.4958 45.3513 37.0382 45.3769 34.581C45.3769 34.3742 45.4338 34.159 45.3071 33.9635C45.0765 34.1449 45.1192 34.4066 45.1149 34.6458C45.1035 35.3829 45.1149 36.1214 45.1149 36.86C45.1149 37.4382 45.0665 37.479 44.4686 37.4832C43.5275 37.4902 42.5865 37.4832 41.6454 37.4832C41.402 37.4832 41.1429 37.4508 40.9336 37.6422C40.9336 38.6269 40.9094 39.6116 40.9336 40.5865C40.9435 41.017 40.7741 41.2111 40.357 41.2097C37.4887 41.2041 34.6205 41.197 31.7523 41.1886C30.209 41.1985 28.6643 41.2364 27.1224 41.2083C26.3038 41.1928 25.6646 41.4601 25.1891 42.0974C25.1235 42.1984 25.0313 42.2798 24.9225 42.3331C24.8137 42.3864 24.6923 42.4094 24.5712 42.3998C23.1333 42.3844 21.6954 42.39 20.2574 42.3872C20.2574 42.4237 20.2574 42.4603 20.2574 42.4969C20.4639 42.6798 20.7201 42.6502 20.9693 42.6516C22.0499 42.6516 23.1304 42.6516 24.211 42.6516C24.547 42.6516 24.6723 42.7487 24.6381 43.1159C24.5356 44.4847 25.4681 45.5707 26.8747 45.6846C27.7576 45.7557 28.6449 45.7514 29.527 45.672C30.2588 45.4061 31.0134 45.6087 31.7565 45.558C31.8613 45.654 31.9981 45.7086 32.1409 45.7114C32.9856 45.7376 33.8299 45.7376 34.6736 45.7114C34.8149 45.7088 34.9504 45.6558 35.0552 45.5622Z" fill="#FEC5A0"/>
<path d="M34.3162 10.7674C33.7567 11.4623 33.0463 11.9786 32.2818 12.4302C32.4469 12.6102 32.3672 12.8311 32.3758 13.0351C32.427 14.3138 32.2533 15.601 32.4982 16.8699C32.9865 19.4021 34.4045 21.2871 36.6824 22.5209C37.0582 22.7234 37.2277 22.9232 37.2092 23.3649C37.1736 24.223 37.2092 25.0854 37.2092 25.9463C37.2319 25.9942 37.2618 26.0518 37.3102 26.0631C38.1986 26.2685 38.704 26.8917 39.0842 27.6513C39.108 27.6614 39.1337 27.6666 39.1596 27.6666C39.1855 27.6666 39.2112 27.6614 39.2351 27.6513C39.4956 26.9479 40.1149 26.5259 40.5989 26.0068C40.6772 25.3935 40.636 24.7787 40.6303 24.1654C40.6303 23.7504 40.7612 23.5408 41.2097 23.552C41.4788 23.552 41.8988 23.6392 41.9415 23.3101C41.9842 22.9809 41.5386 23.0104 41.298 22.9204C38.2 21.7711 36.3592 19.5962 35.8766 16.3494C35.7668 15.6181 35.7875 14.8735 35.9378 14.1492C35.9126 14.1133 35.8798 14.0831 35.8417 14.0608C35.8036 14.0385 35.7612 14.0245 35.7171 14.0198C35.2815 13.9677 35.058 13.7103 35.0053 13.2967C34.9526 12.8831 35.0779 12.5343 35.4623 12.312C35.6047 12.2332 35.747 12.1713 35.804 12.0011C35.9193 11.1472 35.8524 10.2919 35.8467 9.43797C35.8505 9.36779 35.8384 9.29767 35.8113 9.23269C35.7842 9.16772 35.7428 9.10953 35.6901 9.06236C35.2487 9.64476 34.8316 10.244 34.3162 10.7674Z" fill="#FCA98D"/>
<path d="M35.054 32.575C35.054 31.4618 35.054 30.3481 35.054 29.2339C35.0513 29.2239 35.0461 29.2146 35.0389 29.207C35.0316 29.1994 35.0226 29.1936 35.0126 29.1903C35.0026 29.1869 34.9919 29.1861 34.9815 29.1878C34.9711 29.1895 34.9613 29.1938 34.9529 29.2002C34.4561 29.2002 33.9563 29.2002 33.4637 29.2213C32.5611 29.2578 31.7724 29.9894 31.7696 30.8616C31.7596 34.2828 31.7696 37.7041 31.7795 41.1309C32.7163 41.1309 33.6545 41.1183 34.5913 41.1422C34.9672 41.152 35.0711 41.024 35.0697 40.6611C35.0583 38.9111 35.0697 37.161 35.0697 35.411C35.0882 35.2535 34.9814 35.1564 34.8945 35.0467C34.2653 34.2462 34.2624 33.6723 34.8846 32.8943C34.9766 32.8103 35.0364 32.6975 35.054 32.575Z" fill="#4DCFE0"/>
<path d="M14.0658 4.74923C14.7691 6.37967 15.5478 7.9679 16.58 9.42672C17.4342 10.6295 18.4109 11.6958 19.7192 12.4273C20.3585 12.6426 20.5734 12.5413 20.7357 11.8984C20.814 11.6016 20.8454 11.2921 20.898 10.9868C20.9237 10.5774 20.5877 10.3496 20.3627 10.116C19.1213 8.82321 18.2016 7.3025 17.2164 5.83244C16.8277 5.24863 16.4049 4.6803 15.74 4.36659C15.0752 4.05288 14.5456 4.28359 14.0658 4.74923Z" fill="#FEC228"/>
<path d="M14.8133 22.7896C14.6083 23.1103 14.7393 23.4662 14.7179 23.8038C14.6944 24.1697 14.6944 24.5367 14.7179 24.9025C14.7578 25.5328 14.7535 26.0279 13.932 26.2671C13.3213 26.4429 12.9753 27.0549 12.8927 27.7287C12.729 27.9186 12.7575 28.1507 12.7504 28.373C12.7731 28.6544 12.682 28.9568 12.8927 29.2058H17.0527C17.0527 28.3618 17.0527 27.529 17.0527 26.6905C17.0527 26.0209 16.9759 25.9506 16.2811 25.9478H16.2284C14.8147 25.9478 14.8147 25.9478 14.8147 24.5199L14.8133 22.7896Z" fill="#E3E3E3"/>
<path d="M34.9426 29.2002L35.0437 29.2339L39.1012 29.2058C39.3461 28.8907 39.2108 28.5235 39.2436 28.1789C39.2436 27.9847 39.2436 27.7878 39.1012 27.6316C38.862 26.6342 38.1815 26.1222 37.202 25.9435H35.72C35.0081 25.9435 34.9469 26.0111 34.9455 26.7341C34.9436 27.5576 34.9426 28.3796 34.9426 29.2002Z" fill="#E3E3E3"/>
<path d="M35.9095 14.1436C35.8414 14.1968 35.7861 14.2643 35.7474 14.3412C35.7088 14.418 35.6878 14.5023 35.686 14.5881C35.3386 18.7423 37.9895 22.2522 41.8306 23.2186C41.8562 23.2186 41.8733 23.2622 41.916 23.3115C41.6142 23.4929 41.2896 23.4099 40.9864 23.4071C40.6219 23.4071 40.4753 23.5394 40.4852 23.9051C40.5037 24.624 40.4952 25.3442 40.498 26.0645C40.5452 26.1043 40.6006 26.1335 40.6603 26.15C40.7201 26.1665 40.7828 26.17 40.844 26.1602C41.6384 26.0743 42.4342 26.1348 43.2301 26.1067C43.7996 26.087 43.8295 26.0392 43.8451 25.4526C43.8679 24.5635 43.7782 23.6716 43.8935 22.7797C46.1202 21.681 47.6677 20.0056 48.3824 17.6169C48.4075 17.4782 48.4798 17.3521 48.5874 17.2596C48.5828 17.2069 48.5641 17.1564 48.5334 17.1132C48.5026 17.07 48.4608 17.0355 48.4123 17.0134C47.0356 16.1229 46.7964 13.685 47.9581 12.3598C48.0791 12.256 48.163 12.1164 48.1973 11.9617C48.1418 11.7338 47.9325 11.693 47.7574 11.6213C45.404 10.6534 43.3539 9.21148 41.3992 7.62184C40.3571 6.77778 39.3491 5.89012 38.3824 4.95743C38.26 4.84067 38.1461 4.67608 37.9311 4.74079C37.2877 6.23055 36.5388 7.6737 35.6903 9.05955C35.6903 10.0752 35.6903 11.0919 35.6903 12.1094C36.1572 12.4288 36.385 12.8395 36.2953 13.4261C36.2569 13.7328 35.9907 13.8805 35.9095 14.1436Z" fill="#FEC5A0"/>
<path d="M37.9326 4.74502C39.2139 5.87746 40.4411 7.05633 41.7879 8.11C43.7512 9.64477 45.8141 11.0107 48.1532 11.928C48.2472 12.1235 48.438 12.1798 48.6202 12.2374C49.3733 12.4696 50.1179 12.7509 50.9323 12.6595C51.217 12.6229 51.4932 12.5905 51.5814 12.2543C51.5971 11.9969 51.4391 11.8984 51.2198 11.8126C49.0843 10.9685 47.1695 9.75591 45.4183 8.29569C44.1498 7.2364 42.9511 6.09692 41.6797 5.04325C40.8255 4.33987 39.829 3.96004 38.69 4.21185C38.5322 4.24125 38.3828 4.30415 38.252 4.39621C38.1213 4.48826 38.0123 4.60727 37.9326 4.74502Z" fill="#BE6724"/>
<path d="M43.8934 22.7839C43.6884 23.1075 43.8151 23.4648 43.798 23.8052C43.7738 24.2779 43.798 24.7534 43.798 25.2275C43.798 25.9477 43.798 25.9407 43.0434 25.9506C42.1892 25.9618 41.3436 25.8788 40.5036 26.0631C39.8743 26.426 39.3347 26.8593 39.2223 27.6316C39.1226 27.8075 39.1924 27.9988 39.171 28.1817C39.1995 28.5235 39.1098 28.8696 39.2223 29.2058H46.1499C46.1499 28.3814 46.1499 27.5585 46.1499 26.7355C46.1499 26.087 46.0075 25.9492 45.3313 25.9449C45.0312 25.9273 44.7302 25.9273 44.4301 25.9449C43.9873 25.9956 43.8934 25.8043 43.9048 25.4033C43.9119 24.5354 43.8934 23.6603 43.8934 22.7839Z" fill="#E3E3E3"/>
<path d="M50.9306 12.6609C49.9967 12.4428 49.0457 12.2895 48.1516 11.9279C47.0914 13.0309 46.8067 14.3026 47.2974 15.7431C47.5266 16.4099 47.9139 16.9571 48.5787 17.2638C49.5668 17.5902 50.2572 17.3327 50.7342 16.4113C51.3706 15.1945 51.4133 13.9382 50.9306 12.6609Z" fill="#FC9A7A"/>
<path d="M8.95795 50.7138C8.95795 44.1095 8.9551 37.5048 8.94941 30.8995C8.94941 30.047 9.49325 29.6222 10.1211 29.2283C9.97873 29.0609 9.78083 29.0539 9.58721 29.0511C8.51091 29.0389 7.43461 29.0389 6.3583 29.0511C6.18039 29.0403 6.00451 29.0933 5.86286 29.2002C5.17807 29.2171 4.58155 29.3859 4.25125 30.0625C4.34095 30.2665 4.55165 30.2876 4.72391 30.3706C5.54111 30.7589 6.0337 31.3666 6.0337 32.3007C6.0337 33.1616 6.0337 34.0226 6.0337 34.8821C6.0337 35.1086 6.00808 35.3435 6.17607 35.5348C6.17607 40.375 6.17987 45.2157 6.18746 50.0568C6.18746 50.2847 6.19885 50.5126 6.20597 50.7391L8.95795 50.7138Z" fill="#EF6291"/>
<path d="M11.5103 26.0561C11.5103 25.3358 11.526 24.6141 11.5032 23.8953C11.4918 23.5351 11.5986 23.3846 11.9816 23.4071C12.2521 23.4226 12.5425 23.4803 12.8813 23.2918C12.0271 22.9949 11.2398 22.7516 10.5308 22.307C8.43376 20.9791 7.12255 19.1362 6.7168 16.6912C6.48332 15.2845 6.65985 13.8538 6.61429 12.4358C6.59436 11.8379 6.60575 11.24 6.60291 10.6436L3.84238 11.9279C3.78401 12.1361 3.94062 12.2529 4.05167 12.3795C5.10804 13.5936 5.06106 15.9035 3.67439 16.9726C3.58492 17.0309 3.52089 17.1203 3.49501 17.223C4.13993 19.803 5.72449 21.6234 8.10062 22.8022C8.2316 23.6885 8.12909 24.5804 8.15472 25.468C8.1718 26.0476 8.19885 26.094 8.78256 26.1137C9.57698 26.1391 10.3742 26.0814 11.1687 26.1672C11.2304 26.1764 11.2936 26.1712 11.3529 26.1519C11.4123 26.1326 11.4662 26.0998 11.5103 26.0561Z" fill="#FCA98D"/>
<path d="M11.5104 26.0561C10.5623 25.8774 9.6027 25.959 8.64741 25.9576C8.29576 25.9576 8.18472 25.8451 8.19468 25.5032C8.21604 24.7661 8.20607 24.0275 8.19468 23.289C8.19468 23.123 8.26729 22.9331 8.09787 22.7966C8.09787 23.7054 8.08933 24.6141 8.10499 25.5215C8.10499 25.8324 8.01672 25.9717 7.68501 25.9435C7.35329 25.9154 6.97317 25.9435 6.62579 25.9435C6.02642 25.9506 5.86839 26.0997 5.86412 26.6821C5.86412 27.5261 5.86412 28.3589 5.86412 29.1974L10.1224 29.2255L12.7932 29.203C12.9 28.9315 12.816 28.6487 12.843 28.373C12.8216 28.1578 12.8914 27.9369 12.7975 27.7259C12.7576 26.8776 12.1297 26.4697 11.5104 26.0561Z" fill="#E3E3E3"/>
<path d="M6.18426 35.5348C6.18426 34.4657 6.20134 33.398 6.19707 32.3302C6.19707 31.2048 5.5735 30.4353 4.45306 30.1385C4.38631 30.1165 4.32073 30.0911 4.25659 30.0625C2.74748 30.0372 1.71247 31.119 1.8107 32.5947C1.87619 33.571 1.83348 34.5529 1.83775 35.5334L6.18426 35.5348Z" fill="#FEC228"/>
<path d="M3.49518 17.2174C4.41631 16.7081 4.8007 15.8739 4.90463 14.885C4.97327 14.3435 4.91298 13.7937 4.7286 13.2794C4.54421 12.765 4.24081 12.3003 3.84256 11.9223L3.63328 11.9294C2.98693 12.3232 2.24804 12.4091 1.52623 12.5441C1.3684 12.5568 1.21389 12.5958 1.06923 12.6595C0.821969 13.2679 0.71257 13.9226 0.748725 14.5773C0.784881 15.232 0.965714 15.871 1.27851 16.4493C1.76257 17.3707 2.51284 17.6141 3.49518 17.2174Z" fill="#FC9A7A"/>
<path d="M29.5244 45.6762C29.355 45.4849 29.1272 45.5763 28.9236 45.5636C28.115 45.5102 27.3035 45.6382 26.4934 45.4736C25.4285 45.257 24.5131 44.1231 24.8348 42.9147C24.9231 42.5855 24.8505 42.4927 24.5031 42.4927C23.0865 42.5082 21.67 42.4927 20.2534 42.4927C20.2534 43.9107 20.2534 45.3287 20.2534 46.7467C22.7211 46.7411 25.1855 46.7364 27.6466 46.7327C28.488 46.7425 29.1187 46.4063 29.5244 45.6762Z" fill="#FCA98D"/>
<path d="M35.0553 45.5622H31.7538L31.7709 50.7349L35.0596 50.7194L35.0553 45.5622Z" fill="#4DCFE0"/>
<path d="M14.4862 33.9508C14.4862 34.8582 15.2336 35.6389 16.1049 35.6389C16.9505 35.6291 17.762 34.8427 17.7734 34.024C17.7672 33.5897 17.5898 33.175 17.2791 32.868C16.9683 32.5609 16.5486 32.3856 16.1092 32.3795C15.8967 32.3718 15.6849 32.407 15.4866 32.4828C15.2884 32.5586 15.1078 32.6736 14.956 32.8206C14.8041 32.9676 14.6842 33.1436 14.6034 33.3379C14.5226 33.5322 14.4827 33.7408 14.4862 33.9508Z" fill="#FED44F"/>
<path d="M12.7906 28.3702C12.7906 28.6515 12.7906 28.9329 12.7906 29.2058H12.8419H12.8945C12.8945 28.9245 12.8945 28.6431 12.8945 28.3702C12.8604 28.3224 12.8257 28.3224 12.7906 28.3702Z" fill="#EAEAEA"/>
<path d="M40.9365 37.6478C42.2434 37.6478 43.549 37.6478 44.8545 37.6717C45.2147 37.6717 45.3001 37.5423 45.2972 37.2117C45.2859 36.1285 45.2972 35.0467 45.3101 33.9635C45.1093 32.7115 44.1711 31.9701 42.8898 32.0615C41.8249 32.1375 40.9436 33.0983 40.9294 34.2378C40.9151 35.3773 40.9322 36.5111 40.9365 37.6478Z" fill="#F68D36"/>
<path d="M35.0537 32.575C33.9931 33.5007 33.9973 34.4277 35.0694 35.4068C36.2154 35.8162 37.2049 35.4378 37.4896 34.4643C37.5897 34.1712 37.5986 33.8551 37.5151 33.557C37.4316 33.2588 37.2596 32.9922 37.0212 32.7916C36.4275 32.25 35.7542 32.2529 35.0537 32.575Z" fill="#FED44F"/>
<path d="M39.2139 29.2058V28.1592C39.1783 28.1113 39.1441 28.1113 39.1085 28.1592V29.2058H39.1612H39.2139Z" fill="#EAEAEA"/>
<path d="M12.9526 19.6257C13.5751 19.534 14.1737 19.3238 14.7151 19.0068C15.1052 18.7943 15.1009 18.4033 14.9643 18.0333C14.8276 17.6633 14.4987 17.5902 14.1385 17.6211C14.0681 17.6278 13.9995 17.6473 13.9364 17.6788C13.2245 18.0319 12.5298 18.0882 11.788 17.6717C11.6941 17.62 11.5902 17.5885 11.4831 17.5793C11.3759 17.5701 11.2681 17.5834 11.1665 17.6184C11.065 17.6533 10.9721 17.7091 10.894 17.7821C10.8158 17.855 10.7542 17.9435 10.7131 18.0417C10.5195 18.5186 10.696 18.9392 11.21 19.1446C11.7482 19.3571 12.2835 19.5948 12.9526 19.6257Z" fill="#FCA98D"/>
<path d="M15.5421 13.1729C15.5421 13.8482 15.8055 14.1577 16.3551 14.1464C16.8633 14.1323 17.1466 13.761 17.1395 13.1138C17.1324 12.4667 16.8178 12.1179 16.2981 12.1291C15.8013 12.1418 15.5379 12.5033 15.5421 13.1729Z" fill="#BF6725"/>
<path d="M9.06722 13.1898C9.07576 13.8088 9.36477 14.1492 9.87729 14.1464C10.4169 14.1464 10.6774 13.7863 10.6646 13.0716C10.6532 12.4766 10.3286 12.108 9.83458 12.1305C9.34057 12.153 9.05725 12.5314 9.06722 13.1898Z" fill="#BF6724"/>
<path d="M12.7902 28.3702H12.897C12.897 28.1564 12.897 27.9482 12.897 27.7287C12.8653 27.7329 12.8332 27.7329 12.8016 27.7287C12.7945 27.9425 12.7916 28.1564 12.7902 28.3702Z" fill="#EADCD3"/>
<path d="M35.9097 14.1436C36.566 13.8862 36.4863 13.3263 36.4435 12.8058C36.408 12.3837 36.1061 12.1755 35.6975 12.1136C35.054 12.2543 34.7807 12.6552 34.8618 13.3263C34.933 13.9185 35.2035 14.1295 35.9097 14.1436Z" fill="#BF6725"/>
<path d="M39.1042 28.1592H39.2139V27.6316C39.1788 27.6337 39.1436 27.6337 39.1085 27.6316L39.1042 28.1592Z" fill="#ECCEC3"/>
<path d="M39.123 19.6243C39.7795 19.5564 40.4148 19.3558 40.9894 19.0349C41.4051 18.8211 41.4165 18.4244 41.2742 18.0291C41.1318 17.6338 40.8043 17.5888 40.447 17.6211C40.3587 17.6303 40.2731 17.6566 40.195 17.6985C39.4917 18.0755 38.8083 18.0122 38.0865 17.6985C37.5484 17.4678 37.1398 17.6619 37.0017 18.0952C36.8465 18.5805 37.0401 18.9716 37.5712 19.1629C38.0752 19.343 38.5421 19.6075 39.123 19.6243Z" fill="#FCA98D"/>
<path d="M41.3353 13.1589C41.3353 13.7933 41.6001 14.1323 42.1055 14.1436C42.6379 14.1577 42.9312 13.8074 42.9341 13.1589C42.9369 12.5103 42.6379 12.1319 42.1311 12.1333C41.6243 12.1347 41.3353 12.5033 41.3353 13.1589Z" fill="#BF6724"/>
</g>
<defs>
<clipPath id="clip0_84_1899">
<rect width="52" height="54" fill="white" transform="matrix(-1 0 0 1 52 0)"/>
</clipPath>
</defs>
</svg>
