<svg width="166" height="156" viewBox="0 0 166 156" fill="none" xmlns="http://www.w3.org/2000/svg">
<g clip-path="url(#clip0_16_588)">
<path d="M77.5492 0.428663C123.892 -3.6716 123.982 22.3949 144.869 46.6945C165.757 70.9941 170.234 82.0089 162.356 110.029C154.478 138.048 127.951 160.003 95.1146 147.561C62.2786 135.118 43.4874 147.069 22.7827 136.006C2.07805 124.942 -5.59838 103.628 9.55641 78.4604C24.7112 53.2922 20.3946 5.50553 77.5492 0.428663Z" fill="#FB9E1B"/>
<path opacity="0.7" d="M77.5492 0.428663C123.892 -3.6716 123.982 22.3949 144.869 46.6945C165.757 70.9941 170.234 82.0089 162.356 110.029C154.478 138.048 127.951 160.003 95.1146 147.561C62.2786 135.118 43.4874 147.069 22.7827 136.006C2.07805 124.942 -5.59838 103.628 9.55641 78.4604C24.7112 53.2922 20.3946 5.50553 77.5492 0.428663Z" fill="white"/>
<path opacity="0.2" d="M97.1511 131.905L96.4634 131.831C96.1448 131.811 95.8437 131.679 95.6142 131.457C95.3848 131.236 95.2419 130.94 95.2114 130.623C94.8377 126.683 91.4293 123.914 86.9894 123.41C82.9942 122.963 78.3936 124.722 75.3738 127.734C74.9978 128.132 74.5388 128.442 74.0292 128.643C73.5197 128.844 72.972 128.931 72.4251 128.897L69.0241 128.525C68.5565 128.487 68.1134 128.3 67.7601 127.992C67.4069 127.684 67.1622 127.271 67.062 126.814C66.2623 123.369 63.1678 120.749 59.1688 120.302C54.7327 119.806 49.7396 121.64 46.7871 125.207C46.5532 125.495 46.2531 125.723 45.9122 125.871C45.5713 126.019 45.1997 126.083 44.8288 126.057L44.1449 125.979C43.9833 125.969 43.823 126.013 43.6882 126.102C43.5534 126.192 43.4514 126.322 43.3974 126.474L42.8331 128.118C42.8097 128.172 42.7972 128.23 42.7964 128.289C42.7956 128.347 42.8065 128.405 42.8284 128.46C42.8503 128.514 42.8828 128.564 42.924 128.606C42.9652 128.647 43.0143 128.681 43.0685 128.703L43.8459 129.076C44.1463 129.226 44.3852 129.475 44.5216 129.781C44.658 130.087 44.6834 130.431 44.5933 130.754C43.3563 136.088 46.462 140.71 51.9521 141.321C57.2367 141.914 62.951 138.578 65.4886 133.672C65.7005 133.276 66.0077 132.938 66.3828 132.688C66.7578 132.439 67.189 132.287 67.6376 132.245C68.8488 132.144 70.0682 132.271 71.2329 132.617C71.6056 132.727 71.9231 132.973 72.122 133.306C72.3208 133.639 72.3863 134.035 72.3055 134.414C71.3936 139.513 74.4769 143.845 79.7801 144.437C85.2627 145.052 91.2013 141.455 93.6081 136.237C93.7812 135.882 94.0336 135.572 94.3459 135.33C94.6583 135.089 95.0222 134.922 95.4095 134.843L96.385 134.653C96.5207 134.632 96.6484 134.575 96.7549 134.489C96.8613 134.402 96.9426 134.289 96.9904 134.161L97.5547 132.517C97.5773 132.463 97.5888 132.405 97.5888 132.347C97.5887 132.289 97.5771 132.231 97.5545 132.177C97.5319 132.123 97.4988 132.075 97.4571 132.034C97.4155 131.993 97.3661 131.961 97.3118 131.939C97.2607 131.918 97.2062 131.907 97.1511 131.905ZM52.4193 139.942C47.3253 139.372 44.5896 134.813 46.32 129.777C48.0504 124.741 53.6003 121.114 58.6942 121.685C63.7882 122.255 66.5426 126.814 64.7972 131.846C63.0519 136.878 57.5132 140.531 52.4193 139.942ZM66.4902 131.022C66.5612 130.731 66.621 130.44 66.6659 130.153C66.6931 130.035 66.7618 129.929 66.8597 129.856C66.9576 129.783 67.0783 129.747 67.2003 129.755L73.2996 130.437C73.3409 130.44 73.3811 130.452 73.4177 130.472C73.4544 130.491 73.4869 130.517 73.5133 130.549C73.5397 130.581 73.5595 130.618 73.5716 130.657C73.5837 130.697 73.5878 130.739 73.5836 130.78C73.5775 130.83 73.5596 130.879 73.5313 130.921C73.3856 131.193 73.251 131.469 73.124 131.753C70.6648 130.537 67.9515 130.757 66.4902 131.007V131.022ZM80.2435 143.058C75.1496 142.488 72.3952 137.929 74.1405 132.893C75.8858 127.857 81.4245 124.23 86.5185 124.801C91.6124 125.371 94.3481 129.93 92.6178 134.962C90.8874 139.994 85.3375 143.628 80.2435 143.058Z" fill="black" fill-opacity="0.7"/>
<path d="M92.6365 132.204L53.0808 130.545C52.147 130.506 51.2155 130.663 50.3464 131.006C49.4773 131.349 48.69 131.87 48.0355 132.535L40.9346 139.752C40.8173 139.87 40.7515 140.029 40.7515 140.195C40.7515 140.362 40.8173 140.521 40.9346 140.639C40.9681 140.669 41.0044 140.697 41.043 140.721C41.3958 140.929 41.808 141.013 42.2143 140.96C42.6205 140.907 42.9975 140.721 43.2854 140.43L49.8929 133.765C50.2848 133.369 50.7547 133.057 51.2731 132.851C51.7915 132.644 52.3472 132.547 52.9052 132.565L92.5207 133.87L92.6365 132.204Z" fill="#263238"/>
<path d="M39.9181 126.31L79.0178 132.491C79.941 132.638 80.823 132.976 81.6071 133.484C82.3911 133.992 83.0597 134.658 83.5698 135.439L89.101 143.915C89.1909 144.052 89.2233 144.218 89.1911 144.377C89.1589 144.537 89.0647 144.678 88.9291 144.769C88.8849 144.795 88.8387 144.818 88.7908 144.836C88.4027 144.974 87.9793 144.978 87.5888 144.847C87.1983 144.716 86.8635 144.457 86.6382 144.113L81.5255 136.285C81.2207 135.819 80.8222 135.421 80.3552 135.116C79.8881 134.811 79.3627 134.606 78.8122 134.515L39.7312 127.969L39.9181 126.31Z" fill="#263238"/>
<path d="M63.1117 132.923C63.5751 133.094 62.9809 136.352 61.699 137.28C60.4171 138.209 59.778 135.309 60.2303 134.395C60.6825 133.482 61.6579 132.375 63.1117 132.923Z" fill="#757575" stroke="#263238" stroke-linecap="round" stroke-linejoin="round"/>
<path d="M69.9585 133.687C69.4689 133.754 69.3269 137.061 70.3696 138.25C71.4123 139.439 72.683 136.759 72.4438 135.763C72.2046 134.768 71.4983 133.475 69.9585 133.687Z" fill="#757575" stroke="#263238" stroke-linecap="round" stroke-linejoin="round"/>
<path opacity="0.4" d="M47.0826 122.221C49.4258 120.838 54.2657 118.632 58.4963 122.277C62.7269 125.923 63.822 129.266 62.1215 133.251C60.421 137.236 56.4669 142.253 49.6277 140.061C42.7884 137.869 39.8023 126.515 47.0826 122.221Z" fill="white"/>
<path opacity="0.4" d="M74.8807 125.703C77.2277 124.32 82.0638 122.113 86.2944 125.759C90.525 129.404 91.6238 132.744 89.9196 136.733C88.2154 140.721 84.2763 145.749 77.4258 143.539C70.5753 141.329 67.5967 129.997 74.8807 125.703Z" fill="white"/>
<path d="M93.5484 131.749L92.8608 131.671C92.5199 131.636 92.1968 131.502 91.9312 131.286C91.6655 131.07 91.469 130.781 91.3659 130.455C90.1325 126.478 86.1897 123.683 81.7535 123.187C77.7583 122.736 73.6585 124.517 71.3862 127.563C71.0909 127.969 70.6941 128.292 70.2351 128.498C69.7761 128.704 69.271 128.786 68.7701 128.737L65.3654 128.364C64.8656 128.301 64.391 128.109 63.9891 127.806C63.5871 127.503 63.2717 127.101 63.0744 126.638C62.2362 124.86 60.9572 123.325 59.3583 122.177C57.7594 121.029 55.8934 120.306 53.9367 120.078C49.5005 119.579 45.0344 121.435 42.949 125.039C42.7767 125.334 42.5219 125.572 42.2158 125.724C41.9098 125.877 41.5658 125.937 41.2261 125.897L40.5422 125.818C40.3927 125.803 40.2431 125.846 40.1255 125.94C40.008 126.033 39.9322 126.169 39.9143 126.318L39.7275 127.977C39.7142 128.103 39.7438 128.23 39.8116 128.337C39.8793 128.445 39.9813 128.527 40.1012 128.569L40.9458 128.942C41.2753 129.091 41.5545 129.331 41.7495 129.635C41.9446 129.939 42.0471 130.292 42.0446 130.653C42.0339 133.238 42.9636 135.74 44.6614 137.694C46.3592 139.648 48.7098 140.921 51.2773 141.278C53.8448 141.635 56.4549 141.051 58.6236 139.634C60.7922 138.218 62.3723 136.065 63.0707 133.575C63.184 133.182 63.4153 132.834 63.7333 132.576C64.0513 132.318 64.4409 132.163 64.8497 132.133C66.0584 132.036 67.2747 132.162 68.4375 132.506C68.835 132.624 69.1865 132.861 69.4445 133.185C69.7025 133.509 69.8545 133.904 69.8801 134.317C70.0025 136.901 71.061 139.354 72.8592 141.218C74.6573 143.083 77.0729 144.234 79.6573 144.456C82.2417 144.679 84.8193 143.959 86.9115 142.429C89.0037 140.9 90.4682 138.665 91.0332 136.14C91.1134 135.791 91.2924 135.473 91.5488 135.223C91.8053 134.974 92.1284 134.803 92.4796 134.731L93.3915 134.537C93.5151 134.518 93.6292 134.46 93.7163 134.37C93.8034 134.281 93.8586 134.165 93.8736 134.041L94.0605 132.383C94.0784 132.234 94.0366 132.084 93.9441 131.966C93.8517 131.848 93.7161 131.771 93.5671 131.753L93.5484 131.749ZM51.6906 139.901C49.863 139.696 48.1373 138.956 46.7317 137.773C45.3261 136.59 44.3037 135.018 43.7939 133.256C43.284 131.494 43.3095 129.62 43.8673 127.872C44.425 126.124 45.4898 124.581 46.9272 123.436C48.3645 122.292 50.1097 121.599 51.9422 121.444C53.7747 121.289 55.6121 121.679 57.222 122.566C58.832 123.452 60.1422 124.795 60.987 126.424C61.8318 128.054 62.1733 129.896 61.9682 131.719C61.8325 132.929 61.4589 134.101 60.8689 135.168C60.2788 136.234 59.4838 137.174 58.5294 137.934C57.5749 138.694 56.4796 139.259 55.3062 139.596C54.1328 139.934 52.9042 140.037 51.6906 139.901ZM63.437 130.884C63.437 130.59 63.437 130.299 63.4183 130.008C63.4089 129.91 63.4391 129.812 63.5021 129.736C63.5652 129.659 63.656 129.611 63.7546 129.602C63.7869 129.598 63.8195 129.598 63.8518 129.602L69.9473 130.284C69.9965 130.287 70.0445 130.299 70.0888 130.321C70.133 130.342 70.1726 130.372 70.2052 130.409C70.2379 130.445 70.2629 130.488 70.279 130.535C70.295 130.581 70.3017 130.63 70.2986 130.679C70.3039 130.711 70.3039 130.744 70.2986 130.776C70.2164 131.048 70.1454 131.328 70.0856 131.611C68.01 130.69 65.7 130.429 63.4706 130.865L63.437 130.884ZM79.5074 143.017C76.7171 143.014 74.0423 141.906 72.0709 139.937C70.0994 137.967 68.9928 135.298 68.9943 132.515C68.9958 129.732 70.1053 127.063 72.0788 125.096C74.0523 123.129 76.7284 122.024 79.5186 122.024C82.3088 122.024 84.9849 123.129 86.9584 125.096C88.9319 127.063 90.0414 129.732 90.0428 132.515C90.0443 135.298 88.9377 137.967 86.9663 139.937C84.9949 141.906 82.32 143.014 79.5298 143.017H79.5074Z" fill="#FB9E1B" stroke="#263238" stroke-linecap="round" stroke-linejoin="round"/>
<path opacity="0.5" d="M45.5204 135.488C45.5204 135.488 42.9267 130.448 46.2193 125.695C49.1829 121.424 54.2993 121.774 56.4931 123.187L49.7136 131.298C50.5848 129.176 51.6825 127.154 52.9875 125.267C52.9875 125.267 47.5983 129.08 45.5204 135.488Z" fill="white"/>
<path opacity="0.5" d="M73.3221 138.332C73.3221 138.332 70.7321 133.292 74.0247 128.543C76.9847 124.268 82.1048 124.618 84.2986 126.031L77.5154 134.142C78.4758 130.966 80.7892 128.111 80.7892 128.111C80.7892 128.111 75.4 131.924 73.3221 138.332Z" fill="white"/>
<path opacity="0.2" d="M48.2112 98.8163C48.2112 98.8163 40.6507 108.176 40.1237 108.765C39.5967 109.354 39.75 118.829 38.4569 123.097C37.1638 127.365 32.7014 131.749 22.7265 153.353L21.3811 111.262L28.7324 81.9456L48.2112 98.8163Z" fill="black" fill-opacity="0.7"/>
<path d="M53.7613 98.41C53.7613 98.41 48.772 75.538 44.8216 72.6902C42.5344 71.0426 39.0849 70.4537 36.0726 70.7407C33.8938 70.9457 31.9391 71.6129 30.8404 72.6752C28.1944 75.2062 24.3636 76.686 22.5024 78.3299C20.6413 79.9737 20.9627 85.4121 19.9798 90.0641C18.9968 94.716 17.1917 94.9769 17.046 99.5879C16.9002 104.199 16.0556 118.348 13.2676 122.423C10.4795 126.497 10.5767 129.557 9.5564 133.605C8.53612 137.653 0.213135 152.526 0.213135 152.526L22.8313 155.814C22.8313 155.814 24.4795 146.584 26.4079 139.04C27.3198 135.458 28.2766 132.248 29.1548 130.578C30.8249 127.355 32.2382 124.007 33.3817 120.563C35.7587 117.771 36.7939 111.829 36.9098 106.678L42.6988 102.991C47.2247 101.463 53.7613 98.41 53.7613 98.41Z" fill="white"/>
<path opacity="0.4" d="M53.7612 98.41C53.7612 98.41 48.7719 75.538 44.8215 72.6902C42.5343 71.0426 39.0848 70.4537 36.0725 70.7407C29.0239 72.9511 27.3347 77.0402 26.4228 78.0578C25.2081 79.4183 23.9748 87.3355 25.1745 91.8496C26.3742 96.3636 25.8061 98.067 25.1745 100.333C23.7618 105.358 29.1136 107.703 29.7602 109.533C30.4067 111.363 30.829 121.796 28.7025 125.323C27.5813 127.186 24.9204 136.684 26.4115 139.058C27.3234 135.476 28.2802 132.267 29.1585 130.597C30.8285 127.374 32.2418 124.025 33.3854 120.581C35.7623 117.789 36.7975 111.848 36.9134 106.696L42.7025 103.01C47.2246 101.463 53.7612 98.41 53.7612 98.41Z" fill="#FB9E1B"/>
<path d="M26.5312 101.657C26.5312 101.657 25.1821 100.251 24.0684 100.315" stroke="#263238" stroke-linecap="round" stroke-linejoin="round"/>
<path d="M28.9829 96.494C28.9829 96.494 27.4544 93.6984 25.2456 93.1989" stroke="#263238" stroke-linecap="round" stroke-linejoin="round"/>
<path d="M25.6006 79.7724C25.6006 79.7724 28.7437 80.913 29.3641 83.1272" stroke="#263238" stroke-linecap="round" stroke-linejoin="round"/>
<path d="M42.6987 102.987C42.6987 102.987 41.8727 102.059 41.8279 101.295" stroke="#263238" stroke-linecap="round" stroke-linejoin="round"/>
<path d="M22.8311 155.814C22.8311 155.814 26.4488 135.786 29.1546 130.597C30.8247 127.374 32.238 124.025 33.3815 120.581C35.7585 117.789 36.7937 111.844 36.9096 106.693L42.6986 103.006C47.2245 101.481 53.7611 98.4435 53.7611 98.4435C53.7611 98.4435 48.768 75.5715 44.8214 72.7237C40.8748 69.8759 33.4787 70.1815 30.8252 72.7237C28.1717 75.2659 24.3485 76.7121 22.4873 78.356C20.6261 79.9998 20.9475 85.4382 19.9646 90.0902C18.9817 94.7421 17.1766 95.003 17.0308 99.614C16.8851 104.225 16.0404 118.375 13.2412 122.449C10.4419 126.523 10.5503 129.583 9.53004 133.631C8.50975 137.679 0.186768 152.552 0.186768 152.552" stroke="#263238" stroke-linecap="round" stroke-linejoin="round"/>
<path d="M18.7614 28.3328L18.0924 22.3315C18.0867 22.2828 18.0906 22.2334 18.1041 22.1862C18.1175 22.1391 18.1402 22.095 18.1707 22.0565C18.2013 22.0181 18.2391 21.9861 18.2821 21.9622C18.3251 21.9384 18.3724 21.9233 18.4213 21.9178L20.9664 21.6345L21.7138 28.3738L19.1725 28.6571C19.075 28.6676 18.9773 28.6395 18.9004 28.5789C18.8235 28.5182 18.7735 28.4298 18.7614 28.3328Z" fill="#FB9E1B" stroke="#263238" stroke-linecap="round" stroke-linejoin="round"/>
<path d="M30.317 12.4089L36.3341 11.7417C36.4321 11.7312 36.5303 11.7598 36.6074 11.8212C36.6844 11.8827 36.7339 11.972 36.7452 12.0697L37.0292 14.6081L30.2684 15.3536L29.9844 12.8152C29.975 12.7174 30.0046 12.6199 30.0669 12.5438C30.1292 12.4677 30.2191 12.4192 30.317 12.4089Z" fill="#FB9E1B" stroke="#263238" stroke-linecap="round" stroke-linejoin="round"/>
<path d="M38.3523 11.5255L44.3694 10.8582C44.4183 10.8525 44.4678 10.8565 44.5151 10.8699C44.5624 10.8833 44.6066 10.9059 44.6451 10.9364C44.6836 10.9668 44.7158 11.0046 44.7396 11.0475C44.7635 11.0904 44.7787 11.1375 44.7843 11.1863L45.0683 13.7247L38.3112 14.4702L38.0272 11.9318C38.0215 11.883 38.0254 11.8337 38.0389 11.7865C38.0523 11.7393 38.075 11.6952 38.1055 11.6568C38.1361 11.6183 38.1739 11.5863 38.2169 11.5625C38.2599 11.5387 38.3072 11.5236 38.3561 11.518L38.3523 11.5255Z" fill="#FB9E1B" stroke="#263238" stroke-linecap="round" stroke-linejoin="round"/>
<path d="M27.6897 102.111L18.7612 22.16C18.5333 20.1219 19.1254 18.0769 20.4077 16.4738C21.6899 14.8706 23.5575 13.8404 25.6005 13.6091L142.205 0.652314C144.249 0.418454 146.303 1.00409 147.915 2.28047C149.527 3.55684 150.565 5.41945 150.8 7.45875L159.729 87.4101C159.956 89.4515 159.362 91.4995 158.076 93.1038C156.79 94.708 154.918 95.7371 152.871 95.9647L36.2668 108.918C35.2524 109.033 34.225 108.948 33.2436 108.667C32.2622 108.386 31.346 107.915 30.5476 107.28C29.7491 106.646 29.084 105.86 28.5904 104.969C28.0968 104.077 27.7843 103.097 27.671 102.085L27.6897 102.111Z" fill="#FB9E1B" stroke="#263238" stroke-linecap="round" stroke-linejoin="round"/>
<path d="M152.871 94.9844L36.0426 107.964C34.2918 108.157 32.5355 107.65 31.1598 106.552C29.7842 105.455 28.9016 103.858 28.7063 102.111L19.7368 21.9401C19.5415 20.1939 20.0495 18.4417 21.1491 17.0689C22.2487 15.6961 23.8499 14.815 25.6006 14.6193L142.448 1.64383C144.198 1.44913 145.954 1.95591 147.33 3.0527C148.706 4.14949 149.589 5.74645 149.784 7.49229L158.753 87.6636C158.849 88.5293 158.774 89.4054 158.53 90.2419C158.287 91.0783 157.88 91.8588 157.335 92.5386C156.789 93.2184 156.114 93.7843 155.348 94.204C154.583 94.6236 153.743 94.8888 152.875 94.9844H152.871Z" fill="#757575" stroke="#263238" stroke-linecap="round" stroke-linejoin="round"/>
<path d="M26.1537 61.8096C26.1687 61.9226 26.1393 62.0371 26.0719 62.1292C26.0044 62.2212 25.9039 62.2839 25.7914 62.304C25.6788 62.3241 25.5628 62.3003 25.4674 62.2374C25.3721 62.1744 25.3047 62.0773 25.2792 61.9661C25.2774 61.9475 25.2774 61.9288 25.2792 61.9102C25.2658 61.8517 25.2645 61.7911 25.2753 61.7321C25.286 61.6731 25.3087 61.6168 25.3419 61.5668C25.3751 61.5167 25.4181 61.4739 25.4683 61.4409C25.5186 61.408 25.575 61.3855 25.6342 61.3749C25.6934 61.3643 25.7542 61.3658 25.8128 61.3793C25.8714 61.3928 25.9267 61.418 25.9753 61.4534C26.0238 61.4888 26.0647 61.5337 26.0954 61.5853C26.126 61.6369 26.1459 61.6942 26.1537 61.7536C26.1556 61.7722 26.1556 61.791 26.1537 61.8096Z" fill="#999999" stroke="#263238" stroke-linecap="round" stroke-linejoin="round"/>
<path d="M27.0058 65.7719C27.0247 65.9382 26.9937 66.1064 26.9168 66.2551C26.8399 66.4039 26.7204 66.5265 26.5736 66.6076C26.4268 66.6886 26.2591 66.7244 26.0919 66.7104C25.9247 66.6964 25.7654 66.6333 25.6341 66.529C25.5029 66.4247 25.4056 66.2839 25.3546 66.1244C25.3036 65.965 25.3011 65.794 25.3475 65.6332C25.394 65.4723 25.4872 65.3288 25.6154 65.2208C25.7435 65.1128 25.901 65.0452 26.0677 65.0264C26.1785 65.0134 26.2907 65.0225 26.3979 65.053C26.5052 65.0835 26.6053 65.1349 26.6925 65.2042C26.7797 65.2735 26.8523 65.3594 26.906 65.4568C26.9598 65.5543 26.9937 65.6613 27.0058 65.7719Z" fill="#263238"/>
<path d="M25.9108 55.9797C25.9297 56.146 25.8988 56.3142 25.8218 56.4629C25.7449 56.6117 25.6255 56.7343 25.4786 56.8154C25.3318 56.8964 25.1642 56.9322 24.9969 56.9182C24.8297 56.9042 24.6704 56.8411 24.5392 56.7368C24.4079 56.6325 24.3106 56.4917 24.2596 56.3323C24.2086 56.1728 24.2062 56.0019 24.2526 55.841C24.299 55.6802 24.3922 55.5367 24.5204 55.4287C24.6486 55.3207 24.806 55.253 24.9728 55.2342C25.1959 55.2111 25.4192 55.2762 25.5946 55.4157C25.7701 55.5551 25.8836 55.7576 25.9108 55.9797Z" fill="#263238"/>
<path d="M27.0955 68.5899C27.1134 68.7525 27.0657 68.9156 26.9631 69.0431C26.8604 69.1707 26.7111 69.2524 26.548 69.2702C26.385 69.288 26.2215 69.2404 26.0936 69.138C25.9657 69.0356 25.8838 68.8867 25.866 68.7241C25.8571 68.6436 25.8643 68.5621 25.887 68.4843C25.9098 68.4066 25.9476 68.334 25.9985 68.2709C26.1012 68.1433 26.2504 68.0616 26.4135 68.0438C26.5765 68.026 26.74 68.0736 26.8679 68.176C26.9958 68.2784 27.0777 68.4273 27.0955 68.5899Z" fill="#263238"/>
<path d="M33.0751 102.51L24.0271 21.6866C23.9326 20.8249 24.1843 19.9609 24.7272 19.2839C25.2701 18.6069 26.0598 18.1721 26.9235 18.0747L144.413 5.02841C145.278 4.93209 146.146 5.18232 146.826 5.72407C147.505 6.26582 147.942 7.05471 148.038 7.91723L157.064 88.752C157.161 89.6136 156.91 90.4781 156.368 91.1554C155.825 91.8328 155.035 92.2675 154.171 92.364L36.6816 105.41C36.2538 105.456 35.8211 105.418 35.4083 105.297C34.9955 105.176 34.6106 104.975 34.2756 104.706C33.9407 104.436 33.6623 104.104 33.4563 103.727C33.2503 103.35 33.1207 102.937 33.0751 102.51Z" fill="white"/>
<path opacity="0.3" d="M144.611 5.00232L26.7219 18.0971C25.9111 18.1861 25.169 18.5927 24.6587 19.2274C24.1485 19.8621 23.912 20.673 24.0011 21.4816L33.0753 102.715C33.1646 103.524 33.5722 104.264 34.2086 104.773C34.845 105.282 35.658 105.518 36.4688 105.429L154.362 92.3341C154.765 92.2896 155.154 92.1664 155.509 91.9717C155.864 91.7769 156.177 91.5144 156.43 91.1991C156.683 90.8837 156.871 90.5218 156.984 90.1339C157.096 89.746 157.131 89.3398 157.087 88.9384L148.016 7.71594C147.925 6.90596 147.515 6.16516 146.877 5.65634C146.239 5.14751 145.424 4.91228 144.611 5.00232Z" fill="#FB9E1B"/>
<path d="M103.497 90.7872L83.2783 93.0237C82.4837 93.1124 81.6794 93.044 80.9113 92.8226C80.1432 92.6012 79.4263 92.2311 78.8016 91.7333C78.1769 91.2356 77.6567 90.62 77.2705 89.9217C76.8844 89.2234 76.6399 88.4561 76.5512 87.6636C76.4623 86.8711 76.5308 86.0688 76.7528 85.3027C76.9748 84.5366 77.3459 83.8217 77.8449 83.1986C78.344 82.5756 78.9612 82.0567 79.6613 81.6715C80.3615 81.2864 81.1308 81.0426 81.9254 80.9541L108.359 78.0317C109.154 77.942 109.958 78.0093 110.726 78.2299C111.494 78.4504 112.211 78.8198 112.836 79.317C113.46 79.8141 113.981 80.4293 114.367 81.1272C114.753 81.8251 114.998 82.5921 115.087 83.3844C115.266 84.9832 114.802 86.5878 113.797 87.8458C112.791 89.1038 111.326 89.9123 109.723 90.0939L103.497 90.7872Z" fill="#FB9E1B" stroke="#263238" stroke-linecap="round" stroke-linejoin="round"/>
<path d="M106.17 96.094L81.8635 98.7962L81.9472 99.5445L106.254 96.8424L106.17 96.094Z" fill="#999999" stroke="#263238" stroke-linecap="round" stroke-linejoin="round"/>
<path d="M141.136 70.2449L44.4403 80.9839C44.4403 80.9839 40.2395 71.9782 42.7809 66.1335C45.3223 60.2887 53.0174 63.6211 56.2763 58.1976C59.5352 52.7741 55.7606 49.1808 59.3484 41.7518C62.9362 34.3229 73.2175 30.3606 80.8939 33.6184C88.5704 36.8762 91.1678 41.7891 96.0487 40.4137C100.93 39.0382 103.71 32.7163 113.382 33.1786C123.055 33.6408 125.132 47.1493 124.572 53.8141C124.011 60.4788 143.296 54.5297 141.136 70.2449Z" fill="white"/>
<path d="M112.239 41.066L112.149 40.2608L106.095 40.9355L106.274 42.5682L106.599 45.4682L112.654 44.7972L112.239 41.066Z" fill="white"/>
<path opacity="0.2" d="M109.917 40.5141L106.103 40.9381L106.603 45.4132L110.417 44.9892L109.917 40.5141Z" fill="black"/>
<path d="M112.239 41.066L112.149 40.2608L106.095 40.9355L106.274 42.5682L106.599 45.4682L112.654 44.7972L112.239 41.066Z" stroke="#263238" stroke-linecap="round" stroke-linejoin="round"/>
<path d="M109.926 40.5068L109.97 40.9057" stroke="#263238" stroke-linecap="round" stroke-linejoin="round"/>
<path d="M106.947 50.3698L106.255 44.1747L109.496 41.7295L112.706 41.3716L113.618 49.5647L106.947 50.3698Z" fill="#263238"/>
<path opacity="0.2" d="M106.947 50.3698L110.553 49.971L109.63 41.7146L106.255 44.1747L106.947 50.3698Z" fill="black"/>
<path d="M106.947 50.3698L106.255 44.1747L109.496 41.7295L112.706 41.3716L113.618 49.5647L106.947 50.3698Z" stroke="#263238" stroke-linecap="round" stroke-linejoin="round"/>
<path opacity="0.2" d="M109.783 43.0863L109.974 44.8121" stroke="white" stroke-linecap="round" stroke-linejoin="round"/>
<path opacity="0.2" d="M110.09 45.8409L110.497 49.4864" stroke="white" stroke-linecap="round" stroke-linejoin="round"/>
<path d="M82.1349 68.8546L80.9539 68.985C80.7751 69.0038 80.5961 68.9513 80.456 68.8388C80.316 68.7263 80.2262 68.5631 80.2065 68.3849L79.9187 65.8353L82.4489 65.552L82.7366 68.1128C82.7535 68.2903 82.6999 68.4674 82.5874 68.6061C82.475 68.7447 82.3125 68.8339 82.1349 68.8546Z" fill="#999999" stroke="#263238" stroke-linecap="round" stroke-linejoin="round"/>
<path d="M82.3342 68.838L80.752 69.0139L81.1581 72.6481L82.7404 72.4721L82.3342 68.838Z" fill="#757575" stroke="#263238" stroke-linecap="round" stroke-linejoin="round"/>
<path d="M79.6045 65.8688L82.8597 65.5035L83.753 64.0125L78.4011 64.6089L79.6045 65.8688Z" fill="#757575" stroke="#263238" stroke-linecap="round" stroke-linejoin="round"/>
<path d="M88.761 60.0502L84.2763 60.5459L82.7813 55.853H82.146L83.6409 60.7398C83.5165 60.7547 83.403 60.8178 83.3247 60.9154C83.2465 61.013 83.2097 61.1373 83.2223 61.2616L83.3307 62.2159C83.3692 62.5278 83.5291 62.8121 83.7759 63.0074C84.0228 63.2026 84.3367 63.2932 84.65 63.2596L88.4919 62.8346C88.6406 62.8178 88.7765 62.7427 88.8697 62.626C88.9629 62.5093 89.0058 62.3604 88.989 62.2121L88.761 60.0502Z" fill="#999999" stroke="#263238" stroke-linecap="round" stroke-linejoin="round"/>
<path d="M89.1347 62.3985L88.9068 62.4209C88.7512 62.4385 88.5945 62.3995 88.4655 62.3112C88.3364 62.2229 88.2436 62.0911 88.2041 61.94L86.8923 56.7886C86.8285 56.5476 86.688 56.3337 86.4919 56.1791C86.2958 56.0245 86.0547 55.9375 85.8048 55.9313L82.131 55.8381C81.9946 55.8336 81.8644 55.7802 81.7642 55.6878C81.664 55.5954 81.6005 55.4701 81.5854 55.3349C81.5686 55.1866 81.6115 55.0377 81.7047 54.921C81.7979 54.8043 81.9338 54.7292 82.0824 54.7124L82.5421 54.6639L86.186 54.8168C86.6206 54.834 87.0379 54.9917 87.3749 55.266C87.7119 55.5403 87.9505 55.9163 88.0546 56.3376L89.4412 61.9587C89.4598 62.0555 89.4392 62.1558 89.3839 62.2376C89.3286 62.3193 89.243 62.3758 89.1459 62.3948" fill="#BFBFBF"/>
<path d="M89.1347 62.3985L88.9068 62.4209C88.7512 62.4385 88.5945 62.3995 88.4655 62.3112C88.3364 62.2229 88.2436 62.0911 88.2041 61.94L86.8923 56.7886C86.8285 56.5476 86.688 56.3337 86.4919 56.1791C86.2958 56.0245 86.0547 55.9375 85.8048 55.9313L82.131 55.8381C81.9946 55.8336 81.8644 55.7802 81.7642 55.6878C81.664 55.5954 81.6005 55.4701 81.5854 55.3349V55.3349C81.5686 55.1866 81.6115 55.0377 81.7047 54.921C81.7979 54.8043 81.9338 54.7292 82.0824 54.7124L82.5421 54.6639L86.186 54.8168C86.6206 54.834 87.0379 54.9917 87.3749 55.266C87.7119 55.5403 87.9505 55.9163 88.0546 56.3376L89.4412 61.9587C89.4598 62.0555 89.4392 62.1558 89.3839 62.2376C89.3286 62.3193 89.243 62.3758 89.1459 62.3948V62.3948" stroke="#263238" stroke-linecap="round" stroke-linejoin="round"/>
<path d="M66.939 46.1317L72.0591 62.816L83.5588 61.5375L83.8055 59.7184L80.995 50.4705L79.1264 44.2567C79.0067 43.8661 78.7553 43.5287 78.4147 43.3018C78.0741 43.0749 77.6654 42.9724 77.2577 43.0117L68.3368 43.9883C68.0696 44.016 67.8134 44.1086 67.5905 44.2581C67.3677 44.4076 67.185 44.6093 67.0586 44.8457C66.9545 45.0415 66.8903 45.256 66.8697 45.4767C66.8492 45.6975 66.8728 45.9201 66.939 46.1317Z" fill="#FB9E1B"/>
<path opacity="0.2" d="M66.9389 46.1317L72.059 62.816L83.5587 61.5375L83.8053 59.7184L80.9949 50.4705L71.3975 51.5365L69.5886 45.6508C69.5002 45.3619 69.314 45.1126 69.0618 44.9454C68.8096 44.7782 68.5071 44.7034 68.2058 44.7338L67.0846 44.8569C66.9772 45.0493 66.9091 45.261 66.8841 45.4797C66.8591 45.6985 66.8777 45.9201 66.9389 46.1317Z" fill="black"/>
<path d="M66.939 46.1317L72.0591 62.816L83.5588 61.5375L83.8055 59.7184L80.995 50.4705L79.1264 44.2567C79.0067 43.8661 78.7553 43.5287 78.4147 43.3018C78.0741 43.0749 77.6654 42.9724 77.2577 43.0117L68.3368 43.9883C68.0696 44.016 67.8134 44.1086 67.5905 44.2581C67.3677 44.4076 67.185 44.6093 67.0586 44.8457C66.9545 45.0415 66.8903 45.256 66.8697 45.4767C66.8492 45.6975 66.8728 45.9201 66.939 46.1317V46.1317Z" stroke="#263238" stroke-linecap="round" stroke-linejoin="round"/>
<path d="M76.0168 75.7989C78.3751 74.2333 85.689 73.4207 88.3499 74.4309L89.4711 73.9799C86.642 72.5224 82.744 72.4628 82.744 72.4628L81.0285 72.6529C81.0285 72.6529 77.2576 73.5624 74.8171 75.6051L76.0168 75.7989Z" fill="#999999" stroke="#263238" stroke-linecap="round" stroke-linejoin="round"/>
<path d="M88.2676 75.113C88.2895 75.3086 88.3691 75.4933 88.4962 75.6439C88.6233 75.7944 88.7923 75.9039 88.9819 75.9586C89.1714 76.0134 89.3729 76.0108 89.561 75.9513C89.7491 75.8918 89.9153 75.778 90.0385 75.6244C90.1618 75.4707 90.2366 75.284 90.2535 75.0879C90.2704 74.8919 90.2287 74.6952 90.1335 74.5228C90.0384 74.3504 89.8942 74.21 89.719 74.1193C89.5439 74.0286 89.3458 73.9918 89.1496 74.0134C89.0193 74.0278 88.8931 74.0677 88.7782 74.1307C88.6633 74.1938 88.5621 74.2788 88.4801 74.3809C88.3982 74.483 88.3373 74.6003 88.3008 74.7259C88.2644 74.8515 88.2531 74.9831 88.2676 75.113Z" fill="#BFBFBF" stroke="#263238" stroke-linecap="round" stroke-linejoin="round"/>
<path d="M74.2491 76.6711C74.2745 76.8654 74.3569 77.0479 74.4858 77.1957C74.6148 77.3434 74.7846 77.45 74.974 77.5019C75.1634 77.5539 75.3639 77.5489 75.5505 77.4877C75.7371 77.4265 75.9014 77.3117 76.0229 77.1577C76.1443 77.0037 76.2175 76.8174 76.2332 76.6221C76.249 76.4268 76.2066 76.2313 76.1114 76.0599C76.0162 75.8885 75.8723 75.749 75.698 75.6588C75.5236 75.5686 75.3264 75.5318 75.1311 75.5529C74.999 75.5672 74.8711 75.6076 74.7549 75.6718C74.6387 75.7361 74.5365 75.8228 74.4543 75.927C74.3722 76.0312 74.3117 76.1506 74.2764 76.2784C74.2412 76.4062 74.2319 76.5397 74.2491 76.6711Z" fill="#BFBFBF" stroke="#263238" stroke-linecap="round" stroke-linejoin="round"/>
<path d="M76.2075 65.3432L87.4605 64.0945C87.9434 64.0408 88.4108 63.8926 88.8362 63.6585C89.2615 63.4244 89.6364 63.1089 89.9395 62.7302C90.2425 62.3514 90.4677 61.9168 90.6022 61.4512C90.7367 60.9856 90.7778 60.4981 90.7232 60.0166C90.693 59.7298 90.5503 59.4666 90.3263 59.2843C90.1022 59.1021 89.815 59.0156 89.5273 59.0437H89.5086L73.0644 60.8702C72.7781 60.9021 72.5161 61.046 72.336 61.2703C72.1559 61.4947 72.0724 61.7811 72.1039 62.0668C72.1552 62.5477 72.3009 63.0139 72.5329 63.4386C72.7648 63.8634 73.0783 64.2384 73.4555 64.5423C73.8328 64.8462 74.2663 65.0731 74.7315 65.2098C75.1966 65.3466 75.6842 65.3907 76.1664 65.3395L76.2075 65.3432Z" fill="#FB9E1B"/>
<path opacity="0.2" d="M72.1151 62.0108L72.1488 62.3128C72.199 62.7647 72.338 63.2024 72.558 63.6007C72.7779 63.999 73.0744 64.3501 73.4306 64.634C73.7867 64.9179 74.1955 65.129 74.6335 65.2551C75.0715 65.3813 75.5302 65.4201 75.9832 65.3693L87.681 64.0684C88.1333 64.0188 88.5713 63.8808 88.9701 63.6622C89.3689 63.4437 89.7206 63.149 90.0052 62.7949C90.2898 62.4408 90.5017 62.0343 90.6287 61.5985C90.7557 61.1627 90.7954 60.7063 90.7456 60.2552L90.712 59.9495C90.6911 59.7555 90.6144 59.5716 90.4911 59.4201C90.3677 59.2686 90.203 59.156 90.0168 59.0959L90.0804 59.6588C90.116 59.9844 90.0208 60.3109 89.8155 60.5666C89.6103 60.8224 89.3117 60.9865 88.9853 61.0231L78.6068 62.1786C78.2799 62.2142 77.9521 62.1193 77.6951 61.9147C77.4381 61.7101 77.2728 61.4123 77.2352 61.0864L77.1642 60.4267L73.0233 60.8851C72.754 60.9161 72.5077 61.0516 72.3377 61.2622C72.1678 61.4729 72.0878 61.7418 72.1151 62.0108Z" fill="black"/>
<path d="M76.2075 65.3432L87.4605 64.0945C87.9434 64.0408 88.4108 63.8926 88.8362 63.6585C89.2615 63.4244 89.6364 63.1089 89.9395 62.7302C90.2425 62.3514 90.4677 61.9168 90.6022 61.4512C90.7367 60.9856 90.7778 60.4981 90.7232 60.0166V60.0166C90.693 59.7298 90.5503 59.4666 90.3263 59.2843C90.1022 59.1021 89.815 59.0156 89.5273 59.0437H89.5086L73.0644 60.8702C72.7781 60.9021 72.5161 61.046 72.336 61.2703C72.1559 61.4947 72.0724 61.7811 72.1039 62.0668V62.0668C72.1552 62.5477 72.3009 63.0139 72.5329 63.4386C72.7648 63.8634 73.0783 64.2384 73.4555 64.5423C73.8328 64.8462 74.2663 65.0731 74.7315 65.2098C75.1966 65.3466 75.6842 65.3907 76.1664 65.3395L76.2075 65.3432Z" stroke="#263238" stroke-linecap="round" stroke-linejoin="round"/>
<path d="M76.1775 61.448L71.7151 61.9437L70.1978 57.2508L69.5662 57.2322L71.0611 62.1227C70.9373 62.1358 70.8238 62.1973 70.7454 62.2937C70.6669 62.3901 70.63 62.5136 70.6425 62.6371L70.7472 63.5913C70.7838 63.9065 70.9437 64.1946 71.1922 64.3928C71.4406 64.5911 71.7575 64.6835 72.0739 64.6499L75.9158 64.2213C76.0635 64.2053 76.1987 64.1316 76.2919 64.0163C76.3851 63.901 76.4286 63.7535 76.4129 63.6062L76.1775 61.448Z" fill="#999999" stroke="#263238" stroke-linecap="round" stroke-linejoin="round"/>
<path d="M76.5699 63.7926L76.3382 63.8187C76.1826 63.836 76.0261 63.7964 75.8975 63.7073C75.769 63.6182 75.6773 63.4856 75.6393 63.3341L74.3275 58.1864C74.2633 57.9453 74.1228 57.7312 73.9268 57.5761C73.7309 57.421 73.49 57.333 73.24 57.3254L69.5662 57.2322C69.4297 57.2287 69.2991 57.1762 69.1982 57.0845C69.0973 56.9928 69.0329 56.8679 69.0168 56.7327C69.0011 56.584 69.0449 56.4352 69.1387 56.3186C69.2325 56.202 69.3687 56.1271 69.5176 56.1102L69.9736 56.058L73.6212 56.2108C74.0562 56.2289 74.4735 56.3873 74.8105 56.6623C75.1474 56.9372 75.3858 57.3138 75.4898 57.7354L76.8726 63.3714C76.8909 63.461 76.8755 63.5543 76.8293 63.6333C76.7831 63.7123 76.7094 63.7717 76.6222 63.8H76.5699" fill="#BFBFBF"/>
<path d="M76.5699 63.7926L76.3382 63.8187C76.1826 63.836 76.0261 63.7964 75.8975 63.7073C75.769 63.6182 75.6773 63.4856 75.6393 63.3341L74.3275 58.1864C74.2633 57.9453 74.1228 57.7312 73.9268 57.5761C73.7309 57.421 73.49 57.333 73.24 57.3254L69.5662 57.2322C69.4297 57.2287 69.2991 57.1762 69.1982 57.0845C69.0973 56.9928 69.0329 56.8679 69.0168 56.7327V56.7327C69.0011 56.584 69.0449 56.4352 69.1387 56.3186C69.2325 56.202 69.3687 56.1271 69.5176 56.1102L69.9736 56.058L73.6212 56.2108C74.0562 56.2289 74.4735 56.3873 74.8105 56.6623C75.1474 56.9372 75.3858 57.3138 75.4898 57.7354L76.8726 63.3714C76.8909 63.461 76.8755 63.5543 76.8293 63.6333C76.7831 63.7123 76.7094 63.7717 76.6222 63.8H76.5699" stroke="#263238" stroke-linecap="round" stroke-linejoin="round"/>
<path d="M84.5566 52.1143L80.397 52.5616L80.4231 52.7853C80.4317 52.8925 80.4826 52.9919 80.5645 53.0618C80.6465 53.1316 80.7529 53.1662 80.8604 53.158H80.9837L94.5688 51.667C94.6387 51.6595 94.7027 51.6247 94.7468 51.5702C94.791 51.5157 94.8116 51.4459 94.8043 51.3763L94.7632 51.0035L84.5566 52.1143Z" fill="#999999" stroke="#263238" stroke-linecap="round" stroke-linejoin="round"/>
<path d="M97.1925 43.7125L96.5161 50.422C96.5016 50.5618 96.4395 50.6924 96.3402 50.7921C96.241 50.8917 96.1105 50.9545 95.9704 50.97L85.4873 52.1367C85.4326 52.1424 85.3772 52.1372 85.3245 52.1215C85.2718 52.1059 85.2227 52.08 85.18 52.0454C85.1373 52.0107 85.1018 51.9681 85.0757 51.9198C85.0495 51.8715 85.0332 51.8185 85.0276 51.7639C85.024 51.7342 85.024 51.7042 85.0276 51.6745L85.7751 44.9649C85.7904 44.8268 85.8524 44.6981 85.9509 44.5998C86.0494 44.5016 86.1785 44.4397 86.317 44.4245L96.7328 43.2428C96.7878 43.2361 96.8435 43.2405 96.8966 43.2558C96.9498 43.2711 96.9993 43.2969 97.0422 43.3317C97.0851 43.3665 97.1206 43.4096 97.1464 43.4583C97.1722 43.5071 97.1879 43.5606 97.1925 43.6156C97.1955 43.6478 97.1955 43.6803 97.1925 43.7125Z" fill="#BFBFBF" stroke="#263238" stroke-linecap="round" stroke-linejoin="round"/>
<path d="M91.4295 46.907L92.2405 46.8175L92.5507 47.5183L92.0499 48.3048L91.2389 48.3943L90.9287 47.6972L91.4295 46.907Z" fill="white" stroke="#263238" stroke-linecap="round" stroke-linejoin="round"/>
<path d="M107.56 41.6996L107.47 40.8908L101.416 41.5692L101.599 43.2018L101.92 46.1018L107.975 45.4272L107.56 41.6996Z" fill="white"/>
<path opacity="0.2" d="M105.244 41.1509L101.411 41.5771L101.887 45.8336L105.72 45.4075L105.244 41.1509Z" fill="black"/>
<path d="M107.56 41.6996L107.47 40.8908L101.416 41.5692L101.599 43.2018L101.92 46.1018L107.975 45.4272L107.56 41.6996Z" stroke="#263238" stroke-linecap="round" stroke-linejoin="round"/>
<path d="M105.246 41.1368L105.291 41.5394" stroke="#263238" stroke-linecap="round" stroke-linejoin="round"/>
<path d="M102.268 51.0035L101.576 44.8047L104.816 42.3594L108.027 42.0053L108.942 50.1984L102.268 51.0035Z" fill="#FB9E1B"/>
<path opacity="0.2" d="M104.816 42.3594L105.732 50.586L102.264 50.97L101.576 44.8047L104.816 42.3594Z" fill="black"/>
<path d="M102.268 51.0035L101.576 44.8047L104.816 42.3594L108.027 42.0053L108.942 50.1984L102.268 51.0035Z" stroke="#263238" stroke-linecap="round" stroke-linejoin="round"/>
<path d="M105.104 43.7162L105.299 45.4421" stroke="#263238" stroke-linecap="round" stroke-linejoin="round"/>
<path d="M105.411 46.4746L105.818 50.1201" stroke="#263238" stroke-linecap="round" stroke-linejoin="round"/>
<path d="M100.76 52.2119L99.1667 52.389L101.652 74.6238L103.245 74.4467L100.76 52.2119Z" fill="#FB9E1B"/>
<path opacity="0.2" d="M100.76 52.2119L99.1667 52.389L101.652 74.6238L103.245 74.4467L100.76 52.2119Z" fill="black"/>
<path d="M100.76 52.2119L99.1667 52.389L101.652 74.6238L103.245 74.4467L100.76 52.2119Z" stroke="#263238" stroke-linecap="round" stroke-linejoin="round"/>
<path d="M90.9773 53.3071L114.657 50.6755L117.138 72.9101L115.546 73.0853L113.211 52.1553L91.1231 54.6117L90.9773 53.3071Z" fill="#FB9E1B" stroke="#263238" stroke-linecap="round" stroke-linejoin="round"/>
<path d="M109.989 49.9412L75.3105 53.7954L75.4451 55.0218L115.326 50.5935L115.188 49.3634L112.276 49.6877L109.989 49.9412Z" fill="#FB9E1B"/>
<path opacity="0.6" d="M109.989 49.9412L75.3105 53.7954L75.4451 55.0218L115.326 50.5935L115.188 49.3634L112.276 49.6877L109.989 49.9412Z" fill="white"/>
<path d="M109.989 49.9412L75.3105 53.7954L75.4451 55.0218L115.326 50.5935L115.188 49.3634L112.276 49.6877L109.989 49.9412Z" stroke="#263238" stroke-linecap="round" stroke-linejoin="round"/>
<path d="M78.603 77.1893L76.1177 54.9547L91.9639 53.1953L94.4492 75.4299L92.8533 75.6051L90.5175 54.6788L77.8555 56.0841L80.1951 77.0141L78.603 77.1893Z" fill="#FB9E1B"/>
<path opacity="0.2" d="M78.603 77.1893L76.1177 54.9547L91.9639 53.1953L94.4492 75.4299L92.8533 75.6051L90.5175 54.6788L77.8555 56.0841L80.1951 77.0141L78.603 77.1893Z" fill="white"/>
<path d="M78.603 77.1893L76.1177 54.9547L91.9639 53.1953L94.4492 75.4299L92.8533 75.6051L90.5175 54.6788L77.8555 56.0841L80.1951 77.0141L78.603 77.1893Z" stroke="#263238" stroke-linecap="round" stroke-linejoin="round"/>
<path d="M116.309 56.4718C115.036 55.4573 113.495 54.8337 111.873 54.6768C110.251 54.52 108.619 54.8366 107.174 55.5882C105.73 56.3398 104.535 57.494 103.736 58.9103C102.937 60.3266 102.568 61.944 102.674 63.5656C102.78 65.1872 103.356 66.7432 104.333 68.0442C105.309 69.3452 106.643 70.3352 108.174 70.8936C109.704 71.452 111.364 71.5548 112.951 71.1894C114.539 70.8241 115.986 70.0065 117.116 68.8359L118.383 69.8461L119.347 68.6421L118.08 67.6319C119.232 65.886 119.689 63.774 119.362 61.7097C119.034 59.6453 117.945 57.7773 116.309 56.4718ZM116.791 67.6021C115.879 68.7326 114.652 69.5681 113.264 70.0028C111.876 70.4376 110.39 70.4521 108.994 70.0446C107.598 69.6371 106.354 68.8259 105.42 67.7134C104.487 66.601 103.904 65.2373 103.748 63.7949C103.591 62.3525 103.866 60.8961 104.54 59.6099C105.213 58.3237 106.253 57.2655 107.529 56.569C108.805 55.8725 110.26 55.5691 111.709 55.6971C113.158 55.8251 114.536 56.3787 115.67 57.2881C117.188 58.5061 118.159 60.2758 118.37 62.2079C118.58 64.1401 118.012 66.0764 116.791 67.5909V67.6021Z" fill="#757575" stroke="#263238" stroke-linecap="round" stroke-linejoin="round"/>
<path d="M128.963 77.2974C128.768 77.541 128.485 77.6977 128.175 77.7334C127.864 77.769 127.553 77.6806 127.308 77.4875L118.099 70.1443C118.047 70.1032 118.013 70.0432 118.006 69.9776C117.998 69.9119 118.017 69.8458 118.058 69.7939L119.216 68.3476C119.258 68.2955 119.319 68.262 119.385 68.2543C119.452 68.2467 119.519 68.2654 119.571 68.3066L128.78 75.6498C129.022 75.845 129.177 76.1275 129.211 76.436C129.246 76.7445 129.156 77.0541 128.963 77.2974Z" fill="#999999" stroke="#263238" stroke-linecap="round" stroke-linejoin="round"/>
<path d="M67.1147 78.4678L66.0346 78.5871L61.1724 59.7147L62.2151 59.4463L67.1147 78.4678Z" fill="#999999" stroke="#263238" stroke-linecap="round" stroke-linejoin="round"/>
<path d="M66.4298 51.0084L53.511 54.3191L55.5915 62.3952L68.5104 59.0845L66.4298 51.0084Z" fill="#263238"/>
<path d="M39.5854 81.5244L146.061 69.697" stroke="#263238" stroke-linecap="round" stroke-linejoin="round"/>
<path d="M40.3593 80.0296C39.8825 79.8123 39.3607 79.7111 38.8369 79.7344C38.3132 79.7578 37.8025 79.9049 37.347 80.1638C36.5589 80.6357 35.9423 81.3461 35.5867 82.1916C34.3422 84.7785 30.9151 90.7015 30.3171 92.4012C29.7192 94.101 28.4485 98.8014 27.0395 100.837C25.6306 102.872 24.9541 105.865 24.9541 105.865L26.0753 134.269C26.6695 130.116 28.6914 125.323 28.6914 125.323C30.6333 124.168 32.2457 122.535 33.3743 120.581C33.7135 120.178 34.0139 119.744 34.2712 119.284C36.3417 115.635 37.0705 109.242 36.8873 104.326C36.6967 98.7529 38.3598 96.125 40.9984 91.1041C43.6369 86.0831 42.3251 80.9988 40.3593 80.0296Z" fill="white"/>
<path opacity="0.4" d="M40.3593 80.0296C39.8808 79.8187 39.3599 79.721 38.8374 79.7443C38.3148 79.7676 37.8047 79.9111 37.347 80.1638C38.9727 80.503 41.1217 81.2001 40.7106 82.4488C40.0678 84.4206 37.6796 81.7033 36.622 82.6911C35.5643 83.6789 31.8345 89.2701 34.5403 91.4694C37.2461 93.6686 36.6668 97.6645 34.9813 98.8759C33.2958 100.087 34.5851 102.671 35.3887 106.804C35.8782 109.305 35.0149 115.087 34.2675 119.265C36.3379 115.616 37.0667 109.223 36.8836 104.307C36.693 98.7343 38.3561 96.1064 40.9946 91.0854C43.6332 86.0645 42.3214 80.9317 40.3593 80.0296Z" fill="#FB9E1B"/>
<path d="M26.079 134.25C26.6733 130.101 28.6951 125.304 28.6951 125.304C30.6381 124.149 32.2517 122.517 33.3817 120.563C36.1287 117.331 37.0854 109.876 36.8948 104.307C36.7042 98.738 38.3897 96.125 41.0058 91.0817C43.622 86.0384 42.5344 81.0584 40.3518 80.0296C38.8307 79.3139 36.8275 79.6047 35.5793 82.1916C34.331 84.7785 30.9076 90.7015 30.3097 92.3975C29.7117 94.0935 28.441 98.8014 27.032 100.84C25.6231 102.879 24.9541 105.865 24.9541 105.865" stroke="#263238" stroke-linecap="round" stroke-linejoin="round"/>
<path d="M32.7014 92.7591C32.7014 92.7591 34.9924 92.8299 36.065 93.6239" stroke="#263238" stroke-linecap="round" stroke-linejoin="round"/>
<path d="M24.0831 105.321C24.0831 105.321 23.5785 104.277 25.8434 103.107" stroke="#263238" stroke-linecap="round" stroke-linejoin="round"/>
<path d="M81.0249 84.6555L82.5497 84.4914C82.82 84.4533 83.0942 84.4533 83.3645 84.4914C83.564 84.536 83.7407 84.6512 83.8615 84.8157C84.0135 85.0171 84.1043 85.2577 84.1231 85.5091C84.1662 85.7152 84.1365 85.9298 84.0391 86.1166C83.9417 86.3034 83.7826 86.4509 83.5887 86.5341C83.8283 86.5774 84.0457 86.7013 84.2049 86.8851C84.364 87.0689 84.4552 87.3016 84.4632 87.5443C84.4965 87.8003 84.4509 88.0603 84.3324 88.2898C84.2344 88.4887 84.0708 88.648 83.869 88.7408C83.598 88.8482 83.3117 88.9124 83.0206 88.9309L81.4995 89.0949L81.0249 84.6555ZM82.1461 86.3478L82.4638 86.3142C82.7777 86.2806 82.972 86.2061 83.0393 86.0831C83.1094 85.9626 83.1383 85.8226 83.1215 85.6842C83.1097 85.5525 83.053 85.4289 82.9608 85.3339C82.883 85.2794 82.7943 85.2423 82.7008 85.2249C82.6073 85.2076 82.5112 85.2104 82.4189 85.2332L82.0452 85.2742L82.1461 86.3478ZM82.3479 88.2376L82.8263 88.1891C83.2785 88.1407 83.4841 87.9207 83.4429 87.5368C83.4424 87.4519 83.4226 87.3683 83.3851 87.2921C83.3475 87.216 83.2932 87.1492 83.2262 87.097C83.0647 87.0157 82.8813 86.9882 82.7029 87.0187L82.2246 87.0709L82.3479 88.2376Z" fill="#263238"/>
<path d="M88.081 86.1539C88.2417 87.6822 87.7857 88.506 86.7056 88.6178C86.4719 88.6573 86.232 88.6362 86.0088 88.5566C85.7857 88.4769 85.5868 88.3414 85.4312 88.1631C85.0724 87.6787 84.8668 87.0985 84.8407 86.4969C84.68 84.9686 85.136 84.1485 86.2161 84.0367C86.4476 83.9997 86.6847 84.0208 86.9059 84.0983C87.1271 84.1757 87.3255 84.307 87.483 84.4803C87.8482 84.9646 88.0568 85.5484 88.081 86.1539ZM87.0457 86.262C87.0286 85.8555 86.9387 85.4554 86.7804 85.0804C86.7343 84.9961 86.6642 84.9274 86.5789 84.8829C86.4936 84.8384 86.3969 84.8202 86.3012 84.8306C86.2055 84.841 86.1151 84.8795 86.0414 84.9412C85.9677 85.0029 85.914 85.0851 85.8872 85.1773C85.8135 85.5778 85.8135 85.9883 85.8872 86.3888C85.9039 86.7925 85.9925 87.1901 86.1488 87.5629C86.1931 87.6487 86.2621 87.7193 86.347 87.7657C86.4318 87.8121 86.5286 87.8322 86.625 87.8234C86.7213 87.8146 86.8129 87.7773 86.8878 87.7163C86.9628 87.6553 87.0178 87.5733 87.0457 87.4809C87.121 87.0781 87.121 86.6649 87.0457 86.262Z" fill="#263238"/>
<path d="M91.8405 85.7551C92.0012 87.2871 91.5452 88.1072 90.4652 88.2227C90.2312 88.261 89.9912 88.239 89.7682 88.1588C89.5451 88.0785 89.3463 87.9427 89.1907 87.7642C88.8319 87.2799 88.6263 86.6997 88.6002 86.098C88.4395 84.5735 88.8955 83.7534 89.9756 83.6379C90.2074 83.6006 90.4449 83.622 90.6663 83.7002C90.8877 83.7783 91.0858 83.9107 91.2425 84.0852C91.6094 84.5672 91.8182 85.1503 91.8405 85.7551ZM90.8053 85.8669C90.7894 85.4602 90.6995 85.0598 90.5399 84.6853C90.4941 84.6009 90.4243 84.532 90.3392 84.4873C90.2542 84.4425 90.1577 84.424 90.062 84.4339C89.9664 84.4439 89.8759 84.482 89.8019 84.5433C89.728 84.6047 89.674 84.6865 89.6467 84.7785C89.5736 85.179 89.5736 85.5894 89.6467 85.9899C89.6623 86.3942 89.7522 86.7922 89.912 87.1641C89.9538 87.2527 90.0224 87.326 90.1083 87.3735C90.1942 87.4211 90.2929 87.4404 90.3904 87.4287C90.4867 87.42 90.5781 87.3821 90.6522 87.3202C90.7264 87.2582 90.7798 87.1751 90.8053 87.0821C90.8806 86.6805 90.8806 86.2685 90.8053 85.8669Z" fill="#263238"/>
<path d="M92.2854 83.4627L93.2646 83.3583L93.4626 85.222L94.3484 83.2502L95.3388 83.1458L94.3932 84.9015L95.9069 87.5853L94.894 87.6897L93.8924 85.7364L93.5785 86.3142L93.7392 87.8239L92.76 87.9282L92.2854 83.4627Z" fill="#263238"/>
<path d="M97.0281 82.9594L98.1156 82.8476L99.5545 85.4867L99.263 82.7246L100.01 82.6463L100.481 87.0895L99.6068 87.1827L97.9063 84.1075L98.2464 87.3281L97.499 87.4064L97.0281 82.9594Z" fill="#263238"/>
<path d="M104.136 84.4542C104.301 85.9862 103.841 86.8062 102.765 86.9218C102.531 86.9601 102.291 86.9381 102.068 86.8579C101.845 86.7776 101.646 86.6418 101.49 86.4633C101.129 85.9802 100.923 85.3993 100.9 84.7971C100.739 83.2726 101.195 82.4525 102.275 82.337C102.506 82.2993 102.744 82.3205 102.964 82.3987C103.185 82.4769 103.383 82.6095 103.538 82.7842C103.905 83.2663 104.114 83.8494 104.136 84.4542ZM103.105 84.566C103.09 84.1588 102.999 83.758 102.836 83.3844C102.791 83.2997 102.721 83.2303 102.636 83.1852C102.552 83.1402 102.455 83.1214 102.359 83.1315C102.264 83.1415 102.173 83.1798 102.1 83.2415C102.026 83.3031 101.973 83.3854 101.946 83.4776C101.871 83.8779 101.871 84.2887 101.946 84.689C101.964 85.0931 102.054 85.4907 102.212 85.8632C102.255 85.9493 102.324 86.0204 102.408 86.0671C102.493 86.1139 102.59 86.1342 102.686 86.1253C102.783 86.1165 102.874 86.0789 102.949 86.0176C103.023 85.9562 103.078 85.8738 103.105 85.7812C103.181 85.3797 103.181 84.9675 103.105 84.566Z" fill="#263238"/>
<path d="M104.106 82.2102L105.108 82.1059L105.904 85.1326L106.162 81.994L107.059 81.9008L107.937 84.935L108.154 81.7853L108.98 81.6958L108.498 86.2658L107.62 86.3589L106.7 83.3322L106.42 86.4894L105.553 86.5789L104.106 82.2102Z" fill="#263238"/>
<path d="M73.7559 22.9726C74.1495 26.2031 73.2102 27.9513 70.9379 28.2172C70.4453 28.3066 69.938 28.2685 69.4643 28.1067C68.9906 27.9449 68.5664 27.6647 68.2321 27.2928C67.5594 26.5473 67.1271 25.3819 66.9353 23.7964C66.5441 20.5808 67.4847 18.8413 69.757 18.5779C70.2448 18.4913 70.7466 18.5285 71.2162 18.6862C71.6858 18.8438 72.1081 19.1168 72.4441 19.48C73.1243 20.2031 73.5615 21.3673 73.7559 22.9726ZM71.5808 23.2373C71.4288 21.9749 71.2282 21.1449 70.9791 20.7473C70.8781 20.5745 70.7285 20.4351 70.5488 20.3463C70.3691 20.2576 70.1673 20.2234 69.9683 20.248C69.7693 20.2726 69.5819 20.3549 69.4294 20.4848C69.2769 20.6146 69.166 20.7863 69.1104 20.9784C68.9659 21.4207 68.9659 22.2731 69.1104 23.5355C69.2549 24.7979 69.4542 25.6204 69.7084 26.0031C69.8044 26.1795 69.9507 26.3235 70.1288 26.4169C70.3069 26.5103 70.5088 26.5488 70.709 26.5277C70.9091 26.5065 71.0984 26.4266 71.2529 26.298C71.4074 26.1695 71.5202 25.9981 71.577 25.8055C71.7377 25.3508 71.7377 24.5084 71.5696 23.2373H71.5808Z" fill="#263238"/>
<path d="M74.6265 18.1157L80.2025 17.441L80.3969 19.0476L76.8875 19.4725L77.1865 21.9252L79.8923 21.5972L80.0867 23.2037L77.3809 23.5318L77.8293 27.2406L75.7663 27.4867L74.6265 18.1157Z" fill="#263238"/>
<path d="M80.8716 17.3627L86.4476 16.6881L86.642 18.2946L83.1327 18.7195L83.4279 21.1685L86.1337 20.8442L86.3281 22.4508L83.626 22.7751L84.0745 26.5026L82.0077 26.7523L80.8716 17.3627Z" fill="#263238"/>
<path d="M87.1167 16.6061L92.8273 15.9165L93.0254 17.523L89.374 17.9666L89.6394 20.1397L92.476 19.8005L92.6703 21.4071L89.8337 21.7463L90.114 24.0536L93.7654 23.6138L93.9672 25.2912L88.2528 25.9807L87.1167 16.6061Z" fill="#263238"/>
<path d="M93.8401 15.7972L96.7926 15.4244C97.2331 15.3617 97.6781 15.3343 98.123 15.3424C98.4687 15.3698 98.803 15.4784 99.0985 15.6593C99.4532 15.8641 99.7462 16.1602 99.9468 16.5166C100.182 16.92 100.328 17.3684 100.377 17.8324C100.519 19.0053 100.179 19.8825 99.3564 20.464L101.58 24.3555L99.3377 24.6277L97.6297 21.0716L96.5982 21.1946L97.0467 24.9221L94.9837 25.1719L93.8401 15.7972ZM96.0825 17.0645L96.4039 19.6738L97.3121 19.5657C98.1193 19.4688 98.4681 18.9718 98.3585 18.0747C98.3386 17.8058 98.2442 17.5476 98.0857 17.3292C97.9747 17.1591 97.8124 17.0286 97.6222 16.9564C97.3882 16.9012 97.1454 16.8936 96.9084 16.9341L96.0825 17.0645Z" fill="#263238"/>
<path d="M107.519 16.2109L105.893 17.072C105.553 16.3265 105.063 15.9947 104.417 16.073C104.283 16.0775 104.151 16.1092 104.029 16.1662C103.908 16.2233 103.799 16.3045 103.71 16.4048C103.637 16.4919 103.582 16.593 103.549 16.702C103.517 16.8109 103.507 16.9254 103.52 17.0384C103.53 17.1626 103.571 17.2823 103.64 17.3865C103.708 17.4907 103.802 17.5761 103.912 17.6348C104.354 17.8436 104.82 17.9987 105.299 18.0971C105.812 18.2122 106.313 18.3783 106.794 18.5928C107.171 18.7733 107.497 19.0465 107.739 19.3868C108.01 19.7616 108.177 20.2016 108.221 20.6616C108.283 21.0629 108.257 21.4727 108.145 21.8631C108.033 22.2535 107.839 22.6154 107.575 22.9242C106.975 23.5838 106.141 23.9849 105.25 24.0424C103.551 24.2462 102.36 23.5193 101.677 21.8618L103.415 21.1163C103.751 22.0333 104.312 22.4433 105.097 22.3464C105.412 22.3263 105.709 22.194 105.934 21.9737C106.031 21.8721 106.103 21.7498 106.145 21.616C106.188 21.4823 106.198 21.3407 106.177 21.2021C106.15 20.9761 106.041 20.7679 105.871 20.6169C105.526 20.3873 105.136 20.2359 104.727 20.1733C104.147 20.058 103.579 19.8896 103.03 19.6701C102.64 19.4971 102.301 19.2261 102.047 18.8836C101.765 18.5112 101.591 18.0691 101.543 17.605C101.483 17.2242 101.502 16.8351 101.599 16.462C101.696 16.0888 101.869 15.7395 102.107 15.4356C102.36 15.1284 102.673 14.8756 103.027 14.6924C103.381 14.5092 103.769 14.3993 104.166 14.3695C105.823 14.1931 106.941 14.8069 107.519 16.2109Z" fill="#263238"/>
<path opacity="0.2" d="M104.308 84.0442C108.875 84.0814 114.59 104.613 116.369 106.976C116.369 106.976 141.876 107.852 145.09 111.4C148.304 114.949 146.712 117.946 148.827 121.312C150.942 124.678 151.548 130.351 151.548 130.351L157.154 139.785L133.127 151.266C133.127 151.266 120.289 143.93 117.165 142.275C114.04 140.62 104.746 137.005 102.279 132.33C99.8123 127.656 99.6889 123.269 99.1582 121.327C98.6275 119.385 108.942 113.57 108.942 113.57L104.308 84.0442Z" fill="black" fill-opacity="0.7"/>
<path d="M160.353 141.649C158.283 139.741 156.107 137.713 154.317 136.035C152.034 133.896 150.378 132.334 150.378 132.334C149.018 129.486 147.822 128.528 146.316 126.281C144.81 124.033 145.041 121.662 144.686 118.524C144.331 115.385 143.057 112.683 142.276 110.834C141.495 108.985 141.431 107.073 141.274 106.659C141.117 106.245 138.751 104.422 137.656 102.931C137.165 102.267 136.565 101.69 135.881 101.224C135.115 100.684 134.236 100.326 133.31 100.177C132.926 100.125 132.537 100.117 132.151 100.154C131.39 100.275 130.64 100.459 129.909 100.702C128.945 100.933 126.508 99.7593 125.103 99.8152C124.841 99.8216 124.58 99.8465 124.322 99.8898C123.112 100.113 121.922 100.434 120.764 100.848C119.497 101.221 117.688 100.393 116.38 100.296H116.354C116.063 100.264 115.768 100.301 115.494 100.404C114.257 100.922 111.891 101.713 111.891 101.713C111.891 101.713 111.282 100.106 110.632 97.8807C110.52 97.5079 110.404 97.1352 110.281 96.7624C109.825 95.4056 109.328 94.2091 109.021 93.0834C108.94 92.7949 108.874 92.5026 108.823 92.2074C108.546 90.5785 108.195 89.3372 107.556 86.8994L107.489 86.6385C107.287 85.893 107.115 85.1475 106.924 84.4915C106.45 82.911 105.803 81.8151 104.155 81.9493C102.705 82.0686 101.913 82.993 101.872 85.4382C101.831 87.8835 101.363 87.8201 102.01 91.2308C102.656 94.6415 102.417 96.9674 102.937 98.6523C103.456 100.337 103.875 103.748 103.875 103.748C103.154 103.58 102.627 103.99 102.582 104.285C102.537 104.579 102.686 107.315 102.761 109.279C102.825 111.024 101.674 112.925 101.386 114.207V114.237C101.352 114.375 101.333 114.516 101.33 114.658C101.289 115.911 102.055 118.386 102.825 121.603C103.595 124.819 103.572 128.312 104.903 130.273C105.178 130.668 105.515 131.016 105.9 131.305C107.5 132.532 110.086 133.303 112.736 135.253C116.043 137.694 118.409 139.506 120.368 140.098C121.773 140.531 122.453 140.993 122.868 141.72C123.033 142.039 123.158 142.377 123.242 142.726C123.428 143.401 123.925 143.845 124.759 144.553C126.063 145.639 127.265 146.842 128.35 148.146C129.367 149.354 131.049 151.717 132.835 154.345L160.353 141.649Z" fill="white"/>
<path opacity="0.4" d="M108.808 92.1962C108.859 92.4914 108.925 92.7838 109.006 93.0722C106.861 93.1765 103.142 95.1298 103.37 96.3487C103.654 97.8397 104.308 101.362 105.239 101.992C106.169 102.622 107.918 102.76 107.918 102.76C107.803 102.797 107.69 102.842 107.578 102.89L107.541 102.909C107.054 103.142 106.648 103.516 106.379 103.983C105.198 105.962 105.982 109.537 106.909 111.125C110.763 117.73 108.632 124.193 107.238 123.798C105.844 123.403 104.271 117.316 104.301 115.791C104.327 114.899 104.23 114.007 104.013 113.141C103.422 113.089 102.335 113.629 101.356 114.207V114.177C101.643 112.895 102.795 110.994 102.731 109.25C102.656 107.285 102.503 104.549 102.552 104.255C102.6 103.96 103.123 103.55 103.845 103.718C103.845 103.718 103.422 100.311 102.907 98.6224C102.391 96.9339 102.626 94.6154 101.98 91.201C101.333 87.7866 101.8 87.8462 101.842 85.4084C101.883 82.9706 102.675 82.0537 104.125 81.9195C105.781 81.7853 106.42 82.8812 106.894 84.4616C106.671 84.3346 106.439 84.2238 106.199 84.1299C105.6 83.8591 104.921 83.8232 104.297 84.0292C103.579 84.3088 103.109 85.2034 102.888 86.0868C102.567 87.3579 102.765 88.6103 103.497 87.9953C104.327 87.302 106.308 86.9926 107.53 86.8771C108.046 88.6274 108.472 90.4027 108.808 92.1962Z" fill="#FB9E1B"/>
<path opacity="0.4" d="M123.238 142.734C123.157 142.385 123.031 142.048 122.864 141.731C122.449 140.986 121.769 140.542 120.364 140.11C118.405 139.502 116.04 137.69 112.732 135.264C110.082 133.314 107.5 132.543 105.896 131.316C107.653 131.786 109.664 130.851 110.647 132.021C112.074 133.71 117.318 135.532 117.318 135.532C122.77 138.839 123.238 142.734 123.238 142.734Z" fill="#FB9E1B"/>
<path opacity="0.4" d="M116.342 100.274C115.797 100.274 115.221 104.109 115.374 105.38C115.789 108.664 119.803 118.147 117.617 118.427C116.716 118.546 114.586 114.177 114.007 112.045C112.254 105.559 111.865 102.782 111.865 102.782C111.865 102.782 110.531 99.2785 110.254 96.7401C110.378 97.1128 110.494 97.4856 110.606 97.8583C111.256 100.095 111.865 101.69 111.865 101.69C111.865 101.69 114.231 100.9 115.468 100.382C115.747 100.277 116.046 100.24 116.342 100.274Z" fill="#FB9E1B"/>
<path opacity="0.4" d="M124.31 99.901C123.189 100.274 122.311 101.664 121.425 102.085C120.341 102.603 117.632 100.538 116.368 100.307C117.676 100.404 119.485 101.247 120.752 100.859C121.911 100.445 123.1 100.125 124.31 99.901Z" fill="#FB9E1B"/>
<path opacity="0.4" d="M132.144 100.143C131.748 100.984 131.482 101.88 131.355 102.801C131.146 105.984 134.719 116.995 132.783 115.512C130.279 113.585 130.309 104.829 128.148 102.003C127.457 101.098 125.48 99.86 125.103 99.8041C126.508 99.7482 128.944 100.922 129.909 100.691C130.638 100.449 131.385 100.266 132.144 100.143Z" fill="#FB9E1B"/>
<path opacity="0.4" d="M154.31 136.021C152.4 134.686 150.427 133.449 149.261 133.076C146.398 132.204 145.314 130.839 144.488 128.353C143.662 125.867 144.324 125.766 144.488 123.071C144.652 120.376 142.492 117.599 142.761 118.248C143.03 118.896 142.963 123.839 142.148 124.268C141.334 124.696 140.28 121.64 139.562 119.105C138.845 116.57 137.383 104.333 136.434 102.096C136.302 101.77 136.118 101.466 135.888 101.198C136.572 101.664 137.172 102.241 137.664 102.905C138.759 104.396 141.124 106.212 141.281 106.633C141.438 107.054 141.498 108.959 142.283 110.808C143.068 112.657 144.338 115.355 144.694 118.498C145.049 121.64 144.821 124.011 146.316 126.254C147.81 128.498 149.018 129.46 150.378 132.308C150.37 132.33 152.026 133.881 154.31 136.021Z" fill="#FB9E1B"/>
<path opacity="0.4" d="M123.357 106.808C124.071 107.27 126.31 115.009 127.095 116.872C127.879 118.736 127.984 123.582 127.076 122.314C126.168 121.047 120.446 104.926 123.357 106.808Z" fill="#FB9E1B"/>
<path d="M132.155 153.353C130.623 151.136 129.232 149.205 128.347 148.154C127.261 146.849 126.059 145.647 124.755 144.56C123.922 143.845 123.425 143.408 123.238 142.734C123.157 142.385 123.031 142.048 122.864 141.731C122.449 140.986 121.769 140.542 120.364 140.11C118.405 139.502 116.04 137.69 112.732 135.264C110.082 133.314 107.5 132.543 105.897 131.316C105.511 131.027 105.174 130.679 104.899 130.284C103.579 128.338 103.591 124.823 102.821 121.614C102.051 118.404 101.285 115.922 101.326 114.669C101.33 114.527 101.348 114.386 101.382 114.248V114.218C101.67 112.936 102.821 111.035 102.757 109.291C102.682 107.326 102.529 104.59 102.578 104.296C102.626 104.001 103.15 103.591 103.871 103.759C103.871 103.759 103.449 100.352 102.933 98.6634C102.417 96.9749 102.653 94.6564 102.006 91.242C101.359 87.8276 101.827 87.8872 101.868 85.4494C101.909 83.0116 102.701 82.0947 104.151 81.9605C105.807 81.8263 106.446 82.9222 106.921 84.5026C107.119 85.155 107.294 85.8893 107.485 86.6497L107.552 86.9106C108.191 89.3484 108.543 90.5897 108.819 92.2186C108.87 92.5138 108.936 92.8061 109.017 93.0945C109.324 94.2128 109.821 95.4168 110.277 96.7736C110.4 97.1463 110.516 97.5191 110.628 97.8918C111.278 100.128 111.887 101.724 111.887 101.724C111.887 101.724 114.253 100.934 115.49 100.415C115.764 100.313 116.059 100.276 116.35 100.307H116.376C117.684 100.404 119.493 101.247 120.76 100.859C121.918 100.445 123.108 100.125 124.318 99.901V99.901C124.579 99.8637 124.837 99.8376 125.099 99.8264C126.504 99.7705 128.941 100.945 129.905 100.714C130.636 100.47 131.386 100.287 132.147 100.166C132.533 100.128 132.922 100.136 133.306 100.188C134.232 100.337 135.112 100.695 135.877 101.235C136.561 101.701 137.161 102.278 137.652 102.943C138.747 104.434 141.113 106.249 141.27 106.67C141.427 107.091 141.487 108.996 142.272 110.845C143.057 112.694 144.327 115.393 144.682 118.535C145.037 121.677 144.821 124.048 146.316 126.292C147.81 128.536 149.018 129.497 150.378 132.345C150.378 132.345 152.034 133.907 154.317 136.047C155.905 137.538 157.797 139.297 159.646 141.008" stroke="#263238" stroke-linecap="round" stroke-linejoin="round"/>
<path d="M103.856 103.733C104.42 106.089 104.906 109.067 104.839 110.368C104.772 111.669 105.99 115.676 105.743 117.547" stroke="#263238" stroke-linecap="round" stroke-linejoin="round"/>
<path d="M105.519 105.298C105.519 105.298 106.719 103.062 107.937 102.76C109.155 102.458 110.553 102.965 111.88 102.801C113.207 102.637 114.317 101.37 115.498 100.848" stroke="#263238" stroke-linecap="round" stroke-linejoin="round"/>
<path d="M104.39 96.4903C104.39 96.4903 106.412 95.1521 107.754 95.6852" stroke="#263238" stroke-linecap="round" stroke-linejoin="round"/>
<path d="M105.822 95.0552C106.378 94.8252 106.996 94.7897 107.575 94.9546" stroke="#263238" stroke-linecap="round" stroke-linejoin="round"/>
<path d="M103.86 89.4639C104.569 89.1201 105.344 88.9356 106.132 88.9235" stroke="#263238" stroke-linecap="round" stroke-linejoin="round"/>
<path d="M101.371 114.192C101.935 113.719 102.544 113.302 103.191 112.947" stroke="#263238" stroke-linecap="round" stroke-linejoin="round"/>
<path d="M105.654 115.486C105.396 116.202 105.213 116.942 105.108 117.696" stroke="#263238" stroke-linecap="round" stroke-linejoin="round"/>
<path d="M102.473 83.69C102.473 83.69 102.783 86.4969 103.183 86.6721C103.583 86.8472 106.289 86.4298 106.39 85.9079C106.491 85.3861 106.053 83.3807 106.053 83.3807C106.053 83.3807 103.819 81.0286 102.473 83.69Z" stroke="#263238" stroke-linecap="round" stroke-linejoin="round"/>
<path d="M102.742 109.264C102.742 109.264 104.671 107.636 104.346 106.044C104.02 104.452 103.378 104.62 102.559 104.806" stroke="#263238" stroke-linecap="round" stroke-linejoin="round"/>
<path d="M137.828 104.691C138.501 107.17 139.529 114.621 139.697 115.709C139.865 116.798 140.609 119.519 140.609 119.519" stroke="#263238" stroke-linecap="round" stroke-linejoin="round"/>
<path d="M120.786 102.712C123.97 105.578 121.294 104.84 126.721 120.846" stroke="#263238" stroke-linecap="round" stroke-linejoin="round"/>
<path d="M150.371 132.33C150.371 132.33 147.889 131.212 147.31 130.366" stroke="#263238" stroke-linecap="round" stroke-linejoin="round"/>
<path d="M120.969 138.514C121.844 139.405 122.789 141.586 122.838 141.72" stroke="#263238" stroke-linecap="round" stroke-linejoin="round"/>
<path d="M55.5925 55.6219L56.1158 55.4877C56.2372 55.4524 56.363 55.4336 56.4895 55.4318C56.5915 55.4377 56.6875 55.4816 56.7586 55.5548C56.8498 55.6424 56.9123 55.7554 56.938 55.8791C56.9691 55.9938 56.9691 56.1147 56.938 56.2295C56.9162 56.3234 56.8636 56.4074 56.7885 56.468C56.6766 56.5471 56.5492 56.6017 56.4147 56.6283L56.2727 56.6656L56.4484 57.3403L56.0485 57.4409L55.5925 55.6219ZM56.0709 55.8157L56.2092 56.3525L56.3363 56.3227C56.4446 56.2928 56.5082 56.2481 56.5269 56.1922C56.5475 56.1229 56.5475 56.0491 56.5269 55.9797C56.5135 55.9213 56.4851 55.8674 56.4446 55.8232C56.4171 55.7925 56.3804 55.7716 56.34 55.7635C56.293 55.7558 56.245 55.7558 56.198 55.7635L56.0709 55.8157Z" fill="#FB9E1B"/>
<path d="M57.2706 55.1895L57.6742 55.0851L58.6684 56.77L58.2573 56.8743L58.0704 56.5239L57.5546 56.6544V57.0533L57.1809 57.1502L57.2706 55.1895ZM57.9134 56.2295L57.5397 55.5324L57.5584 56.3227L57.9134 56.2295Z" fill="#FB9E1B"/>
<path d="M58.3469 54.9099L58.9187 54.7608C59.0042 54.7363 59.0918 54.72 59.1803 54.7124C59.2494 54.7064 59.3188 54.718 59.3822 54.7459C59.4569 54.7777 59.5216 54.8292 59.569 54.895C59.6278 54.9665 59.6688 55.0508 59.6886 55.141C59.7217 55.2353 59.7269 55.337 59.7037 55.4341C59.6805 55.5312 59.6299 55.6197 59.5578 55.689L60.0997 56.3972L59.6662 56.509L59.2364 55.853L59.0383 55.9052L59.2252 56.6246L58.8253 56.729L58.3469 54.9099ZM58.8253 55.1L58.9561 55.6107L59.1318 55.566C59.2887 55.5237 59.3448 55.4156 59.2999 55.2417C59.2891 55.1894 59.2631 55.1414 59.2252 55.1038C59.1981 55.0745 59.163 55.0538 59.1243 55.0441C59.0773 55.0361 59.0293 55.0361 58.9823 55.0441L58.8253 55.1Z" fill="#FB9E1B"/>
<path d="M59.8381 54.5223L60.238 54.4216L60.4361 55.1671L60.679 54.2949L61.0864 54.1905L60.8024 54.977L61.5984 55.9984L61.1836 56.1065L60.6454 55.361L60.552 55.6219L60.7127 56.2407L60.309 56.3413L59.8381 54.5223Z" fill="#FB9E1B"/>
<path d="M61.2805 54.1495L61.6804 54.0452L62.155 55.8642L61.7552 55.9685L61.2805 54.1495Z" fill="#FB9E1B"/>
<path d="M62.0132 53.9594L62.4579 53.8439L63.2054 54.854L62.9101 53.7358L63.2203 53.6538L63.695 55.4728L63.3212 55.566L62.4243 54.3918L62.7644 55.7113L62.4542 55.7896L62.0132 53.9594Z" fill="#FB9E1B"/>
<path d="M64.4238 54.2427L65.0592 54.0787L65.3096 55.0479L65.1414 55.0926L65.0367 54.8988C65.011 54.9845 64.9628 55.0618 64.8971 55.1227C64.8314 55.1836 64.7506 55.226 64.663 55.2454C64.5679 55.2738 64.4671 55.2781 64.3699 55.2579C64.2727 55.2377 64.182 55.1937 64.1061 55.1299C63.9247 54.9697 63.8001 54.7552 63.7511 54.5185C63.6764 54.2756 63.6764 54.016 63.7511 53.773C63.7872 53.6723 63.8488 53.5826 63.9301 53.5127C64.0113 53.4427 64.1093 53.395 64.2145 53.3742C64.2967 53.3478 64.3836 53.3391 64.4695 53.3486C64.5553 53.3581 64.6382 53.3855 64.7126 53.4292C64.7871 53.4728 64.8514 53.5316 64.9015 53.6018C64.9516 53.672 64.9862 53.752 65.0031 53.8364L64.6593 53.9855C64.5733 53.7544 64.4537 53.6575 64.308 53.6985C64.263 53.7093 64.222 53.7325 64.1896 53.7655C64.1572 53.7984 64.1348 53.8398 64.1248 53.8849C64.0993 54.0602 64.116 54.2391 64.1734 54.4067C64.2037 54.5669 64.2716 54.7176 64.3715 54.8466C64.4048 54.8818 64.4472 54.907 64.4941 54.9195C64.541 54.932 64.5904 54.9313 64.6368 54.9174C64.8013 54.8764 64.8536 54.7347 64.7901 54.4925L64.5172 54.5633L64.4238 54.2427Z" fill="#FB9E1B"/>
<path d="M55.9437 58.2162L56.3473 58.1119L57.3415 59.7967L56.9304 59.9011L56.7397 59.5507L56.2277 59.6812V60.08L55.854 60.1769L55.9437 58.2162ZM56.5865 59.2562L56.2128 58.5592L56.2315 59.3494L56.5865 59.2562Z" fill="#FB9E1B"/>
<path d="M56.7771 58L57.1994 57.8919L57.8422 59.204L57.7675 57.7428L58.1151 57.6534L58.1412 59.5991L57.689 59.7035L56.7771 58Z" fill="#FB9E1B"/>
<path d="M58.5487 57.5416L58.9523 57.4372L59.9464 59.122L59.5353 59.2264L59.3485 58.876L58.8327 59.0065V59.4053L58.459 59.5022L58.5487 57.5416ZM59.1915 58.5815L58.8178 57.8845V58.6747L59.1915 58.5815Z" fill="#FB9E1B"/>
<path d="M59.6101 57.262L60.01 57.1576L60.3837 58.6486L60.9705 58.4958L61.0602 58.835L60.0735 59.0922L59.6101 57.262Z" fill="#FB9E1B"/>
<path d="M60.7874 56.9601L61.191 56.8557L61.6619 58.6747L61.262 58.7791L60.7874 56.9601Z" fill="#FB9E1B"/>
<path d="M61.8526 56.6842L62.2562 56.5799L63.2503 58.2647L62.8429 58.3691L62.6523 58.0187L62.1403 58.1491V58.548L61.7666 58.6449L61.8526 56.6842ZM62.4954 57.7242L62.1216 57.0272L62.1403 57.8174L62.4954 57.7242Z" fill="#FB9E1B"/>
<path d="M62.9326 56.4047L63.5567 56.2444C63.6672 56.2115 63.7816 56.1939 63.8968 56.1922C63.9821 56.1977 64.0621 56.2349 64.1211 56.2966C64.1979 56.3703 64.2512 56.4649 64.2743 56.5687C64.3072 56.6512 64.3095 56.7428 64.2807 56.8268C64.2519 56.9109 64.194 56.9819 64.1173 57.0272C64.2205 57.0309 64.3193 57.07 64.3969 57.1379C64.4745 57.2058 64.5263 57.2984 64.5434 57.3999C64.5754 57.5044 64.5754 57.616 64.5434 57.7205C64.515 57.8092 64.457 57.8855 64.379 57.9367C64.2723 57.9968 64.1579 58.042 64.0389 58.0709L63.4147 58.2311L62.9326 56.4047ZM63.5082 57.0383L63.639 57.0048C63.7698 56.9712 63.8445 56.9265 63.8632 56.8743C63.882 56.8187 63.882 56.7585 63.8632 56.7029C63.8498 56.6491 63.8181 56.6017 63.7735 56.5687C63.7287 56.5314 63.6539 56.5314 63.5418 56.5687L63.3848 56.6097L63.5082 57.0383ZM63.71 57.8137L63.9081 57.7615C64.0912 57.713 64.1622 57.6086 64.1211 57.4521C64.1168 57.4169 64.104 57.3833 64.0838 57.354C64.0636 57.3248 64.0367 57.3009 64.0052 57.2844C63.9328 57.2578 63.8534 57.2578 63.781 57.2844L63.5866 57.3328L63.71 57.8137Z" fill="#FB9E1B"/>
<path d="M64.4685 56.0058L64.8684 55.9015L65.2421 57.3925L65.8289 57.2396L65.9186 57.5788L64.9282 57.836L64.4685 56.0058Z" fill="#FB9E1B"/>
<path d="M65.6345 55.7039L66.7557 55.4169L66.8379 55.73L66.1278 55.9126L66.24 56.3338L66.7894 56.1922L66.8716 56.5053L66.3222 56.647L66.438 57.0943L67.1444 56.9116L67.2304 57.2359L66.1092 57.5229L65.6345 55.7039Z" fill="#FB9E1B"/>
</g>
<defs>
<clipPath id="clip0_16_588">
<rect width="166" height="156" fill="white"/>
</clipPath>
</defs>
</svg>
