<svg width="52" height="51" viewBox="0 0 52 51" fill="none" xmlns="http://www.w3.org/2000/svg">
<g clip-path="url(#clip0_84_1973)">
<path d="M51.9999 17.0123C51.6022 18.1281 51.4095 19.297 51.1177 20.4415C50.7105 22.0333 50.344 23.636 49.9626 25.2347C49.6721 26.4623 49.4495 26.6465 48.2184 26.7051C47.5573 26.9998 46.8773 26.8647 46.2 26.7951C45.9448 26.5619 46.2217 26.476 46.3357 26.3859C46.6146 26.1613 46.8035 25.8431 46.8678 25.4898C47.4895 22.8817 48.1175 20.2755 48.7518 17.6711C48.935 16.9182 49.0844 16.1979 48.3636 15.625C48.3242 15.5937 48.3337 15.5323 48.3419 15.4818L50.8516 15.4627C51.438 15.4627 51.7217 15.8719 51.9986 16.2934L51.9999 17.0123Z" fill="#0055A2"/>
<path d="M46.8342 50.9195C46.743 50.958 46.6471 50.9842 46.5491 50.9973C45.1483 50.9973 43.7475 50.9973 42.3413 50.9877C42.1391 50.7572 42.1934 50.4735 42.1934 50.2075C42.1934 48.2856 42.1934 46.3636 42.1934 44.4431C42.1934 43.1568 41.7251 42.6957 40.4397 42.693C39.0701 42.693 37.6992 42.693 36.3283 42.693C35.1718 42.693 34.6995 43.1813 34.6913 44.3408C34.6913 46.2968 34.6913 48.2515 34.6913 50.2061C34.6913 50.4789 34.7443 50.7518 34.5393 50.985H31.5776C30.8012 50.9045 30.0234 50.9468 29.247 50.9591C28.8398 50.9591 28.6823 50.8227 28.7041 50.4353C28.7041 50.333 28.7041 50.2307 28.7041 50.1297C28.7041 44.5672 28.7041 39.0056 28.7041 33.4448C28.7041 33.2089 28.6756 32.966 28.7841 32.7423C28.8167 30.9104 28.7841 29.0786 28.7991 27.248C28.7775 27.0623 28.7895 26.8743 28.8344 26.6928C29.0353 26.5264 29.2782 26.5455 29.513 26.5455C34.6302 26.5455 39.7465 26.5455 44.8619 26.5455C45.0805 26.5455 45.3031 26.5373 45.4999 26.6642C45.6818 26.8565 45.6641 27.1021 45.6641 27.338C45.6641 34.6129 45.6641 41.8878 45.6641 49.1626C45.6641 49.7901 45.4768 50.3248 44.9434 50.7517C45.4307 50.7354 45.8528 50.7354 46.2749 50.7517C46.4745 50.7504 46.6862 50.7395 46.8342 50.9195Z" fill="#5DE0C3"/>
<path d="M16.7429 50.9864C12.2949 50.9864 7.84819 51.0109 3.40152 50.9864C1.50123 50.9768 -0.00271103 49.3918 3.66932e-06 47.474C3.66932e-06 44.3312 0.0058854 41.188 0.0176491 38.0444C0.234825 37.8793 0.488649 37.8739 0.745188 37.8739C8.79879 37.8739 16.8546 37.8739 24.9128 37.8739C25.1489 37.8739 25.3906 37.8602 25.5914 38.0103C25.7733 38.2231 25.7516 38.485 25.7516 38.7373C25.7516 42.5693 25.7516 46.4014 25.7516 50.2334C25.7516 50.4517 25.7638 50.6767 25.6308 50.8718C25.3078 50.9959 24.9806 50.9564 24.6522 50.8991C24.4866 50.6931 24.5327 50.4476 24.5327 50.2171C24.5327 48.3183 24.5327 46.4182 24.5327 44.5195C24.5551 44.2827 24.5321 44.0437 24.4648 43.8156C24.1934 43.0436 23.7617 42.6985 22.965 42.6876C21.4583 42.6657 19.953 42.6616 18.4477 42.6876C17.4392 42.7053 16.9193 43.2468 16.9126 44.2576C16.899 46.1945 16.9126 48.1328 16.9126 50.0711C16.9339 50.3256 16.9156 50.582 16.8583 50.8309C16.83 50.8896 16.7908 50.9423 16.7429 50.9864Z" fill="#0AB59E"/>
<path d="M45.5009 26.7201L28.8436 26.7283C28.8376 26.7373 28.8296 26.7447 28.8201 26.7498C28.8106 26.7549 28.8 26.7576 28.7893 26.7576C28.7785 26.7576 28.7679 26.7549 28.7585 26.7498C28.749 26.7447 28.7409 26.7373 28.735 26.7283C28.6169 26.7283 28.4988 26.7147 28.3821 26.7133C27.5473 26.7051 27.136 26.3941 26.9406 25.588C26.4193 23.4437 25.904 21.2985 25.3945 19.1524C25.214 18.3981 25.0226 17.652 24.8733 16.8881C24.7294 16.1584 25.138 15.6182 25.8859 15.4777C26.7275 15.3932 27.5717 15.4682 28.4146 15.4395C33.0052 15.2786 37.5971 15.329 42.189 15.3222C42.4086 15.3159 42.6284 15.3218 42.8473 15.34C43.3034 15.3495 43.7595 15.34 44.2155 15.34C45.5308 15.34 46.8406 15.46 48.1518 15.4764L48.3405 15.4941C49.045 15.9374 49.1658 16.554 48.973 17.3369C48.2944 20.0895 47.6523 22.849 47.0035 25.6084C46.9514 25.849 46.8428 26.0736 46.6867 26.2634C46.5306 26.4533 46.3316 26.6028 46.1063 26.6997C45.9136 26.8961 45.71 26.8634 45.5009 26.7201Z" fill="#0067C4"/>
<path d="M42.8567 15.475C41.1505 15.475 39.4456 15.4846 37.7395 15.4859L26.4925 15.4955C26.2902 15.4955 26.0853 15.4818 25.8857 15.475C26.1219 15.3304 26.3812 15.4041 26.6296 15.4027C27.915 15.3945 29.2017 15.3782 30.4872 15.4027C30.9134 15.4136 30.9473 15.2772 30.8604 14.9199C30.1365 11.9635 29.4212 9.00811 28.7145 6.05361C28.4715 5.04558 28.933 4.32127 29.9632 4.23806C30.8713 4.16577 31.7888 4.19305 32.701 4.18896C34.2402 4.18896 35.7808 4.17805 37.316 4.18896C37.6648 4.18896 37.787 4.09894 37.7748 3.73611C37.7544 3.05409 37.7829 2.37206 37.7897 1.69823C38.0612 1.77325 38.0109 2.0065 38.0204 2.19337C38.0435 2.6476 38.0394 3.10455 38.0204 3.55741C38.0096 3.93798 38.1562 4.11803 38.5484 4.10303C38.8325 4.06932 39.1201 4.08362 39.3995 4.14532C40.6388 4.1576 41.8794 4.1644 43.12 4.1835C43.5041 4.1835 43.8882 4.23124 44.2724 4.2558C45.0053 4.43994 45.3583 4.93781 45.3121 5.70304C45.2778 6.02646 45.2142 6.34606 45.1221 6.65787C44.4339 9.48006 43.8 12.3173 43.0616 15.1272C43.02 15.257 42.9499 15.3759 42.8567 15.475Z" fill="#5F98D6"/>
<path d="M25.5954 38.0526C21.4519 38.0526 17.3075 38.0498 13.1621 38.0444C8.78062 38.0444 4.3991 38.0444 0.0175781 38.0444C0.107163 37.8125 0.314837 37.6815 0.476362 37.5151C1.77127 36.1729 3.07433 34.8402 4.36924 33.498C4.59512 33.2563 4.86874 33.0645 5.17259 32.9351C5.47643 32.8057 5.80381 32.7414 6.13379 32.7464C12.4916 32.7464 18.849 32.7464 25.2059 32.7464C25.3416 32.7464 25.4774 32.771 25.6063 32.7846C25.6518 32.8306 25.6857 32.8867 25.7054 32.9483C25.7895 34.5647 25.7543 36.1811 25.7271 37.7989C25.715 37.8624 25.693 37.9236 25.6619 37.9803L25.5954 38.0526Z" fill="#5F98D6"/>
<path d="M5.41307 13.3198C4.32719 13.3007 3.3499 12.9952 2.51784 12.2722C2.03056 11.8508 1.54598 11.4265 1.04241 11.0255C0.739718 10.7841 0.811657 10.6354 1.05055 10.3803C1.79845 9.58236 2.68887 9.91246 3.5535 10.0011C3.73952 10.0074 3.9241 10.0362 4.10323 10.0871C5.12124 10.4622 5.85285 10.0639 6.53288 9.30819C7.04053 8.74348 7.64319 8.26197 8.22413 7.76819C8.4861 7.54585 8.47932 7.4299 8.21599 7.20074C7.11382 6.24592 6.03337 5.26791 4.95835 4.28989C4.49143 3.86841 4.52808 3.66653 5.09409 3.42237C5.77276 3.12774 6.45822 2.62578 7.14776 2.61077C7.83729 2.59577 8.53904 3.07181 9.23264 3.3378C10.4638 3.81112 11.6962 4.27898 12.9192 4.77004C13.0546 4.83348 13.2048 4.85789 13.3531 4.84055C13.5015 4.82321 13.6421 4.7648 13.7594 4.67183C15.6597 3.39873 17.5663 2.13699 19.4793 0.886627C20.9276 -0.0545588 22.9242 0.41331 23.8499 1.87965C24.0929 2.26431 23.8635 2.4771 23.569 2.66397L19.0693 5.52845C15.352 7.89278 11.6356 10.2539 7.92009 12.6119C7.16834 13.0825 6.29871 13.3281 5.41307 13.3198Z" fill="#5F98D6"/>
<path d="M45.5011 26.7201L46.1092 26.6956L48.2185 26.7106C48.2185 34.1255 48.2162 41.5404 48.2117 48.9553C48.2117 50.0916 47.7923 50.6822 46.834 50.9195H44.5998C44.5781 50.734 44.726 50.7122 44.8075 50.6576C45.0301 50.516 45.2118 50.3181 45.3345 50.0838C45.4572 49.8494 45.5165 49.5868 45.5065 49.3222C45.5056 41.7864 45.5038 34.2524 45.5011 26.7201Z" fill="#0AB59E"/>
<path d="M34.5321 50.9877C34.5321 48.6593 34.5226 46.3309 34.5321 44.0011C34.5286 43.8091 34.5635 43.6183 34.6349 43.4401C34.7062 43.2619 34.8125 43.0999 34.9473 42.9637C35.0821 42.8276 35.2428 42.7201 35.4198 42.6476C35.5968 42.575 35.7865 42.539 35.9776 42.5416C37.6173 42.5234 39.2579 42.5234 40.8994 42.5416C41.7423 42.5498 42.3531 43.1909 42.3558 44.0516C42.3626 46.3705 42.3558 48.6757 42.3558 50.9877H34.5321Z" fill="#5F98D6"/>
<path d="M42.9585 15.1804C43.3748 13.4262 43.7924 11.6725 44.2114 9.91928C44.51 8.65755 44.8045 7.39445 45.1032 6.13271C45.3285 5.17789 45.1276 4.72094 44.2887 4.26399C45.1656 4.26399 46.0438 4.23261 46.9206 4.25307C47.116 4.25178 47.3091 4.29565 47.4849 4.38128C47.6607 4.46691 47.8146 4.59202 47.9346 4.74693C48.0546 4.90184 48.1376 5.0824 48.1772 5.27468C48.2167 5.46695 48.2117 5.66578 48.1626 5.85581C47.4201 9.00265 46.6519 12.1427 45.8931 15.284C45.8253 15.4409 45.6882 15.4341 45.5524 15.4341C44.7815 15.4341 44.0091 15.4341 43.2382 15.4341C43.0766 15.4314 42.8567 15.4764 42.9585 15.1804Z" fill="#3C86CF"/>
<path d="M39.4105 4.15349C38.9775 4.35401 38.5228 4.2176 38.0803 4.23397C37.8306 4.24351 37.8713 4.01846 37.8699 3.85751C37.8699 3.30234 37.8699 2.7458 37.8699 2.19064C37.8699 2.02696 37.9188 1.85237 37.798 1.70505C37.5034 1.51545 37.1777 1.64504 36.8682 1.62321C36.3429 1.58502 35.9941 1.29038 35.9846 0.83343C35.9751 0.376478 36.3253 0.0150077 36.8383 0.0150077C38.0219 -0.00136079 39.2046 -0.00136079 40.3864 0.0150077C40.9036 0.0231919 41.2443 0.381934 41.2361 0.83343C41.228 1.28493 40.8873 1.59866 40.3579 1.61775C39.4146 1.65322 39.4146 1.65322 39.4146 2.62578L39.4105 4.15349Z" fill="#0055A3"/>
<path d="M24.6791 50.9032H25.5926C25.8234 50.7108 26.103 50.7517 26.3704 50.749C26.9133 50.7408 27.4562 50.749 27.9992 50.749C28.5177 50.7395 28.572 50.6863 28.5801 50.1516C28.591 49.37 28.5801 48.5884 28.5801 47.8068C28.5883 44.5781 28.5611 41.3494 28.5923 38.1221C28.5923 38.0567 28.5923 37.9857 28.5923 37.9257C28.5666 36.3912 28.5842 34.8566 28.5828 33.3221C28.5773 33.1868 28.5952 33.0516 28.6358 32.9224C28.6617 32.8612 28.6985 32.8053 28.7444 32.7574C28.7756 32.7096 28.8068 32.7083 28.8394 32.7574C28.8394 38.5995 28.8462 44.4417 28.8285 50.2839C28.8285 50.7954 28.9466 50.9509 29.4692 50.94C30.1682 50.9236 30.8795 50.8131 31.5744 51.0082L24.6777 51.0191C24.652 50.9986 24.6438 50.9768 24.652 50.955C24.6601 50.9332 24.671 50.9032 24.6791 50.9032Z" fill="#4AD0B9"/>
<path d="M24.6795 50.9031C24.6727 50.9351 24.6727 50.9681 24.6795 51L16.7417 50.9863C16.7431 50.9553 16.7514 50.925 16.7661 50.8977C16.9942 50.6972 17.2751 50.7422 17.5398 50.7408C19.5758 50.7408 21.6254 50.7408 23.6682 50.7408C24.3958 50.7408 24.4107 50.7272 24.4107 50.0083C24.4107 48.1751 24.4107 46.3432 24.4107 44.5113C24.4107 44.2466 24.3591 43.9656 24.5872 43.7447C24.7229 43.9247 24.6713 44.1375 24.6713 44.3353C24.6795 46.5241 24.6822 48.7134 24.6795 50.9031Z" fill="#85DFCB"/>
<path d="M28.8421 32.7383H28.7471L28.7349 26.7256H28.8435C28.8435 28.7298 28.843 30.734 28.8421 32.7383Z" fill="#5CDAC1"/>
<path d="M42.9588 15.1804C42.9738 15.2663 43.0063 15.37 43.0946 15.3672C44.0257 15.3441 44.9609 15.5036 45.8866 15.284C46.1282 15.5241 46.4296 15.37 46.701 15.3986C47.1843 15.4491 47.677 15.3277 48.1548 15.4736H42.8611C42.8625 15.3659 42.8448 15.2499 42.9588 15.1804Z" fill="#5193D4"/>
<path d="M28.7447 32.7437C28.7447 32.7765 28.7447 32.8106 28.7447 32.8433C28.6286 32.9424 28.4802 32.9948 28.328 32.9906C27.5607 33.0079 26.7915 33.0079 26.0205 32.9906C25.9463 32.9948 25.872 32.9839 25.802 32.9586C25.732 32.9333 25.6679 32.8941 25.6133 32.8433C25.6113 32.8247 25.6113 32.806 25.6133 32.7874L28.7447 32.7437Z" fill="#5CDAC1"/>
<path d="M38.436 30.9023C37.1863 30.9023 35.9357 30.9023 34.6843 30.9023C34.0436 30.9023 33.711 30.6294 33.7043 30.1343C33.6961 29.5887 34.0219 29.2791 34.6653 29.2777C37.1836 29.2695 39.7015 29.2695 42.2189 29.2777C42.8134 29.2777 43.169 29.6187 43.1595 30.1139C43.15 30.609 42.8066 30.9009 42.1863 30.9023C40.9416 30.905 39.6915 30.9023 38.436 30.9023Z" fill="#C1F9E2"/>
<path d="M24.591 43.7474C24.591 45.9299 24.5706 48.126 24.591 50.3139C24.591 50.7586 24.5055 50.9277 24.0155 50.9209C21.6007 50.8922 19.186 50.9059 16.7713 50.9031C16.7713 48.6252 16.7564 46.3486 16.7713 44.0707C16.7651 43.8736 16.7985 43.6773 16.8694 43.4935C16.9404 43.3097 17.0475 43.1421 17.1843 43.0008C17.3211 42.8595 17.4849 42.7473 17.6658 42.671C17.8467 42.5947 18.041 42.5558 18.2372 42.5566C19.8945 42.5293 21.5532 42.5334 23.2105 42.5566C23.9123 42.5621 24.3982 43.0231 24.591 43.7474Z" fill="#C1F9E2"/>
<path d="M28.7349 38.0444C28.7349 42.1838 28.7403 46.3213 28.7512 50.4571C28.7512 50.8349 28.6154 50.9072 28.2775 50.9004C27.383 50.8813 26.4871 50.8909 25.5926 50.8895C25.5926 46.6073 25.5926 42.3261 25.5926 38.0457L25.5845 38.0239C25.7221 37.9256 25.89 37.8796 26.0582 37.8943C26.7939 37.8943 27.5296 37.8943 28.2652 37.8943C28.3495 37.8862 28.4346 37.8954 28.5153 37.9212C28.596 37.9469 28.6707 37.9888 28.7349 38.0444Z" fill="#01988C"/>
<path d="M8.31102 43.3518C7.0419 43.3518 5.77278 43.3518 4.50366 43.3518C3.90236 43.3518 3.55352 43.0313 3.56166 42.5334C3.57388 42.1106 4.0028 41.7341 4.51181 41.7327C7.05186 41.7273 9.59055 41.7273 12.1279 41.7327C12.6708 41.7327 13.0889 42.131 13.078 42.5893C13.0672 43.0477 12.6708 43.3573 12.1157 43.3587C10.8506 43.3546 9.5815 43.3518 8.31102 43.3518Z" fill="#5DE0C3"/>
<path d="M38.5501 23.0359H32.3063C31.6479 23.0359 31.5801 22.9663 31.5787 22.3034C31.5787 21.4536 31.5936 20.6038 31.5719 19.754C31.5611 19.3284 31.6859 19.1429 32.1447 19.1443C36.4068 19.1552 40.6689 19.1552 44.9309 19.1443C45.3802 19.1443 45.5241 19.308 45.5133 19.7445C45.4902 20.627 45.4902 21.5177 45.5133 22.3948C45.5255 22.8926 45.3083 23.0454 44.8346 23.0427C42.7443 23.029 40.6472 23.0359 38.5501 23.0359Z" fill="#5F98D6"/>
<path d="M40.4978 8.99036C40.7345 8.99882 40.9595 9.09585 41.1288 9.26239C41.298 9.42893 41.3992 9.65299 41.4126 9.89064C41.4134 10.069 41.3617 10.2437 41.2639 10.3926C41.1662 10.5415 41.0268 10.658 40.8633 10.7275C40.6998 10.797 40.5195 10.8164 40.3451 10.7831C40.1707 10.7499 40.0099 10.6656 39.8831 10.5408C39.7563 10.4159 39.669 10.2562 39.6323 10.0817C39.5955 9.90714 39.611 9.7256 39.6767 9.55987C39.7424 9.39415 39.8554 9.25165 40.0015 9.15031C40.1476 9.04898 40.3203 8.99333 40.4978 8.99036Z" fill="#D1E0F4"/>
<path d="M37.0676 9.85791C37.0679 10.0969 36.9765 10.3268 36.8124 10.4998C36.6484 10.6728 36.4242 10.7756 36.1867 10.7868C35.9566 10.7856 35.7357 10.6957 35.5697 10.5355C35.4037 10.3753 35.3054 10.1571 35.2949 9.92611C35.2976 9.69586 35.3831 9.47435 35.5355 9.3024C35.6879 9.13045 35.897 9.01963 36.1243 8.99037C36.3632 8.98216 36.5958 9.06841 36.7722 9.23061C36.9485 9.3928 37.0546 9.61802 37.0676 9.85791Z" fill="#D2E0F4"/>
<path d="M25.6091 32.8433H28.7405C28.7405 34.5429 28.7405 36.242 28.7405 37.9407C27.6951 38.0225 26.645 38.0225 25.5996 37.9407C25.6005 36.2411 25.6037 34.542 25.6091 32.8433Z" fill="#3C86CF"/>
<path d="M25.5942 37.9407H28.7351V38.0444L25.5874 38.0307C25.5901 38.0007 25.5928 37.9707 25.5942 37.9407Z" fill="#488ED2"/>
</g>
<defs>
<clipPath id="clip0_84_1973">
<rect width="52" height="51" fill="white"/>
</clipPath>
</defs>
</svg>
