<svg width="52" height="52" viewBox="0 0 52 52" fill="none" xmlns="http://www.w3.org/2000/svg">
<g clip-path="url(#clip0_84_1943)">
<path d="M-0.000936111 38.2888C0.141307 38.2278 0.100664 38.0856 0.124033 37.984C0.91653 34.7327 3.38648 32.7596 6.74037 32.7139C7.04517 32.7139 7.1864 32.6123 7.30527 32.344C7.9772 30.7949 8.66031 29.2506 9.3546 27.711C10.5982 24.9677 12.7349 23.5798 15.7474 23.5687C17.7794 23.5605 19.8115 23.5768 21.8374 23.5819C22.0224 23.7749 21.998 24.0208 21.998 24.2545C22.002 31.9376 22.002 39.6211 21.998 47.305C21.998 47.5234 22.0061 47.7469 21.875 47.943C21.7458 48.0534 21.5781 48.1081 21.4087 48.0954C19.8653 48.1056 18.321 48.1198 16.7777 48.0873C16.7111 48.0836 16.6455 48.0706 16.5826 48.0487C16.2178 47.8536 16.4038 47.5407 16.4434 47.2836C16.675 45.8033 16.3418 44.4611 15.4883 43.2449C14.2508 41.475 12.0044 40.6287 9.85244 41.1113C8.80817 41.3542 7.85839 41.8989 7.12132 42.6775C6.38425 43.4561 5.89243 44.4343 5.70707 45.4903C5.60127 46.0906 5.5975 46.7044 5.6959 47.306C5.73451 47.5376 5.87472 47.8018 5.62986 48.0172C5.38906 48.1249 5.13201 48.0964 4.88105 48.0964C3.83353 48.0964 2.78703 48.1046 1.74053 48.0964C0.734665 48.0873 0.301837 47.7662 -0.00195312 46.8295L-0.000936111 38.2888Z" fill="#FE3746"/>
<path d="M38.3032 24.2778C36.1468 24.0215 34.1011 23.1823 32.3859 21.8506C30.431 20.358 29.0655 18.4113 28.2659 16.0857C27.7286 14.571 27.5137 12.9607 27.6349 11.3581C27.9113 8.01641 29.3073 5.1939 31.825 2.97999C33.597 1.42141 35.6991 0.494803 38.0339 0.112779C38.1852 0.0980053 38.3373 0.0939316 38.4891 0.100587C38.6781 -0.0253992 38.9128 0.132084 39.0987 -0.00101471H39.8099C39.8919 0.0849475 39.9406 0.197356 39.9471 0.315984C39.9623 1.18468 40.0294 2.05541 39.9085 2.92107C39.7866 3.19539 39.5295 3.16186 39.2989 3.18218C37.2882 3.35999 35.4868 4.03869 33.9444 5.36968C32.4576 6.62341 31.4312 8.337 31.0274 10.2395C30.3426 13.3891 31.1859 16.1558 33.3643 18.4692C34.9432 20.1447 36.9712 20.9961 39.2694 21.1881C39.499 21.2064 39.7561 21.1647 39.8953 21.4279C39.9837 22.4053 40.0619 23.3817 39.8475 24.354C39.3192 24.6436 38.8051 24.5867 38.3032 24.2778Z" fill="#E5EFF4"/>
<path d="M39.8149 3.02571C39.8149 2.01782 39.8149 1.00925 39.8149 0H40.6278C40.8218 0.10973 41.0342 0.0254015 41.2374 0.0518181C42.99 0.0396258 44.5466 0.69394 46.0127 1.55248C49.0059 3.30308 50.9038 5.90106 51.7888 9.24682C51.9169 9.77221 51.9726 10.3127 51.9544 10.8531C51.9777 11.0259 51.8995 11.2098 52.0062 11.3754V13.1026C51.8822 13.255 52.0224 13.4582 51.9097 13.6106C51.7684 15.3226 51.1984 16.9025 50.3216 18.3585C48.3637 21.623 45.4569 23.5402 41.7322 24.2514C41.5974 24.2685 41.4616 24.2763 41.3258 24.2748C40.9112 24.6649 40.4205 24.4953 39.947 24.4628C39.8932 24.4416 39.8483 24.4025 39.82 24.352V21.3487L39.8668 21.2846C40.389 21.1394 40.9336 21.1597 41.4639 21.0601C45.1552 20.3682 48.0945 17.3872 48.7102 13.6878C48.9083 12.5093 48.8705 11.3032 48.5988 10.1395C48.3272 8.97572 47.8271 7.8775 47.1277 6.90851C46.4283 5.93953 45.5434 5.11908 44.5244 4.49476C43.5054 3.87043 42.3726 3.45467 41.1916 3.27159C40.773 3.20453 40.3504 3.21266 39.9348 3.13138C39.8836 3.11157 39.841 3.07409 39.8149 3.02571Z" fill="#C7DBE5"/>
<path d="M5.6753 47.9339C4.91938 44.8137 6.5633 42.4037 8.5608 41.4374C10.6528 40.4214 12.696 40.6053 14.5116 42.0399C16.3273 43.4746 16.9806 45.4365 16.4939 47.7297C16.4797 47.7957 16.4736 47.8628 16.4644 47.9329C16.4919 48.5821 16.1424 49.0891 15.8061 49.5869C15.1561 50.5853 14.1994 51.3455 13.0801 51.7531C12.7005 51.8969 12.2959 51.9629 11.8903 51.9472C11.7196 51.9705 11.5377 51.8933 11.3742 51.999H10.7646C10.602 51.8974 10.4222 51.9716 10.2515 51.9472C8.56283 51.9075 7.38222 50.9809 6.42005 49.7119C6.02786 49.1988 5.66412 48.636 5.6753 47.9339Z" fill="#545C64"/>
<path d="M33.2108 52H32.6012C32.4396 51.8984 32.2588 51.9726 32.0881 51.9482C30.435 51.9157 29.2798 51.0043 28.3044 49.7902C27.8634 49.2415 27.6003 48.5984 27.3951 47.9298C26.757 45.532 27.6714 43.0529 29.6933 41.6894C30.685 41.0089 31.8667 40.6601 33.069 40.6932C34.2712 40.7262 35.432 41.1394 36.3848 41.8733C38.2137 43.2551 39.0661 45.7769 38.4108 47.8943C38.3708 47.9906 38.3369 48.0894 38.3092 48.1899C37.7392 49.9395 36.5697 51.1151 34.8638 51.7694C34.5008 51.9076 34.1128 51.9685 33.7249 51.9482C33.5542 51.9716 33.3733 51.8943 33.2108 52Z" fill="#444D55"/>
<path d="M39.4066 52C38.5095 51.5936 38.223 50.8824 38.2727 49.9253C38.3042 49.3401 38.4069 48.7345 38.1955 48.1523C38.1834 48.1089 38.187 48.0627 38.2056 48.0216C38.2241 47.9806 38.2565 47.9474 38.2971 47.9278C38.5407 47.8161 38.8054 47.7582 39.0734 47.7582C39.3413 47.7582 39.6061 47.8161 39.8496 47.9278C39.873 47.9908 39.8659 47.9044 39.875 47.9705C40.0589 49.272 40.0183 50.5745 39.8984 51.8781C39.8984 51.9269 39.8455 51.9624 39.8161 52.0031L39.4066 52Z" fill="#7B8395"/>
<path d="M39.813 52V47.9542C40.0449 47.8212 40.3076 47.7513 40.575 47.7513C40.8424 47.7513 41.1051 47.8212 41.337 47.9542C41.337 48.6654 41.2974 49.3766 41.3451 50.0767C41.4071 50.9911 41.0657 51.6363 40.2184 52.001L39.813 52Z" fill="#69737D"/>
<path d="M41.2341 0C41.2341 0.0325127 41.2341 0.0660414 41.2341 0.101602C41.0309 0.0751856 40.8023 0.184916 40.6245 0H41.2341Z" fill="#DFEAF0"/>
<path d="M39.1018 0C38.923 0.1839 38.6954 0.0690895 38.4922 0.101602C38.4922 0.0680735 38.4922 0.0345447 38.4922 0H39.1018Z" fill="#F1F6F9"/>
<path d="M51.9033 13.6127C51.9196 13.4389 51.8342 13.2469 51.9999 13.1046V13.6127C51.9673 13.6096 51.9358 13.6116 51.9033 13.6127Z" fill="#E6F0F4"/>
<path d="M51.9034 10.8613L51.9999 10.8674V11.3754C51.8323 11.2291 51.9176 11.036 51.9034 10.8613Z" fill="#DDE9EF"/>
<path d="M10.261 52C10.2569 51.9712 10.2508 51.9426 10.2427 51.9147C10.4256 51.8984 10.6135 51.8486 10.769 52H10.261Z" fill="#8D9297"/>
<path d="M11.9008 51.9146C11.8927 51.9426 11.8866 51.9711 11.8825 52H11.3745C11.53 51.8496 11.7179 51.8984 11.9008 51.9146Z" fill="#8D9398"/>
<path d="M32.094 52C32.0898 51.9712 32.0837 51.9427 32.0757 51.9147C32.2586 51.8954 32.4455 51.8527 32.601 52H32.094Z" fill="#82888D"/>
<path d="M33.7372 51.9147C33.7291 51.9426 33.723 51.9711 33.7189 52H33.2109C33.3674 51.8527 33.5544 51.8954 33.7372 51.9147Z" fill="#83888E"/>
<path d="M41.3379 47.9532H39.8139L38.2959 47.9278C38.4927 47.2048 38.5432 46.4499 38.4447 45.7072C38.3462 44.9644 38.1005 44.2488 37.7221 43.6022C37.3436 42.9555 36.84 42.3909 36.2407 41.9412C35.6415 41.4915 34.9585 41.1658 34.2319 40.9833C31.1553 40.208 27.8868 42.3498 27.4022 45.4761C27.2731 46.3143 27.3493 47.12 27.5109 47.9339L21.8374 47.9197V23.5788C23.9863 23.5788 26.1433 23.4538 28.282 23.6022C30.7134 23.7698 32.532 25.0724 33.607 27.2761C34.4117 28.9261 35.1239 30.6229 35.8575 32.3064C36.0048 32.6448 36.2009 32.7748 36.5687 32.8246C37.1478 32.9018 37.7148 33.0766 38.2868 33.2107C38.868 33.2605 39.3546 33.5501 39.8454 33.8274C40.3534 34.181 40.963 34.4076 41.3156 34.9644C42.1721 35.7955 42.9686 36.6753 43.5274 37.7422C43.6179 37.9149 43.7611 38.0714 43.7571 38.2867C43.7245 38.2959 43.6829 38.3132 43.6555 38.2989C42.8213 37.7777 41.8916 37.9423 40.9884 37.9271C40.3961 37.9169 39.8037 37.9118 39.2124 37.9271C38.3417 37.9535 37.7392 38.5123 37.728 39.2825C37.7158 40.077 38.3285 40.6612 39.2226 40.6764C40.2538 40.6947 41.2861 40.6866 42.3174 40.6764C43.2765 40.6703 43.6778 40.3483 43.9338 39.4023C43.9643 39.2885 43.9806 39.1687 44.0913 39.0975C44.578 40.2436 44.7081 41.4466 44.6877 42.681C44.6684 43.9003 44.6877 45.1195 44.6877 46.3387C44.6877 47.2999 44.0639 47.9258 43.1139 47.9349L41.3379 47.9532Z" fill="#DB1E28"/>
<path d="M39.8141 33.9209L38.29 33.2097C38.2948 30.2294 38.3002 27.2517 38.3063 24.2768C38.8092 24.3297 39.3101 24.415 39.8192 24.353L39.812 24.3947C40.002 24.5826 39.9777 24.8285 39.9787 25.0612C39.9827 27.7909 39.9827 30.521 39.9787 33.2514C39.9746 33.485 40 33.7299 39.8141 33.9209Z" fill="#7B8295"/>
<path d="M10.4639 32.7027C11.1314 31.2213 11.7075 29.7969 12.4075 28.4354C13.0171 27.2517 14.085 26.6462 15.421 26.6177C16.9248 26.5862 18.4295 26.6177 19.9332 26.6015C20.2522 26.6015 20.3254 26.6909 20.3223 26.9988C20.3081 28.7727 20.3152 30.5467 20.3162 32.3217C20.3162 32.5249 20.3589 32.7108 20.0277 32.7098C16.8648 32.6986 13.706 32.7027 10.4639 32.7027Z" fill="#44E8EE"/>
<path d="M44.0943 39.1036C44.0384 40.3025 43.4847 40.8309 42.2655 40.8309C41.2494 40.8309 40.2334 40.8309 39.2174 40.8309C38.24 40.8309 37.5592 40.1816 37.5725 39.2845C37.5857 38.4097 38.2593 37.7909 39.2154 37.7869C40.1968 37.7818 41.1783 37.8092 42.1618 37.7767C42.7714 37.7564 43.2947 37.8966 43.7529 38.2908C43.943 38.523 44.0616 38.8054 44.0943 39.1036Z" fill="#F9C20F"/>
<path d="M39.8137 33.9209C39.8137 30.7455 39.812 27.5704 39.8086 24.3957C40.3105 24.3307 40.8246 24.4445 41.3215 24.2768L41.3154 34.9644L39.8137 33.9209Z" fill="#69737D"/>
<path d="M39.8151 21.3487C37.5433 21.2755 35.5346 20.5409 33.788 19.0555C30.1192 15.9343 29.6224 10.0932 32.7334 6.4111C34.5887 4.21344 36.9621 3.12325 39.8151 3.02571V3.06737C39.8704 3.10812 39.9087 3.16779 39.9228 3.23501C39.9888 4.17585 40.0671 5.1177 39.874 6.05346C39.7135 6.24853 39.4859 6.23533 39.2644 6.24142C38.8082 6.2526 38.35 6.23228 37.8958 6.24955C36.9814 6.28511 36.4246 6.81649 36.4195 7.71364C36.4013 10.6892 36.4013 13.6648 36.4195 16.6404C36.4246 17.4868 37.0342 18.1157 37.783 18.1157C38.5532 18.1157 39.113 17.5182 39.1516 16.6465C39.1679 16.2919 39.1303 15.9353 39.174 15.5827C39.2288 15.1316 39.4209 15.0513 39.8689 15.2779C39.9929 15.4954 39.9766 15.7361 39.9777 15.9719C39.9777 17.5115 39.9777 19.0514 39.9777 20.5917C39.9777 20.8406 40.0152 21.1048 39.8141 21.3111L39.8151 21.3487Z" fill="#536EEA"/>
<path d="M39.8179 6.08089C39.8179 5.07638 39.8152 4.07188 39.8098 3.06737C42.867 3.04807 45.3217 4.30387 47.1251 6.71997C51.2014 12.1669 48.1635 19.8927 41.4649 21.1932C40.9203 21.2948 40.3655 21.3862 39.8047 21.307C39.8047 19.2871 39.8074 17.2673 39.8128 15.2474L39.8646 15.1855C40.1532 15.0442 40.4621 15.1032 40.7628 15.1021C44.0578 15.094 46.2188 11.8509 44.8696 8.84853C44.1228 7.18632 42.7654 6.30035 40.9152 6.2272C40.5637 6.21297 40.204 6.29527 39.8636 6.14287L39.8179 6.08089Z" fill="#325ACF"/>
<path d="M13.6077 46.3966C13.6097 46.731 13.5457 47.0624 13.4193 47.372C13.293 47.6815 13.1067 47.963 12.8713 48.2004C12.6359 48.4378 12.3559 48.6264 12.0475 48.7554C11.739 48.8843 11.4081 48.9511 11.0738 48.9519C10.7397 48.9519 10.4089 48.886 10.1003 48.758C9.79173 48.63 9.51145 48.4423 9.27551 48.2058C9.03956 47.9693 8.85258 47.6886 8.72529 47.3797C8.598 47.0708 8.5329 46.7399 8.5337 46.4058C8.53658 45.7397 8.80102 45.1013 9.27005 44.6283C9.73908 44.1553 10.3752 43.8854 11.0412 43.8769C11.3753 43.8734 11.7068 43.9359 12.0167 44.0607C12.3266 44.1855 12.6088 44.3702 12.8472 44.6043C13.0856 44.8384 13.2755 45.1172 13.406 45.4247C13.5365 45.7323 13.6051 46.0626 13.6077 46.3966Z" fill="#E5EFF4"/>
<path d="M35.4441 46.4556C35.4305 47.1303 35.1495 47.7719 34.6629 48.2395C34.1763 48.7071 33.5239 48.9622 32.8492 48.9489C32.5149 48.9411 32.1854 48.8674 31.8797 48.732C31.5739 48.5966 31.2979 48.4022 31.0675 48.1599C30.8371 47.9176 30.6568 47.6321 30.5369 47.32C30.4171 47.0078 30.36 46.675 30.3691 46.3408C30.3895 45.6752 30.67 45.0441 31.1504 44.5829C31.6307 44.1217 32.2727 43.8672 32.9386 43.8739C33.2728 43.8784 33.6028 43.9488 33.9097 44.081C34.2166 44.2133 34.4944 44.4049 34.7272 44.6447C34.96 44.8845 35.1431 45.168 35.2661 45.4787C35.3891 45.7894 35.4496 46.1214 35.4441 46.4556Z" fill="#C7DBE5"/>
<path d="M32.706 32.7027C29.6315 32.7027 26.6535 32.7027 23.6756 32.7027C23.4398 32.7027 23.3535 32.6438 23.3545 32.3928C23.3633 30.564 23.3633 28.7351 23.3545 26.9063C23.3545 26.6553 23.4409 26.5954 23.6766 26.6015C25.0807 26.6117 26.4869 26.5669 27.89 26.6228C29.1418 26.6726 30.1608 27.2751 30.7349 28.3856C31.4451 29.7664 32.0293 31.2071 32.706 32.7027Z" fill="#37C7D1"/>
<path d="M39.8181 15.2474C39.4452 15.1753 39.2501 15.2708 39.2968 15.7067C39.3239 16.0614 39.3256 16.4176 39.3019 16.7725C39.2974 17.1753 39.1335 17.5599 38.8462 17.8422C38.5589 18.1246 38.1715 18.2817 37.7687 18.2792C37.5691 18.2777 37.3718 18.2367 37.1881 18.1588C37.0043 18.0808 36.8377 17.9674 36.6979 17.825C36.558 17.6826 36.4476 17.514 36.373 17.3288C36.2984 17.1437 36.261 16.9457 36.263 16.7461C36.2528 13.698 36.2528 10.652 36.263 7.60797C36.263 6.74944 36.9234 6.11645 37.787 6.09715C38.4627 6.08089 39.1404 6.08495 39.8191 6.08089L39.8079 6.10629C39.8729 6.16153 39.9158 6.23837 39.9288 6.3227C39.9725 7.24627 40.0619 8.17085 39.876 9.08933C39.5173 9.30269 39.4188 9.62071 39.4462 10.0261C39.4762 10.4621 39.4762 10.8997 39.4462 11.3358C39.4188 11.7269 39.5397 12.0185 39.8689 12.2268C39.9999 13.2286 40.1168 14.2304 39.8059 15.222L39.8181 15.2474Z" fill="#E5EFF4"/>
<path d="M39.8148 9.11981C39.8148 8.11463 39.8121 7.11012 39.8066 6.10629C40.5646 6.10629 41.3236 6.02602 42.0703 6.24548C44.2355 6.88151 45.5431 8.80078 45.3958 11.1458C45.2728 13.1057 43.5476 14.9193 41.478 15.2098C40.9304 15.286 40.3604 15.2241 39.8066 15.2251C39.8066 14.2206 39.8094 13.2161 39.8148 12.2116L39.8595 12.1486C40.1104 12.0084 40.3848 12.0693 40.6499 12.0581C41.5197 12.0236 42.2085 11.4038 42.2014 10.656C42.1943 9.90825 41.5054 9.30371 40.6286 9.27628C40.3949 9.26917 40.1582 9.30066 39.9275 9.2265C39.8782 9.20586 39.8381 9.16793 39.8148 9.11981Z" fill="#C7DBE5"/>
<path d="M39.815 12.2085C39.4289 12.2349 39.2613 12.1069 39.2928 11.67C39.3395 10.9999 39.3395 10.3274 39.2928 9.65729C39.2613 9.2204 39.4289 9.0934 39.815 9.11982V9.16147C39.859 9.20123 39.8944 9.24962 39.9188 9.30364C39.9433 9.35765 39.9564 9.41613 39.9573 9.47543C39.9938 10.2679 39.9938 11.0601 39.9573 11.8519C39.9564 11.9113 39.9433 11.97 39.9189 12.0242C39.8944 12.0783 39.8591 12.1269 39.815 12.1669V12.2085Z" fill="#536EEA"/>
<path d="M39.8096 12.1669V9.16147C40.1449 9.15537 40.4822 9.12794 40.8175 9.14622C41.6628 9.19093 42.3466 9.87979 42.3476 10.6631C42.3486 11.4465 41.6628 12.1354 40.8175 12.1811C40.4822 12.2004 40.1449 12.173 39.8096 12.1669Z" fill="#325ACF"/>
</g>
<defs>
<clipPath id="clip0_84_1943">
<rect width="52" height="52" fill="white"/>
</clipPath>
</defs>
</svg>
