<svg xmlns="http://www.w3.org/2000/svg" viewBox="0 0 500 500"><defs><style>.cls-1{fill:#fff;}</style></defs><g id="Layer_2" data-name="Layer 2"><g id="Layer_1-2" data-name="Layer 1"><path class="cls-1" d="M498.78,79.78c-.27-1.55-.61-3-1-4.38-6.56-22.73-18.66-41-36-54.32C445.71,8.72,433.31,2.19,421.67,0h-329l-.37.06c-1.85.28-3.79.43-5.94.58A52,52,0,0,0,75.17,2.31C40.63,12.61,16.83,34.86,4.39,68.45c-2.54,6.84-3.3,14-4,20.4C.29,90.12.16,91.29,0,92.43l0,.3V408.07l.68,1.46-.06,2a19.13,19.13,0,0,0,.16,4.16C6.07,447.29,23.31,471.65,52,488.14A85.33,85.33,0,0,0,92.9,500H420.72a24.09,24.09,0,0,1,3.09-.12c.42,0,1.11,0,1.39,0,25.16-7.22,45.55-23.33,60.62-47.86l1-1.54c4.71-7.65,11.15-18.06,13.22-30V96.17ZM332.67,219.45c-5.14,15.93-13.49,29-24.81,38.85-11.13,9.71-25.26,16.38-42,19.83a91.72,91.72,0,0,1-10.77,1.38l-.85.08-3.49.33-1.49.07-27.06.14,0,37.34h.23v77.11H163v-289l15.46-.08c5.38,0,11.43-.05,19-.05,10.75,0,22.09,0,31.22.07l20.31,0,1.57-.29,1.78.08c24.29,1.1,44.53,10.07,60.15,26.66,11.76,12.49,19.46,26.25,22.87,40.89S337.89,203.29,332.67,219.45Zm-82.85-52.78h-1c-3.17.08-6.44.12-10.4.12q-3.31,0-6.62,0h-7.08l-.5-.08a7.49,7.49,0,0,0-.55,3.6v.61c0,17,0,30.86,0,43.74v.56a6.12,6.12,0,0,0,.63,3.46l.67-.06h1.81l5.53,0,7,0c3.58,0,6.44,0,9,.09l.86,0c.6,0,1.25.07,1.95.07,13.6,0,24.73-11.38,25.34-25.91a24.35,24.35,0,0,0-6.79-18A27.58,27.58,0,0,0,249.82,166.67Z"/></g></g></svg>