<svg width="52" height="59" viewBox="0 0 52 59" fill="none" xmlns="http://www.w3.org/2000/svg">
<g clip-path="url(#clip0_39_384)">
<path d="M39.1786 58.9555C38.9665 58.9634 38.7528 58.9777 38.5392 58.9777H3.01591C1.02454 58.9777 0 57.9366 0 55.9085V8.16811C0 6.02872 1.00894 5.0083 3.11882 5.0083H12.5673C12.5938 5.03691 12.639 5.06393 12.6437 5.09572C12.7996 6.29734 12.8792 7.49896 12.5969 8.69739C12.3224 8.90084 12.0028 8.85634 11.6956 8.85634C9.59503 8.85634 7.49453 8.85634 5.394 8.85634C4.18702 8.85634 3.79715 9.25687 3.77688 10.4998C3.76285 11.3708 3.77688 12.2482 3.77688 13.116V53.1445C3.77688 54.8611 4.0108 55.0979 5.69964 55.0979H38.3708C38.6235 55.0881 38.8765 55.0934 39.1286 55.1138C39.57 55.1345 40.0253 55.0057 40.4417 55.2537C40.4573 55.6304 40.1469 55.5715 39.9598 55.5715C39.4639 55.5715 39.3361 55.8306 39.3501 56.2804C39.3688 56.9289 39.361 57.579 39.3501 58.2291C39.347 58.4834 39.3735 58.752 39.1786 58.9555Z" fill="#827682"/>
<path d="M12.5674 8.6847C12.5674 7.45765 12.5674 6.2306 12.5674 5.00356C12.6313 3.77333 12.9837 3.42842 14.1782 3.42684C15.1497 3.42684 16.1228 3.39664 17.0927 3.43637C17.8506 3.46816 18.3075 3.15345 18.6521 2.46999C19.4739 0.864655 20.8041 -0.0143025 22.5943 -0.00635527C24.3003 0.00159193 25.6461 0.777238 26.4305 2.33807C26.8453 3.16458 27.3833 3.48564 28.2706 3.44114C29.2967 3.39028 30.329 3.44114 31.3567 3.45068C31.5531 3.65889 31.5329 3.92751 31.5344 4.18023C31.5344 5.36913 31.5484 6.56438 31.5344 7.74693C31.5219 8.72602 31.0947 9.19014 30.1309 9.30458C29.8198 9.33144 29.5074 9.33993 29.1953 9.33001H13.8679C13.478 9.33001 13.0882 9.31571 12.7249 9.49849C12.2258 9.32047 12.4114 9.00259 12.5674 8.6847Z" fill="#E2A66F"/>
<path d="M44.9685 19.9935L45.3163 19.3578L45.3256 19.3768L45.6375 18.8444L46.3143 17.6698C47.1548 16.2011 48.5972 15.8228 50.0412 16.6891C50.4888 16.9593 50.9769 17.1659 51.3169 17.5951C49.7575 20.4243 48.145 23.2169 46.5576 26.027C44.1342 30.3101 41.7104 34.5925 39.286 38.8745C38.7548 39.8176 38.2194 40.758 37.6798 41.6957C37.5629 41.8992 37.46 42.1217 37.2027 42.1869H37.1699C37.045 42.2012 36.919 42.1733 36.8113 42.1074C35.7883 41.505 34.7497 40.9312 33.7532 40.2859C33.6902 40.238 33.6434 40.1714 33.6192 40.0952C33.5661 39.8615 33.6831 39.6756 33.7891 39.4864C35.5497 36.3695 37.304 33.251 39.0786 30.1421C39.8926 28.6655 40.7768 27.2287 41.5487 25.7251L41.5908 25.644C42.6372 23.8145 43.668 21.9772 44.7096 20.1429" fill="#FEDC40"/>
<path d="M45.1573 32.9396V55.7433C45.1573 55.9594 45.1775 56.1756 45.1869 56.3918C45.0949 58.0575 43.746 59.1033 42.2567 58.9921C41.2353 58.9142 40.2046 58.9635 39.1785 58.9555C39.1785 58.0019 39.2128 57.0291 39.1629 56.0707C39.1332 55.4969 39.3453 55.3443 39.8553 55.3999C40.0549 55.4222 40.281 55.4731 40.4619 55.3062C41.3757 54.7514 41.4552 53.8757 41.4537 52.8982C41.4443 48.1918 41.4069 43.4823 41.4646 38.776C41.4646 38.66 41.4646 38.5455 41.4646 38.4295C41.5269 37.9384 41.8248 37.5553 42.0587 37.1579C42.8789 35.7274 43.6727 34.2747 44.5054 32.849L44.5413 32.7854C44.6645 32.5772 44.8532 31.6013 45.1042 31.6203C45.1198 31.6203 45.1853 31.9382 45.2024 31.9382C45.2196 31.9382 45.2851 31.6696 45.2898 31.6712C45.3631 31.6919 45.19 32.3483 45.2024 32.423C45.1766 32.594 45.1615 32.7666 45.1573 32.9396Z" fill="#685E68"/>
<path d="M45.1805 7.5101C45.1727 11.3248 45.1587 15.1537 45.1649 18.9763C45.1708 19.3258 45.1039 19.6725 44.9684 19.9936C44.9226 20.1025 44.8705 20.2087 44.8125 20.3115L44.6722 20.553C43.6492 22.3014 42.7104 24.1118 41.6298 25.8316C41.5995 25.7963 41.5728 25.758 41.5502 25.7171C41.3943 25.4374 41.452 25.1131 41.452 24.8096C41.4458 20.2415 41.4458 15.674 41.452 11.107C41.452 10.8702 41.452 10.6302 41.452 10.3949C41.4115 9.25531 41.0528 8.8945 39.9253 8.85159C39.6571 8.84046 39.378 8.87225 39.1456 8.67516C38.9086 8.25237 39.0115 7.78984 39.0022 7.34321C38.9897 6.75194 38.9788 6.16066 39.0131 5.57098C39.0318 5.28011 39.091 5.02422 39.4809 5.03535C40.677 5.06872 41.8746 4.98448 43.0675 5.07985C44.2324 5.28807 44.9529 6.11139 45.1805 7.5101Z" fill="#685E68"/>
<path d="M51.5742 20.7009C50.2534 23.0548 48.9154 25.3961 47.5853 27.7437C47.1408 28.5257 46.7026 29.3109 46.2582 30.0929C46.0139 30.5263 45.7654 30.9586 45.5128 31.3898C45.4738 31.4566 45.4395 31.5234 45.4083 31.5901C45.4239 31.5536 45.4411 31.5186 45.4582 31.4868L45.02 32.2545C44.8968 32.4754 44.7737 32.698 44.6489 32.9189C43.6301 34.7467 42.6108 36.5746 41.5909 38.4025C41.555 38.528 41.5114 38.652 41.4646 38.7712C41.1699 39.5151 40.6849 40.1588 40.32 40.8645C39.9925 41.5003 39.6323 42.1058 39.2674 42.7146C39.1115 42.9355 39.074 43.2868 38.7091 43.3059C38.3511 43.0165 37.9667 42.7627 37.5614 42.5477C37.4054 42.4571 37.209 42.3888 37.1638 42.1806C37.1576 42.1572 37.1539 42.1332 37.1528 42.109C37.7002 41.6322 37.9232 40.9376 38.2709 40.3336C39.8729 37.5532 41.4615 34.7653 43.0365 31.97L43.8084 30.6062C44.0859 30.1156 44.363 29.625 44.6395 29.1344C46.199 26.3794 47.7526 23.6191 49.3006 20.8535C49.8698 19.8442 50.4452 18.838 51.016 17.8335C51.0861 17.7111 51.1501 17.5903 51.3123 17.5887C52.12 18.5122 52.2245 19.5485 51.5742 20.7009Z" fill="#D6AF0D"/>
<path d="M12.6826 9.50485C12.6593 9.09954 12.9368 9.14246 13.1926 9.14246H16.5734C20.9646 9.14246 25.3565 9.14246 29.7488 9.14246C30.0394 9.15261 30.3297 9.11394 30.608 9.02802C31.1133 8.85477 31.3643 8.52258 31.3628 7.96946C31.3628 6.46426 31.3628 4.95906 31.3628 3.45386C32.2173 3.45386 32.5635 3.87983 32.6384 5.01151C32.8286 5.19271 32.8177 5.43748 32.8193 5.66954C32.8193 6.65023 32.8411 7.62932 32.8099 8.61V8.83887C32.6929 10.0071 32.1861 10.511 31.04 10.5142C25.4105 10.5269 19.78 10.5269 14.1485 10.5142C13.7758 10.5142 13.4031 10.4792 13.0881 10.2551C12.8354 10.0834 12.5532 9.90221 12.6826 9.50485Z" fill="#C38958"/>
<path d="M32.6431 8.66561V5.0099C35.9085 4.99825 39.1733 4.98818 42.4377 4.9797C42.6466 4.9797 42.8696 4.93361 43.0614 5.08142C41.9418 5.08142 40.8206 5.10844 39.7009 5.08142C39.2893 5.08142 39.1692 5.21812 39.1785 5.62501C39.2035 6.62954 39.1895 7.63407 39.1895 8.637C39.0195 8.85635 38.7731 8.82297 38.5454 8.82297C36.7999 8.82932 35.0549 8.82932 33.3105 8.82297C33.0688 8.84363 32.8318 8.84363 32.6431 8.66561Z" fill="#837683"/>
<path d="M12.6826 9.50483C12.8994 10.1565 13.3968 10.3298 14.0081 10.3298H30.9636C32.1549 10.3298 32.523 9.99597 32.6415 8.78959C32.983 8.67515 33.3338 8.73873 33.68 8.73714C35.3502 8.7292 37.0218 8.75303 38.6904 8.72124C39.191 8.71012 39.3609 8.90562 39.3594 9.36655C39.3594 9.54457 39.3594 9.72259 39.3594 9.90219C39.3594 16.2377 39.3594 22.5732 39.3594 28.9087C39.3768 29.3441 39.3127 29.7788 39.1707 30.1898C37.7329 32.7467 36.2957 35.3041 34.8589 37.862C34.4473 38.5995 33.9779 39.3037 33.6535 40.0872C33.8095 41.3095 33.6894 42.535 33.7253 43.7589C33.7346 44.134 33.7034 44.5107 33.7393 44.8858C33.8001 45.5374 34.126 45.7234 34.6843 45.4039C35.7353 44.8063 36.7801 44.2007 37.8156 43.5761C38.09 43.4171 38.3551 43.1724 38.7216 43.2486C38.9711 43.1374 38.9633 42.8195 39.166 42.6701C39.3828 42.8926 39.3531 43.1803 39.3547 43.4537C39.3547 47.1327 39.3547 50.8123 39.3547 54.4923C39.3547 54.7673 39.3734 55.0518 39.1613 55.2759C38.9477 55.2759 38.7356 55.2918 38.522 55.2918H5.28164C3.96394 55.2918 3.6084 54.9358 3.6084 53.6118V10.3933C3.6084 9.09317 4.00452 8.68628 5.27543 8.68628H12.5672C12.6343 8.95807 12.4674 9.26006 12.6826 9.50483Z" fill="#EBEEF0"/>
<path d="M39.1692 55.2775V42.6717C39.9333 41.2253 40.7286 39.7948 41.5878 38.4072C41.5878 43.574 41.5904 48.7418 41.5956 53.9106C41.5956 54.7467 41.2276 55.152 40.4573 55.3061L39.1692 55.2775Z" fill="#D0D0D5"/>
<path d="M22.5974 2.34444C23.3771 2.34444 23.9058 2.88485 23.9027 3.68275C23.8995 4.48065 23.3537 5.00676 22.5709 5.00358C22.3959 5.00766 22.2219 4.97583 22.0592 4.90997C21.8966 4.84411 21.7486 4.74558 21.624 4.62023C21.4995 4.49489 21.4009 4.34529 21.3342 4.18034C21.2676 4.01538 21.2341 3.83844 21.2359 3.66005C21.2377 3.48165 21.2747 3.30544 21.3446 3.1419C21.4146 2.97836 21.5161 2.83084 21.6431 2.7081C21.7701 2.58535 21.92 2.48991 22.084 2.42744C22.2479 2.36496 22.4225 2.33674 22.5974 2.34444Z" fill="#EBEEF0"/>
<path d="M39.1786 30.1882C39.1786 23.2916 39.1708 16.3935 39.1896 9.49689C39.1896 8.91833 39.0336 8.76575 38.4753 8.77688C36.5323 8.81025 34.5862 8.788 32.6416 8.788C32.6416 8.74668 32.6416 8.70694 32.6416 8.66561L39.1786 8.64813C39.4905 8.65608 39.8024 8.6672 40.1143 8.67038C41.1326 8.67832 41.602 9.14721 41.6066 10.2042C41.6066 12.0464 41.6066 13.8901 41.6066 15.7323C41.6066 19.0998 41.6113 22.4683 41.6206 25.8379C40.8815 27.332 40.0223 28.7561 39.1786 30.1882Z" fill="#D0D0D5"/>
<path d="M38.7296 43.2503C37.3838 44.0339 36.0412 44.8206 34.6923 45.5995C34.0763 45.9539 33.6101 45.7361 33.6007 45.0543C33.5773 43.4537 33.6007 41.8516 33.6007 40.251C33.6122 40.1947 33.6333 40.1409 33.6631 40.092L37.1546 42.1154C37.557 42.3665 37.9608 42.6129 38.3585 42.8672C38.5097 42.961 38.728 42.9991 38.7296 43.2503Z" fill="#685E68"/>
<path d="M27.7573 40.1874C27.7464 40.704 27.5749 40.9917 27.2271 41.1633C27.0721 41.2507 26.8937 41.2852 26.718 41.2617C26.5423 41.2383 26.3787 41.1581 26.2509 41.033C25.8069 40.6468 25.3901 40.2294 25.0034 39.7837C24.6494 39.3498 24.4217 39.4308 24.1083 39.8091C23.7846 40.178 23.4427 40.5297 23.0838 40.8629C22.5832 41.3557 22.0592 41.3859 21.6553 40.9599C21.2842 40.5673 21.3247 40.0062 21.7707 39.5405C22.1637 39.1289 22.5504 38.7124 22.9684 38.3262C23.2226 38.0894 23.1914 37.9304 22.9559 37.7079C22.5426 37.3185 22.145 36.9132 21.7614 36.4904C21.3107 35.9977 21.2935 35.3778 21.6959 35.0154C22.0982 34.653 22.6082 34.6768 23.0884 35.1521C23.5079 35.5653 23.9227 35.9818 24.3219 36.4141C24.5137 36.6207 24.6463 36.6223 24.8397 36.4141C25.2529 35.969 25.6802 35.5367 26.1152 35.1123C26.5831 34.6578 27.1133 34.645 27.5062 35.0583C27.8602 35.4318 27.8353 35.9992 27.4251 36.4363C27.015 36.8734 26.5831 37.3137 26.148 37.7381C25.9484 37.9336 25.9499 38.0814 26.148 38.2753C26.569 38.6854 26.9745 39.113 27.3955 39.531C27.6076 39.7471 27.7667 39.9872 27.7573 40.1874Z" fill="#FD646F"/>
<path d="M15.9652 28.1267C15.9652 28.5241 15.9652 28.9215 15.9652 29.3172C15.9652 30.2375 15.5878 30.7096 14.7083 30.7604C13.8341 30.8081 12.958 30.8081 12.0838 30.7604C11.2511 30.7159 10.8363 30.2168 10.8238 29.3617C10.8113 28.5066 10.8113 27.6563 10.8238 26.8043C10.8363 25.9524 11.3057 25.4724 12.1275 25.4549C12.9493 25.4374 13.7992 25.4374 14.635 25.4549C15.5145 25.474 15.9558 25.9317 15.9636 26.8186C15.9683 27.2557 15.9652 27.6912 15.9652 28.1267Z" fill="#FEDC40"/>
<path d="M15.9605 47.8946C15.9605 48.408 15.9761 48.923 15.9605 49.4348C15.9628 49.5789 15.9366 49.722 15.8836 49.8557C15.8306 49.9893 15.7519 50.1107 15.6519 50.2127C15.552 50.3147 15.433 50.3952 15.302 50.4494C15.1709 50.5036 15.0305 50.5305 14.8891 50.5283C13.9213 50.5484 12.9519 50.5484 11.9809 50.5283C11.8297 50.5304 11.6796 50.5017 11.5395 50.4438C11.3994 50.3858 11.2722 50.2999 11.1652 50.191C11.0582 50.0821 10.9737 49.9525 10.9167 49.8098C10.8597 49.6671 10.8312 49.5141 10.8331 49.3601C10.8113 48.3921 10.8097 47.4241 10.8331 46.4562C10.8326 46.302 10.8626 46.1493 10.9212 46.0072C10.9798 45.8651 11.0658 45.7364 11.1742 45.6289C11.2826 45.5214 11.4112 45.4372 11.5521 45.3813C11.6931 45.3255 11.8437 45.2991 11.9949 45.3038C12.9446 45.2847 13.8958 45.2863 14.8455 45.3038C15.5316 45.3149 15.9448 45.7584 15.9636 46.4736C15.9745 46.9505 15.9636 47.4273 15.9636 47.9041L15.9605 47.8946Z" fill="#FC9627"/>
<path d="M13.3999 20.82C12.932 20.82 12.4642 20.8328 11.9964 20.82C11.3087 20.7978 10.8518 20.3718 10.83 19.6757C10.8019 18.7061 10.805 17.7334 10.83 16.7638C10.8293 16.609 10.8588 16.4556 10.9165 16.3125C10.9742 16.1693 11.0592 16.0392 11.1664 15.9296C11.2736 15.82 11.4011 15.7331 11.5414 15.6738C11.6817 15.6146 11.8321 15.5842 11.9839 15.5844C12.9352 15.559 13.8895 15.5558 14.8407 15.5844C15.5284 15.6067 15.9526 16.0692 15.9651 16.7717C15.9817 17.7254 15.9817 18.6791 15.9651 19.6327C15.951 20.3782 15.5269 20.8026 14.7955 20.8264C14.3324 20.8328 13.8661 20.8216 13.3999 20.82Z" fill="#FE4155"/>
<path d="M13.3984 35.4143C13.8849 35.4143 14.3715 35.4016 14.8564 35.4143C15.5223 35.4382 15.948 35.8625 15.9605 36.5412C15.9777 37.5108 15.9746 38.4819 15.9605 39.4515C15.9673 39.6059 15.9431 39.7601 15.8896 39.9048C15.836 40.0494 15.7542 40.1814 15.6491 40.2927C15.5439 40.4041 15.4176 40.4925 15.2778 40.5525C15.1381 40.6126 14.9878 40.643 14.8362 40.642C13.9005 40.6717 12.968 40.6717 12.0386 40.642C11.2901 40.6166 10.8316 40.1016 10.8238 39.3339C10.8144 38.4422 10.8098 37.5505 10.8238 36.6604C10.8378 35.8419 11.2605 35.4223 12.0558 35.408C12.5049 35.4064 12.9524 35.4127 13.3984 35.4143Z" fill="#35355E"/>
<path d="M23.6233 21.5242C23.2771 21.5639 23.0307 21.3653 22.8062 21.1427C22.17 20.507 21.5322 19.8712 20.9115 19.21C20.4234 18.6934 20.4109 18.1641 20.8444 17.7509C21.278 17.3376 21.7474 17.3885 22.2323 17.8637C22.5957 18.2198 22.9668 18.5726 23.299 18.9589C23.5531 19.2561 23.7184 19.2275 23.9929 18.9684C25.3012 17.7286 26.633 16.5143 27.9522 15.2857C28.2516 15.0075 28.562 14.7834 28.9923 14.9105C29.7487 15.1331 29.928 16.0232 29.3042 16.6017C27.9772 17.851 26.6314 19.0796 25.2934 20.3146C24.9613 20.6214 24.6354 20.9313 24.297 21.2302C24.1099 21.4002 23.9009 21.5496 23.6233 21.5242Z" fill="#837683"/>
<path d="M21.4778 27.3717C21.7647 27.4023 22.0317 27.5358 22.231 27.7484C22.6021 28.1251 22.9857 28.4923 23.3381 28.8849C23.5565 29.1281 23.7046 29.1344 23.9495 28.904C25.197 27.7214 26.4725 26.5595 27.7357 25.3881C27.8651 25.2689 27.9867 25.1386 28.1255 25.0321C28.5762 24.6824 29.0955 24.7063 29.437 25.0814C29.8003 25.4819 29.7894 26.035 29.3528 26.4546C28.4047 27.3606 27.4347 28.2443 26.4726 29.1344C25.7833 29.7702 25.092 30.406 24.3985 31.0418C23.8107 31.5822 23.346 31.5758 22.7799 31.0068C22.1296 30.3551 21.4825 29.6987 20.8493 29.0311C20.7016 28.8986 20.6005 28.7204 20.5617 28.5237C20.5228 28.3271 20.5483 28.1228 20.6342 27.9424C20.7948 27.5831 21.0926 27.429 21.4778 27.3717Z" fill="#837683"/>
<path d="M23.5971 51.2451C23.4705 51.2436 23.3455 51.2159 23.2297 51.1638C23.1139 51.1116 23.0097 51.036 22.9234 50.9416C22.2357 50.2438 21.5418 49.5508 20.865 48.8403C20.4299 48.3826 20.4237 47.8867 20.8119 47.4686C21.169 47.0919 21.732 47.0999 22.1639 47.51C22.544 47.8494 22.8999 48.2158 23.229 48.6067C23.5409 48.9993 23.7608 48.8912 24.0586 48.6067C25.3732 47.3733 26.7018 46.1573 28.0211 44.9287C28.3657 44.6108 28.7368 44.4519 29.1813 44.6903C29.8144 45.032 29.8674 45.7536 29.2748 46.3131C28.0647 47.4559 26.8375 48.5796 25.6165 49.7113C25.1705 50.1235 24.7235 50.5341 24.2754 50.9431C24.0971 51.131 23.8534 51.2395 23.5971 51.2451Z" fill="#837683"/>
</g>
<defs>
<clipPath id="clip0_39_384">
<rect width="52" height="59" fill="white"/>
</clipPath>
</defs>
</svg>
