<svg width="190" height="156" viewBox="0 0 190 156" fill="none" xmlns="http://www.w3.org/2000/svg">
<g clip-path="url(#clip0_8_490)">
<path d="M183.733 44.7555C179.186 33.6129 172.219 23.2785 163.268 15.4446C152.766 6.26054 136.2 -0.822377 122.195 4.20221C107.7 9.38367 98.0059 21.7907 87.2581 31.9064C83.477 35.4526 79.3556 38.8134 74.4544 40.7909C52.0278 49.8228 36.7947 37.5014 16.9061 51.4771C-2.98242 65.4528 -4.67918 93.3851 8.44121 111.059C21.5616 128.733 52.8691 126.271 76.5718 126.271C100.275 126.271 96.4604 143.122 137.934 143.531C180.344 143.954 193.729 98.7044 189.144 64.8396C188.194 57.9413 186.375 51.1925 183.733 44.7555Z" fill="#FB9E1B"/>
<path opacity="0.7" d="M183.733 44.7555C179.186 33.6129 172.219 23.2785 163.268 15.4446C152.766 6.26054 136.2 -0.822377 122.195 4.20221C107.7 9.38367 98.0059 21.7907 87.2581 31.9064C83.477 35.4526 79.3556 38.8134 74.4544 40.7909C52.0278 49.8228 36.7947 37.5014 16.9061 51.4771C-2.98242 65.4528 -4.67918 93.3851 8.44121 111.059C21.5616 128.733 52.8691 126.271 76.5718 126.271C100.275 126.271 96.4604 143.122 137.934 143.531C180.344 143.954 193.729 98.7044 189.144 64.8396C188.194 57.9413 186.375 51.1925 183.733 44.7555Z" fill="white"/>
<path d="M159.992 54.5907H90.9873V59.7009H97.6326L101.537 71.4994H109.359V132.465L109.415 132.498H142.973V133.249L143.214 132.498H166.373V54.5907H159.992ZM155.791 82.1143H144.92V71.5184H155.791V82.1143ZM115.616 60.0907H126.194V67.9532H115.612L115.616 60.0907ZM104.273 67.9532L101.366 60.0907H114.851V67.9532H104.273ZM126.586 109.638H112.124V97.8488H126.586V109.638ZM126.586 95.876H112.124V84.1013H126.586V95.876ZM126.586 82.0905H112.124V71.5184H126.586V82.0905ZM126.979 60.0954H137.537V67.9579H126.979V60.0954ZM142.987 109.638H128.515V97.8488H142.982L142.987 109.638ZM128.519 95.8523V84.1013H142.987L143.01 95.8713L128.519 95.8523ZM128.519 82.0667V71.5184H142.987L143.01 82.0857L128.519 82.0667ZM138.294 67.9579V60.1144H155.781V67.977L138.294 67.9579ZM155.781 97.844V109.638H144.91V97.8488V95.8095V84.1013H155.781V95.8237H144.91V97.8488L155.781 97.844Z" fill="#263238"/>
<path d="M89.3283 16.5617C86.587 15.0548 85.3393 16.3097 84.342 15.0548C83.3447 13.7998 87.0833 10.5388 79.6156 7.27781C79.6156 7.27781 79.143 0.256696 68.8915 0.00475303C58.64 -0.24719 61.4002 7.05439 58.6542 8.78947C55.9082 10.5245 55.1614 7.78645 52.4201 9.54054C49.6788 11.2946 50.9219 14.8076 48.6768 15.3115C46.4318 15.8153 43.44 13.0535 40.694 14.8076C37.948 16.5617 37.9527 18.0733 36.7049 18.0733C35.4572 18.0733 32.9617 17.0655 31.4681 18.0733C29.9746 19.0811 28.2258 20.3313 28.2258 20.3313H91.3323C91.3323 20.3313 92.0791 18.0733 89.3283 16.5617Z" fill="#FB9E1B"/>
<path opacity="0.5" d="M89.3283 16.5617C86.587 15.0548 85.3393 16.3097 84.342 15.0548C83.3447 13.7998 87.0833 10.5388 79.6156 7.27781C79.6156 7.27781 79.143 0.256696 68.8915 0.00475303C58.64 -0.24719 61.4002 7.05439 58.6542 8.78947C55.9082 10.5245 55.1614 7.78645 52.4201 9.54054C49.6788 11.2946 50.9219 14.8076 48.6768 15.3115C46.4318 15.8153 43.44 13.0535 40.694 14.8076C37.948 16.5617 37.9527 18.0733 36.7049 18.0733C35.4572 18.0733 32.9617 17.0655 31.4681 18.0733C29.9746 19.0811 28.2258 20.3313 28.2258 20.3313H91.3323C91.3323 20.3313 92.0791 18.0733 89.3283 16.5617Z" fill="white"/>
<path d="M141.134 27.167C139.371 26.2163 138.568 27.0054 137.93 26.2163C137.291 25.4272 139.692 23.3118 134.886 21.2202C134.886 21.2202 134.564 16.7043 127.995 16.5426C121.425 16.381 123.188 21.0586 121.425 22.1852C119.662 23.3118 119.18 21.5387 117.417 22.6606C115.654 23.7824 116.472 26.0452 115.011 26.3684C113.551 26.6917 111.646 24.9138 109.888 26.0452C108.13 27.1765 108.125 28.1368 107.322 28.1368C106.518 28.1368 104.916 27.495 103.956 28.1368C102.997 28.7785 101.872 29.5914 101.872 29.5914H142.415C142.415 29.5914 142.897 28.132 141.134 27.167Z" fill="white"/>
<path d="M138.563 132.669H137.618C137.556 132.667 137.497 132.641 137.453 132.597C137.409 132.553 137.384 132.494 137.381 132.431C137.381 132.368 137.406 132.308 137.451 132.263C137.495 132.219 137.555 132.194 137.618 132.194H138.563C138.626 132.194 138.686 132.219 138.73 132.263C138.774 132.308 138.799 132.368 138.799 132.431C138.799 132.495 138.774 132.555 138.73 132.6C138.686 132.644 138.626 132.669 138.563 132.669ZM135.727 132.669H134.782C134.72 132.667 134.661 132.641 134.617 132.597C134.574 132.553 134.548 132.494 134.546 132.431C134.546 132.368 134.571 132.308 134.615 132.263C134.659 132.219 134.719 132.194 134.782 132.194H135.727C135.79 132.194 135.85 132.219 135.894 132.263C135.939 132.308 135.964 132.368 135.964 132.431C135.964 132.495 135.939 132.555 135.894 132.6C135.85 132.644 135.79 132.669 135.727 132.669ZM132.891 132.669H131.946C131.884 132.667 131.825 132.641 131.782 132.597C131.738 132.553 131.712 132.494 131.71 132.431C131.71 132.368 131.735 132.308 131.779 132.263C131.823 132.219 131.883 132.194 131.946 132.194H132.891C132.954 132.194 133.014 132.219 133.059 132.263C133.103 132.308 133.128 132.368 133.128 132.431C133.128 132.495 133.103 132.555 133.059 132.6C133.014 132.644 132.954 132.669 132.891 132.669ZM130.056 132.669H129.11C129.048 132.667 128.99 132.641 128.946 132.597C128.902 132.553 128.876 132.494 128.874 132.431C128.874 132.368 128.899 132.308 128.943 132.263C128.988 132.219 129.048 132.194 129.11 132.194H130.056C130.118 132.194 130.178 132.219 130.223 132.263C130.267 132.308 130.292 132.368 130.292 132.431C130.292 132.495 130.267 132.555 130.223 132.6C130.178 132.644 130.118 132.669 130.056 132.669Z" fill="#263238"/>
<path d="M32.2386 132.67H31.818C31.7869 132.668 31.7565 132.66 31.7286 132.646C31.7006 132.633 31.6755 132.613 31.6549 132.59C31.6343 132.567 31.6184 132.539 31.6083 132.51C31.5982 132.48 31.5939 132.449 31.5958 132.418C31.5971 132.387 31.6043 132.357 31.617 132.329C31.6298 132.301 31.6479 132.276 31.6703 132.256C31.6927 132.235 31.7189 132.219 31.7475 132.208C31.7761 132.198 31.8065 132.193 31.8369 132.194H32.7822C32.8448 132.194 32.905 132.219 32.9493 132.264C32.9936 132.308 33.0185 132.369 33.0185 132.432C33.0185 132.495 32.9936 132.555 32.9493 132.6C32.905 132.645 32.8448 132.67 32.7822 132.67H32.2386ZM120.688 132.67H119.743C119.68 132.67 119.62 132.645 119.576 132.6C119.531 132.555 119.506 132.495 119.506 132.432C119.506 132.369 119.531 132.308 119.576 132.264C119.62 132.219 119.68 132.194 119.743 132.194H120.688C120.751 132.194 120.811 132.219 120.855 132.264C120.899 132.308 120.924 132.369 120.924 132.432C120.924 132.495 120.899 132.555 120.855 132.6C120.811 132.645 120.751 132.67 120.688 132.67ZM117.852 132.67H116.907C116.844 132.67 116.784 132.645 116.74 132.6C116.695 132.555 116.67 132.495 116.67 132.432C116.67 132.369 116.695 132.308 116.74 132.264C116.784 132.219 116.844 132.194 116.907 132.194H117.852C117.915 132.194 117.975 132.219 118.019 132.264C118.063 132.308 118.088 132.369 118.088 132.432C118.088 132.495 118.063 132.555 118.019 132.6C117.975 132.645 117.915 132.67 117.852 132.67ZM115.016 132.67H114.071C114.008 132.67 113.948 132.645 113.904 132.6C113.86 132.555 113.835 132.495 113.835 132.432C113.835 132.369 113.86 132.308 113.904 132.264C113.948 132.219 114.008 132.194 114.071 132.194H115.016C115.079 132.194 115.139 132.219 115.183 132.264C115.228 132.308 115.253 132.369 115.253 132.432C115.253 132.495 115.228 132.555 115.183 132.6C115.139 132.645 115.079 132.67 115.016 132.67ZM112.18 132.67H111.235C111.172 132.67 111.112 132.645 111.068 132.6C111.024 132.555 110.999 132.495 110.999 132.432C110.999 132.369 111.024 132.308 111.068 132.264C111.112 132.219 111.172 132.194 111.235 132.194H112.18C112.243 132.194 112.303 132.219 112.348 132.264C112.392 132.308 112.417 132.369 112.417 132.432C112.417 132.495 112.392 132.555 112.348 132.6C112.303 132.645 112.243 132.67 112.18 132.67ZM109.345 132.67H108.399C108.337 132.67 108.277 132.645 108.232 132.6C108.188 132.555 108.163 132.495 108.163 132.432C108.163 132.369 108.188 132.308 108.232 132.264C108.277 132.219 108.337 132.194 108.399 132.194H109.345C109.407 132.194 109.467 132.219 109.512 132.264C109.556 132.308 109.581 132.369 109.581 132.432C109.581 132.495 109.556 132.555 109.512 132.6C109.467 132.645 109.407 132.67 109.345 132.67ZM106.509 132.67H105.564C105.501 132.67 105.441 132.645 105.396 132.6C105.352 132.555 105.327 132.495 105.327 132.432C105.327 132.369 105.352 132.308 105.396 132.264C105.441 132.219 105.501 132.194 105.564 132.194H106.509C106.571 132.194 106.632 132.219 106.676 132.264C106.72 132.308 106.745 132.369 106.745 132.432C106.745 132.495 106.72 132.555 106.676 132.6C106.632 132.645 106.571 132.67 106.509 132.67ZM103.673 132.67H102.728C102.665 132.67 102.605 132.645 102.561 132.6C102.516 132.555 102.491 132.495 102.491 132.432C102.491 132.369 102.516 132.308 102.561 132.264C102.605 132.219 102.665 132.194 102.728 132.194H103.673C103.736 132.194 103.796 132.219 103.84 132.264C103.884 132.308 103.909 132.369 103.909 132.432C103.909 132.495 103.884 132.555 103.84 132.6C103.796 132.645 103.736 132.67 103.673 132.67ZM100.837 132.67H99.8919C99.8292 132.67 99.7691 132.645 99.7248 132.6C99.6805 132.555 99.6555 132.495 99.6555 132.432C99.6555 132.369 99.6805 132.308 99.7248 132.264C99.7691 132.219 99.8292 132.194 99.8919 132.194H100.837C100.9 132.194 100.96 132.219 101.004 132.264C101.049 132.308 101.073 132.369 101.073 132.432C101.073 132.495 101.049 132.555 101.004 132.6C100.96 132.645 100.9 132.67 100.837 132.67ZM98.0013 132.67H97.056C96.9934 132.67 96.9333 132.645 96.8889 132.6C96.8446 132.555 96.8197 132.495 96.8197 132.432C96.8197 132.369 96.8446 132.308 96.8889 132.264C96.9333 132.219 96.9934 132.194 97.056 132.194H98.0013C98.064 132.194 98.1241 132.219 98.1684 132.264C98.2127 132.308 98.2376 132.369 98.2376 132.432C98.2376 132.495 98.2127 132.555 98.1684 132.6C98.1241 132.645 98.064 132.67 98.0013 132.67ZM95.1655 132.67H94.2202C94.1576 132.67 94.0974 132.645 94.0531 132.6C94.0088 132.555 93.9839 132.495 93.9839 132.432C93.9839 132.369 94.0088 132.308 94.0531 132.264C94.0974 132.219 94.1576 132.194 94.2202 132.194H95.1655C95.2282 132.194 95.2883 132.219 95.3326 132.264C95.3769 132.308 95.4018 132.369 95.4018 132.432C95.4018 132.495 95.3769 132.555 95.3326 132.6C95.2883 132.645 95.2282 132.67 95.1655 132.67ZM92.3297 132.67H91.3844C91.3217 132.67 91.2616 132.645 91.2173 132.6C91.173 132.555 91.1481 132.495 91.1481 132.432C91.1481 132.369 91.173 132.308 91.2173 132.264C91.2616 132.219 91.3217 132.194 91.3844 132.194H92.3297C92.3924 132.194 92.4525 132.219 92.4968 132.264C92.5411 132.308 92.566 132.369 92.566 132.432C92.566 132.495 92.5411 132.555 92.4968 132.6C92.4525 132.645 92.3924 132.67 92.3297 132.67ZM89.4939 132.67H88.5486C88.4859 132.67 88.4258 132.645 88.3815 132.6C88.3372 132.555 88.3123 132.495 88.3123 132.432C88.3123 132.369 88.3372 132.308 88.3815 132.264C88.4258 132.219 88.4859 132.194 88.5486 132.194H89.4939C89.5565 132.194 89.6166 132.219 89.661 132.264C89.7053 132.308 89.7302 132.369 89.7302 132.432C89.7302 132.495 89.7053 132.555 89.661 132.6C89.6166 132.645 89.5565 132.67 89.4939 132.67ZM86.658 132.67H85.7128C85.6501 132.67 85.59 132.645 85.5457 132.6C85.5013 132.555 85.4764 132.495 85.4764 132.432C85.4764 132.369 85.5013 132.308 85.5457 132.264C85.59 132.219 85.6501 132.194 85.7128 132.194H86.658C86.7207 132.194 86.7808 132.219 86.8251 132.264C86.8695 132.308 86.8944 132.369 86.8944 132.432C86.8944 132.495 86.8695 132.555 86.8251 132.6C86.7808 132.645 86.7207 132.67 86.658 132.67ZM83.8222 132.67H82.8769C82.8143 132.67 82.7542 132.645 82.7098 132.6C82.6655 132.555 82.6406 132.495 82.6406 132.432C82.6406 132.369 82.6655 132.308 82.7098 132.264C82.7542 132.219 82.8143 132.194 82.8769 132.194H83.8222C83.8849 132.194 83.945 132.219 83.9893 132.264C84.0336 132.308 84.0585 132.369 84.0585 132.432C84.0585 132.495 84.0336 132.555 83.9893 132.6C83.945 132.645 83.8849 132.67 83.8222 132.67ZM80.9864 132.67H80.0411C79.9784 132.67 79.9183 132.645 79.874 132.6C79.8297 132.555 79.8048 132.495 79.8048 132.432C79.8048 132.369 79.8297 132.308 79.874 132.264C79.9183 132.219 79.9784 132.194 80.0411 132.194H80.9864C81.0491 132.194 81.1092 132.219 81.1535 132.264C81.1978 132.308 81.2227 132.369 81.2227 132.432C81.2227 132.495 81.1978 132.555 81.1535 132.6C81.1092 132.645 81.0491 132.67 80.9864 132.67ZM78.1506 132.67H77.2053C77.1426 132.67 77.0825 132.645 77.0382 132.6C76.9939 132.555 76.969 132.495 76.969 132.432C76.969 132.369 76.9939 132.308 77.0382 132.264C77.0825 132.219 77.1426 132.194 77.2053 132.194H78.1506C78.2133 132.194 78.2734 132.219 78.3177 132.264C78.362 132.308 78.3869 132.369 78.3869 132.432C78.3869 132.495 78.362 132.555 78.3177 132.6C78.2734 132.645 78.2133 132.67 78.1506 132.67ZM75.3148 132.67H74.3695C74.3068 132.67 74.2467 132.645 74.2024 132.6C74.1581 132.555 74.1332 132.495 74.1332 132.432C74.1332 132.369 74.1581 132.308 74.2024 132.264C74.2467 132.219 74.3068 132.194 74.3695 132.194H75.3148C75.3774 132.194 75.4375 132.219 75.4819 132.264C75.5262 132.308 75.5511 132.369 75.5511 132.432C75.5511 132.495 75.5262 132.555 75.4819 132.6C75.4375 132.645 75.3774 132.67 75.3148 132.67ZM72.4789 132.67H71.5337C71.471 132.67 71.4109 132.645 71.3666 132.6C71.3222 132.555 71.2973 132.495 71.2973 132.432C71.2973 132.369 71.3222 132.308 71.3666 132.264C71.4109 132.219 71.471 132.194 71.5337 132.194H72.4789C72.5416 132.194 72.6017 132.219 72.646 132.264C72.6904 132.308 72.7153 132.369 72.7153 132.432C72.7153 132.495 72.6904 132.555 72.646 132.6C72.6017 132.645 72.5416 132.67 72.4789 132.67ZM69.6431 132.67H68.6978C68.6352 132.67 68.5751 132.645 68.5307 132.6C68.4864 132.555 68.4615 132.495 68.4615 132.432C68.4615 132.369 68.4864 132.308 68.5307 132.264C68.5751 132.219 68.6352 132.194 68.6978 132.194H69.6431C69.7058 132.194 69.7659 132.219 69.8102 132.264C69.8545 132.308 69.8794 132.369 69.8794 132.432C69.8794 132.495 69.8545 132.555 69.8102 132.6C69.7659 132.645 69.7058 132.67 69.6431 132.67ZM66.8073 132.67H65.862C65.7993 132.67 65.7392 132.645 65.6949 132.6C65.6506 132.555 65.6257 132.495 65.6257 132.432C65.6257 132.369 65.6506 132.308 65.6949 132.264C65.7392 132.219 65.7993 132.194 65.862 132.194H66.8073C66.87 132.194 66.9301 132.219 66.9744 132.264C67.0187 132.308 67.0436 132.369 67.0436 132.432C67.0436 132.495 67.0187 132.555 66.9744 132.6C66.9301 132.645 66.87 132.67 66.8073 132.67ZM63.9715 132.67H63.0262C62.9635 132.67 62.9034 132.645 62.8591 132.6C62.8148 132.555 62.7899 132.495 62.7899 132.432C62.7899 132.369 62.8148 132.308 62.8591 132.264C62.9034 132.219 62.9635 132.194 63.0262 132.194H63.9715C64.0341 132.194 64.0943 132.219 64.1386 132.264C64.1829 132.308 64.2078 132.369 64.2078 132.432C64.2078 132.495 64.1829 132.555 64.1386 132.6C64.0943 132.645 64.0341 132.67 63.9715 132.67ZM61.1357 132.67H60.1904C60.1277 132.67 60.0676 132.645 60.0233 132.6C59.979 132.555 59.9541 132.495 59.9541 132.432C59.9541 132.369 59.979 132.308 60.0233 132.264C60.0676 132.219 60.1277 132.194 60.1904 132.194H61.1357C61.1983 132.194 61.2584 132.219 61.3027 132.264C61.3471 132.308 61.372 132.369 61.372 132.432C61.372 132.495 61.3471 132.555 61.3027 132.6C61.2584 132.645 61.1983 132.67 61.1357 132.67ZM58.2998 132.67H57.3546C57.2919 132.67 57.2318 132.645 57.1875 132.6C57.1431 132.555 57.1182 132.495 57.1182 132.432C57.1182 132.369 57.1431 132.308 57.1875 132.264C57.2318 132.219 57.2919 132.194 57.3546 132.194H58.2998C58.3625 132.194 58.4226 132.219 58.4669 132.264C58.5112 132.308 58.5361 132.369 58.5361 132.432C58.5361 132.495 58.5112 132.555 58.4669 132.6C58.4226 132.645 58.3625 132.67 58.2998 132.67ZM55.464 132.67H54.5187C54.4561 132.67 54.3959 132.645 54.3516 132.6C54.3073 132.555 54.2824 132.495 54.2824 132.432C54.2824 132.369 54.3073 132.308 54.3516 132.264C54.3959 132.219 54.4561 132.194 54.5187 132.194H55.464C55.5267 132.194 55.5868 132.219 55.6311 132.264C55.6754 132.308 55.7003 132.369 55.7003 132.432C55.7003 132.495 55.6754 132.555 55.6311 132.6C55.5868 132.645 55.5267 132.67 55.464 132.67ZM52.6282 132.67H51.6829C51.6202 132.67 51.5601 132.645 51.5158 132.6C51.4715 132.555 51.4466 132.495 51.4466 132.432C51.4466 132.369 51.4715 132.308 51.5158 132.264C51.5601 132.219 51.6202 132.194 51.6829 132.194H52.6282C52.6909 132.194 52.751 132.219 52.7953 132.264C52.8396 132.308 52.8645 132.369 52.8645 132.432C52.8645 132.495 52.8396 132.555 52.7953 132.6C52.751 132.645 52.6909 132.67 52.6282 132.67ZM49.7924 132.67H48.8471C48.7844 132.67 48.7243 132.645 48.68 132.6C48.6357 132.555 48.6108 132.495 48.6108 132.432C48.6108 132.369 48.6357 132.308 48.68 132.264C48.7243 132.219 48.7844 132.194 48.8471 132.194H49.7924C49.855 132.194 49.9151 132.219 49.9595 132.264C50.0038 132.308 50.0287 132.369 50.0287 132.432C50.0287 132.495 50.0038 132.555 49.9595 132.6C49.9151 132.645 49.855 132.67 49.7924 132.67ZM46.9565 132.67H46.0113C45.9486 132.67 45.8885 132.645 45.8442 132.6C45.7998 132.555 45.775 132.495 45.775 132.432C45.775 132.369 45.7998 132.308 45.8442 132.264C45.8885 132.219 45.9486 132.194 46.0113 132.194H46.9565C47.0192 132.194 47.0793 132.219 47.1236 132.264C47.168 132.308 47.1929 132.369 47.1929 132.432C47.1929 132.495 47.168 132.555 47.1236 132.6C47.0793 132.645 47.0192 132.67 46.9565 132.67ZM44.1207 132.67H43.1755C43.1128 132.67 43.0527 132.645 43.0083 132.6C42.964 132.555 42.9391 132.495 42.9391 132.432C42.9391 132.369 42.964 132.308 43.0083 132.264C43.0527 132.219 43.1128 132.194 43.1755 132.194H44.1207C44.1834 132.194 44.2435 132.219 44.2878 132.264C44.3321 132.308 44.357 132.369 44.357 132.432C44.357 132.495 44.3321 132.555 44.2878 132.6C44.2435 132.645 44.1834 132.67 44.1207 132.67ZM41.2849 132.67H40.3396C40.277 132.67 40.2168 132.645 40.1725 132.6C40.1282 132.555 40.1033 132.495 40.1033 132.432C40.1033 132.369 40.1282 132.308 40.1725 132.264C40.2168 132.219 40.277 132.194 40.3396 132.194H41.2849C41.3476 132.194 41.4077 132.219 41.452 132.264C41.4963 132.308 41.5212 132.369 41.5212 132.432C41.5212 132.495 41.4963 132.555 41.452 132.6C41.4077 132.645 41.3476 132.67 41.2849 132.67ZM38.4491 132.67H37.5038C37.4411 132.67 37.381 132.645 37.3367 132.6C37.2924 132.555 37.2675 132.495 37.2675 132.432C37.2675 132.369 37.2924 132.308 37.3367 132.264C37.381 132.219 37.4411 132.194 37.5038 132.194H38.4491C38.5118 132.194 38.5719 132.219 38.6162 132.264C38.6605 132.308 38.6854 132.369 38.6854 132.432C38.6854 132.495 38.6605 132.555 38.6162 132.6C38.5719 132.645 38.5118 132.67 38.4491 132.67ZM35.6133 132.67H34.668C34.6053 132.67 34.5452 132.645 34.5009 132.6C34.4566 132.555 34.4317 132.495 34.4317 132.432C34.4317 132.369 34.4566 132.308 34.5009 132.264C34.5452 132.219 34.6053 132.194 34.668 132.194H35.6133C35.6759 132.194 35.736 132.219 35.7804 132.264C35.8247 132.308 35.8496 132.369 35.8496 132.432C35.8496 132.495 35.8247 132.555 35.7804 132.6C35.736 132.645 35.6759 132.67 35.6133 132.67ZM29.9794 132.304H29.9085C29.5986 132.203 29.2955 132.082 29.0011 131.942C28.9446 131.915 28.9012 131.866 28.88 131.806C28.8588 131.747 28.8615 131.681 28.8876 131.624C28.9003 131.595 28.9186 131.57 28.9412 131.549C28.9639 131.528 28.9906 131.511 29.0197 131.501C29.0487 131.49 29.0796 131.485 29.1105 131.487C29.1414 131.488 29.1717 131.496 29.1996 131.51C29.475 131.643 29.7593 131.758 30.0503 131.852C30.0844 131.853 30.1178 131.862 30.1483 131.877C30.1788 131.892 30.2057 131.914 30.2273 131.941C30.2489 131.967 30.2647 131.998 30.2736 132.031C30.2825 132.064 30.2843 132.099 30.2789 132.133C30.2735 132.166 30.2611 132.199 30.2424 132.227C30.2236 132.256 30.1991 132.28 30.1704 132.299C30.1416 132.317 30.1093 132.329 30.0756 132.334C30.0419 132.339 30.0075 132.337 29.9747 132.327L29.9794 132.304ZM27.5217 130.925C27.4646 130.926 27.4092 130.905 27.3657 130.868C27.1189 130.658 26.8853 130.432 26.6662 130.193C26.6441 130.171 26.6265 130.145 26.6145 130.116C26.6025 130.087 26.5963 130.056 26.5963 130.024C26.5963 129.993 26.6025 129.962 26.6145 129.933C26.6265 129.904 26.6441 129.878 26.6662 129.855C26.6878 129.833 26.7135 129.816 26.742 129.804C26.7704 129.792 26.8009 129.786 26.8317 129.786C26.8625 129.786 26.893 129.792 26.9214 129.804C26.9498 129.816 26.9755 129.833 26.9971 129.855C26.9971 129.855 26.9971 129.855 27.0207 129.879C27.2296 130.104 27.4505 130.316 27.6824 130.516C27.73 130.558 27.7596 130.616 27.7649 130.679C27.7702 130.742 27.7508 130.805 27.7108 130.854C27.688 130.879 27.6603 130.899 27.6294 130.913C27.5985 130.927 27.565 130.934 27.5312 130.935L27.5217 130.925ZM25.7541 128.719C25.7103 128.72 25.6672 128.708 25.6296 128.685C25.5921 128.663 25.5615 128.63 25.5414 128.591C25.3908 128.302 25.2582 128.003 25.1444 127.697C25.1228 127.639 25.1251 127.574 25.1508 127.517C25.1765 127.46 25.2234 127.415 25.2814 127.393C25.3398 127.371 25.4044 127.372 25.4617 127.397C25.519 127.422 25.5645 127.468 25.5886 127.526C25.6936 127.815 25.8184 128.096 25.962 128.368C25.9767 128.395 25.9858 128.425 25.9888 128.456C25.9917 128.487 25.9885 128.518 25.9792 128.548C25.97 128.578 25.9549 128.605 25.9349 128.629C25.9149 128.653 25.8904 128.672 25.8628 128.686C25.8301 128.707 25.7926 128.718 25.7541 128.719ZM24.9411 126.005C24.8826 126.004 24.8264 125.982 24.7829 125.943C24.7394 125.903 24.7117 125.85 24.7048 125.791C24.7048 125.539 24.667 125.287 24.667 125.031V124.817C24.667 124.754 24.6919 124.693 24.7362 124.649C24.7805 124.604 24.8406 124.579 24.9033 124.579C24.966 124.579 25.0261 124.604 25.0704 124.649C25.1147 124.693 25.1396 124.754 25.1396 124.817V125.031C25.1396 125.268 25.1396 125.506 25.1774 125.744C25.1816 125.806 25.1619 125.868 25.1224 125.917C25.0829 125.965 25.0266 125.997 24.9648 126.005H24.9411ZM24.9033 123.153C24.8406 123.153 24.7805 123.128 24.7362 123.083C24.6919 123.039 24.667 122.978 24.667 122.915V121.964C24.667 121.901 24.6919 121.841 24.7362 121.796C24.7805 121.752 24.8406 121.727 24.9033 121.727C24.966 121.727 25.0261 121.752 25.0704 121.796C25.1147 121.841 25.1396 121.901 25.1396 121.964V122.915C25.1396 122.978 25.1147 123.039 25.0704 123.083C25.0261 123.128 24.966 123.153 24.9033 123.153ZM24.9033 120.301C24.8406 120.301 24.7805 120.276 24.7362 120.231C24.6919 120.186 24.667 120.126 24.667 120.063V119.112C24.667 119.049 24.6919 118.989 24.7362 118.944C24.7805 118.9 24.8406 118.875 24.9033 118.875C24.966 118.875 25.0261 118.9 25.0704 118.944C25.1147 118.989 25.1396 119.049 25.1396 119.112V120.063C25.1396 120.126 25.1147 120.186 25.0704 120.231C25.0261 120.276 24.966 120.301 24.9033 120.301ZM24.9033 117.448C24.8406 117.448 24.7805 117.423 24.7362 117.379C24.6919 117.334 24.667 117.274 24.667 117.211V116.26C24.667 116.197 24.6919 116.137 24.7362 116.092C24.7805 116.047 24.8406 116.022 24.9033 116.022C24.966 116.022 25.0261 116.047 25.0704 116.092C25.1147 116.137 25.1396 116.197 25.1396 116.26V117.211C25.1396 117.274 25.1147 117.334 25.0704 117.379C25.0261 117.423 24.966 117.448 24.9033 117.448ZM24.9033 114.596C24.8406 114.596 24.7805 114.571 24.7362 114.527C24.6919 114.482 24.667 114.422 24.667 114.359V113.408C24.667 113.345 24.6919 113.284 24.7362 113.24C24.7805 113.195 24.8406 113.17 24.9033 113.17C24.966 113.17 25.0261 113.195 25.0704 113.24C25.1147 113.284 25.1396 113.345 25.1396 113.408V114.359C25.1396 114.422 25.1147 114.482 25.0704 114.527C25.0261 114.571 24.966 114.596 24.9033 114.596ZM24.9033 111.744C24.8406 111.744 24.7805 111.719 24.7362 111.674C24.6919 111.63 24.667 111.569 24.667 111.506V110.556C24.667 110.493 24.6919 110.432 24.7362 110.388C24.7805 110.343 24.8406 110.318 24.9033 110.318C24.966 110.318 25.0261 110.343 25.0704 110.388C25.1147 110.432 25.1396 110.493 25.1396 110.556V111.506C25.1396 111.569 25.1147 111.63 25.0704 111.674C25.0261 111.719 24.966 111.744 24.9033 111.744ZM24.9033 108.892C24.8406 108.892 24.7805 108.867 24.7362 108.822C24.6919 108.778 24.667 108.717 24.667 108.654V107.704C24.667 107.64 24.6919 107.58 24.7362 107.535C24.7805 107.491 24.8406 107.466 24.9033 107.466C24.966 107.466 25.0261 107.491 25.0704 107.535C25.1147 107.58 25.1396 107.64 25.1396 107.704V108.654C25.1396 108.717 25.1147 108.778 25.0704 108.822C25.0261 108.867 24.966 108.892 24.9033 108.892ZM24.9033 106.04C24.8406 106.04 24.7805 106.015 24.7362 105.97C24.6919 105.926 24.667 105.865 24.667 105.802V104.851C24.667 104.788 24.6919 104.728 24.7362 104.683C24.7805 104.639 24.8406 104.614 24.9033 104.614C24.966 104.614 25.0261 104.639 25.0704 104.683C25.1147 104.728 25.1396 104.788 25.1396 104.851V105.802C25.1396 105.865 25.1147 105.926 25.0704 105.97C25.0261 106.015 24.966 106.04 24.9033 106.04ZM24.9033 103.188C24.8406 103.188 24.7805 103.163 24.7362 103.118C24.6919 103.073 24.667 103.013 24.667 102.95V101.999C24.667 101.936 24.6919 101.876 24.7362 101.831C24.7805 101.787 24.8406 101.761 24.9033 101.761C24.966 101.761 25.0261 101.787 25.0704 101.831C25.1147 101.876 25.1396 101.936 25.1396 101.999V102.95C25.1396 103.013 25.1147 103.073 25.0704 103.118C25.0261 103.163 24.966 103.188 24.9033 103.188ZM24.9033 100.335C24.8406 100.335 24.7805 100.31 24.7362 100.266C24.6919 100.221 24.667 100.161 24.667 100.098V99.147C24.667 99.0839 24.6919 99.0235 24.7362 98.9789C24.7805 98.9343 24.8406 98.9093 24.9033 98.9093C24.966 98.9093 25.0261 98.9343 25.0704 98.9789C25.1147 99.0235 25.1396 99.0839 25.1396 99.147V100.098C25.1396 100.161 25.1147 100.221 25.0704 100.266C25.0261 100.31 24.966 100.335 24.9033 100.335ZM24.9033 97.4832C24.8406 97.4832 24.7805 97.4582 24.7362 97.4136C24.6919 97.369 24.667 97.3086 24.667 97.2455V96.2948C24.667 96.2318 24.6919 96.1713 24.7362 96.1267C24.7805 96.0821 24.8406 96.0571 24.9033 96.0571C24.966 96.0571 25.0261 96.0821 25.0704 96.1267C25.1147 96.1713 25.1396 96.2318 25.1396 96.2948V97.2455C25.1396 97.3086 25.1147 97.369 25.0704 97.4136C25.0261 97.4582 24.966 97.4832 24.9033 97.4832ZM24.9033 94.631C24.8406 94.631 24.7805 94.606 24.7362 94.5614C24.6919 94.5168 24.667 94.4564 24.667 94.3933V93.4426C24.667 93.3796 24.6919 93.3191 24.7362 93.2745C24.7805 93.23 24.8406 93.2049 24.9033 93.2049C24.966 93.2049 25.0261 93.23 25.0704 93.2745C25.1147 93.3191 25.1396 93.3796 25.1396 93.4426V94.3933C25.1396 94.4564 25.1147 94.5168 25.0704 94.5614C25.0261 94.606 24.966 94.631 24.9033 94.631ZM24.9033 91.7788C24.8406 91.7788 24.7805 91.7538 24.7362 91.7092C24.6919 91.6647 24.667 91.6042 24.667 91.5412V90.5904C24.667 90.5274 24.6919 90.4669 24.7362 90.4224C24.7805 90.3778 24.8406 90.3528 24.9033 90.3528C24.966 90.3528 25.0261 90.3778 25.0704 90.4224C25.1147 90.4669 25.1396 90.5274 25.1396 90.5904V91.5412C25.1396 91.6042 25.1147 91.6647 25.0704 91.7092C25.0261 91.7538 24.966 91.7788 24.9033 91.7788ZM24.9033 88.9267C24.8406 88.9267 24.7805 88.9016 24.7362 88.857C24.6919 88.8125 24.667 88.752 24.667 88.689V87.7383C24.667 87.6752 24.6919 87.6148 24.7362 87.5702C24.7805 87.5256 24.8406 87.5006 24.9033 87.5006C24.966 87.5006 25.0261 87.5256 25.0704 87.5702C25.1147 87.6148 25.1396 87.6752 25.1396 87.7383V88.689C25.1396 88.752 25.1147 88.8125 25.0704 88.857C25.0261 88.9016 24.966 88.9267 24.9033 88.9267ZM24.9033 86.0745C24.8406 86.0745 24.7805 86.0494 24.7362 86.0049C24.6919 85.9603 24.667 85.8998 24.667 85.8368V84.8861C24.667 84.823 24.6919 84.7626 24.7362 84.718C24.7805 84.6734 24.8406 84.6484 24.9033 84.6484C24.966 84.6484 25.0261 84.6734 25.0704 84.718C25.1147 84.7626 25.1396 84.823 25.1396 84.8861V85.8368C25.1396 85.8998 25.1147 85.9603 25.0704 86.0049C25.0261 86.0494 24.966 86.0745 24.9033 86.0745ZM24.9033 83.2223C24.8406 83.2223 24.7805 83.1973 24.7362 83.1527C24.6919 83.1081 24.667 83.0477 24.667 82.9846V82.0339C24.667 81.9709 24.6919 81.9104 24.7362 81.8658C24.7805 81.8212 24.8406 81.7962 24.9033 81.7962C24.966 81.7962 25.0261 81.8212 25.0704 81.8658C25.1147 81.9104 25.1396 81.9709 25.1396 82.0339V82.9846C25.1396 83.0477 25.1147 83.1081 25.0704 83.1527C25.0261 83.1973 24.966 83.2223 24.9033 83.2223ZM24.9033 80.3701C24.8406 80.3701 24.7805 80.3451 24.7362 80.3005C24.6919 80.2559 24.667 80.1955 24.667 80.1324V79.1817C24.667 79.1187 24.6919 79.0582 24.7362 79.0136C24.7805 78.9691 24.8406 78.944 24.9033 78.944C24.966 78.944 25.0261 78.9691 25.0704 79.0136C25.1147 79.0582 25.1396 79.1187 25.1396 79.1817V80.1324C25.1396 80.1955 25.1147 80.2559 25.0704 80.3005C25.0261 80.3451 24.966 80.3701 24.9033 80.3701ZM24.9033 77.5179C24.8406 77.5179 24.7805 77.4929 24.7362 77.4483C24.6919 77.4038 24.667 77.3433 24.667 77.2803V76.3295C24.667 76.2665 24.6919 76.206 24.7362 76.1615C24.7805 76.1169 24.8406 76.0918 24.9033 76.0918C24.966 76.0918 25.0261 76.1169 25.0704 76.1615C25.1147 76.206 25.1396 76.2665 25.1396 76.3295V77.2803C25.1396 77.3433 25.1147 77.4038 25.0704 77.4483C25.0261 77.4929 24.966 77.5179 24.9033 77.5179ZM24.9033 74.6658C24.8406 74.6658 24.7805 74.6407 24.7362 74.5961C24.6919 74.5516 24.667 74.4911 24.667 74.4281V73.4773C24.667 73.4143 24.6919 73.3539 24.7362 73.3093C24.7805 73.2647 24.8406 73.2397 24.9033 73.2397C24.966 73.2397 25.0261 73.2647 25.0704 73.3093C25.1147 73.3539 25.1396 73.4143 25.1396 73.4773V74.4281C25.1396 74.4911 25.1147 74.5516 25.0704 74.5961C25.0261 74.6407 24.966 74.6658 24.9033 74.6658ZM24.9033 71.8136C24.8406 71.8136 24.7805 71.7885 24.7362 71.744C24.6919 71.6994 24.667 71.6389 24.667 71.5759V70.6252C24.667 70.5621 24.6919 70.5017 24.7362 70.4571C24.7805 70.4125 24.8406 70.3875 24.9033 70.3875C24.966 70.3875 25.0261 70.4125 25.0704 70.4571C25.1147 70.5017 25.1396 70.5621 25.1396 70.6252V71.5759C25.1396 71.6389 25.1147 71.6994 25.0704 71.744C25.0261 71.7885 24.966 71.8136 24.9033 71.8136ZM24.9033 68.9614C24.8406 68.9614 24.7805 68.9364 24.7362 68.8918C24.6919 68.8472 24.667 68.7868 24.667 68.7237V67.773C24.667 67.7099 24.6919 67.6495 24.7362 67.6049C24.7805 67.5603 24.8406 67.5353 24.9033 67.5353C24.966 67.5353 25.0261 67.5603 25.0704 67.6049C25.1147 67.6495 25.1396 67.7099 25.1396 67.773V68.7237C25.1396 68.7868 25.1147 68.8472 25.0704 68.8918C25.0261 68.9364 24.966 68.9614 24.9033 68.9614ZM24.9033 66.1092C24.8406 66.1092 24.7805 66.0842 24.7362 66.0396C24.6919 65.995 24.667 65.9346 24.667 65.8715V64.9208C24.667 64.8578 24.6919 64.7973 24.7362 64.7527C24.7805 64.7082 24.8406 64.6831 24.9033 64.6831C24.966 64.6831 25.0261 64.7082 25.0704 64.7527C25.1147 64.7973 25.1396 64.8578 25.1396 64.9208V65.8715C25.1396 65.9346 25.1147 65.995 25.0704 66.0396C25.0261 66.0842 24.966 66.1092 24.9033 66.1092ZM24.9033 63.257C24.8406 63.257 24.7805 63.232 24.7362 63.1874C24.6919 63.1428 24.667 63.0824 24.667 63.0194V62.0686C24.667 62.0056 24.6919 61.9451 24.7362 61.9006C24.7805 61.856 24.8406 61.8309 24.9033 61.8309C24.966 61.8309 25.0261 61.856 25.0704 61.9006C25.1147 61.9451 25.1396 62.0056 25.1396 62.0686V63.0194C25.1396 63.0824 25.1147 63.1428 25.0704 63.1874C25.0261 63.232 24.966 63.257 24.9033 63.257ZM24.9033 60.4049C24.8406 60.4049 24.7805 60.3798 24.7362 60.3352C24.6919 60.2907 24.667 60.2302 24.667 60.1672V59.2164C24.667 59.1534 24.6919 59.093 24.7362 59.0484C24.7805 59.0038 24.8406 58.9788 24.9033 58.9788C24.966 58.9788 25.0261 59.0038 25.0704 59.0484C25.1147 59.093 25.1396 59.1534 25.1396 59.2164V60.1672C25.1396 60.2302 25.1147 60.2907 25.0704 60.3352C25.0261 60.3798 24.966 60.4049 24.9033 60.4049ZM24.9033 57.5527C24.8406 57.5527 24.7805 57.5276 24.7362 57.4831C24.6919 57.4385 24.667 57.378 24.667 57.315V56.3643C24.667 56.3012 24.6919 56.2408 24.7362 56.1962C24.7805 56.1516 24.8406 56.1266 24.9033 56.1266C24.966 56.1266 25.0261 56.1516 25.0704 56.1962C25.1147 56.2408 25.1396 56.3012 25.1396 56.3643V57.315C25.1396 57.378 25.1147 57.4385 25.0704 57.4831C25.0261 57.5276 24.966 57.5527 24.9033 57.5527ZM24.9033 54.7005C24.8406 54.7005 24.7805 54.6755 24.7362 54.6309C24.6919 54.5863 24.667 54.5258 24.667 54.4628V53.5121C24.667 53.449 24.6919 53.3886 24.7362 53.344C24.7805 53.2994 24.8406 53.2744 24.9033 53.2744C24.966 53.2744 25.0261 53.2994 25.0704 53.344C25.1147 53.3886 25.1396 53.449 25.1396 53.5121V54.4628C25.1396 54.5258 25.1147 54.5863 25.0704 54.6309C25.0261 54.6755 24.966 54.7005 24.9033 54.7005ZM24.9033 51.8483C24.8406 51.8483 24.7805 51.8233 24.7362 51.7787C24.6919 51.7341 24.667 51.6737 24.667 51.6106V50.6599C24.667 50.5969 24.6919 50.5364 24.7362 50.4918C24.7805 50.4473 24.8406 50.4222 24.9033 50.4222C24.966 50.4222 25.0261 50.4473 25.0704 50.4918C25.1147 50.5364 25.1396 50.5969 25.1396 50.6599V51.6106C25.1396 51.6737 25.1147 51.7341 25.0704 51.7787C25.0261 51.8233 24.966 51.8483 24.9033 51.8483ZM24.9033 48.9961C24.8406 48.9961 24.7805 48.9711 24.7362 48.9265C24.6919 48.8819 24.667 48.8215 24.667 48.7585V47.8077C24.667 47.7447 24.6919 47.6842 24.7362 47.6397C24.7805 47.5951 24.8406 47.57 24.9033 47.57C24.966 47.57 25.0261 47.5951 25.0704 47.6397C25.1147 47.6842 25.1396 47.7447 25.1396 47.8077V48.7585C25.1396 48.8215 25.1147 48.8819 25.0704 48.9265C25.0261 48.9711 24.966 48.9961 24.9033 48.9961ZM24.9033 46.144C24.8406 46.144 24.7805 46.1189 24.7362 46.0743C24.6919 46.0298 24.667 45.9693 24.667 45.9063V44.9555C24.667 44.8925 24.6919 44.8321 24.7362 44.7875C24.7805 44.7429 24.8406 44.7179 24.9033 44.7179C24.966 44.7179 25.0261 44.7429 25.0704 44.7875C25.1147 44.8321 25.1396 44.8925 25.1396 44.9555V45.9063C25.1396 45.9693 25.1147 46.0298 25.0704 46.0743C25.0261 46.1189 24.966 46.144 24.9033 46.144ZM24.9033 43.2918C24.8406 43.2918 24.7805 43.2667 24.7362 43.2222C24.6919 43.1776 24.667 43.1171 24.667 43.0541V42.1034C24.667 42.0403 24.6919 41.9799 24.7362 41.9353C24.7805 41.8907 24.8406 41.8657 24.9033 41.8657C24.966 41.8657 25.0261 41.8907 25.0704 41.9353C25.1147 41.9799 25.1396 42.0403 25.1396 42.1034V43.0541C25.1396 43.1171 25.1147 43.1776 25.0704 43.2222C25.0261 43.2667 24.966 43.2918 24.9033 43.2918ZM24.9033 40.4396C24.8406 40.4396 24.7805 40.4146 24.7362 40.37C24.6919 40.3254 24.667 40.2649 24.667 40.2019V39.2512C24.667 39.1881 24.6919 39.1277 24.7362 39.0831C24.7805 39.0385 24.8406 39.0135 24.9033 39.0135C24.966 39.0135 25.0261 39.0385 25.0704 39.0831C25.1147 39.1277 25.1396 39.1881 25.1396 39.2512V40.2019C25.1396 40.2649 25.1147 40.3254 25.0704 40.37C25.0261 40.4146 24.966 40.4396 24.9033 40.4396ZM24.9033 37.5874C24.8406 37.5874 24.7805 37.5624 24.7362 37.5178C24.6919 37.4732 24.667 37.4128 24.667 37.3497V36.399C24.667 36.336 24.6919 36.2755 24.7362 36.2309C24.7805 36.1864 24.8406 36.1613 24.9033 36.1613C24.966 36.1613 25.0261 36.1864 25.0704 36.2309C25.1147 36.2755 25.1396 36.336 25.1396 36.399V37.3497C25.1396 37.4128 25.1147 37.4732 25.0704 37.5178C25.0261 37.5624 24.966 37.5874 24.9033 37.5874ZM24.9033 34.7352C24.8406 34.7352 24.7805 34.7102 24.7362 34.6656C24.6919 34.621 24.667 34.5606 24.667 34.4975V33.5468C24.667 33.4838 24.6919 33.4233 24.7362 33.3788C24.7805 33.3342 24.8406 33.3091 24.9033 33.3091C24.966 33.3091 25.0261 33.3342 25.0704 33.3788C25.1147 33.4233 25.1396 33.4838 25.1396 33.5468V34.4975C25.1396 34.5606 25.1147 34.621 25.0704 34.6656C25.0261 34.7102 24.966 34.7352 24.9033 34.7352ZM24.9033 31.883C24.8723 31.8812 24.8419 31.8733 24.8139 31.8596C24.7859 31.846 24.7609 31.8269 24.7402 31.8035C24.7196 31.7801 24.7037 31.7528 24.6936 31.7232C24.6835 31.6936 24.6793 31.6623 24.6812 31.6311C24.7048 31.3119 24.7474 30.9944 24.8088 30.6804C24.8224 30.6184 24.8596 30.5642 24.9124 30.5296C24.9653 30.4949 25.0296 30.4824 25.0914 30.4949C25.1533 30.5073 25.2079 30.5437 25.2434 30.5961C25.2789 30.6486 25.2926 30.713 25.2814 30.7755C25.2232 31.0753 25.1837 31.3786 25.1633 31.6834C25.1541 31.7405 25.1246 31.7922 25.0802 31.829C25.0358 31.8657 24.9797 31.8849 24.9222 31.883H24.9033ZM25.6264 29.145C25.5903 29.1467 25.5543 29.1385 25.5225 29.1212C25.4945 29.1075 25.4695 29.0884 25.4489 29.065C25.4283 29.0415 25.4125 29.0142 25.4024 28.9846C25.3923 28.9551 25.3881 28.9238 25.39 28.8925C25.392 28.8613 25.4 28.8308 25.4138 28.8027C25.5517 28.5085 25.7096 28.2242 25.8864 27.9518C25.9209 27.8988 25.9748 27.8618 26.0364 27.8489C26.098 27.836 26.1622 27.8482 26.2149 27.8829C26.2675 27.9175 26.3043 27.9718 26.3172 28.0338C26.33 28.0957 26.3179 28.1603 26.2834 28.2132C26.1079 28.4683 25.95 28.7351 25.8108 29.0119C25.7948 29.045 25.7717 29.0742 25.7431 29.0973C25.7144 29.1203 25.681 29.1366 25.6454 29.145H25.6264ZM27.3232 26.8822C27.2903 26.8834 27.2575 26.8772 27.2273 26.864C27.197 26.8509 27.1701 26.8311 27.1483 26.8062C27.1262 26.7841 27.1086 26.7578 27.0966 26.7288C27.0846 26.6999 27.0784 26.6688 27.0784 26.6374C27.0784 26.606 27.0846 26.575 27.0966 26.546C27.1086 26.517 27.1262 26.4908 27.1483 26.4687C27.3898 26.2489 27.6456 26.0456 27.914 25.8602C27.9383 25.8388 27.9666 25.8227 27.9974 25.8127C28.0281 25.8028 28.0605 25.7993 28.0926 25.8024C28.1247 25.8056 28.1558 25.8153 28.1841 25.831C28.2123 25.8467 28.237 25.8681 28.2567 25.8938C28.2765 25.9194 28.2907 25.9489 28.2987 25.9803C28.3067 26.0118 28.3081 26.0445 28.303 26.0766C28.2979 26.1086 28.2864 26.1393 28.269 26.1666C28.2517 26.194 28.229 26.2175 28.2023 26.2357C27.9516 26.4111 27.7117 26.6016 27.4839 26.8062C27.4513 26.8405 27.4079 26.8623 27.361 26.868L27.3232 26.8822ZM29.7384 25.4229C29.6757 25.4336 29.6114 25.4188 29.5595 25.3818C29.5077 25.3448 29.4725 25.2886 29.4619 25.2256C29.4512 25.1626 29.4659 25.0978 29.5027 25.0457C29.5395 24.9935 29.5954 24.9582 29.658 24.9475C29.9673 24.8378 30.283 24.7473 30.6033 24.6765C30.6337 24.6695 30.6652 24.6686 30.696 24.6739C30.7267 24.6792 30.7562 24.6906 30.7825 24.7074C30.8089 24.7242 30.8317 24.7461 30.8496 24.7718C30.8675 24.7975 30.8802 24.8265 30.8869 24.8572C30.8939 24.8872 30.8949 24.9182 30.8899 24.9486C30.8848 24.979 30.8739 25.008 30.8576 25.0341C30.8414 25.0602 30.8201 25.0828 30.7951 25.1005C30.7701 25.1183 30.7419 25.1309 30.712 25.1376C30.4139 25.2043 30.1202 25.2901 29.8329 25.3943H29.7809L29.7384 25.4229ZM33.4675 24.9855H32.5222C32.4603 24.9832 32.4015 24.9574 32.3577 24.9133C32.3139 24.8692 32.2882 24.8101 32.2859 24.7478C32.2859 24.6848 32.3108 24.6244 32.3551 24.5798C32.3994 24.5352 32.4595 24.5102 32.5222 24.5102H33.4675C33.5302 24.5102 33.5903 24.5352 33.6346 24.5798C33.6789 24.6244 33.7038 24.6848 33.7038 24.7478C33.704 24.8077 33.6817 24.8655 33.6414 24.9095C33.6011 24.9536 33.5457 24.9807 33.4864 24.9855H33.4675Z" fill="#263238"/>
<path d="M156.084 32.3817C156.021 32.3817 155.961 32.3567 155.916 32.3121C155.872 32.2676 155.847 32.2071 155.847 32.1441C155.847 31.8374 155.828 31.531 155.791 31.2266C155.783 31.1642 155.799 31.1012 155.837 31.0513C155.876 31.0014 155.932 30.9687 155.994 30.9604C156.055 30.9547 156.117 30.9726 156.166 31.0105C156.215 31.0484 156.248 31.1035 156.258 31.1648C156.298 31.4898 156.318 31.8167 156.32 32.1441C156.32 32.2071 156.295 32.2676 156.251 32.3121C156.206 32.3567 156.146 32.3817 156.084 32.3817ZM155.545 29.6009C155.498 29.6013 155.452 29.5874 155.413 29.5611C155.375 29.5348 155.345 29.4973 155.327 29.4535C155.213 29.1688 155.078 28.8924 154.926 28.6264C154.896 28.5705 154.889 28.5054 154.905 28.4444C154.922 28.3833 154.962 28.3311 155.015 28.2984C155.07 28.2688 155.134 28.2617 155.194 28.2786C155.254 28.2954 155.305 28.3349 155.337 28.3887C155.497 28.6739 155.64 28.9692 155.762 29.2729C155.775 29.3009 155.781 29.3311 155.782 29.3618C155.782 29.3924 155.776 29.4228 155.765 29.4512C155.754 29.4796 155.736 29.5054 155.715 29.527C155.693 29.5487 155.668 29.5657 155.639 29.5771C155.61 29.5842 155.579 29.5842 155.549 29.5771L155.545 29.6009ZM154.004 27.2241C153.972 27.2242 153.94 27.2175 153.911 27.2044C153.881 27.1913 153.855 27.1721 153.834 27.148C153.615 26.9304 153.381 26.7286 153.134 26.5443C153.089 26.4988 153.064 26.4373 153.064 26.3732C153.064 26.309 153.089 26.2475 153.134 26.202C153.172 26.165 153.221 26.1417 153.273 26.1356C153.325 26.1296 153.378 26.1413 153.423 26.1688C153.677 26.3739 153.918 26.5946 154.146 26.8295C154.191 26.8749 154.216 26.9365 154.216 27.0006C154.216 27.0648 154.191 27.1263 154.146 27.1718C154.105 27.2105 154.051 27.2326 153.995 27.2336L154.004 27.2241ZM151.688 25.6031H151.594C151.316 25.4795 151.03 25.3747 150.738 25.2893C150.708 25.2812 150.68 25.267 150.655 25.2475C150.631 25.2281 150.61 25.204 150.595 25.1764C150.58 25.1489 150.571 25.1186 150.568 25.0873C150.565 25.0561 150.568 25.0246 150.577 24.9946C150.596 24.935 150.637 24.8851 150.692 24.8557C150.747 24.8264 150.811 24.8199 150.87 24.8377C151.183 24.9294 151.489 25.0406 151.787 25.1705C151.843 25.1974 151.887 25.245 151.909 25.3035C151.931 25.3619 151.93 25.4267 151.905 25.4842C151.883 25.5218 151.851 25.5524 151.813 25.5726C151.775 25.5928 151.731 25.6017 151.688 25.5983V25.6031ZM148.942 24.9803H147.997C147.934 24.9803 147.874 24.9553 147.83 24.9107C147.785 24.8662 147.76 24.8057 147.76 24.7427C147.76 24.6796 147.785 24.6192 147.83 24.5746C147.874 24.53 147.934 24.505 147.997 24.505H148.942C148.973 24.5056 149.004 24.5124 149.032 24.5249C149.061 24.5374 149.086 24.5554 149.108 24.5779C149.129 24.6005 149.146 24.627 149.157 24.6561C149.169 24.6852 149.174 24.7162 149.174 24.7474C149.172 24.8088 149.148 24.8673 149.104 24.9108C149.061 24.9542 149.003 24.9791 148.942 24.9803ZM146.106 24.9803H145.161C145.098 24.9803 145.038 24.9553 144.994 24.9107C144.95 24.8662 144.925 24.8057 144.925 24.7427C144.925 24.6796 144.95 24.6192 144.994 24.5746C145.038 24.53 145.098 24.505 145.161 24.505H146.106C146.161 24.516 146.21 24.5457 146.245 24.589C146.28 24.6324 146.3 24.6867 146.3 24.7427C146.3 24.7987 146.28 24.8529 146.245 24.8963C146.21 24.9396 146.161 24.9693 146.106 24.9803ZM143.27 24.9803H142.325C142.262 24.9803 142.202 24.9553 142.158 24.9107C142.114 24.8662 142.089 24.8057 142.089 24.7427C142.089 24.6796 142.114 24.6192 142.158 24.5746C142.202 24.53 142.262 24.505 142.325 24.505H143.27C143.325 24.516 143.374 24.5457 143.409 24.589C143.445 24.6324 143.464 24.6867 143.464 24.7427C143.464 24.7987 143.445 24.8529 143.409 24.8963C143.374 24.9396 143.325 24.9693 143.27 24.9803ZM140.435 24.9803H139.489C139.427 24.9803 139.367 24.9553 139.322 24.9107C139.278 24.8662 139.253 24.8057 139.253 24.7427C139.253 24.6796 139.278 24.6192 139.322 24.5746C139.367 24.53 139.427 24.505 139.489 24.505H140.435C140.489 24.516 140.538 24.5457 140.574 24.589C140.609 24.6324 140.628 24.6867 140.628 24.7427C140.628 24.7987 140.609 24.8529 140.574 24.8963C140.538 24.9396 140.489 24.9693 140.435 24.9803ZM137.599 24.9803H136.653C136.591 24.9803 136.531 24.9553 136.486 24.9107C136.442 24.8662 136.417 24.8057 136.417 24.7427C136.417 24.6796 136.442 24.6192 136.486 24.5746C136.531 24.53 136.591 24.505 136.653 24.505H137.599C137.653 24.516 137.702 24.5457 137.738 24.589C137.773 24.6324 137.792 24.6867 137.792 24.7427C137.792 24.7987 137.773 24.8529 137.738 24.8963C137.702 24.9396 137.653 24.9693 137.599 24.9803ZM134.763 24.9803H133.818C133.755 24.9803 133.695 24.9553 133.651 24.9107C133.606 24.8662 133.581 24.8057 133.581 24.7427C133.581 24.6796 133.606 24.6192 133.651 24.5746C133.695 24.53 133.755 24.505 133.818 24.505H134.763C134.818 24.516 134.867 24.5457 134.902 24.589C134.937 24.6324 134.956 24.6867 134.956 24.7427C134.956 24.7987 134.937 24.8529 134.902 24.8963C134.867 24.9396 134.818 24.9693 134.763 24.9803ZM131.927 24.9803H130.982C130.919 24.9803 130.859 24.9553 130.815 24.9107C130.77 24.8662 130.746 24.8057 130.746 24.7427C130.746 24.6796 130.77 24.6192 130.815 24.5746C130.859 24.53 130.919 24.505 130.982 24.505H131.927C131.982 24.516 132.031 24.5457 132.066 24.589C132.101 24.6324 132.121 24.6867 132.121 24.7427C132.121 24.7987 132.101 24.8529 132.066 24.8963C132.031 24.9396 131.982 24.9693 131.927 24.9803ZM129.091 24.9803H128.146C128.083 24.9803 128.023 24.9553 127.979 24.9107C127.935 24.8662 127.91 24.8057 127.91 24.7427C127.91 24.6796 127.935 24.6192 127.979 24.5746C128.023 24.53 128.083 24.505 128.146 24.505H129.091C129.146 24.516 129.195 24.5457 129.23 24.589C129.266 24.6324 129.285 24.6867 129.285 24.7427C129.285 24.7987 129.266 24.8529 129.23 24.8963C129.195 24.9396 129.146 24.9693 129.091 24.9803ZM126.255 24.9803H125.31C125.248 24.9803 125.187 24.9553 125.143 24.9107C125.099 24.8662 125.074 24.8057 125.074 24.7427C125.074 24.6796 125.099 24.6192 125.143 24.5746C125.187 24.53 125.248 24.505 125.31 24.505H126.255C126.31 24.516 126.359 24.5457 126.394 24.589C126.43 24.6324 126.449 24.6867 126.449 24.7427C126.449 24.7987 126.43 24.8529 126.394 24.8963C126.359 24.9396 126.31 24.9693 126.255 24.9803ZM123.42 24.9803H122.474C122.412 24.9803 122.352 24.9553 122.307 24.9107C122.263 24.8662 122.238 24.8057 122.238 24.7427C122.238 24.6796 122.263 24.6192 122.307 24.5746C122.352 24.53 122.412 24.505 122.474 24.505H123.42C123.474 24.516 123.523 24.5457 123.559 24.589C123.594 24.6324 123.613 24.6867 123.613 24.7427C123.613 24.7987 123.594 24.8529 123.559 24.8963C123.523 24.9396 123.474 24.9693 123.42 24.9803ZM120.584 24.9803H119.639C119.576 24.9803 119.516 24.9553 119.471 24.9107C119.427 24.8662 119.402 24.8057 119.402 24.7427C119.402 24.6796 119.427 24.6192 119.471 24.5746C119.516 24.53 119.576 24.505 119.639 24.505H120.584C120.638 24.516 120.688 24.5457 120.723 24.589C120.758 24.6324 120.777 24.6867 120.777 24.7427C120.777 24.7987 120.758 24.8529 120.723 24.8963C120.688 24.9396 120.638 24.9693 120.584 24.9803ZM117.748 24.9803H116.803C116.74 24.9803 116.68 24.9553 116.636 24.9107C116.591 24.8662 116.566 24.8057 116.566 24.7427C116.566 24.6796 116.591 24.6192 116.636 24.5746C116.68 24.53 116.74 24.505 116.803 24.505H117.748C117.803 24.516 117.852 24.5457 117.887 24.589C117.922 24.6324 117.942 24.6867 117.942 24.7427C117.942 24.7987 117.922 24.8529 117.887 24.8963C117.852 24.9396 117.803 24.9693 117.748 24.9803ZM114.912 24.9803H113.967C113.904 24.9803 113.844 24.9553 113.8 24.9107C113.756 24.8662 113.731 24.8057 113.731 24.7427C113.731 24.6796 113.756 24.6192 113.8 24.5746C113.844 24.53 113.904 24.505 113.967 24.505H114.912C114.967 24.516 115.016 24.5457 115.051 24.589C115.086 24.6324 115.106 24.6867 115.106 24.7427C115.106 24.7987 115.086 24.8529 115.051 24.8963C115.016 24.9396 114.967 24.9693 114.912 24.9803ZM112.076 24.9803H111.131C111.068 24.9803 111.008 24.9553 110.964 24.9107C110.92 24.8662 110.895 24.8057 110.895 24.7427C110.895 24.6796 110.92 24.6192 110.964 24.5746C111.008 24.53 111.068 24.505 111.131 24.505H112.076C112.131 24.516 112.18 24.5457 112.215 24.589C112.251 24.6324 112.27 24.6867 112.27 24.7427C112.27 24.7987 112.251 24.8529 112.215 24.8963C112.18 24.9396 112.131 24.9693 112.076 24.9803ZM109.241 24.9803H108.295C108.233 24.9803 108.173 24.9553 108.128 24.9107C108.084 24.8662 108.059 24.8057 108.059 24.7427C108.059 24.6796 108.084 24.6192 108.128 24.5746C108.173 24.53 108.233 24.505 108.295 24.505H109.241C109.295 24.516 109.344 24.5457 109.38 24.589C109.415 24.6324 109.434 24.6867 109.434 24.7427C109.434 24.7987 109.415 24.8529 109.38 24.8963C109.344 24.9396 109.295 24.9693 109.241 24.9803ZM106.405 24.9803H105.459C105.397 24.9803 105.337 24.9553 105.292 24.9107C105.248 24.8662 105.223 24.8057 105.223 24.7427C105.223 24.6796 105.248 24.6192 105.292 24.5746C105.337 24.53 105.397 24.505 105.459 24.505H106.405C106.459 24.516 106.508 24.5457 106.544 24.589C106.579 24.6324 106.598 24.6867 106.598 24.7427C106.598 24.7987 106.579 24.8529 106.544 24.8963C106.508 24.9396 106.459 24.9693 106.405 24.9803ZM103.569 24.9803H102.624C102.561 24.9803 102.501 24.9553 102.457 24.9107C102.412 24.8662 102.387 24.8057 102.387 24.7427C102.387 24.6796 102.412 24.6192 102.457 24.5746C102.501 24.53 102.561 24.505 102.624 24.505H103.569C103.624 24.516 103.673 24.5457 103.708 24.589C103.743 24.6324 103.762 24.6867 103.762 24.7427C103.762 24.7987 103.743 24.8529 103.708 24.8963C103.673 24.9396 103.624 24.9693 103.569 24.9803ZM100.733 24.9803H99.7878C99.7251 24.9803 99.665 24.9553 99.6207 24.9107C99.5764 24.8662 99.5515 24.8057 99.5515 24.7427C99.5515 24.6796 99.5764 24.6192 99.6207 24.5746C99.665 24.53 99.7251 24.505 99.7878 24.505H100.733C100.788 24.516 100.837 24.5457 100.872 24.589C100.907 24.6324 100.927 24.6867 100.927 24.7427C100.927 24.7987 100.907 24.8529 100.872 24.8963C100.837 24.9396 100.788 24.9693 100.733 24.9803ZM97.8973 24.9803H96.952C96.8893 24.9803 96.8292 24.9553 96.7849 24.9107C96.7406 24.8662 96.7157 24.8057 96.7157 24.7427C96.7157 24.6796 96.7406 24.6192 96.7849 24.5746C96.8292 24.53 96.8893 24.505 96.952 24.505H97.8973C97.9519 24.516 98.001 24.5457 98.0363 24.589C98.0715 24.6324 98.0908 24.6867 98.0908 24.7427C98.0908 24.7987 98.0715 24.8529 98.0363 24.8963C98.001 24.9396 97.9519 24.9693 97.8973 24.9803ZM95.0615 24.9803H94.1162C94.0535 24.9803 93.9934 24.9553 93.9491 24.9107C93.9048 24.8662 93.8799 24.8057 93.8799 24.7427C93.8799 24.6796 93.9048 24.6192 93.9491 24.5746C93.9934 24.53 94.0535 24.505 94.1162 24.505H95.0615C95.116 24.516 95.1651 24.5457 95.2004 24.589C95.2357 24.6324 95.255 24.6867 95.255 24.7427C95.255 24.7987 95.2357 24.8529 95.2004 24.8963C95.1651 24.9396 95.116 24.9693 95.0615 24.9803ZM92.2256 24.9803H91.2804C91.2177 24.9803 91.1576 24.9553 91.1133 24.9107C91.0689 24.8662 91.044 24.8057 91.044 24.7427C91.044 24.6796 91.0689 24.6192 91.1133 24.5746C91.1576 24.53 91.2177 24.505 91.2804 24.505H92.2256C92.2802 24.516 92.3293 24.5457 92.3646 24.589C92.3999 24.6324 92.4192 24.6867 92.4192 24.7427C92.4192 24.7987 92.3999 24.8529 92.3646 24.8963C92.3293 24.9396 92.2802 24.9693 92.2256 24.9803ZM89.3898 24.9803H88.4445C88.3819 24.9803 88.3218 24.9553 88.2774 24.9107C88.2331 24.8662 88.2082 24.8057 88.2082 24.7427C88.2082 24.6796 88.2331 24.6192 88.2774 24.5746C88.3218 24.53 88.3819 24.505 88.4445 24.505H89.3898C89.4444 24.516 89.4935 24.5457 89.5288 24.589C89.5641 24.6324 89.5834 24.6867 89.5834 24.7427C89.5834 24.7987 89.5641 24.8529 89.5288 24.8963C89.4935 24.9396 89.4444 24.9693 89.3898 24.9803ZM86.554 24.9803H85.6087C85.546 24.9803 85.4859 24.9553 85.4416 24.9107C85.3973 24.8662 85.3724 24.8057 85.3724 24.7427C85.3724 24.6796 85.3973 24.6192 85.4416 24.5746C85.4859 24.53 85.546 24.505 85.6087 24.505H86.554C86.6086 24.516 86.6577 24.5457 86.693 24.589C86.7283 24.6324 86.7475 24.6867 86.7475 24.7427C86.7475 24.7987 86.7283 24.8529 86.693 24.8963C86.6577 24.9396 86.6086 24.9693 86.554 24.9803ZM83.7182 24.9803H82.7729C82.7102 24.9803 82.6501 24.9553 82.6058 24.9107C82.5615 24.8662 82.5366 24.8057 82.5366 24.7427C82.5366 24.6796 82.5615 24.6192 82.6058 24.5746C82.6501 24.53 82.7102 24.505 82.7729 24.505H83.7182C83.7728 24.516 83.8219 24.5457 83.8572 24.589C83.8924 24.6324 83.9117 24.6867 83.9117 24.7427C83.9117 24.7987 83.8924 24.8529 83.8572 24.8963C83.8219 24.9396 83.7728 24.9693 83.7182 24.9803ZM80.8824 24.9803H79.9371C79.8744 24.9803 79.8143 24.9553 79.77 24.9107C79.7257 24.8662 79.7008 24.8057 79.7008 24.7427C79.7008 24.6796 79.7257 24.6192 79.77 24.5746C79.8143 24.53 79.8744 24.505 79.9371 24.505H80.8824C80.9369 24.516 80.986 24.5457 81.0213 24.589C81.0566 24.6324 81.0759 24.6867 81.0759 24.7427C81.0759 24.7987 81.0566 24.8529 81.0213 24.8963C80.986 24.9396 80.9369 24.9693 80.8824 24.9803ZM78.0465 24.9803H77.1013C77.0386 24.9803 76.9785 24.9553 76.9342 24.9107C76.8898 24.8662 76.8649 24.8057 76.8649 24.7427C76.8649 24.6796 76.8898 24.6192 76.9342 24.5746C76.9785 24.53 77.0386 24.505 77.1013 24.505H78.0465C78.1011 24.516 78.1502 24.5457 78.1855 24.589C78.2208 24.6324 78.2401 24.6867 78.2401 24.7427C78.2401 24.7987 78.2208 24.8529 78.1855 24.8963C78.1502 24.9396 78.1011 24.9693 78.0465 24.9803ZM75.2107 24.9803H74.2654C74.2028 24.9803 74.1426 24.9553 74.0983 24.9107C74.054 24.8662 74.0291 24.8057 74.0291 24.7427C74.0291 24.6796 74.054 24.6192 74.0983 24.5746C74.1426 24.53 74.2028 24.505 74.2654 24.505H75.2107C75.2653 24.516 75.3144 24.5457 75.3497 24.589C75.385 24.6324 75.4043 24.6867 75.4043 24.7427C75.4043 24.7987 75.385 24.8529 75.3497 24.8963C75.3144 24.9396 75.2653 24.9693 75.2107 24.9803ZM72.3749 24.9803H71.4296C71.3669 24.9803 71.3068 24.9553 71.2625 24.9107C71.2182 24.8662 71.1933 24.8057 71.1933 24.7427C71.1933 24.6796 71.2182 24.6192 71.2625 24.5746C71.3068 24.53 71.3669 24.505 71.4296 24.505H72.3749C72.4295 24.516 72.4786 24.5457 72.5139 24.589C72.5491 24.6324 72.5684 24.6867 72.5684 24.7427C72.5684 24.7987 72.5491 24.8529 72.5139 24.8963C72.4786 24.9396 72.4295 24.9693 72.3749 24.9803ZM69.5391 24.9803H68.5938C68.5311 24.9803 68.471 24.9553 68.4267 24.9107C68.3824 24.8662 68.3575 24.8057 68.3575 24.7427C68.3575 24.6796 68.3824 24.6192 68.4267 24.5746C68.471 24.53 68.5311 24.505 68.5938 24.505H69.5391C69.5937 24.516 69.6428 24.5457 69.678 24.589C69.7133 24.6324 69.7326 24.6867 69.7326 24.7427C69.7326 24.7987 69.7133 24.8529 69.678 24.8963C69.6428 24.9396 69.5937 24.9693 69.5391 24.9803ZM66.7032 24.9803H65.758C65.6953 24.9803 65.6352 24.9553 65.5909 24.9107C65.5465 24.8662 65.5217 24.8057 65.5217 24.7427C65.5217 24.6796 65.5465 24.6192 65.5909 24.5746C65.6352 24.53 65.6953 24.505 65.758 24.505H66.7032C66.7578 24.516 66.8069 24.5457 66.8422 24.589C66.8775 24.6324 66.8968 24.6867 66.8968 24.7427C66.8968 24.7987 66.8775 24.8529 66.8422 24.8963C66.8069 24.9396 66.7578 24.9693 66.7032 24.9803ZM63.8674 24.9803H62.9222C62.8595 24.9803 62.7994 24.9553 62.755 24.9107C62.7107 24.8662 62.6858 24.8057 62.6858 24.7427C62.6858 24.6796 62.7107 24.6192 62.755 24.5746C62.7994 24.53 62.8595 24.505 62.9222 24.505H63.8674C63.922 24.516 63.9711 24.5457 64.0064 24.589C64.0417 24.6324 64.061 24.6867 64.061 24.7427C64.061 24.7987 64.0417 24.8529 64.0064 24.8963C63.9711 24.9396 63.922 24.9693 63.8674 24.9803ZM61.0316 24.9803H60.0863C60.0237 24.9803 59.9635 24.9553 59.9192 24.9107C59.8749 24.8662 59.85 24.8057 59.85 24.7427C59.85 24.6796 59.8749 24.6192 59.9192 24.5746C59.9635 24.53 60.0237 24.505 60.0863 24.505H61.0316C61.0862 24.516 61.1353 24.5457 61.1706 24.589C61.2059 24.6324 61.2251 24.6867 61.2251 24.7427C61.2251 24.7987 61.2059 24.8529 61.1706 24.8963C61.1353 24.9396 61.0862 24.9693 61.0316 24.9803ZM58.1958 24.9803H57.2505C57.1878 24.9803 57.1277 24.9553 57.0834 24.9107C57.0391 24.8662 57.0142 24.8057 57.0142 24.7427C57.0142 24.6796 57.0391 24.6192 57.0834 24.5746C57.1277 24.53 57.1878 24.505 57.2505 24.505H58.1958C58.2504 24.516 58.2995 24.5457 58.3348 24.589C58.37 24.6324 58.3893 24.6867 58.3893 24.7427C58.3893 24.7987 58.37 24.8529 58.3348 24.8963C58.2995 24.9396 58.2504 24.9693 58.1958 24.9803ZM55.36 24.9803H54.4147C54.352 24.9803 54.2919 24.9553 54.2476 24.9107C54.2033 24.8662 54.1784 24.8057 54.1784 24.7427C54.1784 24.6796 54.2033 24.6192 54.2476 24.5746C54.2919 24.53 54.352 24.505 54.4147 24.505H55.36C55.4146 24.516 55.4637 24.5457 55.4989 24.589C55.5342 24.6324 55.5535 24.6867 55.5535 24.7427C55.5535 24.7987 55.5342 24.8529 55.4989 24.8963C55.4637 24.9396 55.4146 24.9693 55.36 24.9803ZM52.5241 24.9803H51.5789C51.5162 24.9803 51.4561 24.9553 51.4118 24.9107C51.3674 24.8662 51.3426 24.8057 51.3426 24.7427C51.3426 24.6796 51.3674 24.6192 51.4118 24.5746C51.4561 24.53 51.5162 24.505 51.5789 24.505H52.5241C52.5787 24.516 52.6278 24.5457 52.6631 24.589C52.6984 24.6324 52.7177 24.6867 52.7177 24.7427C52.7177 24.7987 52.6984 24.8529 52.6631 24.8963C52.6278 24.9396 52.5787 24.9693 52.5241 24.9803ZM49.6883 24.9803H48.743C48.6804 24.9803 48.6203 24.9553 48.5759 24.9107C48.5316 24.8662 48.5067 24.8057 48.5067 24.7427C48.5067 24.6796 48.5316 24.6192 48.5759 24.5746C48.6203 24.53 48.6804 24.505 48.743 24.505H49.6883C49.7429 24.516 49.792 24.5457 49.8273 24.589C49.8626 24.6324 49.8819 24.6867 49.8819 24.7427C49.8819 24.7987 49.8626 24.8529 49.8273 24.8963C49.792 24.9396 49.7429 24.9693 49.6883 24.9803ZM46.8525 24.9803H45.9072C45.8446 24.9803 45.7844 24.9553 45.7401 24.9107C45.6958 24.8662 45.6709 24.8057 45.6709 24.7427C45.6709 24.6796 45.6958 24.6192 45.7401 24.5746C45.7844 24.53 45.8446 24.505 45.9072 24.505H46.8525C46.9071 24.516 46.9562 24.5457 46.9915 24.589C47.0268 24.6324 47.046 24.6867 47.046 24.7427C47.046 24.7987 47.0268 24.8529 46.9915 24.8963C46.9562 24.9396 46.9071 24.9693 46.8525 24.9803ZM44.0167 24.9803H43.0714C43.0087 24.9803 42.9486 24.9553 42.9043 24.9107C42.86 24.8662 42.8351 24.8057 42.8351 24.7427C42.8351 24.6796 42.86 24.6192 42.9043 24.5746C42.9486 24.53 43.0087 24.505 43.0714 24.505H44.0167C44.0713 24.516 44.1204 24.5457 44.1557 24.589C44.1909 24.6324 44.2102 24.6867 44.2102 24.7427C44.2102 24.7987 44.1909 24.8529 44.1557 24.8963C44.1204 24.9396 44.0713 24.9693 44.0167 24.9803ZM41.1809 24.9803H40.2356C40.1729 24.9803 40.1128 24.9553 40.0685 24.9107C40.0242 24.8662 39.9993 24.8057 39.9993 24.7427C39.9993 24.6796 40.0242 24.6192 40.0685 24.5746C40.1128 24.53 40.1729 24.505 40.2356 24.505H41.1809C41.2355 24.516 41.2846 24.5457 41.3198 24.589C41.3551 24.6324 41.3744 24.6867 41.3744 24.7427C41.3744 24.7987 41.3551 24.8529 41.3198 24.8963C41.2846 24.9396 41.2355 24.9693 41.1809 24.9803Z" fill="#263238"/>
<path d="M155.89 35.6998C149.895 35.7337 144.044 37.5552 139.078 40.9337C134.112 44.3122 130.254 49.096 127.992 54.6801C125.729 60.2642 125.164 66.3977 126.368 72.3048C127.571 78.212 130.49 83.6275 134.754 87.8663C139.018 92.1051 144.436 94.9768 150.323 96.1182C156.21 97.2597 162.301 96.6196 167.827 94.2789C173.352 91.9382 178.063 88.002 181.363 82.9683C184.664 77.9345 186.407 72.0293 186.37 65.9994C186.323 57.9164 183.085 50.1832 177.369 44.5011C171.653 38.8189 163.927 35.653 155.89 35.6998ZM156.197 90.6518C151.386 90.679 146.675 89.2706 142.659 86.6049C138.644 83.9391 135.505 80.1356 133.638 75.6754C131.772 71.2151 131.263 66.2985 132.175 61.5471C133.087 56.7958 135.379 52.4232 138.762 48.9822C142.145 45.5413 146.467 43.1865 151.18 42.2157C155.894 41.2449 160.788 41.7017 165.243 43.5282C169.698 45.3548 173.515 48.4692 176.211 52.4775C178.906 56.4858 180.36 61.208 180.387 66.047C180.405 69.26 179.793 72.4452 178.588 75.4206C177.382 78.3961 175.605 81.1034 173.359 83.3882C171.112 85.673 168.441 87.4904 165.496 88.7367C162.552 89.983 159.392 90.6337 156.197 90.6518Z" fill="white"/>
<path d="M156.055 96.8981C152.044 96.909 148.07 96.1251 144.359 94.5913C140.649 93.0574 137.276 90.8036 134.431 87.9584C128.687 82.2124 125.448 74.4067 125.426 66.2585C125.404 58.1103 128.601 50.2871 134.315 44.5099C140.028 38.7327 147.788 35.4747 155.89 35.4526H156.065C164.166 35.4305 171.945 38.6462 177.689 44.3923C183.433 50.1383 186.672 57.944 186.694 66.0921C186.716 74.2403 183.519 82.0635 177.806 87.8408C172.093 93.618 164.332 96.876 156.23 96.8981H156.055ZM156.055 35.928H155.88C151.931 35.9395 148.023 36.7333 144.378 38.2641C140.734 39.7948 137.425 42.0325 134.641 44.8494C131.856 47.6663 129.651 51.0072 128.15 54.6814C126.649 58.3556 125.883 62.2911 125.894 66.2633C125.906 70.2354 126.695 74.1664 128.217 77.8317C129.739 81.4971 131.964 84.8251 134.764 87.6256C140.421 93.2816 148.079 96.446 156.055 96.4227H156.23C164.206 96.4006 171.847 93.1927 177.471 87.5046C183.096 81.8165 186.243 74.1142 186.221 66.0921C186.199 58.07 183.01 50.3853 177.354 44.7284C171.699 39.0715 164.041 35.9059 156.065 35.928H156.055ZM156.055 90.88C149.696 90.6637 143.669 87.9756 139.24 83.381C134.811 78.7864 132.327 72.6434 132.309 66.2442C132.291 59.8449 134.741 53.688 139.145 49.0687C143.548 44.4493 149.561 41.7274 155.918 41.4755H156.055C162.414 41.6917 168.442 44.3798 172.871 48.9744C177.3 53.569 179.784 59.712 179.802 66.1113C179.82 72.5105 177.369 78.6674 172.966 83.2868C168.563 87.9061 162.55 90.628 156.192 90.88H156.055ZM156.192 90.4046C162.426 90.155 168.321 87.4842 172.638 82.9537C176.954 78.4233 179.356 72.386 179.338 66.1113C179.32 59.8365 176.884 53.8131 172.542 49.3074C168.2 44.8017 162.291 42.1647 156.055 41.9508H155.918C149.684 42.2004 143.79 44.8712 139.473 49.4017C135.157 53.9321 132.755 59.9694 132.773 66.2441C132.79 72.5189 135.226 78.5423 139.568 83.048C143.91 87.5537 149.82 90.1907 156.055 90.4046H156.192Z" fill="#263238"/>
<path d="M155.88 33.9552C149.886 33.9891 144.036 35.8102 139.07 39.188C134.104 42.5659 130.246 47.3489 127.983 52.9321C125.72 58.5154 125.154 64.6482 126.357 70.555C127.559 76.4618 130.476 81.8772 134.739 86.1166C139.002 90.356 144.419 93.2289 150.305 94.372C156.191 95.515 162.281 94.877 167.807 92.5384C173.332 90.1999 178.044 86.266 181.347 81.2341C184.649 76.2022 186.394 70.2984 186.361 64.2691C186.338 60.2657 185.532 56.306 183.988 52.6159C182.445 48.9259 180.193 45.5778 177.363 42.7629C174.532 39.948 171.179 37.7213 167.493 36.2101C163.807 34.6989 159.861 33.9327 155.88 33.9552ZM156.188 88.9024C151.376 88.9306 146.665 87.5231 142.649 84.8581C138.633 82.1931 135.493 78.3903 133.626 73.9304C131.759 69.4705 131.249 64.554 132.16 59.8025C133.071 55.051 135.362 50.6779 138.745 47.2363C142.127 43.7947 146.448 41.4391 151.161 40.4673C155.874 39.4956 160.768 39.9514 165.224 41.7771C169.68 43.6028 173.497 46.7164 176.194 50.7242C178.89 54.732 180.344 59.4539 180.372 64.2929C180.391 67.506 179.78 70.6912 178.575 73.6669C177.37 76.6426 175.593 79.3503 173.348 81.6355C171.102 83.9207 168.431 85.7387 165.486 86.9856C162.542 88.2324 159.382 88.8838 156.188 88.9024Z" fill="white"/>
<path d="M156.046 95.1582C147.973 95.1349 140.24 91.8903 134.544 86.1369C128.848 80.3834 125.656 72.5916 125.667 64.4725C125.679 56.3533 128.894 48.5708 134.606 42.8338C140.318 37.0968 148.061 33.8745 156.133 33.8745C164.206 33.8745 171.949 37.0968 177.661 42.8338C183.373 48.5708 186.588 56.3533 186.6 64.4725C186.611 72.5916 183.418 80.3834 177.723 86.1369C172.027 91.8903 164.293 95.1349 156.221 95.1582H156.046ZM156.046 34.1929H155.871C147.96 34.3121 140.414 37.5624 134.868 43.2392C129.323 48.916 126.226 56.5621 126.248 64.5201C126.27 72.478 129.409 80.1068 134.985 85.7529C140.561 91.399 148.124 94.6074 156.037 94.6829H156.211C164.123 94.5636 171.669 91.3134 177.214 85.6365C182.759 79.9597 185.856 72.3137 185.835 64.3557C185.813 56.3977 182.674 48.7689 177.098 43.1229C171.522 37.4768 163.958 34.2683 156.046 34.1929ZM156.046 89.1401C149.687 88.9232 143.66 86.2345 139.231 81.6395C134.803 77.0445 132.319 70.9013 132.302 64.502C132.285 58.1028 134.736 51.9462 139.139 47.3273C143.543 42.7083 149.556 39.987 155.914 39.7356H156.055C162.414 39.9525 168.442 42.6412 172.87 47.2362C177.298 51.8313 179.782 57.9745 179.799 64.3737C179.817 70.773 177.366 76.9295 172.962 81.5485C168.558 86.1674 162.545 88.8888 156.188 89.1401H156.046ZM156.046 40.211H155.904C149.67 40.46 143.775 43.1302 139.458 47.6603C135.142 52.1903 132.739 58.2273 132.756 64.502C132.774 70.7767 135.209 76.8003 139.55 81.3065C143.892 85.8126 149.801 88.4502 156.037 88.6648H156.178C162.412 88.4158 168.307 85.7455 172.624 81.2155C176.941 76.6854 179.343 70.6484 179.326 64.3737C179.309 58.099 176.874 52.0754 172.532 47.5693C168.191 43.0632 162.281 40.4255 156.046 40.211Z" fill="#263238"/>
<path d="M159.327 94.7931L154.714 94.8393C153.962 94.8468 153.359 95.4658 153.367 96.2219L153.608 120.664C153.616 121.42 154.231 122.027 154.983 122.019L159.596 121.973C160.347 121.966 160.951 121.346 160.943 120.59L160.702 96.1485C160.694 95.3924 160.079 94.7856 159.327 94.7931Z" fill="#FB9E1B"/>
<path d="M154.259 123.043C153.837 123.041 153.433 122.871 153.134 122.571C152.835 122.272 152.665 121.866 152.662 121.441L152.525 97.0026C152.525 96.7906 152.567 96.5806 152.648 96.3848C152.729 96.1891 152.848 96.0113 152.997 95.8618C153.145 95.7111 153.321 95.5914 153.515 95.5098C153.709 95.4282 153.917 95.3863 154.127 95.3864L158.735 95.3579C159.16 95.363 159.567 95.5334 159.869 95.8333C160.019 95.9816 160.138 96.1584 160.219 96.3535C160.301 96.5486 160.342 96.7579 160.342 96.9694L160.479 121.408C160.482 121.834 160.316 122.245 160.018 122.548C159.721 122.852 159.315 123.025 158.891 123.029H154.283L154.259 123.043ZM158.735 95.8333L154.122 95.8618C153.974 95.8614 153.828 95.8906 153.692 95.9477C153.555 96.0048 153.432 96.0887 153.328 96.1945C153.12 96.4095 153.003 96.6977 153.002 96.9979L153.139 121.441C153.142 121.741 153.263 122.028 153.475 122.24C153.578 122.344 153.701 122.426 153.837 122.483C153.972 122.539 154.117 122.568 154.264 122.568L158.872 122.544C159.02 122.543 159.167 122.513 159.303 122.456C159.44 122.398 159.564 122.314 159.668 122.208C159.772 122.102 159.854 121.976 159.91 121.838C159.966 121.7 159.994 121.552 159.992 121.403L159.855 96.9599C159.856 96.8113 159.827 96.6642 159.77 96.527C159.713 96.3899 159.63 96.2656 159.524 96.1613C159.316 95.9483 159.032 95.827 158.735 95.8237V95.8333Z" fill="#263238"/>
<path d="M159.51 155.729L153.314 155.767C152.86 155.77 152.411 155.682 151.99 155.51C151.57 155.338 151.188 155.084 150.865 154.763C150.543 154.442 150.286 154.06 150.11 153.64C149.934 153.219 149.843 152.768 149.84 152.311V115.827C149.838 115.471 149.906 115.117 150.04 114.787C150.174 114.457 150.371 114.157 150.621 113.904C150.87 113.65 151.166 113.449 151.493 113.311C151.82 113.172 152.17 113.1 152.525 113.098L160.224 113.06C160.578 113.058 160.929 113.126 161.256 113.259C161.584 113.393 161.883 113.591 162.134 113.841C162.386 114.09 162.587 114.388 162.725 114.715C162.862 115.043 162.934 115.395 162.937 115.751V152.245C162.941 153.163 162.582 154.046 161.94 154.699C161.297 155.352 160.424 155.723 159.51 155.729Z" fill="#FB9E1B"/>
<path d="M153.295 156C152.321 155.999 151.386 155.61 150.695 154.92C150.003 154.229 149.611 153.291 149.604 152.311V115.827C149.601 115.44 149.675 115.055 149.82 114.697C149.965 114.338 150.18 114.011 150.45 113.736C150.721 113.46 151.043 113.241 151.399 113.091C151.754 112.941 152.135 112.863 152.52 112.861L160.229 112.818C160.613 112.817 160.994 112.892 161.349 113.038C161.704 113.185 162.028 113.401 162.3 113.673C162.573 113.945 162.789 114.269 162.937 114.626C163.086 114.982 163.163 115.365 163.164 115.751V152.24C163.166 152.727 163.073 153.209 162.89 153.66C162.707 154.111 162.438 154.521 162.097 154.867C161.757 155.213 161.352 155.489 160.905 155.677C160.459 155.866 159.98 155.964 159.496 155.967L153.3 156H153.295ZM160.224 113.293L152.52 113.336C152.197 113.338 151.877 113.404 151.579 113.53C151.281 113.656 151.01 113.84 150.783 114.072C150.556 114.303 150.376 114.577 150.254 114.878C150.132 115.179 150.07 115.502 150.072 115.827V152.311C150.078 153.166 150.42 153.983 151.023 154.585C151.626 155.187 152.441 155.525 153.29 155.525L159.487 155.491C159.909 155.49 160.327 155.405 160.716 155.241C161.106 155.077 161.459 154.838 161.757 154.536C162.054 154.234 162.289 153.877 162.448 153.483C162.608 153.09 162.689 152.669 162.686 152.245V115.756C162.683 115.101 162.422 114.475 161.96 114.014C161.499 113.552 160.875 113.293 160.224 113.293Z" fill="#263238"/>
<path d="M80.717 64.4973L52.6944 59.0496L32.2245 55.0186C31.9793 54.9707 31.7315 54.9373 31.4824 54.9187C30.3906 54.8332 27.3799 54.6906 25.7257 55.4464C23.6792 56.3971 22.6867 57.8232 23.268 58.7739C23.8493 59.7247 27.6304 61.764 31.0381 62.9191C34.4459 64.0742 51.3615 67.7488 53.7247 67.9389C56.0879 68.1291 59.0655 68.2622 59.0655 68.2622C59.0655 68.2622 69.1705 69.1844 73.0319 68.8326C76.8934 68.4808 82.4847 66.7363 82.7777 65.9804C83.0707 65.2246 80.717 64.4973 80.717 64.4973Z" fill="white"/>
<path d="M70.0305 62.6719C70.0305 62.6719 73.0743 62.9143 74.4497 62.1443C75.825 61.3742 81.1517 53.5497 81.4872 53.4641C82.3975 53.4529 83.3078 53.4894 84.2143 53.5735L80.5798 65.1676L69.6099 62.7432L70.0305 62.6719Z" fill="white"/>
<path d="M77.5928 67.9912C77.5928 67.9912 78.3821 67.725 78.8358 67.5396C79.2895 67.3542 80.301 66.9977 80.8682 66.7125C81.2206 66.5321 81.5105 66.2487 81.7 65.8996L95.6144 64.3785L94.1965 64.2644L79.2328 65.2721C79.2234 66.7981 77.5928 67.9912 77.5928 67.9912Z" fill="#263238"/>
<path d="M101.924 59.3776L93.048 60.124L93.3458 60.0146L66.2495 61.6832L49.2346 62.7337C49.2346 62.7337 47.1597 62.6767 47.8687 63.3945L50.6525 64.1693C50.6525 64.1693 45.4062 64.0742 37.6881 62.0254C29.9699 59.9766 27.3657 59.5678 25.1774 58.1417C24.6183 57.7771 24.1728 57.2614 23.8918 56.6538C23.1545 57.3906 22.904 58.1797 23.2679 58.7597C23.8115 59.6201 27.1246 61.474 30.3575 62.6529L30.211 62.6149L25.4421 62.0112C25.4421 62.0112 24.2605 60.3759 24.2321 60.7039C24.2037 61.0319 23.5326 62.6054 23.9674 62.6672C24.4023 62.729 29.6391 63.2281 29.6391 63.2281L29.5162 64.7683C29.3666 64.7679 29.2224 64.8246 29.1128 64.9269C29.0031 65.0293 28.9362 65.1696 28.9254 65.3197C28.9143 65.4677 28.9577 65.6147 29.0475 65.7325C29.1373 65.8503 29.2671 65.9307 29.4122 65.9584C29.5572 65.986 29.7072 65.959 29.8337 65.8823C29.9601 65.8057 30.054 65.685 30.0975 65.5431C30.1702 65.5717 30.2466 65.5893 30.3244 65.5954H30.3953C30.433 66.1209 30.6457 66.6182 30.999 67.0072C31.3523 67.3962 31.8256 67.6541 32.3426 67.7393C33.8503 68.0815 38.1843 68.652 39.5503 67.9912C40.5381 67.5159 40.1222 65.9377 39.8149 65.1058C41.6488 65.5241 43.563 65.9424 45.3731 66.3322L45.2739 67.5729L46.446 67.996L47.3015 69.6075L46.5784 69.8594C46.5508 69.6801 46.4657 69.5147 46.336 69.3885C46.2063 69.2624 46.0391 69.1823 45.86 69.1606C45.6427 69.1858 45.4409 69.286 45.2888 69.444C45.1368 69.6021 45.0439 69.8083 45.0261 70.0275C45.0083 70.2468 45.0665 70.4654 45.191 70.6462C45.3155 70.8271 45.4984 70.9589 45.7087 71.0193C45.8528 71.0275 45.9965 70.9965 46.1245 70.9296C46.2526 70.8627 46.3604 70.7623 46.4366 70.639L47.5378 70.7246V70.7816C47.3646 70.8441 47.2133 70.9562 47.1025 71.1039C46.9917 71.2517 46.9261 71.4288 46.9139 71.6135C46.8815 71.8435 46.9408 72.077 47.0789 72.2631C47.2171 72.4493 47.4228 72.5729 47.6513 72.607C47.8732 72.6124 48.0885 72.5313 48.2523 72.3807C48.4162 72.2301 48.5158 72.0216 48.5304 71.7989H48.6107C48.6682 71.9288 48.7588 72.0412 48.8733 72.1247C48.9879 72.2082 49.1223 72.2598 49.2629 72.2742C49.4799 72.2483 49.6813 72.1475 49.8327 71.9891C49.9842 71.8307 50.0764 71.6244 50.0937 71.4053C50.1109 71.1862 50.0522 70.9679 49.9275 70.7874C49.8027 70.607 49.6197 70.4756 49.4095 70.4156C49.2261 70.4076 49.0453 70.4612 48.8956 70.5679C48.7459 70.6746 48.6357 70.8284 48.5824 71.005L48.1712 70.8624L48.0719 69.3175L47.4197 67.9437L47.5993 66.7743C50.5722 67.3875 52.9732 67.8391 53.7436 67.9009C56.1398 68.0958 59.0843 68.2242 59.0843 68.2242C59.0843 68.2242 60.1383 68.3192 61.6933 68.4381L61.6177 69.4173H60.8095C60.7615 69.268 60.6718 69.1357 60.5512 69.0362C60.4305 68.9368 60.2839 68.8743 60.1289 68.8564C59.9116 68.8816 59.7098 68.9817 59.5577 69.1398C59.4057 69.2979 59.3128 69.5041 59.295 69.7233C59.2772 69.9425 59.3355 70.1612 59.4599 70.342C59.5844 70.5228 59.7673 70.6547 59.9776 70.7151C60.1348 70.7248 60.2914 70.6876 60.4276 70.6081C60.5639 70.5286 60.6737 70.4103 60.7433 70.2682L61.5373 70.4013V70.4298C61.4024 70.5077 61.2887 70.6179 61.2062 70.7505C61.1238 70.8832 61.0752 71.0343 61.0647 71.1904C61.0335 71.4214 61.0938 71.6555 61.2326 71.8423C61.3714 72.029 61.5776 72.1534 61.8067 72.1887C61.9696 72.1966 62.1312 72.1557 62.2709 72.071C62.4106 71.9864 62.5221 71.8619 62.5913 71.7133L63.2246 71.7656C63.2837 71.8954 63.3754 72.0074 63.4905 72.0908C63.6057 72.1741 63.7405 72.2259 63.8816 72.241C64.0643 72.2809 64.2546 72.2654 64.4285 72.1965C64.6025 72.1276 64.7522 72.0083 64.8587 71.8539C64.9653 71.6994 65.0239 71.5166 65.0272 71.3286C65.0305 71.1407 64.9783 70.9559 64.8773 70.7978C64.7762 70.6396 64.6307 70.5152 64.4593 70.4401C64.2879 70.3651 64.0983 70.3429 63.9143 70.3763C63.7303 70.4096 63.5603 70.4971 63.4258 70.6277C63.2913 70.7582 63.1982 70.9259 63.1585 71.1096C63.1559 71.1539 63.1559 71.1984 63.1585 71.2427L62.7142 71.3188L62.7804 68.5141C66.0652 68.7471 70.7018 68.9895 73.0413 68.7898C73.7172 68.728 74.4592 68.6235 75.1918 68.4904C72.8914 68.4967 70.5924 68.3745 68.3055 68.1243C65.0585 67.649 64.997 67.1736 64.997 67.1736C64.997 67.1736 65.5406 67.2164 65.5784 66.779C65.6162 66.3417 65.6634 65.6857 65.6634 65.6857C65.6634 65.6857 67.1428 66.356 67.554 66.4986C67.9652 66.6412 66.9632 65.681 66.9632 65.681L71.3682 65.0487L72.8239 66.047L73.3769 65.9804L72.6726 65.1533L76.9028 64.5211H77.0398L78.5712 65.1771L79.2234 65.2294L78.6893 64.5734L78.5334 64.098L82.4373 63.4515C82.4373 63.4515 83.8883 64.4498 84.6682 64.2881C85.448 64.1265 84.6209 63.5181 84.6209 63.5181L86.1664 63.3659L87.3764 63.2994L87.4615 62.2013L89.1393 61.5833L103.635 59.7627L105.308 58.0276L101.924 59.3776ZM32.2906 63.6797C32.2906 63.6797 30.7498 63.4658 30.4 64.5258H30.3622C30.2888 64.5116 30.2134 64.5116 30.1401 64.5258L30.2346 63.3232L34.7955 63.9364L35.2162 64.041L32.2906 63.6797Z" fill="#263238"/>
<path d="M62.2179 63.1187L58.6069 63.1473C58.6069 63.1473 59.0039 63.6226 59.1174 64.9536C59.2308 66.2847 59.9681 66.6697 61.0457 66.8551C62.1234 67.0405 63.6972 66.5176 63.6925 65.1961C63.6878 63.8746 63.3333 63.095 62.2179 63.1187Z" fill="white"/>
<path d="M25.3428 55.8552L24.9221 56.7346L25.7351 56.8107L26.203 55.9265L25.3428 55.8552Z" fill="#263238"/>
<path d="M28.9773 57.1292L29.6343 57.191L29.2798 56.1737L29.0057 56.1499L28.9773 57.1292Z" fill="#263238"/>
<path d="M27.5311 56.0311L27.3279 56.9675L28.708 57.1006L28.7363 56.1309L27.5311 56.0311Z" fill="#263238"/>
<path d="M27.2617 56.0121L26.4961 55.9503L26.0234 56.8392L27.0585 56.9438L27.2617 56.0121Z" fill="#263238"/>
<path d="M25.0498 55.8314H24.9883C24.6038 56.0605 24.2456 56.3315 23.9202 56.6395L24.6291 56.7109L25.0498 55.8314Z" fill="#263238"/>
<path d="M101.423 106.011C101.22 107.37 100.005 108.492 98.4738 109.847C97.5578 110.75 96.8552 111.848 96.4179 113.06C96.0965 114.263 95.7703 115.513 95.4726 116.754C95.8673 115.554 96.4601 114.429 97.2261 113.426C98.8945 111.235 100.861 109.624 100.837 110.574C100.813 111.525 99.2442 112.671 97.7223 114.42C96.7995 115.482 95.9634 116.617 95.2221 117.814C95.1937 117.938 95.1654 118.061 95.1323 118.185C95.8923 116.956 96.8508 115.864 97.9681 114.952C98.3415 114.61 98.9134 113.883 99.386 113.726C100.459 113.379 99.9957 114.776 99.646 115.152C98.4927 116.416 96.881 117.196 95.8176 118.522C95.4079 119.049 95.0397 119.607 94.7164 120.191C94.6455 120.633 94.5887 121.037 94.5462 121.417C94.948 121.013 95.7703 120.357 95.8271 120.319C97.1268 119.44 97.8783 118.237 98.8756 117.077C99.1932 116.661 99.6529 116.378 100.166 116.283C100.832 116.25 101.05 116.973 100.861 117.534C100.081 119.872 97.1221 119.972 95.3781 121.184C95.061 121.388 94.7677 121.628 94.5037 121.897C94.4313 122.618 94.4108 123.342 94.4422 124.065H98.4029V125.738H97.2213L96.2761 131.69H88.2838L87.3385 125.738H86.1144V124.065H92.1121C91.838 123.732 91.5592 123.371 91.2519 122.986L89.99 123.029C89.99 123.029 85.6086 123.219 84.0017 122.349C82.3947 121.479 83.8268 120.642 85.3629 121.085C86.899 121.527 89.9238 122.905 90.595 122.886H91.1574C90.8549 122.482 90.5477 122.054 90.2452 121.622C89.0391 121.318 87.8536 120.937 86.6957 120.481C85.4338 120.005 83.9781 119.573 82.891 118.732C82.683 118.592 82.5255 118.389 82.442 118.152C82.4398 118.128 82.4398 118.104 82.442 118.08C82.4284 118.001 82.4307 117.919 82.4486 117.84C82.4664 117.762 82.4996 117.687 82.5461 117.621C82.5927 117.556 82.6517 117.5 82.7198 117.457C82.7879 117.414 82.8638 117.385 82.943 117.372C84.0915 117.063 85.2069 117.847 86.0246 118.556C86.7364 119.158 87.4933 119.705 88.2885 120.191C88.9975 120.633 89.6355 121.047 90.0656 121.327C89.7489 120.852 89.4512 120.376 89.2054 119.901C88.9596 119.426 88.7989 119.107 88.5957 118.727C87.6539 117.56 86.4232 116.663 85.0273 116.127C82.3805 115.109 80.9154 114.848 81.5014 114.225C82.0875 113.602 83.9213 113.721 85.4858 115.143C86.4541 115.986 87.3505 116.91 88.1656 117.904C87.693 116.996 87.2676 116.131 86.8281 115.247C86.2781 114.337 85.5051 113.584 84.583 113.06C82.9808 112.205 79.5825 111.159 80.4238 110.684C81.2651 110.208 83.288 110.779 84.6776 112.086C85.3731 112.792 85.9679 113.592 86.4452 114.463C86.138 113.84 85.8308 113.198 85.4999 112.509C85.3629 112.205 85.2116 111.896 85.0604 111.592C85.023 111.545 84.9898 111.496 84.9611 111.444C84.3868 110.639 83.5798 110.032 82.6499 109.704C80.9295 109.143 78.8074 109.272 79.2611 108.34C79.7149 107.408 82.546 108.297 83.4865 109.191C83.8357 109.537 84.1435 109.923 84.4034 110.341L84.2853 110.037C83.9355 109.348 83.5763 108.678 83.2691 108.079C82.6484 107.35 81.8621 106.782 80.9768 106.424C79.0012 105.569 76.6475 104.656 77.8669 104.318C78.8405 104.048 81.3691 105.331 82.7587 107.114L82.39 106.424C81.6196 105.374 79.7432 102.959 78.2213 101.918C77.1557 101.299 76.1268 100.618 75.1397 99.8786C75.0331 99.8002 74.9484 99.6954 74.894 99.5744C74.6009 98.8185 76.3119 99.2226 76.586 99.2891C77.6825 99.5746 78.6697 100.182 79.4218 101.034C80.0815 101.74 80.6543 102.524 81.1281 103.368C81.44 103.9 81.7188 104.452 81.9788 105.013C82.1442 105.364 82.2718 105.821 82.4514 106.239C82.631 106.657 82.9241 106.995 83.0942 107.347C82.4089 104.875 80.2111 100.321 80.1733 99.0277C80.1308 97.6016 81.4731 99.7217 82.2293 102.579C82.6455 104.204 82.9612 105.853 83.1746 107.518C83.2549 107.665 83.3211 107.803 83.3825 107.936C83.5196 108.226 83.7606 108.716 84.0679 109.362C83.4014 107.261 83.1226 104.765 83.548 104.456C84.1435 104.014 84.3609 105.108 84.3609 107.128C84.4185 108.57 84.6567 110 85.0698 111.382C85.448 112.138 85.8639 112.965 86.3129 113.831C85.868 112.079 85.5334 110.301 85.3109 108.506C84.947 106.13 85.1077 105.379 85.8592 106.529C86.6106 107.679 86.4925 109.329 86.3318 111.354C86.2686 112.65 86.5031 113.943 87.0171 115.133C87.6032 116.231 88.2129 117.372 88.8226 118.489C88.2985 117.343 87.9664 116.117 87.8395 114.862C87.5748 112.114 87.9151 109.59 88.5532 110.308C89.1912 111.026 88.8179 112.932 88.884 115.261C88.935 116.661 89.093 118.055 89.3567 119.43L89.5457 119.768C89.3005 118.591 89.2383 117.384 89.3614 116.188C89.2385 115.713 89.281 115.432 89.4323 115.29C89.4323 114.772 89.4087 113.997 89.6308 113.598C90.1838 112.609 90.7935 113.945 90.7935 114.467C90.7926 114.873 90.7658 115.278 90.7131 115.68C90.9287 115.877 91.1135 116.107 91.2614 116.359C91.3465 116.502 91.4363 116.659 91.5261 116.835C91.5142 116.667 91.5142 116.499 91.5261 116.331C91.4978 115.883 91.5926 115.435 91.8002 115.038C91.4649 114.371 91.2231 113.661 91.0818 112.927C91.0254 112.682 91.0486 112.426 91.148 112.195L91.181 112.133C91.2707 111.998 91.4097 111.904 91.5681 111.871C91.7265 111.838 91.8914 111.869 92.0271 111.958C93.0763 112.519 93.3599 113.859 93.4781 114.938C93.5903 115.871 93.772 116.794 94.0216 117.7C94.2437 118.522 94.4233 119.245 94.5509 119.749C94.6407 119.183 94.7494 118.632 94.8818 118.128C95.0141 117.624 95.1134 117.258 95.2268 116.84C95.3197 115.346 95.0249 113.854 94.3713 112.509C93.1283 109.942 92.2303 108.739 93.0905 108.706C93.9507 108.673 95.1985 109.999 95.3781 112.114C95.5103 113.398 95.5388 114.691 95.4631 115.979C95.7325 114.99 96.0019 114.078 96.2855 113.127C96.499 112.083 96.4454 111.002 96.1295 109.985C95.5387 108.24 93.7664 105.141 94.7116 105.388C95.6569 105.635 96.7392 107.423 96.8621 109.324C96.8958 110.32 96.786 111.316 96.536 112.281C96.7392 111.615 96.9519 110.931 97.1788 110.208C97.2875 109.899 97.382 109.571 97.486 109.234L97.5144 109.063C97.64 108.082 97.4635 107.087 97.0087 106.21C96.1295 104.618 94.4848 103.244 95.4537 102.883C96.4226 102.522 97.883 105.112 97.9681 106.405C97.9902 106.896 97.9553 107.387 97.8641 107.869C97.9019 107.765 97.9397 107.665 97.9823 107.56C98.195 106.819 98.3982 106.087 98.5683 105.436C98.612 104.475 98.4205 103.519 98.0106 102.65C97.1504 100.668 96.0587 98.3717 97.1741 98.9754C98.0768 99.4508 99.0646 102.113 98.8519 104.376L99.0552 103.62C99.1922 102.322 99.4711 99.2749 99.0552 97.4638C98.7763 96.2468 98.3273 95.0869 98.1855 93.8605C98.1601 93.7322 98.1683 93.5996 98.2092 93.4754C98.5069 92.7196 99.4805 94.1837 99.6271 94.4262C100.228 95.3874 100.535 96.5046 100.511 97.6396C100.511 98.6081 100.398 99.5733 100.175 100.516C100.038 101.119 99.8681 101.713 99.679 102.298C99.5514 102.688 99.334 103.106 99.1686 103.525C99.0835 103.952 98.989 104.385 98.8898 104.78C100.067 102.512 101.546 97.6491 102.397 96.6984C103.314 95.6383 102.869 98.096 101.485 100.701C100.692 102.181 99.8078 103.61 98.8378 104.979C98.7952 105.141 98.748 105.293 98.7054 105.431C98.6062 105.735 98.4455 106.253 98.2328 106.933C99.1781 104.941 100.667 102.935 101.177 102.992C101.919 103.073 101.333 104.024 99.9579 105.502C99.0249 106.597 98.231 107.804 97.5947 109.096C97.3631 109.895 97.1221 110.788 96.848 111.734C97.7142 110.148 98.6771 108.618 99.731 107.152C101.017 105.084 101.617 104.651 101.423 106.011ZM91.2189 122.463C91.2189 121.888 91.3937 120.847 91.4032 120.776C91.5114 120.308 91.57 119.83 91.5781 119.349C91.1222 118.89 90.6915 118.406 90.2878 117.9C90.206 118.444 90.1807 118.995 90.2121 119.544C90.2626 120.186 90.3653 120.822 90.5194 121.446C90.7604 121.812 90.992 122.154 91.2189 122.458V122.463ZM94.0783 124.037C94.0783 123.4 94.1445 122.61 94.2248 121.783L93.2795 120.942C93.2795 120.942 92.8684 120.59 92.3059 120.048C92.0368 120.583 91.8275 121.145 91.682 121.726C91.5875 122.093 91.5352 122.469 91.5261 122.848C91.89 123.324 92.2256 123.709 92.5328 124.037H94.0783ZM94.4139 120.072C94.1492 119.677 93.6955 118.95 93.1945 118.009C93.0404 118.432 92.8637 118.846 92.6651 119.25C92.9615 119.962 93.3423 120.635 93.7994 121.256L94.2248 121.631C94.291 121.142 94.3477 120.595 94.4281 120.072H94.4139Z" fill="#FB9E1B"/>
<path opacity="0.4" d="M101.423 106.011C101.22 107.37 100.005 108.492 98.4738 109.847C97.5578 110.75 96.8552 111.848 96.4179 113.06C96.0965 114.263 95.7703 115.513 95.4726 116.754C95.8673 115.554 96.4601 114.429 97.2261 113.426C98.8945 111.235 100.861 109.624 100.837 110.574C100.813 111.525 99.2442 112.671 97.7223 114.42C96.7995 115.482 95.9634 116.617 95.2221 117.814C95.1937 117.938 95.1654 118.061 95.1323 118.185C95.8923 116.956 96.8508 115.864 97.9681 114.952C98.3415 114.61 98.9134 113.883 99.386 113.726C100.459 113.379 99.9957 114.776 99.646 115.152C98.4927 116.416 96.881 117.196 95.8176 118.522C95.4079 119.049 95.0397 119.607 94.7164 120.191C94.6455 120.633 94.5887 121.037 94.5462 121.417C94.948 121.013 95.7703 120.357 95.8271 120.319C97.1268 119.44 97.8783 118.237 98.8756 117.077C99.1932 116.661 99.6529 116.378 100.166 116.283C100.832 116.25 101.05 116.973 100.861 117.534C100.081 119.872 97.1221 119.972 95.3781 121.184C95.061 121.388 94.7677 121.628 94.5037 121.897C94.4313 122.618 94.4108 123.342 94.4422 124.065H98.4029V125.738H97.2213L96.2761 131.69H88.2838L87.3385 125.738H86.1144V124.065H92.1121C91.838 123.732 91.5592 123.371 91.2519 122.986L89.99 123.029C89.99 123.029 85.6086 123.219 84.0017 122.349C82.3947 121.479 83.8268 120.642 85.3629 121.085C86.899 121.527 89.9238 122.905 90.595 122.886H91.1574C90.8549 122.482 90.5477 122.054 90.2452 121.622C89.0391 121.318 87.8536 120.937 86.6957 120.481C85.4338 120.005 83.9781 119.573 82.891 118.732C82.683 118.592 82.5255 118.389 82.442 118.152C82.4398 118.128 82.4398 118.104 82.442 118.08C82.4284 118.001 82.4307 117.919 82.4486 117.84C82.4664 117.762 82.4996 117.687 82.5461 117.621C82.5927 117.556 82.6517 117.5 82.7198 117.457C82.7879 117.414 82.8638 117.385 82.943 117.372C84.0915 117.063 85.2069 117.847 86.0246 118.556C86.7364 119.158 87.4933 119.705 88.2885 120.191C88.9975 120.633 89.6355 121.047 90.0656 121.327C89.7489 120.852 89.4512 120.376 89.2054 119.901C88.9596 119.426 88.7989 119.107 88.5957 118.727C87.6539 117.56 86.4232 116.663 85.0273 116.127C82.3805 115.109 80.9154 114.848 81.5014 114.225C82.0875 113.602 83.9213 113.721 85.4858 115.143C86.4541 115.986 87.3505 116.91 88.1656 117.904C87.693 116.996 87.2676 116.131 86.8281 115.247C86.2781 114.337 85.5051 113.584 84.583 113.06C82.9808 112.205 79.5825 111.159 80.4238 110.684C81.2651 110.208 83.288 110.779 84.6776 112.086C85.3731 112.792 85.9679 113.592 86.4452 114.463C86.138 113.84 85.8308 113.198 85.4999 112.509C85.3629 112.205 85.2116 111.896 85.0604 111.592C85.023 111.545 84.9898 111.496 84.9611 111.444C84.3868 110.639 83.5798 110.032 82.6499 109.704C80.9295 109.143 78.8074 109.272 79.2611 108.34C79.7149 107.408 82.546 108.297 83.4865 109.191C83.8357 109.537 84.1435 109.923 84.4034 110.341L84.2853 110.037C83.9355 109.348 83.5763 108.678 83.2691 108.079C82.6484 107.35 81.8621 106.782 80.9768 106.424C79.0012 105.569 76.6475 104.656 77.8669 104.318C78.8405 104.048 81.3691 105.331 82.7587 107.114L82.39 106.424C81.6196 105.374 79.7432 102.959 78.2213 101.918C77.1557 101.299 76.1268 100.618 75.1397 99.8786C75.0331 99.8002 74.9484 99.6954 74.894 99.5744C74.6009 98.8185 76.3119 99.2226 76.586 99.2891C77.6825 99.5746 78.6697 100.182 79.4218 101.034C80.0815 101.74 80.6543 102.524 81.1281 103.368C81.44 103.9 81.7188 104.452 81.9788 105.013C82.1442 105.364 82.2718 105.821 82.4514 106.239C82.631 106.657 82.9241 106.995 83.0942 107.347C82.4089 104.875 80.2111 100.321 80.1733 99.0277C80.1308 97.6016 81.4731 99.7217 82.2293 102.579C82.6455 104.204 82.9612 105.853 83.1746 107.518C83.2549 107.665 83.3211 107.803 83.3825 107.936C83.5196 108.226 83.7606 108.716 84.0679 109.362C83.4014 107.261 83.1226 104.765 83.548 104.456C84.1435 104.014 84.3609 105.108 84.3609 107.128C84.4185 108.57 84.6567 110 85.0698 111.382C85.448 112.138 85.8639 112.965 86.3129 113.831C85.868 112.079 85.5334 110.301 85.3109 108.506C84.947 106.13 85.1077 105.379 85.8592 106.529C86.6106 107.679 86.4925 109.329 86.3318 111.354C86.2686 112.65 86.5031 113.943 87.0171 115.133C87.6032 116.231 88.2129 117.372 88.8226 118.489C88.2985 117.343 87.9664 116.117 87.8395 114.862C87.5748 112.114 87.9151 109.59 88.5532 110.308C89.1912 111.026 88.8179 112.932 88.884 115.261C88.935 116.661 89.093 118.055 89.3567 119.43L89.5457 119.768C89.3005 118.591 89.2383 117.384 89.3614 116.188C89.2385 115.713 89.281 115.432 89.4323 115.29C89.4323 114.772 89.4087 113.997 89.6308 113.598C90.1838 112.609 90.7935 113.945 90.7935 114.467C90.7926 114.873 90.7658 115.278 90.7131 115.68C90.9287 115.877 91.1135 116.107 91.2614 116.359C91.3465 116.502 91.4363 116.659 91.5261 116.835C91.5142 116.667 91.5142 116.499 91.5261 116.331C91.4978 115.883 91.5926 115.435 91.8002 115.038C91.4649 114.371 91.2231 113.661 91.0818 112.927C91.0254 112.682 91.0486 112.426 91.148 112.195L91.181 112.133C91.2707 111.998 91.4097 111.904 91.5681 111.871C91.7265 111.838 91.8914 111.869 92.0271 111.958C93.0763 112.519 93.3599 113.859 93.4781 114.938C93.5903 115.871 93.772 116.794 94.0216 117.7C94.2437 118.522 94.4233 119.245 94.5509 119.749C94.6407 119.183 94.7494 118.632 94.8818 118.128C95.0141 117.624 95.1134 117.258 95.2268 116.84C95.3197 115.346 95.0249 113.854 94.3713 112.509C93.1283 109.942 92.2303 108.739 93.0905 108.706C93.9507 108.673 95.1985 109.999 95.3781 112.114C95.5103 113.398 95.5388 114.691 95.4631 115.979C95.7325 114.99 96.0019 114.078 96.2855 113.127C96.499 112.083 96.4454 111.002 96.1295 109.985C95.5387 108.24 93.7664 105.141 94.7116 105.388C95.6569 105.635 96.7392 107.423 96.8621 109.324C96.8958 110.32 96.786 111.316 96.536 112.281C96.7392 111.615 96.9519 110.931 97.1788 110.208C97.2875 109.899 97.382 109.571 97.486 109.234L97.5144 109.063C97.64 108.082 97.4635 107.087 97.0087 106.21C96.1295 104.618 94.4848 103.244 95.4537 102.883C96.4226 102.522 97.883 105.112 97.9681 106.405C97.9902 106.896 97.9553 107.387 97.8641 107.869C97.9019 107.765 97.9397 107.665 97.9823 107.56C98.195 106.819 98.3982 106.087 98.5683 105.436C98.612 104.475 98.4205 103.519 98.0106 102.65C97.1504 100.668 96.0587 98.3717 97.1741 98.9754C98.0768 99.4508 99.0646 102.113 98.8519 104.376L99.0552 103.62C99.1922 102.322 99.4711 99.2749 99.0552 97.4638C98.7763 96.2468 98.3273 95.0869 98.1855 93.8605C98.1601 93.7322 98.1683 93.5996 98.2092 93.4754C98.5069 92.7196 99.4805 94.1837 99.6271 94.4262C100.228 95.3874 100.535 96.5046 100.511 97.6396C100.511 98.6081 100.398 99.5733 100.175 100.516C100.038 101.119 99.8681 101.713 99.679 102.298C99.5514 102.688 99.334 103.106 99.1686 103.525C99.0835 103.952 98.989 104.385 98.8898 104.78C100.067 102.512 101.546 97.6491 102.397 96.6984C103.314 95.6383 102.869 98.096 101.485 100.701C100.692 102.181 99.8078 103.61 98.8378 104.979C98.7952 105.141 98.748 105.293 98.7054 105.431C98.6062 105.735 98.4455 106.253 98.2328 106.933C99.1781 104.941 100.667 102.935 101.177 102.992C101.919 103.073 101.333 104.024 99.9579 105.502C99.0249 106.597 98.231 107.804 97.5947 109.096C97.3631 109.895 97.1221 110.788 96.848 111.734C97.7142 110.148 98.6771 108.618 99.731 107.152C101.017 105.084 101.617 104.651 101.423 106.011ZM91.2189 122.463C91.2189 121.888 91.3937 120.847 91.4032 120.776C91.5114 120.308 91.57 119.83 91.5781 119.349C91.1222 118.89 90.6915 118.406 90.2878 117.9C90.206 118.444 90.1807 118.995 90.2121 119.544C90.2626 120.186 90.3653 120.822 90.5194 121.446C90.7604 121.812 90.992 122.154 91.2189 122.458V122.463ZM94.0783 124.037C94.0783 123.4 94.1445 122.61 94.2248 121.783L93.2795 120.942C93.2795 120.942 92.8684 120.59 92.3059 120.048C92.0368 120.583 91.8275 121.145 91.682 121.726C91.5875 122.093 91.5352 122.469 91.5261 122.848C91.89 123.324 92.2256 123.709 92.5328 124.037H94.0783ZM94.4139 120.072C94.1492 119.677 93.6955 118.95 93.1945 118.009C93.0404 118.432 92.8637 118.846 92.6651 119.25C92.9615 119.962 93.3423 120.635 93.7994 121.256L94.2248 121.631C94.291 121.142 94.3477 120.595 94.4281 120.072H94.4139Z" fill="white"/>
<path d="M143.223 132.498L142.982 133.249V132.498H143.223Z" fill="#263238"/>
</g>
<defs>
<clipPath id="clip0_8_490">
<rect width="190" height="156" fill="white"/>
</clipPath>
</defs>
</svg>
