<svg width="52" height="53" viewBox="0 0 52 53" fill="none" xmlns="http://www.w3.org/2000/svg">
<path d="M45.2982 6.59689H29.3467V0.0012207H41.4333C43.804 0.101463 45.6233 2.64139 45.4364 4.81285C45.4025 5.21924 45.4364 5.62563 45.4364 6.02524C45.4323 6.22302 45.4513 6.43027 45.2982 6.59689Z" fill="#FE4155"/>
<path d="M6.69896 33.825C5.62469 33.7667 4.53146 33.9605 3.47751 33.6746C1.81801 33.2344 0.727479 32.1845 0.193729 30.5495C0.149024 30.414 0.162564 30.242 0 30.1621V3.75638C0.256038 2.0509 1.2382 0.926561 2.78391 0.234348C3.13342 0.077211 3.51272 0.127335 3.85817 0H29.3508C29.4688 0.146999 29.5255 0.333776 29.5093 0.521532C29.5093 2.39769 29.5188 4.2752 29.5093 6.15271C29.5114 6.27123 29.4921 6.38916 29.4524 6.50085C29.4273 6.56171 29.3867 6.61494 29.3346 6.65527C29.0487 6.80157 28.7385 6.75551 28.4364 6.75551C22.7675 6.75551 17.0976 6.75551 11.4269 6.75551C9.48153 6.75551 7.91415 7.79045 7.19752 9.52843C6.96587 10.1122 6.85167 10.736 6.86152 11.3639C6.86152 13.2767 6.87236 15.1894 6.86152 17.1021C6.8981 18.3348 6.87508 19.5662 6.87644 20.7989C6.87644 24.8511 6.87644 28.9023 6.87644 32.9526C6.8656 33.252 6.93333 33.5703 6.69896 33.825Z" fill="#E70054"/>
<path d="M38.6956 51.9986C37.7704 51.5922 36.799 51.3294 35.8914 50.8742C31.5252 48.6824 28.576 45.2647 27.0154 40.6441C26.9883 40.5655 26.9477 40.491 26.9138 40.4152C26.5982 40.0521 26.5589 39.5861 26.4573 39.1499C26.0658 37.4499 26.0062 35.7227 26.0509 33.9861C26.0319 32.9959 26.0292 32.0043 26.0509 31.0141C26.0387 29.696 26.036 28.378 26.0509 27.0599C26.0631 25.9586 26.7648 25.2664 27.8675 25.2379C28.3241 25.2257 28.7806 25.2542 29.2317 25.1688C32.4112 24.9304 35.229 23.7668 37.7338 21.8175C37.9906 21.5967 38.2822 21.42 38.5967 21.2946C38.8257 21.2133 39.0641 21.1592 39.2036 21.4504C39.2608 21.6976 39.2805 21.9519 39.2619 22.2049C39.2619 26.8323 39.2619 31.4597 39.2619 36.0871C39.2749 36.3232 39.2612 36.5599 39.2213 36.7929C39.2076 36.8479 39.1837 36.8998 39.1508 36.946C38.9002 37.0814 38.7823 36.866 38.6496 36.7387C38.0792 36.1874 37.5387 35.6076 36.9603 35.0657C36.3615 34.5049 35.7885 34.4182 35.1626 34.7582C34.8616 34.9184 34.6339 35.1883 34.5266 35.5119C34.4194 35.8356 34.441 36.1881 34.5868 36.4962C34.6987 36.7425 34.8543 36.9665 35.0461 37.1573C36.0011 38.1055 36.963 39.0538 37.9045 40.0223C38.2621 40.3894 38.7539 40.4883 39.1603 40.7525C39.1911 40.8042 39.2135 40.8604 39.2267 40.9191C39.2573 41.1034 39.2691 41.2904 39.2619 41.4772C39.2619 44.7283 39.2619 47.9794 39.2619 51.2305C39.2619 51.5014 39.2971 51.7723 39.0993 52.0053L38.6956 51.9986Z" fill="#ABE133"/>
<path d="M39.1074 36.9528L39.0993 21.3448C39.564 21.0603 39.9121 21.3664 40.2278 21.6157C41.2017 22.3992 42.2594 23.0725 43.3815 23.6232C45.1768 24.4989 47.1235 25.0218 49.1159 25.1635C49.6036 25.1946 50.09 25.2407 50.579 25.2664C51.381 25.3098 51.7983 25.6972 52.0001 26.5059V37.1709C51.9169 38.5017 51.6431 39.8137 51.1873 41.0668C49.2763 46.2432 45.7405 49.8104 40.58 51.7683C40.2291 51.9038 39.8552 51.9038 39.4963 52.0054H39.0898V40.743C40.114 40.4003 40.7344 39.5509 41.4578 38.8357C43.0334 37.2806 44.5926 35.7079 46.1573 34.1419C46.3353 33.9855 46.4883 33.8027 46.6111 33.6001C46.9308 32.9878 46.7859 32.2062 46.2752 31.8038C45.9969 31.5904 45.6508 31.4848 45.3007 31.5064C44.9507 31.5281 44.6203 31.6756 44.3704 31.9217C43.3856 32.8699 42.4292 33.8534 41.4606 34.8206C40.8388 35.441 40.2224 36.0668 39.5938 36.6818C39.4705 36.8132 39.3553 37.0232 39.1074 36.9528Z" fill="#65CB3A"/>
<path d="M52 10.3574V17.06C51.8049 17.2348 51.5624 17.224 51.3226 17.224C44.2096 17.224 37.0961 17.224 29.9821 17.224C29.796 17.2359 29.6092 17.2119 29.4321 17.1535C29.3694 17.1235 29.3164 17.0766 29.279 17.0181C29.1693 16.7986 29.1842 16.5588 29.1842 16.3245C29.1842 13.3443 29.1842 10.3605 29.1842 7.37313C29.1842 7.1022 29.1476 6.83127 29.3522 6.60369L29.3427 6.59151C29.5242 6.43572 29.7491 6.43437 29.9658 6.43437C35.0283 6.43437 40.0909 6.42082 45.152 6.43437C45.9445 6.47094 46.7384 6.43437 47.5322 6.45333C49.3868 6.50752 50.7157 7.41647 51.6288 8.99732C51.8767 9.42674 51.8916 9.90356 52 10.3574Z" fill="#6BA6FE"/>
<path d="M29.3589 17.0682L51.9999 17.0601V26.5032C51.6612 25.6904 51.0598 25.3869 50.1751 25.368C46.4511 25.2881 43.109 24.1055 40.1991 21.7538C39.8781 21.4938 39.5408 21.2784 39.0991 21.3475C38.6182 21.3082 38.266 21.5696 37.9192 21.8473C35.6008 23.7131 32.8099 24.8987 29.8574 25.2718C29.6894 25.2867 29.5207 25.2922 29.3521 25.2881C29.176 25.0943 29.1882 24.8519 29.1882 24.6107C29.1882 22.316 29.1882 20.0217 29.1882 17.7279C29.1949 17.5003 29.1624 17.2538 29.3589 17.0682Z" fill="#5E69E1"/>
<path d="M29.359 17.0682C29.359 19.8073 29.3568 22.5463 29.3522 25.2854C28.8402 25.4208 28.3145 25.3734 27.7943 25.3883C26.846 25.4141 26.2134 26.0385 26.2053 26.9827C26.1917 28.3143 26.1917 29.6446 26.1863 30.9748C25.9371 31.1848 25.6377 31.1008 25.3572 31.1103C25.0362 31.1252 24.7138 31.0927 24.3941 31.1265C23.6652 31.2051 23.0881 31.8336 23.1017 32.5204C23.122 32.8614 23.2633 33.1839 23.5002 33.43C23.7371 33.6761 24.0541 33.8296 24.3941 33.8629C24.8005 33.9035 25.2069 33.8629 25.6133 33.8791C25.8151 33.8791 26.0197 33.8615 26.189 34.0146C26.1958 35.7322 26.2121 37.4499 26.6144 39.1351C26.7146 39.5586 26.8153 39.9831 26.9165 40.4084C21.6752 40.4084 16.4352 40.4247 11.202 40.4084C8.74325 40.4003 6.7478 38.3656 6.71393 35.9002C6.70445 35.2066 6.71393 34.5144 6.71393 33.8209V17.7577C6.71393 17.522 6.71394 17.285 6.72342 17.0493C6.90224 16.884 7.12981 16.8962 7.34521 16.8948C9.06116 16.8894 10.7771 16.8894 12.4931 16.8948C12.6955 16.8752 12.8994 16.9118 13.0824 17.0005C13.2937 17.1996 13.2558 17.4651 13.2585 17.7144C13.268 18.4919 13.2585 19.2695 13.2585 20.047C13.2734 21.1307 13.8004 21.6726 14.8841 21.6726C18.5011 21.6807 22.1186 21.6807 25.7366 21.6726C26.8203 21.6726 27.3459 21.1307 27.3622 20.0389C27.3717 19.2614 27.3622 18.4838 27.3622 17.7062C27.3622 17.4719 27.3405 17.2294 27.4977 17.0289C28.1113 16.8447 28.7169 16.8054 29.3319 17.0533L29.359 17.0682Z" fill="#6BA6FE"/>
<path d="M29.3429 17.052H27.5398C27.3312 16.8704 27.3732 16.6212 27.3705 16.3895C27.361 15.6106 27.3704 14.8317 27.3637 14.0542C27.3501 12.9921 26.8218 12.4449 25.7705 12.4422C22.1318 12.4313 18.4927 12.4313 14.853 12.4422C13.8004 12.4422 13.2735 12.9921 13.26 14.0542C13.2505 14.8317 13.26 15.6106 13.26 16.3895C13.26 16.6212 13.2979 16.8704 13.0906 17.052H6.72355C6.72355 15.02 6.68968 12.9881 6.72355 10.9643C6.76554 8.62483 8.79893 6.61457 11.152 6.60779C17.2238 6.58883 23.2942 6.60779 29.3659 6.60779C29.3551 10.0901 29.3474 13.5715 29.3429 17.052Z" fill="#00E3EE"/>
<path d="M39.1074 36.9527C39.2347 36.8457 39.3702 36.7481 39.488 36.6316C41.0559 35.0657 42.6228 33.4993 44.1888 31.9324C44.896 31.228 45.8578 31.1833 46.4918 31.8159C47.1258 32.4485 47.0784 33.4076 46.3726 34.1188C44.3514 36.1408 42.3284 38.1628 40.3036 40.1848C39.9908 40.5224 39.5577 40.7234 39.0979 40.7443V40.7063C39.0412 40.644 38.9982 40.5704 38.9719 40.4903C38.9455 40.4103 38.9363 40.3255 38.9448 40.2417C38.9313 39.2339 38.9448 38.2274 38.938 37.2195C38.9369 37.135 38.9584 37.0518 39.0003 36.9784L39.1074 36.9527Z" fill="#D5D5F1"/>
<path d="M39.0044 36.9771C39.1494 37.2101 39.0979 37.4688 39.0993 37.7181C39.0993 38.7137 39.0993 39.7094 39.0993 40.7051C38.6414 40.7389 38.277 40.5344 37.9695 40.2296C36.9128 39.1838 35.8575 38.138 34.8171 37.076C34.1749 36.419 34.1628 35.5033 34.7534 34.8896C35.3441 34.276 36.3032 34.2679 36.9751 34.9235C37.647 35.5791 38.3298 36.2917 39.0044 36.9771Z" fill="#F1F1FB"/>
<path d="M26.1864 34.0213C25.6445 34.0213 25.1027 34.0213 24.5676 34.0213C23.641 34.0118 22.9541 33.3616 22.9541 32.4973C22.9541 31.6331 23.6396 30.9842 24.5676 30.9761C25.1094 30.9761 25.6513 30.9761 26.1864 30.9761V34.0213Z" fill="#F1F1FB"/>
<path d="M13.085 17.0587C13.0904 16.0292 13.0958 14.9992 13.1012 13.9688C13.108 12.9162 13.7203 12.2891 14.7621 12.2891C18.4649 12.2891 22.1646 12.2891 25.8611 12.2891C26.9015 12.2891 27.5152 12.9176 27.5219 13.9688C27.5301 14.9983 27.5341 16.0292 27.5396 17.0587C27.545 18.0882 27.5301 19.1191 27.5219 20.1499C27.5138 21.1808 26.9001 21.831 25.8624 21.8324C22.1596 21.8324 18.4595 21.8324 14.7621 21.8324C13.723 21.8324 13.108 21.2011 13.1012 20.1499C13.0944 19.0988 13.0904 18.0896 13.085 17.0587Z" fill="#FEDC40"/>
<path d="M16.3255 34.0213C15.8026 34.0213 15.2784 34.0294 14.7554 34.0213C14.5521 34.0287 14.3493 33.9952 14.1592 33.9229C13.969 33.8505 13.7952 33.7408 13.6482 33.6001C13.5012 33.4594 13.3839 33.2907 13.3033 33.1039C13.2226 32.9171 13.1803 32.716 13.1788 32.5126C13.1772 32.3091 13.2165 32.1074 13.2943 31.9194C13.3721 31.7314 13.4868 31.5609 13.6317 31.418C13.7766 31.2751 13.9486 31.1627 14.1377 31.0875C14.3268 31.0123 14.529 30.9758 14.7324 30.9801C15.8162 30.9666 16.8968 30.9666 17.9742 30.9801C18.3755 30.9805 18.7605 31.1389 19.0458 31.4211C19.3311 31.7033 19.4936 32.0866 19.4982 32.4878C19.4982 33.3372 18.8331 34.005 17.9458 34.0213C17.4093 34.0294 16.8674 34.0213 16.3255 34.0213Z" fill="#F1F1FB"/>
</svg>
