<svg width="52" height="61" viewBox="0 0 52 61" fill="none" xmlns="http://www.w3.org/2000/svg">
<path d="M0.793667 60.0054C0.195466 59.7455 0.0201992 59.2448 0.0259929 58.634C0.053513 56.1952 -0.0826179 53.752 0.0839512 51.319C0.406951 46.6073 2.76498 43.2831 7.06537 41.5314C9.3394 40.6064 11.7438 40.0132 14.0902 39.2703C14.729 39.5757 15.052 40.21 15.4923 40.7107C16.7046 42.0908 17.9011 43.4886 19.0989 44.8835C19.8738 45.788 20.8776 46.0156 21.9813 45.6676C23.2849 45.2565 24.5884 44.8218 25.8631 44.3461C25.9489 44.3263 26.038 44.3263 26.1238 44.3461C27.31 44.7866 28.5151 45.1904 29.7231 45.5765C31.0948 46.017 32.2825 45.6133 33.2211 44.4944C34.0901 43.4578 34.9911 42.4491 35.8688 41.411C36.042 41.1769 36.2609 40.9815 36.5119 40.8369C37.1101 40.809 37.6359 41.0865 38.1645 41.2936C41.7856 42.7149 44.1031 45.3519 45.1344 49.143C45.2155 49.4367 45.3806 49.7817 45.0793 50.0768C44.6332 50.3602 44.5463 50.7904 44.5478 51.2882C44.5565 53.8949 44.5565 56.5016 44.5478 59.1083C44.5478 59.4151 44.5927 59.7367 44.3711 60.001H7.61287C7.38982 59.7367 7.43472 59.4137 7.43472 59.1053C7.43472 56.5662 7.43472 54.027 7.43472 51.4879C7.44943 51.2341 7.43582 50.9794 7.39416 50.7288C7.32464 50.4175 7.15083 50.187 6.81479 50.1635C6.45848 50.1385 6.23542 50.3455 6.12824 50.6744C6.06218 50.94 6.03919 51.2148 6.06016 51.4879C6.06016 54.026 6.06016 56.5652 6.06016 59.1053C6.06016 59.4137 6.10362 59.7367 5.88056 60.001L0.793667 60.0054Z" fill="#FE4155"/>
<path d="M45.1763 49.9227C44.8899 48.4082 44.3067 46.9673 43.4613 45.6852C42.0824 43.6546 40.2603 42.1819 37.9428 41.3758C37.4706 41.2113 36.9941 41.063 36.519 40.9074C36.8115 40.2364 37.2901 39.6661 37.8965 39.2659C40.3212 39.9868 42.7922 40.5991 45.114 41.5975C49.6041 43.5283 51.8217 47.1139 51.9709 52.0135C52.036 54.1778 51.9708 56.3464 51.9882 58.5122C51.9882 59.1391 51.8434 59.6559 51.3075 60.0098H46.1062C45.8831 59.7455 45.928 59.4225 45.928 59.1141C45.928 56.6548 45.9077 54.1939 45.9367 51.7346C45.9454 50.9843 45.8628 50.3353 45.1763 49.9227Z" fill="#E70054"/>
<path d="M5.87891 60.0054C5.87891 57.0424 5.87891 54.0789 5.87891 51.1149C5.87891 50.8212 5.87888 50.5276 6.07007 50.2809C6.32644 49.9608 6.68131 49.8228 7.04776 49.9682C7.2298 50.0349 7.38516 50.1604 7.48986 50.3254C7.59456 50.4905 7.64279 50.6859 7.62713 50.8814C7.61265 53.9223 7.61702 56.9645 7.61412 60.0054H5.87891Z" fill="#CB0053"/>
<path d="M45.1762 49.9226C45.9005 50.0694 46.1047 50.3117 46.1047 51.0708C46.1047 54.0514 46.1047 57.0311 46.1047 60.0097H44.3666C44.3666 56.9836 44.3666 53.9575 44.3564 50.9298C44.3608 50.3469 44.6128 50.0122 45.1762 49.9226Z" fill="#CB0053"/>
<path d="M9.35538 16.9436C9.38 15.0348 9.38725 13.126 9.90434 11.2686C11.2948 6.27647 14.3945 2.85536 19.1337 0.953934C20.2577 0.503171 21.4222 0.178682 22.6433 0.139038C24.1989 0.168404 25.6256 0.70873 26.974 1.40763C31.4323 3.71431 34.1872 7.37181 35.1968 12.3522C35.2909 12.8191 35.4488 13.2978 35.3025 13.7897C34.936 13.9747 34.8911 13.6282 34.7854 13.4402C34.2596 12.5137 34.2669 12.5137 33.4051 13.0952C33.0372 13.3419 32.6808 13.6164 32.3274 13.8748C29.4581 15.7631 26.4265 17.3121 23.1647 18.3766C20.3951 19.2917 17.4803 19.6698 14.5726 19.491C14.0164 19.4558 13.4674 19.3442 12.917 19.2561C11.9924 19.0662 11.0853 18.797 10.2056 18.4515C9.34957 18.1123 9.21923 17.8994 9.35538 16.9436Z" fill="#FC9627"/>
<path d="M12.92 19.1166C13.9255 19.2595 14.9381 19.3453 15.953 19.3735C19.154 19.4132 22.1812 18.6394 25.1404 17.4853C27.678 16.4927 30.0375 15.1566 32.3391 13.703C32.6693 13.7529 32.6287 14.0348 32.6287 14.2433C32.5853 17.3267 32.817 20.4101 32.4969 23.4759C32.2847 25.4839 31.5883 27.4082 30.4691 29.0789C30.3507 29.2561 30.2105 29.4175 30.052 29.559C29.4552 29.9276 28.7484 29.8644 28.1082 30.0289C27.3261 30.2286 26.8133 30.7762 26.7612 31.5074C26.7365 31.8466 26.9379 32.1432 26.9248 32.4794C26.9118 32.8157 26.654 32.9199 26.428 33.0785C25.461 33.7284 24.3987 34.2195 23.2806 34.5336C25.0683 34.9087 26.9129 34.9087 28.7006 34.5336C29.3249 34.4164 29.9362 34.2369 30.5256 33.9976C30.7516 33.9007 30.9949 33.7965 31.2382 33.9712C31.4063 34.2766 31.3831 34.5996 31.3179 34.9241C30.9993 35.9519 31.3802 37.1985 32.2102 37.8313C32.3159 37.9121 32.439 37.9708 32.4926 38.1059C32.5158 38.3085 32.3767 38.4289 32.2579 38.5464C30.8588 39.9927 29.3929 41.3699 27.9127 42.7398C27.4781 43.148 27.0668 43.5914 26.6352 44.0069C26.4715 44.164 26.3455 44.3814 26.0761 44.3828H25.9066C25.685 44.3828 25.5648 44.2242 25.4286 44.0892C24.8377 43.5019 24.2264 42.941 23.6325 42.361C22.2768 41.0395 20.8892 39.746 19.5451 38.4084C19.4553 38.3188 19.3177 38.2395 19.4147 38.0707C20.4417 37.5127 20.7661 36.5804 20.7849 35.4733C20.7983 35.3691 20.7838 35.2632 20.7431 35.1666C20.7023 35.07 20.6367 34.9863 20.5532 34.9241C20.7212 34.1034 20.698 34.0432 19.9999 33.679C16.2688 31.6851 14.0005 28.5562 13.0141 24.4288C12.6361 22.8519 12.7694 21.2485 12.7578 19.6525C12.742 19.4594 12.8 19.2675 12.92 19.1166Z" fill="#FDD8A7"/>
<path d="M35.2358 13.8557C35.1365 12.2425 34.7534 10.6602 34.1045 9.18364C32.922 6.38795 30.9358 4.01839 28.405 2.38402C26.7421 1.28659 24.8704 0.555269 22.9111 0.237386C22.8211 0.21354 22.7338 0.180585 22.6504 0.139014C22.9361 0.0289588 23.2421 -0.0166381 23.547 0.0053991C24.7405 0.0053991 25.9325 0.0053991 27.126 0.0053991C31.2381 0.0259551 34.7303 1.56619 37.6387 4.48073C39.7549 6.60094 41.0483 9.18806 41.6943 12.1158C42.0303 13.6458 41.9463 15.211 41.9724 16.7644C42.0726 16.9078 42.1234 17.0807 42.1172 17.2563C42.1477 17.9552 41.9507 18.1372 41.2771 18.0213C40.5257 17.8833 39.7953 17.6464 39.1045 17.3165C37.6836 16.669 36.409 15.8247 35.4834 14.5267C35.3241 14.3329 35.0909 14.1538 35.2358 13.8557Z" fill="#FE6D3A"/>
<path d="M13.1747 24.5976C13.5875 25.9984 14.067 27.3654 14.826 28.6251C16.1332 30.8068 18.0337 32.5596 20.2995 33.6731C20.863 33.9565 20.9702 34.4968 20.5545 34.9373C18.0593 34.3069 15.5632 33.6775 13.0661 33.0491C10.6719 32.45 9.43201 30.8569 9.42188 28.3506C9.42188 27.0629 9.42188 25.7767 9.42188 24.4904C9.48302 24.4432 9.55342 24.4097 9.62835 24.3922C9.70329 24.3748 9.78103 24.3737 9.8564 24.3891C10.7095 24.4728 11.5641 24.4156 12.4172 24.4346C12.6765 24.4361 12.9473 24.4185 13.1747 24.5976Z" fill="#FC9627"/>
<path d="M19.4162 38.0839C21.4324 40.0347 23.4486 41.9856 25.4648 43.9365C25.6169 44.0833 25.7545 44.2419 25.908 44.3946C25.7704 44.5825 25.5575 44.6177 25.3576 44.6882L22.1363 45.788C20.8212 46.2285 19.6349 45.835 18.7528 44.7426C17.8417 43.6149 16.8698 42.5401 15.9327 41.433L14.0889 39.2703C15.5199 38.8033 16.9495 38.3276 18.3863 37.8754C18.5615 37.8199 18.7476 37.8099 18.9275 37.8463C19.1075 37.8828 19.2755 37.9644 19.4162 38.0839Z" fill="#CB0053"/>
<path d="M26.0774 44.3945L32.1014 38.539C32.2376 38.4054 32.3592 38.2556 32.4867 38.1132C32.9458 37.7711 33.4238 37.7843 33.9496 37.9664C35.2532 38.4215 36.6046 38.7534 37.8966 39.2614L36.5191 40.9029C35.385 42.2244 34.2842 43.5737 33.1066 44.8512C32.252 45.7791 31.144 46.1535 29.9085 45.7908C28.7106 45.4385 27.5374 44.9994 26.3555 44.5913C26.2541 44.5393 26.1605 44.473 26.0774 44.3945Z" fill="#CB0053"/>
<path d="M39.0785 17.1564C39.8175 17.4648 40.5818 17.7065 41.3627 17.8788C41.8247 17.9831 42.0087 17.9023 41.942 17.4016C41.9317 17.1892 41.9365 16.9762 41.9565 16.7644C42.9878 16.9112 43.5498 17.522 43.5585 18.5484C43.5701 19.9697 43.5701 21.389 43.5585 22.8064C43.5512 23.7373 43.0761 24.3202 42.2201 24.5037C41.1021 24.7542 39.9448 24.7657 38.8221 24.5375C38.7674 24.4689 38.7294 24.3883 38.711 24.3021C38.6927 24.2159 38.6945 24.1266 38.7164 24.0412C39.0061 22.0414 38.8062 20.0313 38.8612 18.0213C38.883 17.7305 38.8134 17.4016 39.0785 17.1564Z" fill="#41416B"/>
<path d="M13.1747 24.5977C11.9232 24.5595 10.666 24.7195 9.42035 24.4861C8.65703 24.0368 8.38038 23.3614 8.40645 22.4774C8.44556 21.1721 8.41661 19.8654 8.41805 18.5586C8.41805 17.8362 8.70773 17.2783 9.35518 16.9435C9.35518 16.9611 9.38124 16.9802 9.37834 16.9949C9.21757 17.9816 9.91427 18.1871 10.6124 18.4411C11.3685 18.7172 12.1506 18.8904 12.9197 19.1165C12.9168 20.9475 12.856 22.7814 13.1747 24.5977Z" fill="#41416B"/>
<path d="M31.3119 34.9314C31.1178 34.6378 31.2612 34.303 31.212 33.9917C31.2226 33.9142 31.2535 33.841 31.3013 33.7795C31.3492 33.7181 31.4124 33.6707 31.4843 33.6423C32.8052 33.008 33.9625 32.1299 35.0778 31.1858C35.7426 30.9759 36.4379 30.9274 37.1157 30.7879C39.623 30.2769 41.0178 28.6031 41.0902 26.0013C41.0902 25.7678 41.0902 25.5344 41.0902 25.2995C41.1047 24.5286 41.1641 24.4816 41.939 24.6226C41.939 25.9294 41.939 27.2376 41.939 28.5458C41.939 30.785 40.6716 32.4676 38.541 33.0373C36.1366 33.679 33.7235 34.3015 31.3119 34.9314Z" fill="#FE6D3A"/>
<path d="M41.9433 24.6226C41.3524 24.4846 41.1916 24.7269 41.2191 25.3186C41.2886 26.5138 41.1626 27.681 40.5137 28.7382C39.6171 30.1962 38.2411 30.8041 36.6421 31.0434C36.0931 31.1256 35.5485 31.2328 35.001 31.3283C34.3362 31.6439 33.6496 31.8275 32.908 31.6821C32.7521 31.086 32.6317 30.481 32.5474 29.8703C32.7357 29.6779 32.9819 29.6485 33.231 29.6089C34.4607 29.4077 35.6847 29.189 36.9086 28.9614C38.4454 28.6428 39.2376 27.6766 39.242 26.1041C39.242 25.8501 39.2275 25.5961 39.242 25.3435C39.2631 25.198 39.2334 25.0495 39.1581 24.9238C39.0827 24.798 38.9664 24.7029 38.8292 24.6549C38.8179 24.6453 38.8089 24.6332 38.8027 24.6197C38.7964 24.6061 38.7932 24.5913 38.7932 24.5764C38.7932 24.5614 38.7964 24.5466 38.8027 24.533C38.8089 24.5195 38.8179 24.5075 38.8292 24.4978L42.2069 24.511L41.9433 24.6226Z" fill="#28284C"/>
<path d="M14.8028 50.3867C15.8616 50.3867 16.9204 50.3867 17.9792 50.3867C18.6498 50.3867 18.8251 50.5732 18.8294 51.2676C18.8352 52.1261 18.8352 52.9851 18.8294 53.8445C18.8294 54.517 18.6237 54.7357 17.9821 54.7372C15.8828 54.7372 13.7841 54.7372 11.6858 54.7372C10.9891 54.7372 10.7573 54.5082 10.7443 53.7828C10.7284 52.9444 10.7313 52.1046 10.7443 51.2647C10.753 50.6187 10.9876 50.3955 11.6249 50.3926C12.6837 50.3823 13.744 50.3867 14.8028 50.3867Z" fill="#FEDC40"/>
<path d="M36.9636 29.1068L32.559 29.91C31.7927 29.5693 31.0048 29.421 30.1734 29.6281C30.126 29.6375 30.0768 29.6327 30.032 29.6142C29.9872 29.5956 29.9488 29.5642 29.9214 29.5238C31.3209 27.6766 32.1635 25.4584 32.3475 23.1368C32.614 20.1591 32.3997 17.1726 32.4634 14.1905C32.4634 14.0187 32.5039 13.8322 32.3388 13.703C32.8805 13.3066 33.428 12.919 33.961 12.5108C34.2333 12.3023 34.3956 12.2847 34.5549 12.6503C34.736 13.0731 34.888 13.521 35.2284 13.8557C35.9323 15.2697 37.165 16.0993 38.457 16.8643C38.6525 16.9802 38.8712 17.0595 39.0783 17.1579C39.0711 18.9125 39.0479 20.6656 39.0609 22.4202C39.0609 23.125 38.8683 23.8019 38.8466 24.4993C38.8313 24.5302 38.8258 24.565 38.8307 24.5992C38.8717 24.6656 38.8872 24.7451 38.8741 24.8224C38.4946 26.367 38.0065 27.8646 36.9636 29.1068Z" fill="#F3C791"/>
<path d="M29.9215 29.5237C30.2227 29.4841 30.5284 29.4679 30.8224 29.3989C31.5017 29.2389 32.0521 29.4885 32.5605 29.9099C32.94 30.437 33.0066 31.0302 32.9125 31.6557C32.8386 32.3898 32.3244 32.754 31.7161 32.9052C30.6586 33.1914 29.5774 33.3782 28.4861 33.4632C27.617 33.5145 27.0377 33.1489 26.8059 32.4633C26.1947 30.9641 27.1217 29.9334 28.46 29.788C28.9496 29.7352 29.4334 29.6133 29.9215 29.5237Z" fill="#D3145A"/>
<path d="M26.8046 32.4632C27.3376 33.2473 28.0835 33.4426 28.9671 33.2796C29.7 33.1431 30.4314 32.9933 31.1687 32.8949C31.974 32.7863 32.565 32.406 32.9068 31.6557L35.0027 31.3282C34.1452 32.2621 33.098 32.9316 32.0001 33.5307C31.7321 33.6775 31.4714 33.8375 31.2078 33.9917C30.443 34.0974 29.7594 34.4777 29.0062 34.6422C27.0427 35.0843 25.0076 35.0868 23.043 34.6495C23.0126 34.6422 22.9909 34.5967 22.917 34.5174C23.2719 34.3896 23.5992 34.2604 23.9309 34.1576C24.9013 33.864 25.7371 33.3031 26.6018 32.798C26.6621 32.7658 26.7129 32.7177 26.7485 32.6588C26.7842 32.5999 26.8036 32.5324 26.8046 32.4632Z" fill="#F3C791"/>
<path d="M36.9639 29.1068C37.4679 28.0526 38.1226 27.0659 38.4253 25.9192C38.5441 25.4787 38.6948 25.0382 38.8309 24.5977C39.2973 24.5287 39.4841 24.7049 39.4334 25.2041C39.3784 25.7459 39.4566 26.3053 39.3668 26.8369C39.1597 28.0453 38.2153 28.9057 36.9639 29.1068Z" fill="#FE6D3A"/>
</svg>
