<svg xmlns="http://www.w3.org/2000/svg" viewBox="0 0 433.77 496.99"><defs><style>.cls-1{fill:#fff;}</style></defs><g id="Layer_2" data-name="Layer 2"><g id="Layer_1-2" data-name="Layer 1"><path class="cls-1" d="M256.72,462c-10.42,10.81-21.27,21.46-30.84,30.87l-.66.65a20,20,0,0,1-3.77,2.61l-.53.32-.71.43L220,497h-6.3l-1-.61a32,32,0,0,1-3-1.87,11.42,11.42,0,0,1-4.7-8,12.34,12.34,0,0,1,3.17-9.55,32.44,32.44,0,0,1,3.85-3.51c.69-.57,1.39-1.16,2.07-1.76a2.76,2.76,0,0,0,.71-3.13l-.56-1.32a2.76,2.76,0,0,0-2.36-1.7l-9.91-.69c-93.73-6.2-174.15-74.05-195.57-165C3.23,286.44,2,272.38.84,258.77l-.77-8.53a12.71,12.71,0,0,1,3-9.88,11.79,11.79,0,0,1,8.8-3.77c7.07,0,11.67,5.16,12,13.45,2.9,76.24,38.25,133.46,105.09,170.08,23.49,12.86,49.69,19.82,80.12,21.26.55,0,1.09,0,1.62,0h.71a2.73,2.73,0,0,0,2.22-1.13l1.12-1.52a2.76,2.76,0,0,0-.49-3.81c-.67-.53-1.35-1-2.05-1.53a26.09,26.09,0,0,1-3.65-3c-4.76-5.09-4.8-12.19-.12-16.89a11.81,11.81,0,0,1,8.37-3.48,12.16,12.16,0,0,1,8.51,3.52c10.5,10.23,21,20.71,31.19,31.16C261.8,450.18,261.89,456.62,256.72,462Z"/><path class="cls-1" d="M433.76,246.89v.05a13.77,13.77,0,0,1-3.44,10,11.42,11.42,0,0,1-8.25,3.53h-.24c-7,0-11.69-5.17-11.93-13.19-1.8-65.13-29.1-117.54-81.14-155.75C298.23,69.11,262.53,57,222.65,55.63h-.34a2.76,2.76,0,0,0-2,1.06l-1.44,1.86a2.74,2.74,0,0,0,.56,3.93c.68.5,1.41,1,2.12,1.45a21.06,21.06,0,0,1,3.72,2.84c4.73,5.07,4.7,12.16-.08,16.85a11.8,11.8,0,0,1-16.55.08c-10.45-10.14-20.87-20.56-31.85-31.85-4.59-4.72-4.73-11.49-.31-16.1C186.73,25,197.66,14.09,209,3.2a11.5,11.5,0,0,1,16.17.24c4.72,4.52,4.94,11.49.53,16.55a27.51,27.51,0,0,1-4,3.42c-.7.53-1.41,1.08-2.1,1.65a2.75,2.75,0,0,0-.78,3.19l.63,1.5a2.76,2.76,0,0,0,2.29,1.67c.53,0,1,.1,1.59.17l.41,0c1,.09,2,.19,3,.24,48.38,2.48,91.34,19.06,127.7,49.28,44.2,36.74,70.29,84.21,77.53,141.08C433.11,230.85,433.49,239.48,433.76,246.89Z"/><path class="cls-1" d="M186.91,211.57c2,0,4,0,6,0,.68,0,.89.23,1.08.81a55.88,55.88,0,0,0,2,5.71c3.6,8,9.44,13.67,17.87,16.51l.93.29A37.3,37.3,0,0,0,230,236.33c1.39-.15,2.79-.38,4.18-.67a39.34,39.34,0,0,0,8.62-2.81c1.66-.77,2.27-2,1.62-3.65-.85-2.19-1.82-4.34-2.79-6.5a2.36,2.36,0,0,0-2.69-1.46,8.46,8.46,0,0,0-1.22.23c-1.91.46-3.8,1-5.71,1.4-.55.13-1.1.24-1.65.35a25.52,25.52,0,0,1-11.6-.18,18.26,18.26,0,0,1-2.1-.67c-5.07-1.89-7.84-5.82-9.59-10.8h.82c3.66,0,7.31,0,11,0h3.24a2.22,2.22,0,0,0,2.45-2.43c0-1.34,0-2.67,0-4,0-2-.77-2.75-2.76-2.75H206.46c-.27,0-.54,0-.78,0v-3.88h16.39a2.24,2.24,0,0,0,2.51-2.5v-4c0-1.86-.81-2.67-2.69-2.67h-14c0-.1,0-.16,0-.19a15.72,15.72,0,0,1,7-8.13,8.65,8.65,0,0,1,1.06-.51,23.38,23.38,0,0,1,13.72-1.31l.32.07c2.75.51,5.47,1.26,8.2,1.9,2,.48,3,0,3.84-1.88.74-1.67,1.44-3.33,2.15-5,1.06-2.55.55-3.83-2-5-.09,0-.16-.09-.25-.12a44.42,44.42,0,0,0-9.39-2.63c-1.37-.21-2.77-.36-4.15-.55h-4.69a2.46,2.46,0,0,1-.45.11c-1.53.2-3.07.32-4.57.6-.79.14-1.57.31-2.32.51a29.59,29.59,0,0,0-17.44,12,34.34,34.34,0,0,0-4.54,9.47.78.78,0,0,1-.9.67q-3.34,0-6.69,0a2.17,2.17,0,0,0-2.35,2.24c0,1.57,0,3.13,0,4.69a2.17,2.17,0,0,0,2.29,2.24c.94,0,1.88,0,2.82,0h3v3.91h-5.61a2.23,2.23,0,0,0-2.46,2.5c0,1.39,0,2.8,0,4.2A2.24,2.24,0,0,0,186.91,211.57Z"/><path class="cls-1" d="M303.14,294.64c-1.07-2.39-3.43-5.23-8.62-5.23h-.12q-7.65,0-15.34,0H273.8V253.88a77.63,77.63,0,1,0-113.83,0q0,7.28,0,14.55v21h-21.2A8.72,8.72,0,0,0,132.12,304c.28.32.56.62.84.92l16.53,17.8q29.7,32,59.42,63.93a27.54,27.54,0,0,0,3.27,2.86l1.25,1,.85.7h5.1l.81-.6.89-.6a14.27,14.27,0,0,0,2.62-2.1q29-31.2,58-62.43l19.33-20.82a9.39,9.39,0,0,0,2.87-6.47A8.57,8.57,0,0,0,303.14,294.64ZM160,217.94a59.35,59.35,0,1,1,113.83,0,58.1,58.1,0,0,1-3.06,8.15,56.59,56.59,0,0,1-3.07,5.76,57.81,57.81,0,0,1-5.12,7.19c-1,1.18-2,2.32-3.07,3.42s-2,2-3.07,2.95a59.28,59.28,0,0,1-79,0c-1-1-2.09-1.93-3.07-3s-2.08-2.23-3.07-3.41a60.26,60.26,0,0,1-5.11-7.15A61,61,0,0,1,163,226.1,56.79,56.79,0,0,1,160,217.94Zm56.93,151.78c-19.45-21-38.82-41.81-58.42-62.91h9.1c6.31,0,9.79-3.51,9.79-9.83V268A76.75,76.75,0,0,0,217,278.75a77.65,77.65,0,0,0,39.41-10.84V296.5c0,.51,0,1,0,1.54a8.71,8.71,0,0,0,9,8.76c3.24,0,6.49,0,9.85,0Z"/></g></g></svg>