<svg width="16" height="16" viewBox="0 0 16 16" fill="none" xmlns="http://www.w3.org/2000/svg">
<path d="M13.9069 16.0007H2.09431C2.07095 15.9897 2.04657 15.9811 2.02152 15.9749C0.816856 15.7722 0.00278454 14.8336 0.0016104 13.6255C-0.00152063 9.87669 -8.61479e-05 6.128 0.00591499 2.37944C0.00659112 2.11442 0.0489858 1.85116 0.131546 1.59932C0.46187 0.609496 1.33895 0.00386331 2.40937 0.00347208C5.94509 0.00347208 9.48054 0.00347208 13.0157 0.00347208C13.2553 0.00347208 13.4956 -0.00669942 13.7343 0.00777629C14.6513 0.0625492 15.3358 0.495256 15.7495 1.31607C15.8708 1.55707 15.9182 1.83563 16 2.09854V13.9072C15.9894 13.9463 15.9761 13.9854 15.9687 14.0246C15.8251 14.8184 15.3969 15.4068 14.6713 15.7577C14.4337 15.8739 14.1629 15.9221 13.9069 16.0007ZM7.03194 8.97058H7.21941C7.84953 8.97058 8.48005 8.98545 9.10899 8.96198C10.5324 8.90916 11.7062 7.73389 11.7766 6.31371C11.8549 4.69595 10.6025 3.36379 8.96732 3.34853C7.86911 3.33836 6.7705 3.3454 5.6719 3.34853C5.34706 3.34853 5.15763 3.53828 5.15724 3.86379C5.15724 6.64313 5.15724 9.42272 5.15724 12.2026C5.15724 12.5351 5.34706 12.7194 5.68443 12.7214C5.95526 12.7214 6.22597 12.7214 6.49654 12.7214C6.84878 12.7214 7.03116 12.5363 7.03155 12.1787C7.03155 11.174 7.03155 10.1699 7.03155 9.1662L7.03194 8.97058Z" fill="#010913"/>
</svg>
