<svg width="167" height="157" viewBox="0 0 167 157" fill="none" xmlns="http://www.w3.org/2000/svg">
<path d="M78.1537 0.42892C124.394 -3.67302 124.468 22.3929 145.314 46.7062C166.159 71.0195 170.634 82.0202 162.765 110.062C154.897 138.105 128.421 160.069 95.6802 147.651C62.9393 135.233 44.1822 147.166 23.5234 136.091C2.86454 125.016 -4.81727 103.686 10.2853 78.5149C25.3879 53.3439 21.0995 5.53769 78.1537 0.42892Z" fill="#FB9E1B"/>
<path opacity="0.7" d="M78.1537 0.42892C124.394 -3.67302 124.468 22.3929 145.314 46.7062C166.159 71.0195 170.634 82.0202 162.765 110.062C154.897 138.105 128.421 160.069 95.6802 147.651C62.9393 135.233 44.1822 147.166 23.5234 136.091C2.86454 125.016 -4.81727 103.686 10.2853 78.5149C25.3879 53.3439 21.0995 5.53769 78.1537 0.42892Z" fill="white"/>
<path opacity="0.2" d="M97.6938 131.989L97.0226 131.915C96.3514 131.877 95.8293 131.355 95.7547 130.721C95.3818 126.769 91.9884 124.009 87.5509 123.487C83.5608 123.04 78.9741 124.792 75.9536 127.813C75.2078 128.633 74.1263 129.043 73.0076 128.969L69.6142 128.596C68.6447 128.521 67.8616 127.813 67.6751 126.88C66.892 123.45 63.7969 120.802 59.8069 120.355C55.3693 119.87 50.4097 121.697 47.4638 125.277C46.979 125.874 46.2705 126.172 45.5247 126.135L44.8534 126.06C44.5178 126.023 44.2195 126.246 44.1076 126.545L43.5483 128.186C43.4364 128.409 43.5483 128.67 43.772 128.782L44.5551 129.155C45.1891 129.453 45.4874 130.162 45.3009 130.833C44.0704 136.166 47.1654 140.79 52.6471 141.424C57.9051 142.02 63.6105 138.664 66.1462 133.779C66.5937 132.959 67.3768 132.437 68.3091 132.362C69.5024 132.25 70.7329 132.399 71.8889 132.735C72.672 132.959 73.1195 133.742 72.9704 134.525C72.0754 139.634 75.1332 143.959 80.4284 144.556C85.9101 145.153 91.8393 141.573 94.2258 136.352C94.5614 135.644 95.2327 135.122 96.0158 134.972L96.9853 134.786C97.2464 134.749 97.5074 134.562 97.582 134.301L98.1413 132.66C98.2159 132.437 98.1413 132.176 97.9176 132.064C97.8057 131.989 97.7311 131.989 97.6938 131.989ZM53.0573 140.007C47.9858 139.447 45.2636 134.861 46.979 129.826C48.6944 124.792 54.2506 121.175 59.3221 121.734C64.3936 122.294 67.1531 126.88 65.4004 131.915C63.6478 136.949 58.1661 140.603 53.0573 140.007ZM67.1158 131.094C67.1904 130.796 67.2649 130.498 67.3022 130.237C67.3768 129.976 67.6005 129.826 67.8243 129.826L73.9026 130.498C74.0891 130.498 74.2009 130.684 74.2009 130.833C74.2009 130.87 74.1636 130.945 74.1636 130.982C74.0145 131.243 73.8653 131.542 73.7534 131.803C71.255 130.609 68.5701 130.833 67.1158 131.094ZM80.8386 143.139C75.7671 142.58 73.0076 137.993 74.7603 132.959C76.5129 127.925 82.0319 124.307 87.1034 124.867C92.1749 125.426 94.9344 130.013 93.1817 135.047C91.4291 140.081 85.9101 143.698 80.8386 143.139Z" fill="black" fill-opacity="0.7"/>
<path d="M93.1817 132.288L53.7286 130.609C51.8268 130.535 49.9995 131.243 48.6944 132.586L41.6092 139.82C41.3855 140.081 41.3855 140.454 41.6092 140.715C41.6465 140.752 41.6838 140.79 41.7211 140.79C42.4296 141.2 43.3619 141.088 43.9585 140.491L50.5216 133.816C51.3047 132.996 52.3861 132.586 53.5421 132.623L93.0699 133.928L93.1817 132.288Z" fill="#263238"/>
<path d="M40.6025 126.396L79.6082 132.586C81.4727 132.884 83.1134 133.966 84.1576 135.532L89.6765 143.997C89.863 144.295 89.7884 144.668 89.4901 144.854C89.4528 144.892 89.4155 144.892 89.3409 144.929C88.5578 145.227 87.6629 144.929 87.1781 144.22L82.0693 136.389C81.4727 135.457 80.4658 134.786 79.3471 134.6L40.416 128.036L40.6025 126.396Z" fill="#263238"/>
<path d="M63.7225 132.996C64.17 133.182 63.5733 136.427 62.3054 137.359C61.0376 138.291 60.4036 135.383 60.8511 134.488C61.2986 133.593 62.2682 132.437 63.7225 132.996Z" fill="#757575" stroke="#263238" stroke-linecap="round" stroke-linejoin="round"/>
<path d="M70.5839 133.742C70.0991 133.816 69.95 137.098 70.9941 138.291C72.0382 139.485 73.3061 136.8 73.0824 135.793C72.8586 134.786 72.1128 133.555 70.5839 133.742Z" fill="#757575" stroke="#263238" stroke-linecap="round" stroke-linejoin="round"/>
<path opacity="0.4" d="M47.7248 122.294C50.0741 120.914 54.8846 118.714 59.0984 122.331C63.3122 125.948 64.3936 129.342 62.7155 133.294C61.0375 137.247 57.0847 142.281 50.2606 140.118C43.4364 137.956 40.4905 126.582 47.7248 122.294Z" fill="white"/>
<path opacity="0.4" d="M75.4689 125.762C77.8182 124.382 82.6286 122.182 86.8424 125.799C91.0562 129.453 92.1749 132.772 90.4596 136.762C88.7442 140.752 84.8287 145.787 78.0046 143.586C71.1805 141.386 68.1973 130.05 75.4689 125.762Z" fill="white"/>
<path d="M94.114 131.803L93.4428 131.728C92.7343 131.654 92.1749 131.169 91.9512 130.498C90.7206 126.508 86.7678 123.711 82.3676 123.226C78.3775 122.778 74.2756 124.568 72.0381 127.589C71.4415 128.409 70.4347 128.857 69.4278 128.745L66.0344 128.372C65.0276 128.26 64.1326 127.589 63.7597 126.657C62.0443 123.04 58.6136 120.541 54.6609 120.094C50.2233 119.609 45.7858 121.436 43.6975 125.053C43.3619 125.65 42.6534 125.985 41.9821 125.911L41.3109 125.836C41.0126 125.799 40.7143 126.023 40.677 126.321L40.4905 127.999C40.4532 128.26 40.6024 128.521 40.8634 128.596L41.7211 128.969C42.3923 129.267 42.8025 129.938 42.8025 130.647C42.7652 136.539 47.5384 141.349 53.4303 141.386C58.2407 141.424 62.4545 138.217 63.7597 133.593C63.9834 132.772 64.692 132.213 65.5496 132.138C66.7429 132.026 67.9735 132.176 69.1295 132.511C69.9499 132.772 70.5092 133.481 70.5838 134.338C70.8449 140.23 75.879 144.78 81.7709 144.519C86.5814 144.295 90.646 140.864 91.6902 136.166C91.8393 135.457 92.436 134.898 93.1445 134.749L94.0394 134.562C94.3005 134.525 94.4869 134.338 94.5242 134.077L94.7107 132.399C94.6361 132.138 94.4496 131.877 94.114 131.803ZM52.3489 139.969C47.2401 139.41 43.5856 134.823 44.1823 129.714C44.7416 124.606 49.3283 120.951 54.4371 121.548C59.5459 122.107 63.2003 126.694 62.6037 131.803C62.0071 136.874 57.4203 140.529 52.3489 139.969ZM64.058 130.945C64.058 130.647 64.058 130.348 64.0207 130.05C63.9834 129.864 64.1699 129.677 64.3563 129.64C64.3936 129.64 64.4309 129.64 64.4682 129.64L70.5465 130.311C70.7703 130.311 70.9194 130.498 70.8821 130.721C70.8821 130.759 70.8822 130.796 70.8449 130.833C70.7703 131.094 70.6957 131.393 70.6211 131.654C68.6074 130.759 66.2954 130.498 64.058 130.945ZM80.0929 143.102C74.9841 142.542 71.3296 137.956 71.9263 132.847C72.4856 127.738 77.0723 124.084 82.1811 124.68C87.2899 125.24 90.9443 129.826 90.3477 134.935C89.7883 139.969 85.2016 143.661 80.0929 143.102Z" fill="#FB9E1B" stroke="#263238" stroke-linecap="round" stroke-linejoin="round"/>
<path opacity="0.5" d="M46.1959 135.569C46.1959 135.569 43.6229 130.535 46.9045 125.762C49.8504 121.473 54.9592 121.846 57.1593 123.263L50.4098 131.393C51.2674 129.267 52.3861 127.253 53.6913 125.352C53.6167 125.352 48.2469 129.155 46.1959 135.569Z" fill="white"/>
<path opacity="0.5" d="M73.9401 138.403C73.9401 138.403 71.3671 133.369 74.6486 128.596C77.5945 124.307 82.7033 124.68 84.9034 126.097L78.1539 134.227C79.1234 131.057 81.4354 128.186 81.4354 128.186C81.4354 128.186 75.991 131.989 73.9401 138.403Z" fill="white"/>
<path opacity="0.2" d="M48.8807 98.8754C48.8807 98.8754 41.348 108.235 40.8259 108.832C40.3039 109.429 40.453 118.9 39.1479 123.189C37.8427 127.477 33.4052 131.84 23.4487 153.468L22.1062 111.368L29.4524 82.0574L48.8807 98.8754Z" fill="black" fill-opacity="0.7"/>
<path d="M54.3997 98.4652C54.3997 98.4652 49.4028 75.5689 45.4874 72.7349C43.2126 71.0941 39.7819 70.4974 36.7614 70.7958C34.5986 71.0195 32.6222 71.6534 31.5408 72.7349C28.8932 75.2706 25.0896 76.7622 23.225 78.403C21.3605 80.0438 21.6961 85.4882 20.6893 90.1494C19.6825 94.8107 17.8925 95.0718 17.7806 99.6585C17.6688 104.245 16.7738 118.416 14.0143 122.517C11.2548 126.619 11.3294 129.64 10.3226 133.705C9.31574 137.769 1 152.648 1 152.648L23.5606 155.93C23.5606 155.93 25.2014 146.682 27.1405 139.149C28.0355 135.569 29.005 132.362 29.8627 130.684C31.5408 127.477 32.9205 124.121 34.0765 120.653C36.4631 117.856 37.4699 111.927 37.5818 106.781L43.3618 103.089C47.8739 101.523 54.3997 98.4652 54.3997 98.4652Z" fill="white"/>
<path opacity="0.4" d="M54.3998 98.4652C54.3998 98.4652 49.4029 75.5689 45.4874 72.7349C43.2127 71.0941 39.782 70.4974 36.7615 70.7958C29.7136 72.9959 28.0355 77.0978 27.1406 78.1047C25.9473 79.4471 24.6794 87.39 25.91 91.9021C27.1406 96.4142 26.5439 98.1296 25.91 100.404C24.493 105.438 29.8255 107.788 30.4967 109.615C31.1679 111.442 31.5781 121.884 29.4526 125.426C28.3339 127.291 25.6862 136.8 27.1779 139.186C28.0728 135.606 29.0424 132.399 29.9001 130.721C31.5781 127.514 32.9579 124.158 34.1139 120.69C36.5004 117.893 37.5073 111.964 37.6191 106.818L43.3991 103.126C47.874 101.523 54.3998 98.4652 54.3998 98.4652Z" fill="#FB9E1B"/>
<path d="M27.2524 101.709C27.2524 101.709 25.91 100.292 24.7913 100.367" stroke="#263238" stroke-linecap="round" stroke-linejoin="round"/>
<path d="M29.6763 96.5634C29.6763 96.5634 28.1474 93.7666 25.9473 93.2818" stroke="#263238" stroke-linecap="round" stroke-linejoin="round"/>
<path d="M26.3201 79.82C26.3201 79.82 29.4525 80.976 30.0864 83.1762" stroke="#263238" stroke-linecap="round" stroke-linejoin="round"/>
<path d="M43.3618 103.052C43.3618 103.052 42.5414 102.12 42.5042 101.374" stroke="#263238" stroke-linecap="round" stroke-linejoin="round"/>
<path d="M23.5606 155.892C23.5606 155.892 27.1778 135.867 29.8627 130.684C31.5408 127.477 32.9205 124.121 34.0765 120.653C36.4631 117.856 37.4699 111.927 37.5818 106.744L43.3618 103.052C47.8739 101.523 54.3997 98.5025 54.3997 98.5025C54.3997 98.5025 49.4028 75.6062 45.4874 72.7721C41.5719 69.9381 34.1884 70.2364 31.5408 72.7721C28.8932 75.3079 25.0895 76.7622 23.225 78.403C21.3605 80.0438 21.6961 85.4882 20.6893 90.1494C19.6825 94.8107 17.8925 95.0718 17.7806 99.6585C17.6688 104.245 16.7738 118.416 14.0143 122.517C11.2548 126.619 11.3294 129.64 10.3226 133.705C9.31574 137.769 1 152.648 1 152.648" stroke="#263238" stroke-linecap="round" stroke-linejoin="round"/>
<path d="M19.496 28.3594L18.8248 22.3556C18.7875 22.1692 18.9367 21.9827 19.1604 21.9454L21.6962 21.6471L22.442 28.3967L19.9062 28.695C19.6825 28.7323 19.496 28.5831 19.496 28.3594Z" fill="#FB9E1B" stroke="#263238" stroke-linecap="round" stroke-linejoin="round"/>
<path d="M31.0188 12.4364L37.0226 11.7652C37.209 11.7279 37.3955 11.8771 37.4327 12.1008L37.7311 14.6365L30.9815 15.3823L30.6832 12.8466C30.6459 12.6229 30.7951 12.4364 31.0188 12.4364Z" fill="#FB9E1B" stroke="#263238" stroke-linecap="round" stroke-linejoin="round"/>
<path d="M39.0361 11.5414L45.0398 10.8702C45.2262 10.8329 45.4127 10.9821 45.45 11.2058L45.7483 13.7416L38.9988 14.4874L38.7004 11.9516C38.7004 11.7652 38.8123 11.5787 39.0361 11.5414Z" fill="#FB9E1B" stroke="#263238" stroke-linecap="round" stroke-linejoin="round"/>
<path d="M28.4085 102.157L19.4961 22.1692C19.0113 17.9181 22.0691 14.1145 26.3202 13.6297L142.666 0.652665C146.917 0.167891 150.758 3.2257 151.243 7.47679C151.243 7.47679 151.243 7.47679 151.243 7.51408L160.155 87.5018C160.64 91.7529 157.582 95.5938 153.294 96.0786L36.948 109.056C32.6969 109.503 28.856 106.445 28.4085 102.157Z" fill="#FB9E1B" stroke="#263238" stroke-linecap="round" stroke-linejoin="round"/>
<path d="M153.294 95.0345L36.7241 108.012C33.0696 108.422 29.8254 105.811 29.4152 102.157L20.4655 21.9454C20.0553 18.291 22.6656 15.0094 26.3201 14.6365L142.89 1.6595C146.544 1.2493 149.788 3.85963 150.199 7.51408L159.148 87.7256C159.558 91.3427 156.948 94.6243 153.294 95.0345Z" fill="#757575" stroke="#263238" stroke-linecap="round" stroke-linejoin="round"/>
<path d="M26.8423 61.8461C26.8796 62.0698 26.7304 62.3308 26.4694 62.3681C26.2456 62.4054 25.9846 62.2563 25.9473 61.9952V61.9579C25.91 61.7342 26.0592 61.4732 26.3202 61.4359C26.544 61.3986 26.805 61.5477 26.8423 61.8088V61.8461Z" fill="#999999" stroke="#263238" stroke-linecap="round" stroke-linejoin="round"/>
<path d="M27.6999 65.7989C27.7372 66.2463 27.4016 66.6938 26.9541 66.7311C26.5066 66.7684 26.0592 66.4328 26.0219 65.9853C25.9846 65.5378 26.3202 65.0903 26.7677 65.0531C27.2525 65.0158 27.6626 65.3514 27.6999 65.7989Z" fill="#263238"/>
<path d="M26.6184 56.0288C26.6557 56.4763 26.3201 56.9238 25.8726 56.9611C25.4251 56.9983 24.9776 56.6627 24.9403 56.2152C24.903 55.7678 25.2387 55.3203 25.6861 55.283C26.1336 55.2084 26.5438 55.544 26.6184 56.0288Z" fill="#263238"/>
<path d="M27.8118 68.6329C27.8491 68.9685 27.588 69.2669 27.2524 69.3042C26.9168 69.3414 26.6185 69.0804 26.5812 68.7448C26.5439 68.4092 26.8049 68.1109 27.1405 68.0736C27.4389 68.0363 27.7745 68.2973 27.8118 68.6329Z" fill="#263238"/>
<path d="M33.7783 102.567L24.754 21.7217C24.5676 19.9318 25.8354 18.291 27.6627 18.1045L144.903 5.05292C146.693 4.86647 148.334 6.13434 148.521 7.96157L157.508 88.8443C157.694 90.6342 156.426 92.275 154.636 92.4614L37.3954 105.513C35.5682 105.662 33.9647 104.357 33.7783 102.567Z" fill="white"/>
<path opacity="0.3" d="M145.053 5.01563L27.4389 18.1045C25.7608 18.291 24.5302 19.8199 24.7167 21.498L33.7782 102.754C33.9647 104.432 35.4936 105.662 37.1717 105.476L154.785 92.3869C156.463 92.2004 157.694 90.6715 157.508 88.9934L148.446 7.73783C148.26 6.05976 146.731 4.82918 145.053 5.01563Z" fill="#FB9E1B"/>
<path d="M104.033 90.858L83.859 93.0954C80.5402 93.4683 77.5197 91.0817 77.1468 87.7256C76.7739 84.4067 79.1604 81.3862 82.5166 81.0133L108.881 78.1047C112.2 77.7318 115.22 80.1183 115.593 83.4745V84.183V83.4745C115.966 86.7933 113.579 89.8138 110.223 90.1867C110.223 90.1494 104.033 90.858 104.033 90.858Z" fill="#FB9E1B" stroke="#263238" stroke-linecap="round" stroke-linejoin="round"/>
<path d="M106.673 96.1404L82.4363 98.8426L82.5189 99.5838L106.756 96.8816L106.673 96.1404Z" fill="#999999" stroke="#263238" stroke-linecap="round" stroke-linejoin="round"/>
<path d="M82.2183 84.3694L83.7845 84.183C84.2692 84.1457 84.6421 84.1084 84.9032 84.183C85.1642 84.2203 85.4252 84.3694 85.6117 84.6305C85.8354 84.8915 85.9473 85.2271 85.9846 85.6373C86.0219 86.0475 85.9846 86.3831 85.8727 86.6441C85.7608 86.9052 85.5744 87.1289 85.3506 87.2781C85.1269 87.4272 84.7167 87.5391 84.1946 87.5764L83.7845 87.6137L84.0082 89.6274L82.8149 89.7765L82.2183 84.3694ZM83.4861 85.1152L83.6726 86.7187L84.0455 86.6814C84.3811 86.6441 84.5676 86.5323 84.6421 86.3831C84.7167 86.234 84.754 86.0102 84.7167 85.7865C84.6794 85.6 84.6421 85.4136 84.5675 85.3017C84.493 85.1898 84.3811 85.1152 84.2692 85.078C84.1574 85.0407 84.0455 85.0407 83.859 85.078L83.4861 85.1152Z" fill="#263238"/>
<path d="M87.178 83.8101L88.3713 83.6609L90.5714 88.9189L89.3408 89.068L88.9306 87.9866L87.4017 88.1731L87.2526 89.3291L86.1711 89.4409L87.178 83.8101ZM88.6323 87.0543L87.8119 84.8915L87.5509 87.1662L88.6323 87.0543Z" fill="#263238"/>
<path d="M89.4526 83.5118L90.7578 83.3626L91.7646 85.2644L92.3613 83.1762L93.5173 83.027L92.3613 86.3458L92.6223 88.6578L91.429 88.807L91.168 86.495L89.4526 83.5118Z" fill="#263238"/>
<path d="M95.2698 82.8405L96.6122 82.6914L98.4022 85.8983L97.992 82.5422L98.9242 82.4303L99.5582 87.8747L98.4767 87.9866L96.3512 84.2576L96.7987 88.1731L95.8664 88.2849L95.2698 82.8405Z" fill="#263238"/>
<path d="M103.959 84.5932C104.182 86.4577 103.623 87.4645 102.318 87.6137C101.647 87.6883 101.162 87.5018 100.752 87.0543C100.379 86.6069 100.118 85.9356 100.006 85.0407C99.7821 83.1761 100.341 82.1693 101.647 82.0201C102.281 81.9456 102.803 82.132 103.213 82.5422C103.623 82.9897 103.847 83.6609 103.959 84.5932ZM102.728 84.7423C102.653 83.9965 102.542 83.5118 102.392 83.288C102.243 83.0643 102.057 82.9524 101.796 82.9897C101.535 83.027 101.386 83.1762 101.311 83.4372C101.236 83.6982 101.236 84.183 101.311 84.9288C101.386 85.6373 101.497 86.1221 101.647 86.3458C101.796 86.5696 101.982 86.6814 102.243 86.6441C102.504 86.6069 102.653 86.4577 102.728 86.234C102.803 85.9729 102.803 85.4509 102.728 84.7423Z" fill="#263238"/>
<path d="M103.921 81.8337L105.152 81.6845L106.159 85.3763L106.42 81.5354L107.501 81.4235L108.62 85.1153L108.843 81.2743L109.85 81.1625L109.328 86.756L108.247 86.8679L107.091 83.1762L106.793 87.0543L105.748 87.1662L103.921 81.8337Z" fill="#263238"/>
<path d="M40.2668 81.5727L146.507 69.7516" stroke="#263238" stroke-linecap="round" stroke-linejoin="round"/>
<path d="M41.0498 80.081C40.0803 79.6336 38.9616 79.7081 38.0293 80.2302C37.2462 80.715 36.6123 81.4235 36.2767 82.2439C35.0461 84.8169 31.6154 90.7461 31.0187 92.4614C30.4221 94.1768 29.1542 98.8754 27.7372 100.889C26.3202 102.903 25.6489 105.923 25.6489 105.923L26.7676 134.338C27.3643 130.199 29.378 125.389 29.378 125.389C31.3171 124.233 32.9205 122.592 34.0392 120.653C34.3749 120.243 34.6732 119.833 34.9342 119.348C36.9852 115.693 37.731 109.317 37.5445 104.394C37.3581 98.8008 38.9989 96.1905 41.6465 91.1563C44.2941 86.1221 42.9889 81.0506 41.0498 80.081Z" fill="white"/>
<path opacity="0.4" d="M41.0497 80.0811C40.0802 79.6709 38.9615 79.7082 38.0292 80.2302C39.6327 80.5658 41.7955 81.2743 41.3853 82.5049C40.7514 84.4813 38.3648 81.7591 37.3207 82.7287C36.2766 83.6982 32.5475 89.2918 35.2324 91.4919C37.9173 93.692 37.358 97.6821 35.6799 98.9127C34.0019 100.143 35.2697 102.716 36.0901 106.856C36.5749 109.354 35.7172 115.134 34.9714 119.31C37.0224 115.656 37.7682 109.279 37.5817 104.357C37.3953 98.7635 39.036 96.1532 41.6837 91.119C44.3313 86.0848 42.9888 80.976 41.0497 80.0811Z" fill="#FB9E1B"/>
<path d="M26.7676 134.338C27.3643 130.199 29.378 125.389 29.378 125.389C31.3171 124.233 32.9205 122.592 34.0392 120.653C36.7614 117.409 37.731 109.951 37.5445 104.394C37.3581 98.8381 39.0362 96.1905 41.6465 91.1563C44.2568 86.1221 43.1754 81.1252 40.9752 80.1183C39.4463 79.4098 37.47 79.7081 36.2021 82.2812C34.9715 84.8542 31.5408 90.7834 30.9442 92.4987C30.3475 94.2141 29.0796 98.9127 27.6626 100.926C26.2456 102.94 25.6489 105.923 25.6489 105.923" stroke="#263238" stroke-linecap="round" stroke-linejoin="round"/>
<path d="M33.4053 92.7971C33.4053 92.7971 35.68 92.8716 36.7614 93.6547" stroke="#263238" stroke-linecap="round" stroke-linejoin="round"/>
<path d="M24.7911 105.364C24.7911 105.364 24.3064 104.32 26.5438 103.164" stroke="#263238" stroke-linecap="round" stroke-linejoin="round"/>
<path opacity="0.2" d="M104.854 84.1084C109.403 84.1457 115.108 104.693 116.898 107.042C116.898 107.042 142.33 107.937 145.575 111.48C148.819 115.022 147.178 118.043 149.304 121.399C151.429 124.755 152.026 130.46 152.026 130.46L157.619 139.895L133.642 151.38C133.642 151.38 120.814 144.034 117.719 142.393C114.624 140.752 105.338 137.135 102.877 132.437C100.416 127.738 100.304 123.375 99.7448 121.436C99.1855 119.497 109.515 113.68 109.515 113.68L104.854 84.1084Z" fill="black" fill-opacity="0.7"/>
<path d="M160.752 141.722C158.701 139.82 156.501 137.769 154.748 136.091C152.474 133.966 150.833 132.399 150.833 132.399C149.49 129.565 148.297 128.596 146.768 126.358C145.239 124.121 145.5 121.734 145.127 118.602C144.754 115.47 143.487 112.747 142.703 110.92C141.92 109.093 141.846 107.154 141.697 106.744C141.547 106.333 139.161 104.506 138.079 103.015C137.595 102.343 136.998 101.784 136.29 101.299C135.544 100.74 134.649 100.404 133.716 100.255C133.344 100.218 132.933 100.181 132.56 100.218C131.815 100.33 131.069 100.516 130.323 100.777C129.354 101.001 126.93 99.8449 125.513 99.8822C125.252 99.8822 124.991 99.9195 124.73 99.9568C123.536 100.181 122.343 100.516 121.187 100.926C119.919 101.299 118.129 100.479 116.824 100.367H116.861C116.563 100.33 116.265 100.367 116.004 100.479C114.773 101.001 112.424 101.784 112.424 101.784C112.424 101.784 111.827 100.181 111.156 97.9431C111.044 97.5702 110.932 97.1973 110.82 96.8244C110.373 95.482 109.888 94.2514 109.552 93.1327C109.478 92.8344 109.403 92.536 109.366 92.2377C109.105 90.5969 108.732 89.3664 108.098 86.9425L108.023 86.6814C107.837 85.9356 107.651 85.1898 107.464 84.5186C106.979 82.9524 106.345 81.8337 104.705 81.9829C103.25 82.0947 102.467 83.027 102.43 85.4882C102.393 87.9493 101.908 87.8747 102.579 91.2682C103.25 94.6616 102.989 97.0109 103.511 98.6889C104.033 100.367 104.444 103.798 104.444 103.798C103.735 103.611 103.213 104.021 103.138 104.32C103.064 104.618 103.25 107.34 103.325 109.317C103.399 111.069 102.243 112.971 101.945 114.239V114.276C101.908 114.425 101.908 114.537 101.908 114.686C101.871 115.954 102.616 118.416 103.399 121.622C104.183 124.829 104.145 128.335 105.488 130.311C105.749 130.721 106.084 131.057 106.495 131.355C108.098 132.586 110.671 133.369 113.319 135.308C116.638 137.732 118.987 139.559 120.926 140.156C122.343 140.603 123.014 141.051 123.424 141.797C123.574 142.132 123.723 142.468 123.797 142.803C123.984 143.475 124.468 143.922 125.326 144.631C126.631 145.712 127.825 146.905 128.906 148.21C129.913 149.404 131.591 151.79 133.381 154.401L160.752 141.722Z" fill="white"/>
<path opacity="0.4" d="M109.328 92.2377C109.366 92.536 109.44 92.8344 109.515 93.1327C107.389 93.2445 103.66 95.1836 103.884 96.4142C104.182 97.9058 104.816 101.448 105.749 102.045C106.681 102.642 108.433 102.828 108.433 102.828C108.322 102.865 108.21 102.903 108.098 102.977H108.061C107.576 103.201 107.166 103.574 106.905 104.059C105.711 106.035 106.494 109.615 107.427 111.218C111.268 117.819 109.142 124.307 107.762 123.897C106.382 123.487 104.816 117.409 104.816 115.88C104.854 114.985 104.742 114.09 104.518 113.232C103.921 113.195 102.84 113.717 101.87 114.314C101.87 114.314 101.87 114.314 101.87 114.276C102.169 113.008 103.325 111.107 103.25 109.354C103.176 107.378 103.026 104.655 103.064 104.357C103.101 104.059 103.623 103.649 104.369 103.835C104.369 103.835 103.959 100.442 103.437 98.7262C102.914 97.0109 103.138 94.6989 102.504 91.3054C101.87 87.912 102.318 87.9493 102.355 85.5254C102.392 83.1016 103.176 82.1693 104.63 82.0202C106.271 81.871 106.905 82.9897 107.389 84.5559C107.166 84.444 106.942 84.3322 106.681 84.2203C106.084 83.9592 105.413 83.922 104.779 84.1084C104.07 84.4067 103.586 85.2644 103.362 86.1594C103.026 87.4273 103.25 88.6951 103.959 88.0612C104.779 87.3527 106.755 87.0544 107.986 86.9425C108.732 89.3664 109.067 90.6342 109.328 92.2377Z" fill="#FB9E1B"/>
<path opacity="0.4" d="M123.722 142.803C123.648 142.468 123.499 142.132 123.349 141.797C122.939 141.051 122.268 140.603 120.851 140.156C118.912 139.559 116.525 137.732 113.244 135.308C110.596 133.369 108.023 132.586 106.42 131.355C108.172 131.84 110.186 130.908 111.156 132.064C112.573 133.742 117.831 135.569 117.831 135.569C123.275 138.925 123.722 142.803 123.722 142.803Z" fill="#FB9E1B"/>
<path opacity="0.4" d="M116.861 100.33C116.302 100.33 115.742 104.171 115.891 105.438C116.302 108.72 120.329 118.192 118.129 118.49C117.234 118.602 115.108 114.239 114.512 112.113C112.759 105.625 112.386 102.828 112.386 102.828C112.386 102.828 111.044 99.3229 110.783 96.7871C110.895 97.16 111.006 97.5329 111.118 97.9058C111.752 100.143 112.386 101.747 112.386 101.747C112.386 101.747 114.735 100.964 115.966 100.442C116.264 100.33 116.563 100.292 116.861 100.33Z" fill="#FB9E1B"/>
<path opacity="0.4" d="M124.804 99.9568C123.685 100.33 122.79 101.709 121.933 102.157C120.851 102.679 118.166 100.628 116.898 100.367C118.204 100.479 119.994 101.299 121.261 100.926C122.417 100.516 123.573 100.181 124.804 99.9568Z" fill="#FB9E1B"/>
<path opacity="0.4" d="M132.598 100.218C132.188 101.076 131.927 101.97 131.815 102.865C131.591 106.035 135.171 117.073 133.232 115.581C130.733 113.642 130.771 104.879 128.608 102.082C127.899 101.187 125.96 99.9195 125.587 99.8822C127.004 99.8449 129.428 101.001 130.398 100.777C131.106 100.516 131.852 100.33 132.598 100.218Z" fill="#FB9E1B"/>
<path opacity="0.4" d="M154.748 136.091C152.846 134.749 150.87 133.518 149.714 133.145C146.843 132.288 145.761 130.908 144.941 128.409C144.12 125.911 144.792 125.836 144.941 123.114C145.09 120.392 142.964 117.632 143.225 118.304C143.486 118.975 143.412 123.897 142.629 124.307C141.846 124.718 140.764 121.697 140.056 119.124C139.347 116.551 137.893 104.357 136.923 102.12C136.774 101.784 136.625 101.486 136.364 101.225C137.035 101.672 137.632 102.269 138.154 102.94C139.235 104.432 141.622 106.259 141.771 106.669C141.92 107.079 141.995 108.981 142.778 110.846C143.561 112.71 144.829 115.395 145.202 118.527C145.575 121.66 145.351 124.046 146.843 126.284C148.334 128.521 149.527 129.491 150.907 132.325C150.795 132.399 152.436 133.966 154.748 136.091Z" fill="#FB9E1B"/>
<path opacity="0.4" d="M123.834 106.856C124.543 107.303 126.78 115.059 127.563 116.924C128.346 118.788 128.458 123.636 127.563 122.368C126.668 121.1 120.926 104.991 123.834 106.856Z" fill="#FB9E1B"/>
<path d="M132.635 153.431C131.106 151.194 129.726 149.292 128.831 148.21C127.75 146.905 126.557 145.712 125.251 144.631C124.431 143.922 123.909 143.475 123.723 142.803C123.648 142.468 123.499 142.132 123.35 141.797C122.939 141.051 122.268 140.603 120.851 140.156C118.912 139.559 116.526 137.732 113.244 135.308C110.596 133.369 108.023 132.586 106.42 131.355C106.047 131.057 105.711 130.721 105.413 130.311C104.108 128.372 104.108 124.867 103.325 121.622C102.542 118.378 101.796 115.917 101.833 114.686C101.833 114.537 101.87 114.388 101.87 114.276C101.87 114.276 101.87 114.276 101.87 114.239C102.169 112.971 103.325 111.069 103.25 109.317C103.176 107.34 103.026 104.618 103.064 104.32C103.101 104.021 103.623 103.611 104.369 103.798C104.369 103.798 103.959 100.404 103.437 98.6889C102.915 96.9736 103.138 94.6616 102.504 91.2682C101.87 87.8747 102.318 87.912 102.355 85.4882C102.392 83.0643 103.176 82.132 104.63 81.9829C106.271 81.8337 106.905 82.9524 107.389 84.5186C107.576 85.1898 107.762 85.8983 107.949 86.6814L108.023 86.9425C108.657 89.3664 108.993 90.6342 109.291 92.2377C109.328 92.536 109.403 92.8344 109.478 93.1327C109.776 94.2514 110.261 95.4447 110.746 96.8244C110.857 97.1973 110.969 97.5702 111.081 97.9431C111.715 100.181 112.349 101.784 112.349 101.784C112.349 101.784 114.698 101.001 115.929 100.479C116.19 100.367 116.488 100.33 116.787 100.367H116.824C118.129 100.479 119.919 101.299 121.187 100.926C122.343 100.516 123.536 100.181 124.729 99.9568C124.99 99.9195 125.251 99.8822 125.512 99.8822C126.93 99.8449 129.353 101.001 130.323 100.777C131.069 100.516 131.815 100.367 132.56 100.218C132.933 100.181 133.343 100.181 133.716 100.255C134.649 100.404 135.506 100.777 136.289 101.299C136.961 101.747 137.557 102.343 138.079 103.015C139.161 104.506 141.547 106.333 141.696 106.744C141.846 107.154 141.92 109.056 142.703 110.92C143.486 112.785 144.754 115.47 145.127 118.602C145.5 121.734 145.276 124.121 146.768 126.358C148.26 128.596 149.453 129.565 150.833 132.399C150.833 132.399 152.473 133.966 154.748 136.091C156.314 137.583 158.216 139.335 160.081 141.051" stroke="#263238" stroke-linecap="round" stroke-linejoin="round"/>
<path d="M104.406 103.798C104.965 106.147 105.45 109.13 105.376 110.435C105.301 111.741 106.532 115.731 106.271 117.632" stroke="#263238" stroke-linecap="round" stroke-linejoin="round"/>
<path d="M106.047 105.364C106.047 105.364 107.24 103.126 108.471 102.828C109.701 102.53 111.081 103.015 112.386 102.865C113.691 102.716 114.81 101.448 116.003 100.926" stroke="#263238" stroke-linecap="round" stroke-linejoin="round"/>
<path d="M104.928 96.5634C104.928 96.5634 106.942 95.2209 108.284 95.743" stroke="#263238" stroke-linecap="round" stroke-linejoin="round"/>
<path d="M106.345 95.1091C106.905 94.8853 107.501 94.848 108.098 94.9972" stroke="#263238" stroke-linecap="round" stroke-linejoin="round"/>
<path d="M104.406 89.5155C105.115 89.1799 105.898 88.9934 106.681 88.9562" stroke="#263238" stroke-linecap="round" stroke-linejoin="round"/>
<path d="M101.907 114.239C102.467 113.754 103.063 113.344 103.735 113.008" stroke="#263238" stroke-linecap="round" stroke-linejoin="round"/>
<path d="M106.196 115.544C105.935 116.253 105.749 116.998 105.637 117.744" stroke="#263238" stroke-linecap="round" stroke-linejoin="round"/>
<path d="M103.026 83.7355C103.026 83.7355 103.325 86.5323 103.735 86.7187C104.145 86.9052 106.83 86.495 106.942 85.9729C107.054 85.4509 106.606 83.4372 106.606 83.4372C106.606 83.4372 104.369 81.0879 103.026 83.7355Z" stroke="#263238" stroke-linecap="round" stroke-linejoin="round"/>
<path d="M103.287 109.317C103.287 109.317 105.226 107.676 104.891 106.11C104.555 104.544 103.921 104.693 103.101 104.879" stroke="#263238" stroke-linecap="round" stroke-linejoin="round"/>
<path d="M138.303 104.767C138.974 107.228 139.981 114.686 140.167 115.805C140.354 116.924 141.062 119.609 141.062 119.609" stroke="#263238" stroke-linecap="round" stroke-linejoin="round"/>
<path d="M121.299 102.754C124.468 105.625 121.821 104.879 127.228 120.877" stroke="#263238" stroke-linecap="round" stroke-linejoin="round"/>
<path d="M150.795 132.399C150.795 132.399 148.334 131.281 147.737 130.423" stroke="#263238" stroke-linecap="round" stroke-linejoin="round"/>
<path d="M121.448 138.59C122.305 139.485 123.275 141.647 123.312 141.797" stroke="#263238" stroke-linecap="round" stroke-linejoin="round"/>
<path d="M140.343 49.1526L44.2856 59.8621L45.8598 73.9816L141.917 63.2721L140.343 49.1526Z" fill="white"/>
<g opacity="0.5">
<path d="M116.451 59.4222L116.973 59.6459L116.824 59.9443L116.302 59.7205L116.376 60.2799L116.041 60.3172L115.966 59.7578L115.519 60.0934L115.332 59.8324L115.78 59.4968L115.258 59.273L115.407 58.9747L115.929 59.1985L115.854 58.6391L116.19 58.6018L116.264 59.1612L116.712 58.8256L116.898 59.0866L116.451 59.4222Z" fill="black"/>
<path d="M118.315 59.2357L118.837 59.4595L118.688 59.7578L118.166 59.5341L118.241 60.0934L117.905 60.1307L117.831 59.5714L117.383 59.907L117.197 59.6459L117.644 59.3103L117.122 59.0866L117.271 58.7883L117.793 59.012L117.719 58.4526L118.054 58.4154L118.129 58.9747L118.576 58.6391L118.763 58.9001L118.315 59.2357Z" fill="black"/>
<path d="M120.143 59.012L120.665 59.2357L120.515 59.5341L119.993 59.3103L120.068 59.8697L119.732 59.907L119.658 59.3476L119.21 59.6832L119.024 59.4222L119.471 59.0866L118.949 58.8628L119.098 58.5645L119.62 58.7883L119.546 58.2289L119.881 58.1916L119.956 58.751L120.404 58.4154L120.59 58.6764L120.143 59.012Z" fill="black"/>
<path d="M122.007 58.8255L122.529 59.0493L122.38 59.3476L121.858 59.1239L121.932 59.6832L121.597 59.7205L121.522 59.1612L121.075 59.4968L120.888 59.2357L121.336 58.9001L120.814 58.6764L120.963 58.3781L121.485 58.6018L121.41 58.0425L121.746 58.0052L121.821 58.5645L122.268 58.2289L122.454 58.4899L122.007 58.8255Z" fill="black"/>
<path d="M124.953 58.4899L125.475 58.7137L125.326 59.012L124.804 58.7883L124.878 59.3476L124.543 59.3849L124.468 58.8256L124.021 59.1612L123.834 58.9001L124.282 58.5645L123.76 58.3408L123.909 58.0425L124.431 58.2662L124.356 57.7068L124.692 57.6696L124.767 58.2289L125.214 57.8933L125.401 58.1543L124.953 58.4899Z" fill="black"/>
<path d="M126.78 58.2662L127.302 58.4899L127.153 58.7883L126.631 58.5645L126.706 59.1239L126.37 59.1612L126.295 58.6018L125.848 58.9374L125.661 58.6764L126.109 58.3408L125.587 58.117L125.736 57.8187L126.258 58.0425L126.184 57.4831L126.519 57.4458L126.594 58.0052L127.041 57.6696L127.228 57.9306L126.78 58.2662Z" fill="black"/>
<path d="M128.645 58.0797L129.167 58.3035L129.018 58.6018L128.496 58.3781L128.57 58.9374L128.235 58.9747L128.16 58.4154L127.712 58.751L127.526 58.4899L127.973 58.1543L127.451 57.9306L127.601 57.6323L128.123 57.856L128.048 57.2967L128.384 57.2594L128.458 57.8187L128.906 57.4831L129.092 57.7441L128.645 58.0797Z" fill="black"/>
<path d="M130.472 57.856L130.994 58.0797L130.845 58.3781L130.323 58.1543L130.398 58.7137L130.062 58.751L129.987 58.1916L129.54 58.5272L129.353 58.2662L129.801 57.9306L129.279 57.7068L129.428 57.4085L129.95 57.6323L129.875 57.0729L130.211 57.0356L130.286 57.595L130.733 57.2594L130.92 57.5204L130.472 57.856Z" fill="black"/>
<path d="M133.418 57.5577L133.94 57.7814L133.791 58.0797L133.269 57.8187L133.343 58.3781L133.008 58.4154L132.933 57.856L132.486 58.1916L132.299 57.9306L132.747 57.595L132.225 57.3712L132.374 57.0729L132.896 57.2966L132.821 56.7373L133.157 56.7L133.231 57.2594L133.679 56.9237L133.865 57.1848L133.418 57.5577Z" fill="black"/>
<path d="M135.282 57.3339L135.804 57.5577L135.655 57.856L135.133 57.6323L135.208 58.1916L134.872 58.2289L134.798 57.6696L134.35 58.0052L134.164 57.7441L134.611 57.4085L134.089 57.1848L134.238 56.8865L134.76 57.1102L134.686 56.5508L135.021 56.5135L135.096 57.0729L135.543 56.7373L135.73 56.9983L135.282 57.3339Z" fill="black"/>
<path d="M137.11 57.1102L137.632 57.3339L137.482 57.6323L136.96 57.4085L137.035 57.9679L136.699 58.0052L136.625 57.4458L136.177 57.7814L135.991 57.5204L136.438 57.1848L135.916 56.961L136.065 56.6627L136.587 56.8864L136.513 56.3271L136.849 56.2898L136.923 56.8492L137.371 56.5135L137.557 56.7746L137.11 57.1102Z" fill="black"/>
</g>
<path d="M49.2163 63.2631L56.4133 62.4427C56.9354 62.3681 57.4202 62.7783 57.4948 63.3004L57.9422 67.4396C58.0168 67.9617 57.6066 68.4465 57.0846 68.521L49.8875 69.3414C49.3655 69.416 48.8807 69.0058 48.8061 68.4838L48.3586 64.3445C48.2841 63.8225 48.6943 63.3377 49.2163 63.2631Z" fill="#FB9E1B"/>
<g opacity="0.5">
<path d="M57.7135 65.6318L48.5969 66.6483L48.7663 68.1677L57.8829 67.1513L57.7135 65.6318Z" fill="black"/>
</g>
<g opacity="0.5">
<path d="M56.8982 64.6056C56.9355 64.8666 56.749 65.0903 56.488 65.1276C56.227 65.1649 56.0032 64.9785 55.9659 64.7174C55.9286 64.4564 56.1151 64.2327 56.3761 64.1954C56.6372 64.1954 56.8609 64.3818 56.8982 64.6056Z" fill="black"/>
</g>
<path d="M56.3015 64.6801C56.3388 64.9412 56.1523 65.1649 55.8913 65.2022C55.6303 65.2395 55.4065 65.0531 55.3693 64.792C55.332 64.531 55.5184 64.3072 55.7794 64.27C56.0405 64.27 56.2642 64.4191 56.3015 64.6801Z" fill="white"/>
<path d="M137.293 23.3697L41.0427 34.385L43.6248 56.9472L139.875 45.9319L137.293 23.3697Z" fill="white"/>
<path d="M61.1121 37.3836L45.5247 39.1736C45.04 39.2481 44.5925 38.9498 44.4806 38.465C44.406 37.9803 44.7044 37.5328 45.1891 37.4209C45.2264 37.4209 45.2637 37.4209 45.301 37.4209L60.8884 35.631C61.3731 35.5937 61.7833 36.0039 61.8206 36.4887C61.8579 36.8989 61.5596 37.309 61.1121 37.3836Z" fill="black"/>
<path d="M68.3837 41.5601L46.0841 44.0959C45.5993 44.1705 45.1518 43.8722 45.0399 43.3874C44.9654 42.9026 45.2637 42.4551 45.7485 42.3432C45.7858 42.3432 45.823 42.3432 45.8603 42.3432L68.1599 39.8075C68.6447 39.7702 69.0549 40.1804 69.0922 40.6652C69.1295 41.0754 68.8312 41.4856 68.3837 41.5601Z" fill="black"/>
<path d="M56.7864 46.4825L46.4942 47.6758C46.0095 47.7503 45.562 47.452 45.4501 46.9672C45.3755 46.4825 45.6738 46.035 46.1586 45.9231C46.1959 45.9231 46.2332 45.9231 46.2705 45.9231L56.5626 44.7298C57.0474 44.6925 57.4576 45.1027 57.4949 45.5875C57.5322 45.9977 57.2338 46.4079 56.7864 46.4825Z" fill="black"/>
<path d="M67.0786 48.8691L46.9045 51.1811C46.4197 51.2183 45.9722 50.8827 45.935 50.398C45.8977 49.9132 46.2333 49.4657 46.718 49.4284L66.8921 47.1164C67.3769 47.0791 67.8244 47.4147 67.8617 47.8995C67.899 48.3843 67.5633 48.8318 67.0786 48.8691Z" fill="black"/>
<path d="M132.418 41.7775C135.525 38.9496 135.751 34.1385 132.924 31.0316C130.096 27.9247 125.284 27.6985 122.178 30.5264C119.071 33.3544 118.844 38.1655 121.672 41.2724C124.5 44.3793 129.311 44.6055 132.418 41.7775Z" fill="#FB9E1B"/>
<path d="M128.906 37.8684C127.862 37.9803 126.929 37.2345 126.817 36.1903C126.817 36.0785 126.817 35.9666 126.817 35.8547C126.929 34.9225 127.675 34.1767 128.607 34.1021L130.696 33.8783C130.733 33.8783 130.733 33.8411 130.733 33.8411L130.621 32.7223C130.584 32.4613 130.36 32.2749 130.099 32.3122L123.312 33.0952C123.051 33.1325 122.865 33.3563 122.902 33.6173L123.61 39.7329C123.648 39.994 123.872 40.1804 124.133 40.1431L130.919 39.36C131.18 39.3227 131.367 39.099 131.33 38.838L131.218 37.7193C131.218 37.682 131.18 37.682 131.18 37.682L128.906 37.8684Z" fill="white"/>
<path d="M130.77 34.475L128.533 34.736C127.824 34.8106 127.302 35.4445 127.414 36.153C127.489 36.8616 128.123 37.3836 128.831 37.2718L131.069 37.0107C131.33 36.9734 131.516 36.7497 131.479 36.4887L131.292 34.8479C131.255 34.5869 131.031 34.4377 130.77 34.475ZM128.831 36.4514C128.57 36.4887 128.309 36.3022 128.309 36.0412C128.272 35.7802 128.458 35.5191 128.719 35.5191C128.98 35.5191 129.241 35.6683 129.241 35.9293C129.279 36.1903 129.092 36.4141 128.831 36.4514Z" fill="white"/>
<path d="M66.8542 18.1776L68.9614 17.9091L70.7694 24.2703L71.1715 17.6275L73.0591 17.387L75.0404 23.7401L75.3584 17.094L77.095 16.8728L76.2838 26.5461L74.4375 26.7813L72.3583 20.4268L71.9116 27.1032L70.0858 27.3358L66.8542 18.1776Z" fill="#263238"/>
<path d="M79.4492 16.5728L81.5221 16.3087L85.3927 25.3366L83.2856 25.6051L82.5722 23.729L79.9365 24.0648L79.7233 26.059L77.8289 26.3004L79.4492 16.5728ZM81.9763 22.1727L80.5488 18.4694L80.1231 22.4089L81.9763 22.1727Z" fill="#263238"/>
<path d="M84.9883 15.867L87.0474 15.6046L88.0173 23.2165L91.0374 22.8317L91.2612 24.5888L86.1821 25.236L84.9883 15.867Z" fill="#263238"/>
<path d="M90.9735 15.1044L93.0326 14.842L94.0025 22.4539L97.0225 22.0691L97.2464 23.8262L92.1673 24.4734L90.9735 15.1044Z" fill="#263238"/>
<path d="M96.9587 14.3417L102.656 13.6158L102.86 15.222L99.2224 15.6855L99.4997 17.8613L102.328 17.501L102.533 19.114L99.7052 19.4743L99.9982 21.7736L103.636 21.3101L103.849 22.9849L98.1524 23.7108L96.9587 14.3417Z" fill="#263238"/>
<path d="M102.621 13.6202L108.462 12.876L108.686 14.6331L106.771 14.8771L107.741 22.489L105.682 22.7514L104.712 15.1395L102.845 15.3773L102.621 13.6202Z" fill="#263238"/>
</svg>
